/* XPM */
static char *aebab0293e094370986c0511a22cc30dEGS17zzxl8NH4sFV[] = {
/* columns rows colors chars-per-pixel */
"64 64 225 2 ",
"   c #010102",
".  c #060608",
"X  c #201F25",
"o  c #26262C",
"O  c #292A2E",
"+  c #26282E",
"@  c #35322E",
"#  c #2C2D34",
"$  c #2E2E3A",
"%  c #272932",
"&  c #302F35",
"*  c #312E3B",
"=  c #2E3135",
"-  c #2E313A",
";  c #313237",
":  c #33333B",
">  c #38363D",
",  c #36393D",
"<  c #393A3E",
"1  c #3D3834",
"2  c #342C29",
"3  c #42372B",
"4  c #473A37",
"5  c #412E28",
"6  c #49433D",
"7  c #52413F",
"8  c #353541",
"9  c #363A42",
"0  c #3C3C44",
"q  c #3E3E49",
"w  c #373745",
"e  c #403F46",
"r  c #413E4A",
"t  c #483F40",
"y  c #633F41",
"u  c #3E4146",
"i  c #3D414A",
"p  c #34454F",
"a  c #424146",
"s  c #43434B",
"d  c #46484E",
"f  c #49494E",
"g  c #4A4646",
"h  c #574C47",
"j  c #5C554D",
"k  c #454553",
"l  c #484753",
"z  c #4C4C54",
"x  c #4E4E5A",
"c  c #474954",
"v  c #4F5055",
"b  c #4D515A",
"n  c #515156",
"m  c #52535B",
"M  c #5B595C",
"N  c #57565A",
"B  c #534E54",
"V  c #675A58",
"C  c #6A594D",
"Z  c #6E6757",
"A  c #555562",
"S  c #585766",
"D  c #565965",
"F  c #5A5B65",
"G  c #575A69",
"H  c #5C5D6A",
"J  c #58556A",
"K  c #5D5F72",
"L  c #605F69",
"P  c #6E566F",
"I  c #5E616C",
"U  c #5F6365",
"Y  c #5F6370",
"T  c #626267",
"R  c #62636C",
"E  c #68676B",
"W  c #756A65",
"Q  c #7C7564",
"!  c #7B746B",
"~  c #74706F",
"^  c #646471",
"/  c #656A74",
"(  c #6B6C74",
")  c #6D6E79",
"_  c #676B79",
"`  c #706F79",
"'  c #6D7177",
"]  c #6D727B",
"[  c #67717A",
"{  c #727276",
"}  c #72737C",
"|  c #757A7D",
" . c #797B7E",
".. c #7A7674",
"X. c #9A485E",
"o. c #857A68",
"O. c #867E71",
"+. c #826E65",
"@. c #B27479",
"#. c #FA505B",
"$. c #FE4B63",
"%. c #FF4061",
"&. c #FA5664",
"*. c #DB766D",
"=. c #DC7C70",
"-. c #E86C68",
";. c #F56364",
":. c #F6686A",
">. c #E6736B",
",. c #FA7A77",
"<. c #FB6F72",
"1. c #7E807F",
"2. c #8E855C",
"3. c #878379",
"4. c #938978",
"5. c #9C9275",
"6. c #8E876C",
"7. c #A79979",
"8. c #B49E7B",
"9. c #BA967B",
"0. c #ADA47E",
"q. c #ADA87D",
"w. c #B5A47D",
"e. c #BAA47D",
"r. c #B5A97D",
"t. c #BBAA7E",
"y. c #B3A376",
"u. c #CA8975",
"i. c #D48874",
"p. c #C39C7D",
"a. c #C9947A",
"s. c #FA867A",
"d. c #EA826D",
"f. c #C1A27F",
"g. c #6E7581",
"h. c #6F7B84",
"j. c #747582",
"k. c #737D85",
"l. c #7B7C83",
"z. c #757E89",
"x. c #7C7E89",
"c. c #777F92",
"v. c #817F89",
"b. c #758186",
"n. c #7C8186",
"m. c #76818A",
"M. c #7A838B",
"N. c #7D888E",
"B. c #798885",
"V. c #7B8491",
"C. c #818286",
"Z. c #84858C",
"A. c #85898E",
"S. c #8A8A8D",
"D. c #8A8887",
"F. c #989689",
"G. c #848B93",
"H. c #8A8C93",
"J. c #8A8A96",
"K. c #8C9196",
"L. c #8E9299",
"P. c #879096",
"I. c #929396",
"U. c #94959C",
"Y. c #95999D",
"T. c #999A9E",
"R. c #979B92",
"E. c #8D908B",
"W. c #A79B84",
"Q. c #BC9E83",
"!. c #A9A485",
"~. c #B5A582",
"^. c #BAA582",
"/. c #B5AA83",
"(. c #BBAA83",
"). c #BBA68A",
"_. c #BCAB8A",
"`. c #B3A78E",
"'. c #B4B186",
"]. c #BEB287",
"[. c #A8A994",
"{. c #B7AD94",
"}. c #BCB398",
"|. c #ABB68B",
" X c #969AA1",
".X c #9B9CA3",
"XX c #9B9CA7",
"oX c #A09FA4",
"OX c #9DA1A6",
"+X c #9EA3A9",
"@X c #A1A2A6",
"#X c #A2A4AB",
"$X c #A5A8AE",
"%X c #A8A9AE",
"&X c #A6A7B0",
"*X c #A7AAB1",
"=X c #A9ABB2",
"-X c #C69B81",
";X c #FB9285",
":X c #C3A483",
">X c #C1AC85",
",X c #C1AB8A",
"<X c #C1A78A",
"1X c #C6B58B",
"2X c #C3AF94",
"3X c #CEBC93",
"4X c #C4BA9D",
"5X c #CDBE9A",
"6X c #C6B493",
"7X c #D1BD97",
"8X c #F9B697",
"9X c #F2A587",
"0X c #C5BCA1",
"qX c #D4BDA4",
"wX c #CDC19C",
"eX c #CCC697",
"rX c #D3C39C",
"tX c #D6C79B",
"yX c #FDC498",
"uX c #CEC2A2",
"iX c #D2C3A2",
"pX c #DACAA5",
"aX c #DDD0A3",
"sX c #FBDAA8",
"dX c #F2CFA8",
/* pixels */
"                        .                   .                                     .                                             ",
"& x m n  .( , x x m N x m m m m m T Z.f ; m x m m m m x m N A.N ; x m x x m m x m N D.E & c x n m x x m m v Z.( : f m N x s O O ",
"w A F H H.A., x ^ H G F L H H H H ) XXF : F S H F H H H H ( .X/ 8 A G H H S H H G R OX| : A H H G H H H G R  XH.$ m H H G F c # ",
"D G Y ^ G.H.w A A H H H G H H D F / XXA : D H H G G G G H ) XXR 8 A G H Y G H D K ^ Y.' ; A H G H H G G D / U.M.8 A H G H )  X9 ",
"H H H H H.A.- A I I G H G D H H F ( $Xm - I H F F H H F H R =XU 8 A H D F H I F G R #X| ; m H G F F H H H H #XZ.: x F D D { =X, ",
"F F H I K.A.; z A ( ( ] ] ) ] ] { | Z.z : x R ( { ' ' ( ( ( A.F $ z R ] ] ( ( ( ( } n.R 9 k H ] ] ' ' ( ( ' A.{ ; x H H F | @X< ",
"H D H R H.Z.9 9 N  X=X#X+X*X*X+X$XH.x : # 0 l.@X#XOX#X=X*XU.z : = s } XX$X#X@X$X=XU.n , $ w { .X#X$X@X$X$X.Xx , # m F H F } .X0 ",
"H H H H H.A.9 $ : n f x n z z n z l ; # # ; s n z z n l x x ; = # # s x z v z x x d , : $ $ s v f v z x x x ; ; ; A F G H ) %X< ",
"S ^ ^ R A.n.; ; ; ; ; , ; ; , # - ; ; , : - : = - - + 0 * $ 8 8 8 $ 8 $ : : , $ ; * 8 * * ; ; , ; ; # , ; ; $ : ; x H R R |  X, ",
"s H.@X.XT 9 # m G F F H F H A 8 c F F M F H H H H s > E ! ! ! Q Q ! ~ L F H m = u F H F F F F F H c $ m F F F x # , R  X.XZ.a O ",
": f n z 0 # ; s k k c l k A A $ q c d s z c k k F M Z W.`.).~.~./.~.W.! M N A 8 , l s d z s c l A c # s k k F x # ; 0 N N s ; o ",
"9 , s , l s # w q 0 q q q A A : 9 0 0 q i 9 g V 4.7.!._.e.^.^.^.^.^.(.r.5.O.E * , 0 9 q 0 9 q q F x # 0 0 s F x # $ q 0 9 0 n # ",
"S S m H A.Z.9 , 0 0 9 0 s m m ; : 0 r q < g Q 5._.(.w.t.t.(._._.).(.(.t.(._.`.Z e 9 q i 9 9 0 q F s # 0 0 q m x $ A A A A ( U., ",
"H K ^ R J.A.; ; # ; ; ; ; , 9 # = ; * * 6 Q 0.w._.^.w.w.t.e.w.w.r.w.~.~.~.^.>X7.W t # $ : : ; : q : $ ; # : w 0 8 c H L H } &X0 ",
"F H ( / A.l., # # : # # : : , 8 , , ; g Q 7.(.w.~.^.^.w.w.w.e.t.t.w.~.~.(.w.w.w.W.W 4 # ; % # ; $ ; # # # ; ; % # x H ( / ( U.= ",
"d S..X@XE < # 9 9 0 $ 8 A H A A D D T 4.{.(.w.,Xt.r.e.(.,X^.Q.:X^.(.(.y.t.(.(.).t.~.Q g 9 $ , 9 9 0 0 0 0 < 0 9 # 0 E .XOXH.a # ",
", 0 m z , ; O 0 0 0 ; : s s s s i l V ~.(.~.~.(.(.^.(.^./.p.a.>X(.(.r.w.(.(.(.(._.(.7.j q - - q 0 0 s 9 0 0 0 9 # # 0 l m s ; O ",
": w ; , s q # 9 0 9 # * 0 0 0 0 i a 4.(.(.w.).(.:X/.(.^._.:X(.(./.:Xe.w.>X(.^.>X~.t./.O.a = : w 0 0 0 9 e e e 9 # : 8 8 w 0 0 # ",
"G G H R J.Z., 9 0 0 ; ; 0 0 0 0 q j !.~.^.w.(.w.^./.(.^.(./.'.:X(./.^.w.(.(.^.(.(.t.(.W.h O : 9 0 0 s 0 0 9 9 , $ m F H A } &X0 ",
"H L F R L.H.8 ; ; : # # ; ; ; ; 0 O.r.w.(.w.r.(.w.r.(.e.a.q.r.p.^.!.(.e.~./.^.q.^.w.e.~.o.@ & : # ; ; : , ; : : $ x H H H { #X; ",
"F F R R A.A., # # ; # # ; # $ # : 5.y.y.~.8.w.w.e.0.8.u.-.^.w.w.^.9.u.^.r.r.(.w.w.^.e.w.4.1 # $ , ; + # # # # # 8 x F R R | OX0 ",
"s H.$X.XE : # 0 9 0 0 0 0 0 9 ; V W.>Xe.(.(.(.(.(.w.i.:.#.(.(.e.p.d.-.^.(.^.(.p.(.6X6X1X`...F H N l ; 9 0 0 0 > O 9 R U.@XZ.0 O ",
": z M N s ; # 9 0 e 0 0 0 0 w ; 6.~._.e.e._.(.t.(.w.>.;X;.p.a.a.i.;X:.f.(./.(.:Xr._.,X>X_.3.x s l 0 # , 0 0 0 9 # : s F F m ; + ",
"< , 8 9 w 0 $ q 0 0 0 0 0 0 0 ; 2.).).>Xe.(.~.(.:X/.>.8X,.>.>.i.-.8Xd.p.w.'./.0.r.).<Xe._.O.0 u 0 9 # 0 0 9 0 9 # ; 8 8 , w s # ",
"F G A F A.x.; 9 0 0 0 s 0 9 9 ; 6./.e._.~.r.].^./.e.>.yXyXd.;.*.d.sX8X*./.'.^.^.e.t.^.(.(.4.e , 0 , # 9 0 0 0 > $ m A F F ( .X: ",
"F H F H H.A.9 : ; : ; , , ; , ; o.~.(.w.^.w.w.~.e.~.=.9XsXsX8X<.8XsX9Xi.w.^.w.y.e.w.(.^.w.+.* - ; # # ; , ; , ; : x F H H { $X0 ",
"F R ( / A.Z.; # * ; # # ; ; ; , o.~.t.8.^.w.w.^.e./.Q.i.9XsX8X<.s.8X>.9.~.:X/.~.w.w.w.e./.o.$ = * # # ; ; # ; # , x F ) ^ { T.# ",
"s H.@X X( , & 0 9 0 ; # 9 9 9 0 O.~.(.(.^.w.(.^.e.].~.-X;.<.:.&.#.,.>.8./.:X~.(.^.(.w.t.~.W , 9 9 9 9 9 9 9 0 , # 0 / U..XA.f ; ",
", l N m e , # 0 0 0 # # 0 0 0 s j W.w.(.^.w.(.(.|.Q.(.f.;.$.&.s.:.&.u.(.(.:X/.(.^._.(.r.7.g ; 0 0 0 0 0 0 0 0 8 # ; s A N x : o ",
": : : , 9 9 # , 0 0 # # 0 0 0 0 4 F.(.^.^.w.e._.<X^.e.q.a.$.,.s.&.&.8.~.(./.(.(.t.~.(.r.4.& ; 0 0 0 0 0 0 0 0 , # # , $ , , 0 O ",
"H m H L Z.Z.9 0 0 0 ; ; 0 0 0 0 s 3._.(._.w.w.(.^.e.'.:X-X:.$.#.%.*.^.8.(./.^.^.(.).(./.! 8 , 9 0 0 0 0 0 0 0 9 ; x H H H ( .X, ",
"F R A H I.A., ; , , # # , , ; ; 8 6 5./.(.w.(.^.(.^.0.:Xr.a.&.$.&.6.8.e.e.w.(.w.y.).8.7.4 * # , , ; ; , : ; , ; : m F G H | @X< ",
"H G I H I.A., % # # # # # ; # # : = Z !.8.>X8./.e.^.r.r.~.9.@.X.P y 7.~.0.r.w.~.8.^.0.C = - # - - # % - $ # # # : m H H F } $X, ",
"q H.#X XF > # m ^ j.M.M.b.k.k.M.U.T...{.rX3XrXrXwX5X5X0X{.4.T c * h }.rX7XtXaX<X1X6X}.E.j.z.z.x.k.M.M.k.( I s 9 # 8 R +X&XA.a # ",
", N R E d ; $ H [ k.M.m.z.z.m.M.I..XR E.0XrXrX5XeXeXrXrXiX[.U p ; F.uX3XrXpXtX6X1X`.R.Z.z.V.M.M.m.M.M.M.M.M.s , # ; d R T m 0 o ",
": - , # 9 : % [ m.M.m.k.b.m.m.m.Y.U._ | F.4X5X5XwXrXrX3XrX2X+.V j {.wXuX4XpXaX].{.R.Z.z.m.k.m.z.m.m.j.b.J.OXm 9 # # , - , = < o ",
"S H A H Z.v.9 ^ k.M.m.z.m.m.z.m.U.U.I [ l.R.0XwXqXqXiXrXpX}.W V 4 _.tXwXaX5X6X).D.Z.k.m.m.b.M.m.m.M.m.M.J.+Xx , : x A A m ) U.0 ",
"J H H F H.A., [ k.M.M.M.M.m.M.M.U. XR g.z.b.E.!.4XuX5X3XrX6XW V 4 {.3X3XpX4XF.C.j.z.z.m.b.| b.k.k.b.m.b.G.OXx < $ m ^ G F j.@X, ",
"H H / ^ H.l., / m.m.k.k.m.m.z.m.U.U.^ ] m.m.| A.4.[.4XiXpX2XZ 7 4 {.iX4XW.R.B.m.z.M.b.b.b.b.m.m.M.m.k.k.J.OXm < : c F ) R ( .X< ",
"a S.T.OXE s - / k.m.m.m.m.m.m.m.R. X^ g.m.b.m.z.V.A.D.[.0X`.C 7 3 !.[.E.G.k.z.z.m.b.b.b.z.c.m.k.M.k.m.M.H.XXn : # 0 I  XXXH.f # ",
", A L T s = = / m.m.z.z.z.m.m.M.U.U.^ j.M.k.M.k.b.b.b.N.Y.I.{ N : l.V.z.M.k.m.z.k.m.z.m.k.M.m.m.m.z.M.z.G.@Xl 0 # ; z H H m 9 + ",
"$ 8 : , 9 , % ] M.M.M.M.M.M.M.M.Y..XT ) k.M.b.M.A.M.M.M.L.H.{ S : H m.m.m.k.M.k.M.M.m.M.z.k.k.m.M.k.k.b.H.OXm , ; & ; : 8 9 , # ",
"D A H A x.Z.; H.@X@X@X@X@X@X@X@X@XI.f C.#X+X$X$X@X@X=X#XXXx.H w X q j.m.k.k.M.b.m.k.k.m.M.m.M.M.b.M.m.M.P.OXx , # x N F A / U.< ",
"I F F ^ H.A.9 / Z.Z.Z.Z.Z.Z.Z.Z. .T f T } Z.n.C.Z.v.Z.M.Z.j.L 9 # A M.m.m.b.k.z.M.m.M.k.M.b.m.k.A.Y.L.K.Y.#Xc 0 : m R A F { %X< ",
"D I F H H.H.; F H H H H H H H H z s , 0 k D H F H I I A F L E j B l.z.k.m.M.k.m.M.M.M.k.k.k.M.G.*X$X@X$X*X@Xm , : x F R H | #X, ",
"k J.$X@XR , # / z.z.z.z.z.z.z.z.L.I.l ) z.j.M.z.k.k.m.b.I.D.W 4 n l.g.m.b.k.M.M.z.k.m.b.b.M.P.XXR H I F x 0 9 9 # w ( .X#XA.a O ",
", F ( ^ z , % ( m.m.m.m.m.m.m.m.Y.U.A / k.M.j.M.M.m.k.k.H...V 4 6  .M.N.m.j.M.m.M.M.b.b.M.P.H.A.] ^ / ( [ / s > % ; l { ( F < # ",
"; ; # : = ; $ / b.b.b.b.b.b.m.M.U.U.R ] m.b.N.k.z.z.m.M.H.T h 5 @ { M.h.m.m.M.z.k.M.k.k.G. XA.T k.m.M.k.J.#Xc 0 # ; # ; # : , + ",
"D A S A Z. .: ( z.k.b.m.m.h.M.M.Y.XXR ] M.k.k.z.b.m.b.M.Z.V 7 2 m k.M.k.m.b.k.k.b.M.M.z.M.XXA.I k.m.z.M.G.+Xx 9 - x A D A ( Y., ",
"H S H R I.A., ( m.M.k.k.M.M.k.M.U. XR ] M.m.b.M.b.z.M.M.S.V h 3 R k.m.k.m.M.M.M.k.z.m.M.N.+XA.R k.k.m.M.J.+Xx , ; x H H H ) $X0 ",
"F R ^ ^ Z.l.9 / m.M.M.M.j.M.k.m.Y. XR ] m.m.z.z.b.k.k.b.S.W g 2 / b.M.m.b.k.b.z.M.m.z.z.M..XZ.R z.k.z.k.J.OXx 0 ; m F R R {  X; ",
"s A..XI.( s - _ b.k.U. XI ] k.M.U. X^ ] m.M.m.M.k.k.M.M.S...g 4 [ k.m.m.m.k.m.m.k.b.m.M.M.OXA.R m.m.M.k.H.#Xz > # > E U..XA.m # ",
"< R { ( d = - / M.k.Y.@XF / g.k.U.U.^ } k.h.k.M.M.m.m.m.L.I.z F M.M.z.k.m.m.m.z.M.M.m.z.M..Xl.m g.m.m.M.A.XXx 0 $ 0 f E ( F 9 % ",
"; # : , : 9 # / j.A.Y.XXF H Y b.T.U.R j.M.M.M.M.M.m.m.M.L.L.z I ] M.M.b.M.M.M.M.M.M.M.M.A.OX .l j.x.M.A.K. Xn , # # : 9 , , 0 + ",
"D x A H l.| , A ( .X$XOXR F ^ .X+X X/ H.OX+XOXXXOX#X#XXXA.R w b ] U.OXOXOXOXOX#XOX.X+X#XOX#X{ e H x.XXXXA./ i 9 $ x A m m R U.< ",
"G K G H H.Z.< s N l. .} b x A l.l.| x ) l.l.l.x.3. .l.l.E f e c b | C.l.l.l. .l.1. .l.n.| n.F e z F x.l.' z 0 w , x H G H } OX, ",
"H H H H L.Z., w s 0 s e 0 s s s 0 s e 0 a s e 0 0 s s q q e 0 0 0 0 s 0 s s 0 s s 0 s 0 a 0 q q 0 a e s 0 > e 9 $ A H A I ] OX0 ",
"H H G H L.A.9 # # # ; # # # # # ; o # # = # + , ; # # # $ , + = ; # # # ; # # # # # = # = # # ; # # # # # ; # # , m A R D ] $X: ",
"D H H R K.Z., 8 s s 9 w s 0 8 s 0 s F 0 # 0 s 0 0 0 q q 0 s m s # 0 0 0 u 0 0 s 9 s N s % 0 9 w w q q q w s A x ; x F F F | #X< ",
"H S H H H.S., A A I H H H H H H F (  XN 8 A H F I H H H H / #XR - A H H H F H D I R XX} - H H F I F H H H I +XM.; m H H R ( @X< ",
"H H I I L.H.8 x ^ G D H F F R D H ( #Xm - F G H D G H G H / #XH 8 A H F H H I H D R XXj.# m F H F D H H H H OXM.- A G H F ) =X, ",
"z ) ] { Z.' w k A } } } l.} } j.{ l.x.l ; c ( ) j.j.j.] } l.x.F : c R } j.} } } } l.x.R , l H j.| | | ( {  .l.{ : k H } { x.l., ",
": l.@XY.U ; O 0 z U.#XU..XT.T..X.XZ.z : # ,  .T..XT. X.X.XS.z = # a { I..X.X.XoX.XS.n : o 0 ( U.T.T..X.X.XH.n : = : E T..X| ; O ",
"      .                                                                                                   .       .             "
};
