/* XPM */
static char *_925bf83bfde4d76b2e64448988151e10pRCn7GUPlLYMxQc[] = {
/* columns rows colors chars-per-pixel */
"64 64 223 2 ",
"   c #010101",
".  c #161519",
"X  c #1B1A1E",
"o  c #161519",
"O  c #39271D",
"+  c #1F1E21",
"@  c #1C1E2B",
"#  c #201F24",
"$  c #222225",
"%  c #25252B",
"&  c #2A2B2E",
"*  c #382C2A",
"=  c #36312C",
"-  c #2D2D35",
";  c #2E2E39",
":  c #262835",
">  c #312F3B",
",  c #312F35",
"<  c #2E3135",
"1  c #2E333A",
"2  c #313236",
"3  c #33333B",
"4  c #38363C",
"5  c #37393D",
"6  c #3A3A3D",
"7  c #3C3534",
"8  c #453A38",
"9  c #44322E",
"0  c #4F443A",
"q  c #53443E",
"w  c #292F41",
"e  c #363642",
"r  c #383743",
"t  c #373A43",
"y  c #3C3C44",
"u  c #3D3E49",
"i  c #383848",
"p  c #312C40",
"a  c #403F45",
"s  c #423D4B",
"d  c #403850",
"f  c #3E4045",
"g  c #3D414D",
"h  c #414145",
"j  c #4B4443",
"k  c #43434C",
"l  c #45494E",
"z  c #4A4A4D",
"x  c #4A4C46",
"c  c #524C49",
"v  c #564B45",
"b  c #4D5649",
"n  c #56514B",
"m  c #59554C",
"M  c #464651",
"N  c #4A4654",
"B  c #464951",
"V  c #4A4B54",
"C  c #4E4E5A",
"Z  c #4C475B",
"A  c #554F59",
"S  c #4E5055",
"D  c #4E525B",
"F  c #505156",
"G  c #5A5554",
"H  c #53545C",
"J  c #57585D",
"K  c #59585C",
"L  c #645C53",
"P  c #695C55",
"I  c #635556",
"U  c #614F4B",
"Y  c #66625A",
"T  c #6A6558",
"R  c #72675D",
"E  c #4C5262",
"W  c #555562",
"Q  c #585764",
"!  c #565965",
"~  c #5A5A65",
"^  c #565568",
"/  c #575A6A",
"(  c #5B5D6A",
")  c #555368",
"_  c #615E6D",
"`  c #635E61",
"'  c #5D6067",
"]  c #5E616D",
"[  c #5F6271",
"{  c #62636D",
"}  c #6A6669",
"|  c #6A6568",
" . c #766966",
".. c #79756C",
"X. c #636571",
"o. c #656A74",
"O. c #6B6C74",
"+. c #6D6E79",
"@. c #646579",
"#. c #6D737C",
"$. c #6D7378",
"%. c #727375",
"&. c #73747C",
"*. c #757A7D",
"=. c #797B7E",
"-. c #787777",
";. c #6F6C6E",
":. c #8A7A6D",
">. c #897D70",
",. c #F24F5E",
"<. c #FD4E63",
"1. c #EF5A63",
"2. c #FD5B69",
"3. c #F55B64",
"4. c #D97A6E",
"5. c #D97773",
"6. c #E86A68",
"7. c #F9686A",
"8. c #EB7471",
"9. c #7D837F",
"0. c #88826D",
"q. c #898776",
"w. c #968B76",
"e. c #9C937A",
"r. c #9D9675",
"t. c #928362",
"y. c #AE9E7C",
"u. c #A6967A",
"i. c #B39E7B",
"p. c #BD9E7C",
"a. c #B19D77",
"s. c #A18E76",
"d. c #ACA37A",
"f. c #ABA87A",
"g. c #B3A276",
"h. c #B4A47D",
"j. c #BBA47D",
"k. c #B4A97D",
"l. c #BBAA7E",
"z. c #B5A777",
"x. c #CA8B75",
"c. c #D38B7B",
"v. c #D98676",
"b. c #C5957B",
"n. c #C39B7D",
"m. c #C79678",
"M. c #D5927F",
"N. c #F1877A",
"B. c #C1A67F",
"V. c #6E7781",
"C. c #6F7982",
"Z. c #6F7F8E",
"A. c #717781",
"S. c #737D85",
"D. c #7B7D84",
"F. c #757F88",
"G. c #787E89",
"H. c #646F81",
"J. c #6E838A",
"K. c #768086",
"L. c #7B8186",
"P. c #76818A",
"I. c #7A838B",
"U. c #7C8492",
"Y. c #768292",
"T. c #828286",
"R. c #83858B",
"E. c #858A8E",
"W. c #898A8E",
"Q. c #8A8785",
"!. c #858A92",
"~. c #8B8C93",
"^. c #8A8C96",
"/. c #8D9094",
"(. c #8E939A",
"). c #879296",
"_. c #909196",
"`. c #94959C",
"'. c #95999E",
"]. c #98999E",
"[. c #969487",
"{. c #A59B84",
"}. c #A89885",
"|. c #B09F83",
" X c #AFAD83",
".X c #ACA38A",
"XX c #B5A582",
"oX c #BBA582",
"OX c #B4AA82",
"+X c #BBAA84",
"@X c #BAAC89",
"#X c #B6A88A",
"$X c #B7B289",
"%X c #AEA993",
"&X c #B2AC8F",
"*X c #959AA2",
"=X c #999AA1",
"-X c #9A9CA1",
";X c #9E9EA5",
":X c #9C9DA4",
">X c #999BA5",
",X c #9DA1A6",
"<X c #9EA3AA",
"1X c #A1A2A7",
"2X c #A2A5AB",
"3X c #A5A9AE",
"4X c #A8ABAF",
"5X c #A4AAB1",
"6X c #A8A9B1",
"7X c #B8B9BE",
"8X c #C89C82",
"9X c #D18882",
"0X c #FE8A82",
"qX c #FE9788",
"wX c #E39080",
"eX c #C2A484",
"rX c #C1AA85",
"tX c #C3A688",
"yX c #C6A789",
"uX c #C6BC9D",
"iX c #C2AA90",
"pX c #FCAF90",
"aX c #FFCF9F",
/* pixels */
"~ O.I.I._.7XO.C B B k M V k k B M V -.%.% r V M k V B B B k =.L.% y l V B k M V M l O.=.& 6 M M z l M V l l ~ &.3 3 M M C k % + ",
"t B ! ~ O.].V y ! / ! / ( ( ] ! ( { ].~.3 V ( _ ( W ( ! ! ( -X3X: V ~ ( ! X.( ! ( ! ~.;Xy V ( _ ( ( / ! ( ] S.-Xl M ( ( ( Q F 4 ",
"W ! ( ( O.;XV u / ( [ ( ! Q ( ( / ! ;X~.3 V / ! ] ! [ ( / ! :X3X; M ( ( / ( ! ( ( / ^.;X3 k ! / / ( ( ( ( ( &.:Xk u ! ! ! X.-XD.",
"! ( ( ! O.;Xl u ! ( ! / ] ( ( ! ( { -X~.; V ( ( / ( ! ( / ~ :X3X; V X./ ! / ( / ! ( ~.;Xy V ( / ( ( / / ! ( &.-Xk k ( ] ( ! 1X*.",
"H ( ( ( O.;Xl y H O.O.X.O.O.O.+.O.O.R.T.2 l ! O.X.&.+.+.O.O.R._.- k H +.$.O.$.O.O.O.R.W.4 y Q O.+.+.&.$.o.O.L.E.y k W ! ( ! 3X*.",
"! ( ( / +.-XV 3 k D.;X;X;X-X-X;X`.].H 5 - y V ;X;X-X-X-X1X].H y & 5 z -X1X-X`.-X].].{ h 2 4 l -X-X`.`.;X;X-X-.y : k ! ( ( ~ 1X=.",
"W ( / ( %._.V 3 3 V H F F H J S Q F 4 2 - ; y V H F F F F F 3 3 - 3 - F D J H H Q V y 2 & - 3 H H H H F S H z 3 3 l ! / ! ~ ;XD.",
"D ] +.&.&.R.k ; y 3 y y 3 y y - - y y 3 y r y y 3 3 - 3 y r u y y y y y t r t 3 - r y 3 y y 3 u y 3 - 3 y y r r 3 y W +.&.O./.{ ",
"k ~ 2X1X~.l 3 y ! W ! ! W ! ! 3 = H / / ! Q W ^ ^ N < S  .| o.;. .} W ! W D ! g ; F ! Q Q ^ / H ! W ; u H Q ! H 3 3 k _.1X-XV 3 ",
": y V F l - - y k M V M M H ( y - l k g k V V M / A c ..|.#X$Xh.#X}. .` S l ( s ; k k M M k M k C W : r l M C W - - 3 V l V 3 - ",
"r r 3 3 k y 3 - u y u y y V W 3 ; k a y a y y h R :.u.@XrXj.k.l.f.@XoXs.R G ~ M 1 t y f f y y y V ( - 3 y y V ( 3 3 ; y y 3 y 6 ",
"D ! W ! { _.V 3 y y y y k V W y : y y y k y h R $X@XoXoXoXtXtXiX+Xl.+Xl.h.}.-.g - t f f y y y y M Q - 3 y y M W 3 k ! ( W Q 3X;.",
"Q ! ( ( %.;Xl - < 3 3 - - 3 y - - 3 3 ; ; 6 Y r.XXh.@XoXh.j.h.XX8XoXd.k.k.y.w.n - - 3 1 < < 3 ; r r : : 3 3 3 y - k W / ( ! ;X-.",
"C { X.{ +.~.V : 2 3 - : 3 3 r 3 1 - r 3 y Y r.j.8Xh.k.h.h.k.g.g.oXXXoXn.n.+Xd.t.n 4 - ; 1 - : ; 3 : 3 - 2 - - ; 3 y ( ( O.O._.-.",
"k { 2X2X`.y - 3 y y 3 3 C ~ ~ ! ' ! _ ~ ..{.tXm.4.j.k.oX+XOX@X@Xk.OXyX5.5.8Xk.@Xw.m y u y 3 2 u y y h f y y y y : 3 y -X2X6Xk - ",
"2 l ~ ~ F 3 , 3 y k 3 - l C M V N Z N x q.@Xb.x.6.8X$XtXtXoXoXoXB.$Xn.4.6.x.oX@X.XT h a y < - y y k 6 y y y y y 3 - 3 J ~ ~ 4 - ",
"3 - 3 3 3 3 - 4 y y 3 - y y y y y u y T y.OXh.B.p.j.+X@XOXj.m.m.h.@XoXi.b.8X XOXXXe.v u y 4 - a y y y y y y y y 3 3 - r ; - y - ",
"W ( ( { { >XV 3 y y y 3 y y y y y y z :.XXl.h.j.rX@XyXoXp.8.7.6.v.k.OXj.OX@XeXoXk.y.R k u 2 - y y y 3 y y y y y - l { Q ( ( ;X-.",
"W ! W ! +.;XV - - 3 3 : 3 - 3 3 2 3 G u.j.h.XXj.j.k.XXh.v.7.0XqX7.v.p.h.k.XXoXh.l.XXq.j 3 - - ; ; 3 3 3 3 3 2 3 - k W ( ! ~ 1XD.",
"H ! &.O.&.~.y - - 3 3 - 3 - - - : < L XXg.h.OXoXj.f.h.h.x.6.0XpX2.7.b.h.p.h.XXk.g.h.e.z r 3 3 r r y - - - - - - - k Q X.O.O.~.O.",
"k ~ :X;X_.y 4 4 y y y y y y y 3 : 5 P oXl.OX@X@XOXOXp.+XoXv.6.N.7.4.j.+X+XOX+Xj.j.@X.X} W W H W ! F 3 3 y y y y 3 3 k `.;X-XS 3 ",
"3 l O.O.H 6 - 2 y y y y a y y , - f Y XXB.@X#XOXXX+Xh.oX@XrXx.v.v.p.OX@X+XOXoXoXoX@X{.` Z C C C V V - 3 y y y 6 : - y Q O.O.y & ",
"3 3 3 3 y y 3 4 y y y y y y y - - y Y XX+X@X#Xj.+X+Xh.OXh.tX+XoXOX+X+XOXoXoXOXOXoX+Xe.n y y y y y k : 3 k y y y 3 3 ; 3 3 3 a 3 ",
"H ! W W { _.l 3 y y k y y y y - ; y Y #XoXXX@XB.oXoXh.@Xc.c.oX8.n.+XeXoXrX@X XeXh.+Xr.c y y y y y k % 3 y y y y - u W H H H `.%.",
"Q _ W ( O.-XV - 3 3 - - - 3 - - & 3 G {.j.j.XXOXoXXXf.m.4.5.6.<.2.a.oXf.p.OXd.eXg.d.q.0 e p 3 2 3 3 - - - - - - - k W { ^ ! 3X-.",
"C ! O.O.&.~.k < - 3 - : - - , - : 3 , T h.g.h.XXXXk.h.x.1.,.2.<.,.c.a.h.h.oXj.j.j.u.v & ; ; : - - - - - - - - - : y ~ ! O.{ `.%.",
"f { 1X;X~.k 2 2 y y y - y y y y s y 6 Y {.h.l.oXk.l.OXc.1.<.7.7.2.1.eXoX@XoXOX XXXw.x k y 3 - y y y y y y y y y - 3 l `.1X6Xh 6 ",
"2 V %.-.{ y - 3 y y y : y y y y i y y h ..k.g.rX+XeXeXc.6.8.pXaX0X1.eXh.oXtXk.+X.XL h y 5 2 - y y y y y y y y y ; - y { O.O.k - ",
"3 - : : 3 % ; 3 y y y : y y y y u y h 4 G e.h.tXOXj.+XyXM.N.qXpXqXM.eXk.a.rX@XoXw.j k i y 5 - g y y y y y y y y 3 - 3 : 2 - : % ",
"Q ! { ! X.;XV ; y y y - y y y y f 2 a k 6 m w.XX@XoXk. XXXb.M.v.9X:.eXj.h.@X#X0.c y u u y 2 % u y y y y y y y y : k ~ ! W Q 6X-.",
"W ^ ( ! &.>XV - 3 3 3 - 3 3 3 3 3 3 > 3 3 & m e.i.tXtXoXu.0...;. .b u.a.OX|.:.j 3 3 < 3 r 3 : 3 3 3 3 3 3 3 3 3 2 y ^ ( _ ( -XD.",
"W { { { %._.k - 3 3 3 3 3 3 3 3 < r p 3 3 i 3 n s.d.d. X.XQ._ d 6 :..XOXu.:.x 1 > - 3 3 3 e 3 3 3 3 3 3 3 3 - - & k ( _ @.X.;X%.",
"y { ;X1XE.k 3 y W o.A.A.V.C.C.C.#.=X' ! C.C.V.C.9.Q.%XuXuX}.R I U #XuX%Xq.I.>X{ u H o.V.A.#.#.A.#.#.C.V.#.~ V y - 3 z W.;X,XV 3 ",
"y F R.D.&.3 1 k o.A.P.F.F.P.F.F.L.1XO.X.P.P.P.P.I.S.Q.[.%X{. .U 0 [.q.T.I.!.,X-.V ] A.F.F.F.P.P.P.P.I.F.F.S.' y - 3 3 D.T.T.6 4 ",
"3 3 3 3 3 y - V A.P.P.P.P.P.P.P.K.1Xo.] P.P.F.P.Y.F.P.L.T.Q. .P 8 -.*.I.I.!.].-.( A.I.P.F.P.P.F.F.P.P.P.I.*XD.y 2 - 3 ; 3 3 y 2 ",
"W Q H H ' ~.B V F.P.F.F.P.P.S.S.K.2Xo.] P.P.F.P.P.P.P.P.D.W.| v 8 &.J.J.)._.$.[ [ A.I.F.S.P.P.P.F.P.F.P.I.<XL.6 2 y W H ^ ! ~.O.",
"W ( _ { X.,Xl B F.P.P.F.P.P.P.P.L.2XO.X.P.P.F.P.K.K.S.P.G.R.I 9 * %.P.J.E.~.o.H.#.S.F.F.P.P.P.P.P.P.F.I.P.,XD.6 - l ( ( ! ! 2XD.",
"! ! _ { O._.k V S.P.P.P.P.P.F.P.K.1XO.{ F.P.S.P.G.I.I.I.S.T.Y 0 = O.I.Y.S.F.I.I.P.P.P.P.P.F.S.F.F.F.F.I.P.-XD.f < k H { { X.].O.",
"y { 1X].E.V 3 V S.P.P.F.P.P.F.F.L.2XO.X.P.P.F.P.I.F.F.F.P./.%.G 6 $.F.F.I.P.S.K.F.F.F.P.P.P.P.I.P.I.P.P.I.-XD.6 - 3 l `.;X`.Q 6 ",
"5 H =.T.&.3 - B S.P.P.F.P.P.P.F.L.1XO.{ F.P.F.P.K.K.P.I.P.U.@.Z w E S.L.*.P.I.F.P.P.P.F.P.F.F.P.F.I.F.A.I.,XL.5 3 3 y O.R.D.y - ",
"- - 4 - 3 3 - V S.K.L.L.L.L.L.L.I.,XO.' L.K.L.L.P.P.F.P.Y.V.E e @ g C.S.P.K.P.P.S.P.P.S.F.P.P.P.P.P.I.F.I.,XD.y < - 3 - 4 2 2 & ",
"Q ( ! ! O._.V H ,X2X2X2X2X2X2X2X,X2XH F <X3X2X2X5X2X3X6X<X!.Q 4 3 ! I.F.P.K.P.P.P.I.S.S.I.P.S.I.S.P.S.K.I.-XD.y 3 k W ! Q Q ;X*.",
"^ ( ( ! &.;Xl V I.R.R.R.I.R.R.R.R.O.N l &.L.I.E.R.I.D.T.T.>.| v F &.I.F.P.F.F.F.S.I.I.I.F.S.P.S.E.'.).(.`.,XD.y - k ! ! ! ( 3X%.",
"Q _ ! ! O.`.l k ! ( ( ( ( ( ( ( ~ k k k g V ' ! ( ( ' ~ |  .P 8 G =.F.P.P.P.F.P.P.F.P.P.F.K.I.P.~.1X3X3X3X2XD.y 3 l ~ { { H 1XD.",
"h ~ ;X-X_.V 3 V A.A.S.S.S.S.S.A.&.`.V k A.#.V.P.A.S.P.S.-...P 9 j %.A.P.P.P.F.P.P.P.S.S.I.F.D.,X~.O.{ { { H M y : y k ~.`.2XV f ",
"2 K W.W.%.3 3 V F.P.P.P.P.P.P.P.P.5XW D F.P.S.S.P.F.Z.F.%.T v * 7 %.P.P.P.P.P.P.S.F.I.P.F.I.!.`.I.] { { X.! V u 4 4 y D.~.R.h - ",
"3 - 2 - 5 3 3 C S.P.P.P.P.P.P.P.F.,X$.{ P.I.P.I.P.P.P.F.%.L 8 * V *.I.P.K.K.F.P.I.S.S.K.S.*X,X{ o.F.U.G.I.>XD.y - - - 3 3 3 3 2 ",
"C Q H Q ~ ~.l V S.F.P.P.P.P.P.P.I.2XO.] I.S.I.F.S.P.P.S...P q 7 O.P.F.K.I.F.S.P.S.I.S.P.K.'.3XQ o.F.A.I.P.,XL.6 - y W W C H =X{ ",
"W ( ( ( O.*XB B F.P.K.P.I.F.I.P.K.5XO.{ S.P.P.P.F.P.P.D.%.| q O $.S.P.F.F.P.P.P.K.K.P.P.F.(.6X! o.P.S.P.P.,XT.6 1 u Q ( ( ! 4X-.",
"! W { { &.(.B B C.I.S.P.F.F.F.S.K.<XO.o.F.F.P.P.P.P.P.G.-.K 8 * o.S.P.P.P.I.P.S.P.S.P.P.F.*X2X( o.F.I.I.I.*XL.a 3 l ( ( { { `.&.",
"k { -X`.T.H 3 V S.I.E.`.#.#.S.I.I.<Xo.o.P.S.I.P.P.P.P.P.S.-XF 8 F.I.I.F.F.S.F.P.P.F.P.P.I.*X<X~ X.P.P.F.I.,XT.4 - 3 V E.`.`.~ h ",
"3 F D.D.O.3 3 V F.S.!.3Xo.X.+.F.L.5XO.{ P.F.P.F.P.F.P.P.I.,XV f F.S.S.P.I.P.K.I.P.P.F.P.F.*X2XF X.F.K.P.P.:XD.k 3 3 4 =.T.D.y 3 ",
"3 3 y 3 3 3 - V A.P.~.3XO.( ] S.L.1Xo.( I.P.K.L.P.L.D.D.D.6Xl y I.I.F.F.F.F.K.P.P.I.S.L.S.`.1Xy ! S.!.*.I.,XD.3 , - , 3 3 3 3 : ",
"C D W ! { ~.k y o.`.1X2X+.( ( (.,X3XO.+.,X<X:X1X,X,X-X1X1X{ l h ] I.,X1X,X<X<X,X,X1X].1X,X3X2Xh V { ;X<X-XO.H k - k H H Q ~ ~.O.",
"/ ] ( ( o.1XV y D D.W.T.~ H H D.E.D.Q ( R.!.E.W.E.W.R.W.T.K a y D $.~.W.R.R.E.E.R.W.R.~.W.R.D.f k H E.~.R.K l y - l ! X.^ ! 1X=.",
"W ( / ! &.*XV 3 g y h l y s y k h k a y g f h a y f f y l y y u y k f y h h h a a h a y k u l y y y k y y k y y 1 k / / ( ( 4X%.",
"! / ( ! +.;Xk 2 ; 3 ; - 3 3 ; ; , 3 3 - - - 3 ; : 3 ; ; 3 - 2 2 3 - - 3 3 - 3 1 ; 3 1 - 2 - ; ; - 3 - - 3 3 - 2 - k ! [ ] H 2X-.",
"W ] Q ! O.;XV - y r r y r r r r y 3 V l ; 3 3 y y 3 y y 3 r k V - y y r r y 3 r y 3 k V 3 3 u r 3 y y 3 3 y k z < M ! W ( { 1X=.",
"W ( Q X.+.-XV k ! ! ( ! W ( { ! ! ( >X~.< V ] ! ! ! Q { ( ' :X6X- M ( ! ( X.! ( ( ( ^.*Xy g ! ( ( ! ( ] ( ( *.:Xk k ! ] / ! ,X*.",
"! ( ( ! X.,XV y / Q / ] ( ! ! ( ( ' `.(.3 V ! ( ] ! ( ( ( ( *X2X; V ] ! ( Q ! ( ( ! !.:Xt V ( ! / ( ( ! W ( D.].y B ! ! ( ] 2X=.",
"V ! o.$.$._.l y ! X.X.{ O.O.X.X.' %.~.I.1 k ~ X.X.#.X.X.o.{ _.-X- M ! O.o.O.#.{ o.o.E._.3 k H o.X.X.X.O.o.o.S.~.k y ! { O.o.~.O.",
"- H 1X`.~.y - 2 y L.2X;X-X,X;X1X1X_.S 3 - 6 F `.;X`.;X1X;X].V 4 - 3 k -X;X-X-X1X;X;X' y : 4 k ].,X1X;X`.;X;X-.y - 4 y /.-X;X3 % ",
"o % 4 6 - X X . + 2 5 4 6 5 4 6 5 5 $ X . X $ 6 2 6 5 y 4 6 + + o + X y 5 f 6 2 6 4 $ # . . X 5 2 4 6 6 6 4 & . X o $ < 6 y . o ",
"                                                                                                                                "
};
