/* XPM */
static char *_03cf637c3e6476db977387b6a76ee4a3x9Zq4PHBcFnwp0k[] = {
/* columns rows colors chars-per-pixel */
"64 64 227 2 ",
"   c #010102",
".  c #18171C",
"X  c #1A1A1D",
"o  c #161618",
"O  c #0F0F11",
"+  c #1D1C21",
"@  c #242426",
"#  c #25252B",
"$  c #27282D",
"%  c #2A2B2E",
"&  c #39332E",
"*  c #2D2D34",
"=  c #2E2D39",
"-  c #272834",
";  c #312F35",
":  c #312E3C",
">  c #2E3135",
",  c #2E313A",
"<  c #323235",
"1  c #33333B",
"2  c #37383C",
"3  c #3A3A3D",
"4  c #3B3736",
"5  c #3A2926",
"6  c #483B37",
"7  c #422F28",
"8  c #4A423B",
"9  c #54433D",
"0  c #353541",
"q  c #363941",
"w  c #3C3C44",
"e  c #3E3E49",
"r  c #3A3643",
"t  c #2E3049",
"y  c #423E44",
"u  c #403E4A",
"i  c #433B52",
"p  c #3E4045",
"a  c #3E414B",
"s  c #3F4551",
"d  c #414146",
"f  c #43434B",
"g  c #4A4A4E",
"h  c #4A4749",
"j  c #524E4A",
"k  c #584B4A",
"l  c #5B544A",
"z  c #454651",
"x  c #464953",
"c  c #4A4B53",
"v  c #4D4D59",
"b  c #494657",
"n  c #4F5156",
"m  c #4F5259",
"M  c #515256",
"N  c #5B5653",
"B  c #53535C",
"V  c #5A595F",
"C  c #59585B",
"Z  c #514E57",
"A  c #665A59",
"S  c #6A565A",
"D  c #6A655B",
"F  c #6A6559",
"G  c #746E5E",
"H  c #75705C",
"J  c #555662",
"K  c #585765",
"L  c #565965",
"P  c #5A5B65",
"I  c #565969",
"U  c #5C5C6A",
"Y  c #58576B",
"T  c #5D5D70",
"R  c #4A5066",
"E  c #605F6E",
"W  c #695C6E",
"Q  c #5E616C",
"!  c #5D6067",
"~  c #636265",
"^  c #62636D",
"/  c #6A6C6D",
"(  c #68666B",
")  c #766E67",
"_  c #7C7769",
"`  c #646571",
"'  c #656973",
"]  c #6A6C74",
"[  c #6C6E79",
"{  c #666D7A",
"}  c #716E79",
"|  c #6E7174",
" . c #6D717B",
".. c #727275",
"X. c #72737B",
"o. c #757A7E",
"O. c #797B7E",
"+. c #797678",
"@. c #877B69",
"#. c #857E74",
"$. c #A56B67",
"%. c #FB4B57",
"&. c #FE535B",
"*. c #FC4B67",
"=. c #ED5A6A",
"-. c #FF5B6A",
";. c #FD5663",
":. c #E45276",
">. c #DB7A6D",
",. c #D97971",
"<. c #CF7C6E",
"1. c #E86769",
"2. c #FF636E",
"3. c #F9696B",
"4. c #FA6870",
"5. c #FE7478",
"6. c #EA776D",
"7. c #8A8479",
"8. c #958B75",
"9. c #9E9179",
"0. c #8F856B",
"q. c #A5977A",
"w. c #B49D7D",
"e. c #BD9D7C",
"r. c #B79A78",
"t. c #AEA37C",
"y. c #ABA87B",
"u. c #B4A376",
"i. c #B4A37C",
"p. c #BAA47C",
"a. c #B5A97D",
"s. c #BAAA7D",
"d. c #B8A175",
"f. c #D4826E",
"g. c #C88A77",
"h. c #D48273",
"j. c #D68976",
"k. c #C7967A",
"l. c #EA8272",
"z. c #FC8673",
"x. c #C3A17C",
"c. c #6F7B83",
"v. c #6B7282",
"b. c #747D85",
"n. c #7A7D84",
"m. c #757E89",
"M. c #767B86",
"N. c #767F90",
"B. c #758186",
"V. c #7B8186",
"C. c #76818A",
"Z. c #7A838B",
"A. c #7F888D",
"S. c #7B8591",
"D. c #788491",
"F. c #828285",
"G. c #83848B",
"H. c #84888D",
"J. c #898A8D",
"K. c #898C85",
"L. c #8E9088",
"P. c #9D9786",
"I. c #868791",
"U. c #838B92",
"Y. c #8B8D94",
"T. c #8B8F99",
"R. c #8D939A",
"E. c #8C9195",
"W. c #909296",
"Q. c #93949B",
"!. c #97989D",
"~. c #999A9E",
"^. c #9C9C95",
"/. c #A89D84",
"(. c #BB9E80",
"). c #ADA284",
"_. c #ADA18B",
"`. c #B4A582",
"'. c #BBA582",
"]. c #B4AA82",
"[. c #BCAA83",
"{. c #B6A689",
"}. c #BCAA89",
"|. c #B8A88A",
" X c #BBB088",
".X c #B5AE9A",
"XX c #BDB898",
"oX c #AAAA98",
"OX c #969AA1",
"+X c #9B9DA3",
"@X c #9C9EA8",
"#X c #9595A1",
"$X c #9EA1A6",
"%X c #9EA3A9",
"&X c #A1A1A6",
"*X c #A3A4AB",
"=X c #A6A9AE",
"-X c #A8A9AE",
";X c #B8B6A3",
":X c #A6AAB2",
">X c #AAACB3",
",X c #A5A7B0",
"<X c #B7BBBE",
"1X c #C29F81",
"2X c #F89B85",
"3X c #FF8C83",
"4X c #C2A582",
"5X c #C1AA85",
"6X c #C5A787",
"7X c #C6B58B",
"8X c #CCBC9A",
"9X c #C7BC97",
"0X c #D0BF94",
"qX c #FBAA8B",
"wX c #FEAA93",
"eX c #FFB89E",
"rX c #CABCA3",
"tX c #CEC29C",
"yX c #D2C39C",
"uX c #D2C196",
"iX c #FDD297",
"pX c #CBC4A4",
"aX c #D3C4A3",
"sX c #D6CAA7",
"dX c #DFD3A9",
"fX c #FED9A8",
"gX c #FCE6A7",
/* pixels */
"P ] G.G.Q.<X( f z c f z x c z c z c ..+.# w z z c f x x z c / O.@ w f c z z f x z z ^ F.@ 2 f x z x x x c z P F.# < x z x f $ X ",
"q f L P | +Xg 2 U U U U P U U P U P W.Q.< x P ^ U U U P P U Y.+X= x U U U Q U J U U G.*X* f P P P U P P P U n.*X< f U ^ U J n < ",
"J J U U X.$Xf q U K P U I P U P T U #X+X< v P U K P U Y U L Q.*X1 x P U U K P U U P G.>X$ x U U U U T U P P n.:X2 e J U L ^ Q.| ",
"U U U U X.$Xw q P P U Q U P U P P U W.Q.1 v U U U U U P U U Y.%X* x U U P U ^ U U U G.,X* z P U U I L P L U n.=X; e U Q P ` +X] ",
"J P U L  .&Xw w P ] ] ' [  .] ' [ ..G.G.< f ~ ( ' ]  . .] X.V.Y.< z J [ ' ] ] ] ] ] G.Y.< w J [ [  . .] ] [ n.Y.= e U L L ` @X+.",
"U U U L X.*Xf = f G.-X=X*X*X*X>X*X*XP 3 * 2 V &X-X*X*X*X=X$X^ 3 * 2 B +X=X>X%X:X*X-X] w * < g +X*X*X&X*X>X&X+.f = f E P U ` Q...",
"P U U P n.$Xf * < g M g n B v c B c 2 2 = = q g c M B v M M w < = < < c c B m v M c w < * = q c c M M c c B f < * e P U U ` ~...",
"J U ` ^ o.W.p = 1 < < < 1 < = ; = < < = : 0 < < < < = = 2 = < < 1 < < 2 = > 1 , = = 2 1 1 1 < < < * = < < ; 1 1 * f J ` Q ^ !./ ",
"q P $X&Xn.q = q U P L U P P U 0 e K P P P Y P L P J : v P U I Y U Y I L L U U i q J U K Y P U L P P 1 f K U K U = < f E.+X~.v = ",
"= f v C c < = = z z x x f x P 0 , c x f x x f x J B = y j C C N l N c x z v J w < f c c x z z x B J 1 w f c v U = * < C C c 2 # ",
"q w 2 q f f 2 2 f e f e w c P q % p e a p 3 f w B V l F 0./.`.`.}.q.) A h f J s > 3 w w p w w e v B q q q w x U < < w 1 w < C < ",
"J J P P [ Q.w = q q q w q z C q < 3 e e q 2 w w ) 8./.`.].s.p.[.'.'.'.}.8.G ~ e < w w q w w w e x v q 2 q e c J % w J U K U Y.] ",
"J P U U ] >Xf > 1 < 2 < < < e = = ; 2 * q 2 < D {.`.'.r.p.[.'.'.].].d.s.].`.7.4 * 1 0 , , < < < q w = = < 2 q w > f U P U ` +X] ",
"C P [ X.n.G.w * > = * * < 2 w 1 0 r 2 2 q ; l q.u.p.[.p.p.i.`.{.u.a.'.i.i.}.`.@.3 ; = = > % % = = 1 < < = = < < * w K ^ [ [ Y.] ",
"w U @X+XG.f < < w w 2 2 v C K J K J B U C F q.7X[.[.p.[.[.[.'.'.[.].[.'.i.'.].'._ j w w w 1 = w w w w w w q w w < < f +X&XQ.B < ",
"< w M c f < = = q f 2 * u z z z g e v c D ).].p.].[.'.[.[.[.[.s.}.'.].i.a.[.[.}. X_ h w w 1 = w w q w w w w f w = = < g M c 1 $ ",
"1 2 2 q q w 2 = w w 2 ; q w w w e w 4 G q.'.i.].].5X'.'.5X4X'.[.[.[.a.p.i.].'.[.'.'.@.h w q % w w w w w w w w w * < q q q 2 w < ",
"J P P U X.@Xf < w w 2 < q w w w e w j 8.`.p.i.].5X].5Xj.r.i.5X4X].[.].i.].'.6X].}.p.q.N e , > q f w w w w w w q < e P U K ] W...",
"J P P P n.@Xw = < 2 < = ; < 1 < 0 * F /.'.u.i.'.].i.h.=.g.].k.f.].'.g.<.'.'.[.'.'.p.|.@.< 1 * 0 = < 1 2 < < < < * e U P P ` Q.X.",
"J U ^ ~ X.@Xf < = = = * = = = * = < H t.i.p.i.'.i.'.2.2.>.e.f.l.k.j.;.3.h.e.].a.i.].a.9.& < - = 1 1 = = = * = ; = q ^ U ^ ` ~./ ",
"2 ~ @X&XG.3 < * w w w w w w q < 1 j 8.'.p.[.].[.4Xe.4.5.1.j.qX2X,.1.-.5.1.g.[.u.'.7X7X}.@.C U U P v q 2 w w w w = 2 q W.&XQ.c < ",
"< d U ~ c 1 2 * w w w w w w q = < D ).[.s.[.].[.5Xp.<.6.6.wXfXqX>.j.3.2.6.1X'.'.i.[.[.}.8.g v z v z = < w w w q * = < C U P w @ ",
"q 1 1 < q 3 < < w w w w w f w < * D `.[.].[.].[.].[.e.>.2XfXgXiX2Xk.f.1.j.[.i.[.i.[.'.[.8.y e w q w = 2 f w w w * 2 1 1 2 2 w * ",
"v J P P [ Q.u = w q w w q w q = > F /.[.[.[.[.s.5Xi.y.f.2XfXgXiXeXl.x.k.p.6X[.a.i.'.5X[.8.y w w w w = < w q w q = w J K P U Y.] ",
"J ^ L U X.*Xf = 2 < 2 < 2 < 2 < , l `.p.'.{.'.s.|.(.`.,.-.3XqXz.z.3.k.].p.i.'.{.i.w.[.i.0.3 0 1 2 < = = < 2 2 1 * a U P U P *X/ ",
"K J ] ] X.I.w = = = = * = = = = * l `.d.'.i.i.i.a.d.a.g.1.*.-.5.wX2.,.`.p.p.i.'.i.7Xu.].@.* = * < = = = = < < ; = w B ' ] [ I.] ",
"w ~ OX+XV.c 2 = w q 2 = q q w q w D ).s.p.[.p.s.[.'.].'.g.1.4.wX2X;.1.w.'.[.a.a.}.[.p.'.#.q , w w q q q q q w q = < c I.&X~.P > ",
"< f U U m , = = w w 2 = q w w w w h @.].[.i.w.].4X'.[.5X6X>.&.3.;.%.1.(.|.'.[.4X`.s.[.q.N 1 - 3 w w w w w w w w = = 2 V K V 2 * ",
"= w = 1 q q < = w w 2 * q w w w u 3 ) ). Xu.[.[.[.].s.x.4Xk.1.;.%.>.k.e.'.'.}.].[.5Xi.P.d 0 * w w w w w w q q w ; ; 1 2 < 2 w * ",
"J C P L ] Q.w 2 w w q < w w w w e d A /.`.p.p.'.].'.[.[.].'.,.*.4.e.].p.'.'.[.a.}.i.)._ d 1 = q w w w y w w w w * w P P K ~ Y./ ",
"J P P P X.%Xp * < < < = < < 2 < < = 3 7.{.].r.[.|.'.`.`.`.g.=.*.:.$.w.a.].'.'.p.u.'./.h = > < : 2 < 1 1 1 1 1 1 * e U P P ` @X..",
"K U U U X.$Xf * = * = * = * = = = = * 6 q.r.[.i.p.u.i.'._.#.S M S 8 8.t.a.e.t.s.p.w.l * = > % : = = * * = = = = * w U U I ^ +X| ",
"q ^ &X-XG.w < q Q  .Z.Z.b.m.C.C.H.=X[ U J.;XpX0XtXtXtXaXrX7.L R t 6 `.yX8XtXdX9X|._ ] Z.C.B.Z.m.C.B.C.Z.M.Q c e = < d ~.*X+Xn = ",
"q f [ ] U > = q  .b.Z.Z.m.C.C.C.H.,XX.E M.L..XaXaXaX0X0XyX9X+.b 3 P.8X8XaXtXdX7X_ /  .m.C.B.Z.C.b.Z.m.b.Z.Z.' w = = q P [ ^ d $ ",
"= * 2 = < 2 = f b.m.C.C.C.C.C.C.U.*X[ ` M.b.L..X9XyXuXuX0XrX@.A l q.uXsX9XsXsX9.^ M.D.m.C.B.b.C.b.Z.b.b.A.@Xn.w = * = 1 < < 2 # ",
"J P J K ] W.f w Z.C.b.m.C.C.C.C.U.,X[ Q Z.C.B.J.XX9XtXyXaXrX@.D 9 q.9XtXaXpX7./ ^ m.D.c.b.B.C.Z.C.Z.m.Z.V.%Xn.d * f P P J U J...",
"B U K U X.*Xw q C.m.b.C.C.C.C.C.H.:X..! C.C.b.n.F.^.;XXX9XrX@.S 6 /.XXXXoX^.X.{ { c.C.B.B.Z.C.m.Z.C.m.A.Z.$Xo.d * w ^ K U ^ &X/ ",
"J U ` ~ n.Y.w f C.C.C.C.C.C.C.C.A.*X..! b.C.C.Z.m.m.H.K.oX;X) 9 & #.L.H.n.B.b.m.b.B.C.Z.C.m.C.Z.C.C.b.Z.n.%XO.p < w J ` ` ` W.] ",
"w ~ @X+XF.B * w C.C.C.C.C.C.C.m.U.%X[ ^ m.Z.C.B.S.D.m.m.J.^.D l 6 ~ B.m.N.Z.B.C.b.B.B.b.b.m.C.Z.C.C.m.b.Z.*Xn.p < = x W.@XW.U < ",
"2 f / [ V > < w C.C.C.C.m.C.C.b.U.*X[ ^ m.Z.C.b.b.C.c.B.A.&X} W r ^ b.C.Z.o.B.C.m.S.C.b.Z.Z.b.B.B.B.C.b.A.%Xo.d = = w P ] ] q = ",
"1 1 1 2 2 2 < p Z.Z.Z.Z.Z.Z.Z.Z.U.%XX.! V.Z.A.A.Z.V.B.B.Y.T.v.R 0 x b.Z.B.b.C.m.b.Z.C.b.m.C.C.b.b.Z.C.b.A.$Xn.d * < = 2 q 1 3 % ",
"v B J J ] W.f f $X$X$X$X$X$X$X$X%X:XK c *X%X%X&X&X*X*X%X$XY.^ w # a  .m.b.b.Z.Z.C.b.b.Z.C.b.C.Z.b.Z.C.b.A.$Xo.d < w B J B U G.^ ",
"P U U P n.@Xe f J.J.J.J.J.J.J.J.G.o.Z f n.G.V.I.G.I.I.I.I.G.] h 3 U m.Z.Z.b.C.C.C.b.C.Z.C.Z.m.M.H.R.R.Y.E.=Xn.f * f P U U ^ +XX.",
"J P U P X.*Xf q U U U U U U U U C f y w e B ^ U U ^ ^ U P ( ~ k j ..Z.m.Z.m.Z.C.C.C.Z.b.m.C.B.A.E.@X:X*X$X=Xn.e < w ` K U ^ @X[ ",
"w ^ &X*XI.w 1 w m.m.m.m.m.m.m.m.G.%XK c b.b.M.b.n.b.M.m.J.J.) 8 8 ..b.m.Z.b.Z.C.C.C.C.C.B.b.A.+XI.! U ` U f w f * < w Q.*X+Xc < ",
"< c o.O.P 2 < w C.C.C.C.C.C.C.C.U.%X! c Z.C.U.b.Z.C.Z.Z.V.+.A 6 & / b.Z.Z.m.m.m.m.Z.b.b.Z.U.Y.I.n.] ' Q ^ ( K e < > w [ o...f * ",
"< = < = < * = f B.B.B.B.B.B.B.B.U.%Xn.! m.m.C.b.m.m.C.Z.V.) k 5 4 ] b.C.C.Z.m.C.b.C.b.B.Z.R.OX]  .M.Z.m.H.$Xo.q * = = = > * * # ",
"B B B C ] W.w w C.C.C.C.C.C.C.C.H.:X] ^ Z.C.Z.Z.Z.C.C.B.V.) k 6 C n.Z.B.b.B.b.C.C.m.C.Z.b.R.&X^ ' m.m.Z.B.%Xn.f = w J B B U G.^ ",
"J U U K X.&Xw f m.Z.b.b.Z.Z.m.C.H.*X[ U m.Z.b.C.Z.Z.c.B.G...l 7 L n.n.b.Z.b.m.C.b.C.C.m.B.R.%X^ ' b.b.C.A.+Xn.d * f P ^ U U &X| ",
"C K ` ` n.Q.f w C.B.b.A.b.c.C.b.H.*XX.^ b.C.C.C.m.C.S.C.n...h 5 P b.Z.b.Z.C.Z.C.Z.C.C.b.B.R.+X' { Z.Z.b.A.%XV.y < w U P [ ] Q.] ",
"f ^ OX#Xn.B < f C.Z.U.OXc.` m.Z.U.*X[ Q M.m.C.b.Z.b.Z.m.U.&X~ y  .A.C.m.C.b.C.M.C.C.C.b.C.R.+X^ ` Z.C.C.Z.%XO.w = q c I.Q.!.K 2 ",
"2 B v.n.] 2 < w m.C.Y.+X[ U [ b.H.:XX.Q m.b.C.Z.C.Z.Z.C.Z.:X^ f C.C.b.m.C.m.Z.Z.b.B.C.Z.C.R.%XU Q Z.b.Z.Z.*Xn.f = = q X.n.O.d * ",
"= 2 1 1 2 < = u M.Z.E.@X] U U n.H.*X[ U S.Z.Z.G.A.Z.b.Z.U.$X~ w b.Z.A.A.Z.b.Z.b.Z.A.Z.A.B.R.$Xf L n.Z.Z.A.+Xo.f = = 2 = 2 < w # ",
"c v B v ^ G.w q [ U.&X*X] U P R.%X:XX.] OX%X+X+X+X+X*X$XQ.| n p ` A.+X$X+X%X*X%X+X$XOX%X+X&X&Xf c ' Q.OXOXn.K w = w v B v K n.P ",
"C U ^ U X.&Xf 1 J X.G.G.K v B n.H.G.U K n.G.G.G.J.G.H.V.n.B f w J  .G.G.F.H.H.V.G.G.G.G.G.V.n.f f C n.J.H.B f w * w U E U U +X..",
"J U K U X.+Xf < e f d f f f w a f f f f f p f d a f f f f w e e w f f d f f p f f f f d f f f w u u f d f d w w = e U Y Y ` +X] ",
"J K U U X.&Xf * = < = = = = = = < = * % 1 * < = < = = < * < * < = 1 * = = = = = * = < % = = = 1 = = = = = = = = * f P U P ~ +X..",
"P P P L o.$Xw = w w w w w e e w 2 w v g * 2 q w q w w w q q c g * 2 q q w q w w e q c B $ 2 e r q w w w q w f v = e P L U ^ +X/ ",
"B U U U n.$Xf w U K I P K P U L U P Q.OX> x U P L U P L U P R.$X1 x L L P J U P L L G.$X* f U U P L P P J U n.%X< e U P U ^ +X] ",
"J Q L U  .$Xf 2 U U Q ^ U P U U P U Y.OX, v P U P P K P U P Y.@X- x ! Q U U U P U P I.:X* f U U ^ U U U P U n.*X1 q P Q U ^ OX| ",
"v P ] X.o.J.f 1 L ' ' ^ ] [ ] ] ]  .G.I., f U [ [ [ [ [ ' ] V.Y., f B ] ' ] ] ] ] ] n.Y.> a L ] ` ] [  .[ ] n.Y.= w U ` ] [ J.~ ",
"* C @X@Xo.f % = f F.*X&X&X&X+X*X@X!.C 2 $ q K W.$X+X+X*X*X+X^ 2 $ 2 B W.$X-X&X*X+X-X] w $ < f Q.*X&X@X@X*X+X..f * 2 2 Q.$XW.p # ",
"o + < 2 * o . . . < < * < 2 < * < 3 @ + . . + < < < < ; % 2 @ . + . . < < < * < < % @ . . + + * % < 2 * ; < $ . . + + @ 2 * X O ",
"                                                                                                                                "
};
