/* XPM */
static char *_b1f5a54b166495df06bd3f752387803QiCoeYnN4nqNsSSR[] = {
/* columns rows colors chars-per-pixel */
"64 64 227 2 ",
"   c #010102",
".  c #060608",
"X  c #26262C",
"o  c #292A2E",
"O  c #24292C",
"+  c #272B32",
"@  c #2C2D34",
"#  c #2D2E39",
"$  c #282731",
"%  c #302F36",
"&  c #322F3D",
"*  c #2E3036",
"=  c #2E313A",
"-  c #323236",
";  c #33333B",
":  c #39363D",
">  c #36383D",
",  c #393A3E",
"<  c #3B3A34",
"1  c #3A2C29",
"2  c #433D3B",
"3  c #473B38",
"4  c #513C37",
"5  c #48453B",
"6  c #52443B",
"7  c #353541",
"8  c #363943",
"9  c #3C3C44",
"0  c #3E3E49",
"q  c #383540",
"w  c #282A43",
"e  c #403F46",
"r  c #413E4B",
"t  c #3F4145",
"y  c #3F4650",
"u  c #424145",
"i  c #4C4442",
"p  c #43424B",
"a  c #46494D",
"s  c #49494E",
"d  c #4A4949",
"f  c #544948",
"g  c #454551",
"h  c #484653",
"j  c #464953",
"k  c #4C4C54",
"l  c #4D4E5A",
"z  c #4A475A",
"x  c #564E51",
"c  c #4F5055",
"v  c #4B505A",
"b  c #515256",
"n  c #52525B",
"m  c #56585D",
"M  c #5C5657",
"N  c #5A544D",
"B  c #63554D",
"V  c #655C5A",
"C  c #665B54",
"Z  c #634D4F",
"A  c #6D635D",
"S  c #686158",
"D  c #74695B",
"F  c #79715E",
"G  c #555562",
"H  c #585766",
"J  c #565965",
"K  c #5A5B65",
"L  c #575A69",
"P  c #5C5D6A",
"I  c #58556A",
"U  c #5D5F72",
"Y  c #4A4E60",
"T  c #615F6D",
"R  c #615E65",
"E  c #605F71",
"W  c #5E6165",
"Q  c #5E616C",
"!  c #5F6472",
"~  c #616264",
"^  c #62636C",
"/  c #65696E",
"(  c #696669",
")  c #766C66",
"_  c #777366",
"`  c #646471",
"'  c #656A73",
"]  c #6B6C74",
"[  c #6C6E79",
"{  c #656C79",
"}  c #6D7176",
"|  c #6E727B",
" . c #727376",
".. c #72737C",
"X. c #75797C",
"o. c #7A7B7E",
"O. c #7B7672",
"+. c #716F74",
"@. c #83795E",
"#. c #877F77",
"$. c #847567",
"%. c #FA4A5C",
"&. c #FA5B5F",
"*. c #E9645F",
"=. c #FF4B66",
"-. c #FA5765",
";. c #EB5F62",
":. c #D87B6C",
">. c #D77671",
",. c #E86D6C",
"<. c #F76368",
"1. c #E5746D",
"2. c #FA6974",
"3. c #E27771",
"4. c #F87D76",
"5. c #F26E6E",
"6. c #7E807F",
"7. c #8C826E",
"8. c #88857A",
"9. c #958B73",
"0. c #9D9175",
"q. c #928E6A",
"w. c #A69A7A",
"e. c #B89D79",
"r. c #A28974",
"t. c #AFA57C",
"y. c #ACAB7B",
"u. c #A7A57C",
"i. c #B5A47C",
"p. c #BAA37D",
"a. c #B5A97E",
"s. c #BAAA7D",
"d. c #B3A574",
"f. c #D88675",
"g. c #C29A7B",
"h. c #C59478",
"j. c #D4927C",
"k. c #D08872",
"l. c #F98879",
"z. c #F38A7B",
"x. c #6C7580",
"c. c #6F7B83",
"v. c #657082",
"b. c #747581",
"n. c #737D85",
"m. c #7A7D83",
"M. c #757F89",
"N. c #7C7F89",
"B. c #727F90",
"V. c #817F88",
"C. c #758186",
"Z. c #7C8186",
"A. c #76818A",
"S. c #7A838B",
"D. c #7F888F",
"F. c #7B8492",
"G. c #758191",
"H. c #848385",
"J. c #84858C",
"K. c #85898E",
"L. c #898A8D",
"P. c #888A87",
"I. c #968F83",
"U. c #9C9284",
"Y. c #9A938B",
"T. c #848C93",
"R. c #8A8C93",
"E. c #8B8B97",
"W. c #8C9196",
"Q. c #8D939A",
"!. c #879095",
"~. c #919396",
"^. c #94969C",
"/. c #95999D",
"(. c #999A9F",
"). c #AB9E85",
"_. c #A69983",
"`. c #BB9F81",
"'. c #9FA193",
"]. c #ACA383",
"[. c #ADA984",
"{. c #B5A482",
"}. c #BBA682",
"|. c #B5AA82",
" X c #BBAA83",
".X c #BBA589",
"XX c #BDAC8A",
"oX c #B5A78A",
"OX c #ADB282",
"+X c #B7B186",
"@X c #AAA796",
"#X c #B3A794",
"$X c #BAB29C",
"%X c #969AA1",
"&X c #9B9DA3",
"*X c #999AA5",
"=X c #9DA1A6",
"-X c #9EA2A9",
";X c #A1A2A5",
":X c #A2A4AB",
">X c #A5A8AE",
",X c #AAAAAA",
"<X c #B6B3A2",
"1X c #A6A7B0",
"2X c #A7AAB1",
"3X c #AAABB3",
"4X c #B0ACA3",
"5X c #C99982",
"6X c #D58F8C",
"7X c #FD9586",
"8X c #FF9691",
"9X c #C3A483",
"0X c #C1AA84",
"qX c #C0AE8B",
"wX c #C6A689",
"eX c #C6B48B",
"rX c #C8BA98",
"tX c #D1BE97",
"yX c #FAA990",
"uX c #CCC099",
"iX c #D3C39C",
"pX c #D4C397",
"aX c #FCC09C",
"sX c #CCC2A9",
"dX c #D4C3A1",
"fX c #DCD1A4",
"gX c #FDC9A2",
/* pixels */
"                        .                   .                                     .                                             ",
"% l n b o.] > l l n m l n n n n n ~ J.s - n l n n n n n m m K.b ; h m l l n n l n m L.( % h l b n l l n n c J.] ; s n m l p o o ",
"8 G K P E.K.; l ` P L K T P P P P [ &XK ; K H P L P P P P ' &X' q G P P P L P P L ^ =XX.; G P P L P P P L ^ %XR.# n P P L K h @ ",
"J L ! ` T.R.8 G G P P P L P P J K ' &XG ; J P P P L H L P [ *X^ 7 G L P Q L L J U ` /.} - G P L P P L L J ' ^.S.7 G P L P [ %X8 ",
"P P P P R.K.= G Q Q L P P J P P K ] >Xn = Q P K K K P P Q ^ 2XK 7 H P K L P ` L L ^ :XX.- n P L K K P P P P :XJ.; l K J J ..3X> ",
"K K P Q W.K.- k G ' ' | | [ | | ..X.J.k ; l ^ ] ..] | | ] ] K.K # k ^ | | [ } [ [ ..Z.^ 8 p P | | | } [ [ } K. .- l P P K X.;X, ",
"P J P ^ R.J.8 8 m %X2X:X-X2X2X-X>XR.l ; @ 9 m.;X>X=X:X>X:X^.k ; @ p | &X>X;X:X>X2X/.b > # 8 ..&X:X>X;X>X>X&Xl > @ n K P K ..&X9 ",
"P P P P E.K.8 # ; b s l b k k b k h - @ @ - p b k l n h h l - @ @ @ p b k k l l l a > ; # # p c k c k k l l - - - G K L P [ >X: ",
"H ` ` ^ K.Z.- - - - - > - - > @ # q - ; 7 7 = = 7 & O t 4 i d d 5 5 ; ; ; # q # @ # ; ; @ > * ; - - @ > - - # ; - l P ^ ^ X.%X> ",
"p R.;X&X^ 8 @ n L K K P K P G q g G K K K K K m W M N 8.#X#X).oX#XU.O.) ( ~ G 7 9 G P P K K G H P h # n K K K l @ > ^ %X&XJ.u o ",
"; s b k 9 @ - p g g h h g G G # 8 h a a k p k ( 8._.0.].XXqX XXX|.XX{._.7._ ~ * > j g j h g h z G h @ p g g K l @ - 9 m m p - X ",
"8 > p > h p @ 8 0 9 0 0 0 G G ; , 9 8 9 9 2 A U.|.eXp. Xs.|.}. Xs.0X}.XX|.].8.< > 0 8 9 9 8 0 r K l @ 9 9 p K l @ # 0 9 8 9 b @ ",
"H H n P K.J.8 > 9 9 8 9 p n n - > 8 0 0 , S w.|.eXa.e.9X0X X XwXs. Xs. X}.XXoXF 9 8 p 0 8 9 9 9 K p @ 9 9 0 n l # G G G G ] /.> ",
"P E ` ^ E.K.- - @ - - - - > 8 @ * ; # : V 9.i.d.wX|.|.}.t.a.a.y.|.i.i.}.i. XqXw.) 2 % # ; ; - - 0 ; # - @ ; 8 9 q h P T P ..1X9 ",
"K P ] ' K.m.> @ @ ; @ @ - ; > q 7 8 ; B 0.{.i.|..X{.i.[.|.g.g.y.i.{.}.|.i.i.i.i.].D 2 o ; @ + - # - @ @ @ - - $ @ l P ' ' ] /.- ",
"a L.&X;X( , @ 8 8 9 # q G P G G J m O.#XXXs. X.Xy.s.9X|.9X3.,.5Xp.}..Xi.a. Xa. Xs.{._ u 8 # ; 8 8 9 9 9 9 , 9 8 @ 9 ( &X=XR.u @ ",
"> 9 n k > - o 9 9 p - - p p p p j p F s.XX{.a..X0X|.}.9Xf.-.=.5.|.p.y.i. X+X9X XXXs.q.f 0 # ; 9 9 9 p 8 9 9 9 8 @ @ 9 h n p - o ",
"; 8 - > p 0 @ 8 8 9 @ @ 9 9 9 9 9 V ). X}.{.s.}.}.|.|.XX}.3.<.h.9X9X|.}.}.|.}.|.{.s.|.) p = ; 9 9 9 9 8 9 e e 8 @ ; q q 8 9 9 @ ",
"L L P ^ E.K.> 8 9 0 ; - 9 9 9 e : A oX|.}.i.s.}.|. Xs.9X|.}.h.+X X X}.i.{. X|. XqXs.XX$.: @ ; 8 9 9 p 9 9 8 8 > # n K P G ..1X9 ",
"P T K ^ Q.R.q - @ ; @ @ - - - - , D w.i.}.i.i.}.i.a.a.i.e.p.u.5XOX}.i.i.{.|.|.s. Xi.i.9.i % ; - @ - - ; > - ; ; # l P P P ..:X- ",
"K K ^ ^ K.K.> @ @ - @ @ @ @ @ @ i 0.i.}.i.i.s.{.i.i.i.h.,.f.t.{.e.k.e.|.{.a.s.i.e.}.|.].S - # @ > - X @ @ @ @ @ q l K ^ ^ X.=X9 ",
"p R.>X&X/ ; @ 9 8 9 9 9 9 8 8 - x ].s.XXs.s. X}. X}.g.z.2.3.j.e.:.1.e.+X X}.9Xa. XeXqXrX8.m P W m h - 8 9 9 9 : o 8 ^ /.;XJ.9 o ",
"; k m m p - @ 8 9 9 9 p 9 9 8 @ M w.a..XXXs. XXX}.i.k.l.yXf.5.4.z.4.h. X0X X X|.s.qX|..X$.h j a h 9 @ > 9 9 9 8 @ ; p K K n - o ",
", > > 8 8 9 # 8 9 8 9 e 9 9 9 @ x w.0X.X Xs.|..X|.h.*.l.aXz.l.yXgX7Xf.p.}..X|.i.i. XqX|._ e 0 , 9 8 @ 9 9 8 9 8 @ - q q > 8 p @ ",
"K L G K K.m.; 8 9 9 9 9 8 8 8 @ d w.s. XXXt. X}.XXh.;.<.7X4.<.4.yX2.,.p.0X XOX`.|.}.}.|.F 8 r : 9 > @ 8 9 9 9 : # n G K H ' &X; ",
"K P K P R.K.8 ; - > - - ; - ; @ d _.s.s.{. X|.}.{.`.f.;.-.-.%.%.-.;.>.`.i.d.i.9Xt. Xp..XD ; # : - @ @ - > - > - ; l K P P ..>X9 ",
"K ^ ' / K.J.; @ @ - @ @ - - - % u 7.i.s.}.{.i.s.p.p.e.:.=.%.2.-.=.>.5X.X|.i.p.}.i. Xi.0.N @ # @ - @ @ - - @ - @ > l K [ ` ..(.@ ",
"p R.;X%X] > % 9 8 9 - @ 8 8 8 9 e A {.s. Xi.i. XOX9X|.5X<.-.8X7X5.h.`.`.{..X X Xs.s.XX7.< + q ; 8 8 8 8 8 8 9 > @ 9 ' /.&XK.s - ",
"> h m n e > @ 9 9 0 - # 9 9 9 e 9 M ).|.i.i.XX X XwX|.[.k.<.l.l.<.f.p.|.|. X}.a.0X}.oX#.: > > 9 9 9 9 9 9 9 0 q @ - p G m l ; X ",
"; ; ; > 8 8 @ > 9 9 # @ 9 9 9 9 9 f 8.XXi.}.}.s.}. X Xi.j.<.%.&.%.5.h.y.|.0X9X|. X{._.N 9 @ @ 8 9 9 9 9 9 9 9 > @ @ > # > > 9 o ",
"P n P T J.J.8 9 9 9 - - 9 9 9 9 9 e S ].XX}.{.s. X|. X9X5X,.=.=.2.6XwXa.|. X9X X XXX9.u 0 @ , p 9 9 8 9 9 8 9 8 - l P P P ' &X> ",
"K ^ G P ~.K.> - > > @ @ - - > > ; ; 2 @.i.{.{.a.i.|.i.|.q.r.6X$.Z _ w.p.}.{.}.i..X0.5 ; 7 % - % > ; - > ; - > - ; n K L P X.;X, ",
"P L Q P ~.K.> + @ @ @ @ @ @ @ @ @ @ # > _ ].i.e.{.i.a.|.I.+.H Y w 5 w..Xi.d.d.|.U.2 o - = @ + o = @ + = # @ @ @ ; n P P K ..>X> ",
"0 R.:X(.K : @ n ` b.S.S.C.n.n.S.^.^.' [ L.@XrXpXdXpXpXuXrXY.R ; 9 _.iXtXiXfXfXw.M ~ X.n.b.S.S.C.n.S.S.n.[ Q p 8 @ q ^ -X1XJ.u @ ",
"> m ^ ( a - # P | n.S.A.A.M.A.S.^.&X^ [ M.Z.@XuXrXtXtXpXtX_.) V C qXeXiXdXuXsX) J | A.n.A.F.M.A.A.S.S.S.S.S.p > @ - a ^ ^ n 9 X ",
"; = ; @ 8 ; + | A.S.A.n.A.A.A.A.~.^.Q x.M.A.P.'.$XsXuXtXdX).D B 6 oXuXrXrX<X4XT { F.M.C.A.C.c.S.A.A.b.C.T.=Xn 8 @ @ ; = ; * , X ",
"H P G P J.V.8 ` n.S.A.M.A.M.M.A.&X%X' x.C.C.c.S.8.'.@X$XsX).) B f U.@X@X4XP.^ P ! A.M.S.C.S.S.S.A.S.A.S.T.-Xl > ; l G G n [ /.9 ",
"I P P K E.K.> } n.S.S.A.S.A.A.S.^.%XP | C.C.A.G.S.C.m.P.4XI.V i i H.H.Z.W.Z.{ v.b.S.n.n.n.n.S.b.n.C.A.C.T.=Xl , # n ` L K b.;X> ",
"P P ' / R.m.> / A.A.n.n.M.A.M.A./.%X^ | C.n.S.M.c.A.S.n.~.8.V 3 - } M.A.n.n.S.C.n.n.S.S.S.n.A.S.S.A.n.n.T.=Xn , ; h K [ ^ [ &X, ",
"u L.(.=X( p = ' n.A.A.A.A.A.A.S.^.~./ | M.G.S.X.A.c.B.A.Q.8.A f 2 } M.A.S.S.n.A.A.M.A.b.A.A.A.M.S.n.A.S.R.*Xb ; @ 9 Q %X*XR.s @ ",
"> G R ^ p * * ' A.A.M.M.M.A.A.S.Q.%X^ b.S.c.S.n.C.A.A.A.Q.K.X.H 8 Q S.A.n.S.S.M.n.A.S.A.A.S.S.A.A.M.S.M.T.;Xh 9 @ - k P P n 8 X ",
"# q ; > 8 > + | S.S.S.S.S.S.S.S./.(.^ [ n.T.n.S.S.S.S.F.W.Z.` g @ v x.A.A.C.n.S.S.A.M.A.M.n.n.n.S.n.n.C.R.=Xn > - @ - ; q 8 > @ ",
"J G P G m.J.- R.;X;X;X;X;X;X;X;X;X~.a J.:X=X>X>X;X:X>X:X^...G 7 X l | C.S.C.n.S.S.n.M.S.S.S.S.S.C.S.A.S.!.=Xl > @ l m K G ' /., ",
"Q K K ` E.K.8 ' J.J.J.J.J.J.J.J.o.( a ^ X.Z.J.V.H.H.S.J.J.m.^ e 9 ^ n.C.A.S.A.M.M.A.A.C.C.C.C.n.K./.Q.W./.:Xj 9 ; n ^ G K ..>X, ",
"J Q K P R.R.- K P P P P P P P P k p 8 8 y Q P P Q Q L P K ( R x x X.S.C.A.C.A.M.A.S.S.n.c.n.S.T.2X>X;X>X2X;Xn > ; l K ^ P X.:X> ",
"g E.>X;X^ > @ ' M.M.M.M.M.M.M.M.Q.Q.j [ M.n.S.M.A.A.M.S.L.#.A 4 x ..A.A.A.n.C.A.A.M.A.A.C.S.W.*X^ P Q K l 9 8 8 @ 8 ] &X:XK.u o ",
"> K ] / k > + [ A.A.A.A.A.A.A.A.^.%Xn [ M.n.M.A.n.A.S.S.H.) C 4 2 ] n.C.A.n.A.A.A.A.C.n.S.T.R.J.| ` ' [ } ' p : + - h ..] K , @ ",
"- - @ ; * - # ' C.C.C.C.C.C.A.S./.~.^ | C.A.S.n.C.M.S.M.H.S i 1 1 ] S.C.C.C.S.n.M.S.C.n.T.%XK.^ n.A.S.n.T.:Xj 9 @ - @ - @ ; > X ",
"J G H G J.o.; ] M.n.C.A.A.c.S.S./.*X^ | S.n.n.M.A.A.C.S.H.M 6 1 m m.S.n.n.A.n.S.C.S.S.M.S.*XJ.Q n.A.M.S.T.-Xl 8 = l G J G [ /.> ",
"P H P ^ ~.K.; ' A.S.n.n.S.S.n.S.^.%X^ | S.A.C.S.S.A.A.C.H.V N 3 W b.n.S.S.S.n.C.n.M.A.S.D.-XJ.^ n.n.A.S.T.-Xl > - l P T P [ >X9 ",
"K ^ ` ` J.m.8 ' A.S.S.S.b.S.n.A./.%X^ | A.A.M.M.S.n.n.m.H.A i 1 Q M.A.C.n.A.A.M.S.A.M.M.S.&XJ.^ M.n.A.n.T.=Xl 9 - n K ^ ^ ..%X- ",
"p K.&X~.] p = { C.n.^.*XQ | n.S.^.%X` | A.S.A.S.n.n.S.C.L. .u 2 ` n.A.A.n.S.S.M.n.C.A.S.S.=XK.^ A.A.S.C.R.:Xk : @ : ( ^.&XK.n @ ",
", ^ ..] a * = ' S.n./.;XK ' x.n.^./.` ..n.c.n.S.S.A.A.S.Q.~.k K S.S.b.S.S.A.n.S.S.S.A.M.S.&Xm.n x.A.A.S.K.*Xl 9 # 9 s / ] K 8 $ ",
"- @ ; > ; 8 @ ' b.K./.*XK P ! C.(./.^ b.S.S.S.S.S.S.A.S.W.W.k Q b.S.M.S.C.C.C.S.S.S.S.S.K.=Xo.h b.M.S.T.W.%Xb > @ @ ; 8 > > 9 X ",
"J l G P m.X.> G ] &X>X=X^ K ` &X-X%X' R.=X-X=X*X=X:X:X&XJ.( 0 Y [ ^.=X=X=X:X=X=X=X&X-X:X=X:X .e P M.*X*XK.' t 8 # l G n n ^ ^., ",
"L U L P E.J., p m m.o...l l G m.m.X.l [ m.m.m.m.o.o.o.m.( s e j n X.m.o.o.m.m.m.6.o.m.Z.X.Z.K e l K M.m.} k 9 8 ; l P L P ..=X> ",
"P P P P Q.J.> 8 p 9 p e 9 p p p 9 p e 9 u p e 9 e 9 p e e e 8 p 9 9 p u p p 9 p p 9 p 9 u 9 0 0 9 u e p 9 : e 8 # G P G Q | =X9 ",
"P P L P Q.K.8 @ @ @ - @ @ @ @ @ - X @ @ * @ X > - @ @ @ # > X * - @ @ @ - @ @ @ @ @ * @ * @ @ - @ @ @ @ @ - @ @ ; n G ^ J | >X; ",
"J P P ^ W.J.> q p p 8 8 p 9 q p 9 p K 9 @ 9 p 9 9 0 p 9 8 p m p @ 9 9 9 9 9 9 p 8 p m p + 9 8 8 8 0 0 0 8 p G l - l K K K X.:X, ",
"P H P P R.L.> G G Q P P P P P P K ] %Xm q G P K P P P K P ' :X^ = G P P P K P J Q ^ *X..= P P K Q K P P P Q -XS.- n P P ^ ] ;X, ",
"P P Q Q Q.R.q l ` L J P K K ^ J P [ :Xn = K L P J L P P P ' :XP 7 G P K P P Q P J ^ &Xb.@ n L P K J P P P Q =XS.; G L P K [ 3X> ",
"k [ | ..J.} 8 g G ......b.....b...b.S.h - k ' [ b.b.......m.m.K ; h ^ ..b.........b.N.^ > h P b.X.X.X.] ..o.m. .; g P ....m.b.> ",
"; m.;X/.W - o 9 k ^.:X^.&X(.(.&X&XJ.k ; @ > o.(.&X(.(.&X&XL.k - + u } ~.&X&X&X=X&XL.b ; X 9 ] /.(.(.&X&X&XR.b ; * ; ( (.&XX.- o ",
"      .                                                                                                   .       .             "
};
