/* XPM */
static char *_6b7863f73df45cfe5f727b13b0810a7sHe4xtIR8dbVSpBi[] = {
/* columns rows colors chars-per-pixel */
"64 64 223 2 ",
"   c #010102",
".  c #1A1A1D",
"X  c #17161A",
"o  c #0F0F11",
"O  c #37241E",
"+  c #1D1C21",
"@  c #201E2C",
"#  c #242426",
"$  c #25262B",
"%  c #27292D",
"&  c #2A2B2E",
"*  c #362B28",
"=  c #39322C",
"-  c #262B33",
";  c #2D2D34",
":  c #2E2E39",
">  c #252634",
",  c #312F3A",
"<  c #302F34",
"1  c #2E3035",
"2  c #2E313A",
"3  c #323235",
"4  c #33333B",
"5  c #39363E",
"6  c #37393D",
"7  c #3A3A3D",
"8  c #393935",
"9  c #483C36",
"0  c #523F3B",
"q  c #3C4736",
"w  c #4D423E",
"e  c #2D2E42",
"r  c #353641",
"t  c #373B41",
"y  c #3C3C44",
"u  c #3E3E49",
"i  c #383645",
"p  c #413E45",
"a  c #443E4B",
"s  c #443C51",
"d  c #3E4044",
"f  c #3E4149",
"g  c #414145",
"h  c #4B4644",
"j  c #43434B",
"k  c #4B464A",
"l  c #45484E",
"z  c #4A4A4E",
"x  c #534B4B",
"c  c #574A45",
"v  c #5B544E",
"b  c #454652",
"n  c #464953",
"m  c #4A4B53",
"M  c #4D4D59",
"N  c #454A5E",
"B  c #524E54",
"V  c #4F5055",
"C  c #4F5458",
"Z  c #525255",
"A  c #53545D",
"S  c #595A5E",
"D  c #57585E",
"F  c #624D49",
"G  c #665B58",
"H  c #675A4A",
"J  c #6A615F",
"K  c #736B5A",
"L  c #7B715E",
"P  c #565662",
"I  c #585766",
"U  c #565965",
"Y  c #5A5B65",
"T  c #575A69",
"R  c #5C5D6A",
"E  c #59576C",
"W  c #5D5D71",
"Q  c #615E6A",
"!  c #5E616C",
"~  c #5B6066",
"^  c #626265",
"/  c #62636D",
"(  c #67686D",
")  c #6A6A6D",
"_  c #6B6665",
"`  c #746B63",
"'  c #776C68",
"]  c #777467",
"[  c #656571",
"{  c #656A74",
"}  c #6A6C74",
"|  c #6C6E79",
" . c #676F7A",
".. c #706F77",
"X. c #6E7175",
"o. c #6E717B",
"O. c #6D7B7E",
"+. c #727275",
"@. c #72737B",
"#. c #78777C",
"$. c #76797E",
"%. c #797A7E",
"&. c #7C7271",
"*. c #837A6C",
"=. c #817965",
"-. c #847B74",
";. c #8C6E62",
":. c #B76772",
">. c #FF4D5F",
",. c #F05B5F",
"<. c #FE4C62",
"1. c #FC5364",
"2. c #FA5865",
"3. c #D8786A",
"4. c #D86D6D",
"5. c #FA6569",
"6. c #FB6A75",
"7. c #FA7575",
"8. c #EB6E6B",
"9. c #7D847D",
"0. c #7C8266",
"q. c #8A826C",
"w. c #94896E",
"e. c #888475",
"r. c #948B73",
"t. c #978A77",
"y. c #9D947A",
"u. c #A19479",
"i. c #A89C79",
"p. c #B39D7C",
"a. c #BB9F7C",
"s. c #BA9877",
"d. c #A48E74",
"f. c #ABA57D",
"g. c #B4A377",
"h. c #B4A47C",
"j. c #BAA47D",
"k. c #B4AA7E",
"l. c #BAAA7E",
"z. c #BBA775",
"x. c #CA8B76",
"c. c #D58777",
"v. c #CC947B",
"b. c #C5987C",
"n. c #CC886F",
"m. c #E58B7E",
"M. c #F68077",
"N. c #C3A27F",
"B. c #6E7884",
"V. c #747D85",
"C. c #7B7D84",
"Z. c #757E89",
"A. c #767B86",
"S. c #6A6F82",
"D. c #768186",
"F. c #7B8186",
"G. c #76818A",
"H. c #7A838B",
"J. c #7B8490",
"K. c #828285",
"L. c #83858B",
"P. c #84898D",
"I. c #8A898A",
"U. c #848B91",
"Y. c #8B8D94",
"T. c #868994",
"R. c #8D9196",
"E. c #8D939A",
"W. c #869099",
"Q. c #919296",
"!. c #93949B",
"~. c #97989D",
"^. c #999A9E",
"/. c #9B9699",
"(. c #948E90",
"). c #A89A84",
"_. c #B19F87",
"`. c #AEA382",
"'. c #ADAA86",
"]. c #B5A482",
"[. c #BBA583",
"{. c #B4AB83",
"}. c #BBAA83",
"|. c #B2A48A",
" X c #BCA58B",
".X c #BBAA89",
"XX c #B7AF8B",
"oX c #B9B287",
"OX c #B0AD9A",
"+X c #969AA1",
"@X c #9B9DA3",
"#X c #9C9EA8",
"$X c #9595A1",
"%X c #8E98A1",
"&X c #9EA1A6",
"*X c #9EA3A9",
"=X c #A1A1A6",
"-X c #A3A4AB",
";X c #A6A9AE",
":X c #A8A9AE",
">X c #B2ABA1",
",X c #BAB5A8",
"<X c #A6AAB1",
"1X c #AAACB3",
"2X c #A6A6B0",
"3X c #B7BBBE",
"4X c #D99682",
"5X c #C39F85",
"6X c #FE8786",
"7X c #FD9886",
"8X c #C2A484",
"9X c #C3AA84",
"0X c #C2AC8A",
"qX c #C6A589",
"wX c #C3B797",
"eX c #C1B38E",
"rX c #FAB391",
"tX c #C7BEA1",
"yX c #CEC494",
"uX c #D1C294",
"iX c #F5D299",
"pX c #FDD8AA",
"aX c #FEE6A6",
/* pixels */
"Y } L.L.!.3X( j b m j b m m b m b m +.#.$ y b b m j b m j m } C.$ 7 j b l n l m b b / K.# 6 j m j m m m m b Y K.$ 3 m b n j % . ",
"t j U Y X.@Xz 4 R R R R Y R R Y R Y Q.!.3 m Y / R R R Y R ! E.&X: m R Y R ! R U R R L.;X; j Y Y Y R Y Y Y R C.-X3 j R / R P V 3 ",
"P P R R @.&Xj r R U Y R T Y R Y W R $X@X3 M Y R U R R E R U Y.#X4 b Y R R U T R R Y L.1X> m R R R R W W Y Y C.<X4 u P R U / Q...",
"R R R R @.&Xy r Y Y R ! R Y R Y Y R Q.!.4 M R R R Y Y Y R R Y.-X; m R R Y R ! R R R L.2X; b Y R R T U Y U R C.;X, u R ! Y [ @X} ",
"P Y R U o.=Xy y Y } } { | o.} { | +.L.L.3 j ^ ( o.o.@.o.} X.C.P.: j D | { } } } } } K.Y.3 y P | | o.o.} } | C.Y.: u R U U [ #X#.",
"R R R U @.-Xj : l L.:X;X-X-X-X1X-X-XY 7 ; 4 S =X;X=X=X-X;X=X( y & 4 A @X1X<X-X<X-X:X} y ; 3 l @X;X;X=X-X1X=X#.j : j Q Y R [ !.+.",
"Y R R Y A.&Xj ; 3 z Z z V A M m A m 6 4 : : t z M A A m M V y : : 3 3 M m C A M Z m y 3 ; : r m m Z Z m m A j 3 ; u Y R R [ ^.+.",
"P R [ / $.Q.d : 4 3 3 3 4 3 : 3 : 3 3 : , r 3 3 , , : 3 5 3 4 4 3 4 : t 2 ; 4 ; : : 4 4 4 4 3 3 3 ; : 3 3 , 4 4 ; j P [ ! / ~.) ",
"t Y &X=XC.t : t R Y U R Y Y R r r Y Y R R A ! U W I 6 C -.t.e.e.e.e._ R / Y Y t 4 P U Y Y I R P Y Y 4 j Y R U R : 3 j R.@X^.M : ",
": j M D m 3 : : b b n n j m Y r 4 m n j n b b m S *.=.r.|.qXqX.X.X|.r.-.] A I s : n l n m b m l A P 4 y j m M R : ; 3 D D m 6 $ ",
"r y 4 r j j 4 6 j u j u y m Y r 4 y 7 t j u y x 0._.p.k.{.}.9X}.9X}.k.].i.] _ s : y f t y y t y M A r r t y m R 3 3 y 4 y 3 D 3 ",
"P P Y Y | !.y : t t t t t b D r ; y 7 d u p ` t.`.wX[.[.{.k.].{.[.h.}.l.0Xi.y.K 5 4 y t 7 y y u m M t 4 t u m P & y P R I R Y.} ",
"P Y R R } 1Xj 1 4 3 4 3 3 3 u : : 4 2 2 i G y.g.[..Xp.j.8X}.}. X{.].}.k.h.h.}.u.G 7 4 4 3 4 4 4 r y : : 3 4 t y 1 j R Y R [ @X} ",
"D Y | @.C.L.y ; 1 : ; ; 3 4 y 4 6 3 r r Z t.h.z.h.{.f.j.j.j.h.a.j.h.[.].].[.[.p.y.c ; : 3 : ; : : 4 3 3 : : 3 3 ; y U / | | Y.} ",
"y R #X@XL.j 3 3 y y 4 4 M D Y P Y P R Q =.i.h.}.}.8XN.}.k.[.}.}.9X{.[.v.v.8X.X[.h.L h t y 6 : y y y y y t t y y 3 3 j @X=X!.A 3 ",
"3 y Z m j 3 : : t j 4 ; j b b b l b m ] `.k.]. X8Xc.c.5X{..X[.{. XXXb.3.3.N.'.}.z.i.' m j 3 & y y t y y y y j y : : 3 l Z m 4 $ ",
"4 4 4 r t y 4 : y y 4 1 t y y y d y x w.[.h.[.[.c.2.2.b.{..Xv.n.9X[.3.2.2.n.}.{.j..Xt.h y r ; p y y y y y y y y ; 3 r r r 4 y 3 ",
"P Y Y R @.#Xj 3 y y 4 3 t y y y t t v w.l.h.].[.3.2.6Xm.b.v.5.c.j..X7.6X,.7.j.[.}.}.u.v y 4 ; 7 j y y y y p y t 3 u Y R Y } Q.+.",
"P Y Y Y C.#Xy : 3 4 3 : 1 3 4 3 3 y ` ).}.j.].[.v.4.7.x.b.M.7X3.j.j.b.7.,.s.j..Xj.h.`.L 8 2 : 6 : 3 4 4 3 3 3 3 ; u R Y Y [ !.@.",
"P R / ^ @.#Xj 3 : : : ; : : : ; % 7 *.].j.h.p.h.a.f.s.f.x.7XpX7Xn.s.a.s.j.g.].].h.h.{.q.8 2 : : 4 4 : : : ; : 1 : t / R / [ @X) ",
"4 ^ #X-XL.7 3 ; y y y y y y t 4 6 h e.}.l.0X.X}.9X{.f.v.7.pXaXiX7Xv.{.{.}.{.{.8X[.0XeX).^ R E Y Y M r 4 y y y y : 6 t Q.=X!.m 3 ",
"3 g R ^ m 4 6 ; y y y y y y t : 1 g q.{.j.[.[.[.}.].8Xb.8.pXaXaXpXM.v..Xj.N.oX[.[.0X}.r.Z M b m M b : 3 y y y t ; : 3 D Y Y y # ",
"r 4 4 3 t 7 3 3 y y y y y j y 3 ; h e.}.}..X.X}.qXk.k.qX7.rXiXrXrX8.v.].{.k.}.a.].}.[.w.k u u d t y : 4 j y y y ; 4 4 4 4 6 t ; ",
"M P Y Y | !.j , y t y y t y t 1 2 k *.h.}..X.Xk.[.{.j.k.j.m.6.7.5.8.qX[..X9Xh.{.].l.l.r.k y y 8 y y : 3 y t y t : y P U Y R Y.} ",
"P / P R @.-Xj : 4 3 4 3 4 3 4 3 e 8 ] |. Xg.l.].j.h.[.f.[.n.>.1.1.c.[.{.j.8X[.k.h.}.p.-.p 4 4 r 4 3 : : 3 4 4 4 ; f R Y R Y -X) ",
"Y P } } @.U.y : : : : ; 1 : : : : 3 c w.g.j.[.h.{.j.a.a.v.8.<.<.1.v.h.k.}.j.g.j.].g.y.c 3 1 ; 3 3 : : : : 3 3 1 : y D } } | T.} ",
"y ^ +X@XF.m 4 : y y 4 : t t y t t y k r.[.[.[.j.k.h.{.XXv.<.<.>.<.3.j.g.h.XX}.j.}..Xu.h t 4 ; t y t t t t t y t : 3 m T.=X^.Y : ",
"3 j R R C 2 : : y y 4 : t y y y t u m *.].g.j..X9X.X{.{.v.2.5.M.2.2.b.k.[.{..X}.[.].=.x f r : y y y y y y y y y : : 4 S Y S 4 ; ",
": y : 4 t t 3 : y y 4 ; t y y y t y p B q.i.j.[.9X.X].h.4X8.6.7X7.7.b.h.qX{.[.j.].q.c g t r ; 7 y y y y y y y y , , 4 4 3 6 y ; ",
"P D Y P } !.y 6 y y t 3 y y y y u g t t G u.{. X[.].9Xl.}.d.4.4X:.;.[.p.{.oX].0X_.G g 6 6 y : 7 y y y y y y y y > y Y Y Y ^ Y.) ",
"P Y Y Y @.*Xd ; 3 3 3 : 3 3 4 3 3 6 4 4 g K u.}.j.[.8Xz.`.9.&.] c q d.].f..X].].` g y 4 6 4 : 4 4 3 3 3 4 4 4 4 ; u R Y Y [ #X+.",
"U R R R @.&Xj ; : ; : ; : ; : : 3 ; - 1 & = L i.g.`.h.g.'./.S.p - _ ).].k.p.p.K 9 ; > ; & : : - : : ; ; : : : : ; y R R T / @XX.",
"t / =X:XK.y 3 t ! o.H.H.V.Z.G.G.P.-X@.! D.D.H.P.'.wXyXuXuX|.' G F u.yXyXtX>X,X) j P | G.G.G.G.V.G.D.G.H.A.! m u : 3 g ^.-X@XV : ",
"r j | } R 1 : t o.V.H.H.Z.G.G.G.P.-Xo.! Z.V.H.H.I.>X,XwXtX|.K G 9 ).tX,XOX(.=X} A { A.G.G.G.H.G.V.H.Z.V.H.H.{ y : : t Y | / g $ ",
": ; 4 : 3 4 : j V.Z.G.G.G.G.G.G.P.-Xo.! G.V.D.V.Z.H.F.I.>X,X] H w I.I.9.K.P.+XZ.R A.H.Z.V.G.H.G.V.H.V.V.H.#XC.y : ; : 4 3 3 6 $ ",
"P Y P Y } Q.j y H.G.V.Z.G.G.G.G.P.-Xo.! H.G.G.V.H.Z.G.H.L./.` F = _ V.Z.%X+Xo.T ! V.H.V.G.G.G.G.G.H.Z.H.F.*XC.g ; j Y Y P R I.+.",
"A R Y R @.;Xy t G.Z.V.G.G.G.G.G.U.-Xo.R H.G.G.G.D.O.V.Z.L./._ 0 * ^ H.G.W.R.} {  .V.Z.Z.G.Z.Z.G.H.G.Z.H.H.&X$.g ; y / U R / =X) ",
"P R [ ^ C.Y.y j G.G.G.G.G.G.G.G.P.-Xo.R H.Z.G.Z.D.H.G.V.P.Q._ c = ) H.Z.H.F.C.H.V.H.Z.G.H.Z.G.H.G.G.V.H.C.*X%.d 3 y P [ [ [ Q.} ",
"y ^ #X@XK.A ; y G.G.G.G.G.G.G.Z.P.-Xo.! Z.Z.Z.Z.Z.G.V.A.U.~.#.^ 5 ! Z.Z.Z.C.H.V.H.H.G.H.H.Z.G.G.G.G.Z.V.H.-XC.d 3 : m Q.#XQ.R 3 ",
"4 l ) | S 1 3 y G.G.G.G.Z.G.G.V.P.-Xo.! H.Z.G.H.H.V.H.H.H.T.S.N e b B.Z.H.H.Z.G.G.G.Z.G.Z.V.H.V.D.D.G.V.H.*X$.g : : y Y } } t : ",
"4 4 4 4 4 6 3 g H.H.H.H.H.H.H.H.U.*X@.~ F.H.H.H.H.H.H.H.P.H.T i + u  .V.H.F.V.G.V.H.G.V.Z.G.G.V.V.G.G.V.P.&XC.g ; 3 1 4 4 3 7 & ",
"M A P P } Q.j j &X&X&X&X=X=X=X=X*X<XY m -X*X*X=X&X*X-X*X&XR./ p 5 U H.H.H.D.G.G.G.V.V.H.G.V.G.H.V.H.G.V.H.&X$.g 3 y A P A R L./ ",
"Y R R Y C.#Xu j P.P.P.P.I.I.I.I.L.#.B j C.L.F.T.U.U.T.L.L.I.' x x } H.Z.G.Z.H.H.G.V.G.H.G.H.Z.A.P.W.W.Y.R.;XC.j ; j Y R R / @X@.",
"P Y R Y @.-Xj t R R R R R R R R D j p y u A / R ~ R ! ! ( ` G 9 x #.H.V.G.V.H.Z.G.G.H.V.Z.G.D.H.R.#X1X-X&X;XC.u 3 y [ Y R / #X| ",
"y / =X;XT.y 4 y Z.Z.Z.Z.Z.Z.Z.Z.L.*XY m V.V.A.V.A.A.Z.Z.C.&.K 9 = ) H.J.G.V.H.H.G.G.G.G.D.V.H.@XT.! R [ R j y j ; 3 y !.;X@Xm 3 ",
"3 m $.%.Y 4 3 t G.G.G.G.G.G.G.G.U.*X! m H.G.J.Z.H.G.G.Z.%.J c * = / V.G.G.Z.G.G.Z.H.V.V.H.U.Y.T.C.} { ! / ( Y u 3 1 y | $.+.l ; ",
"3 : 3 : 3 ; : j D.D.D.D.D.D.D.D.U.*XA.! Z.Z.G.V.Z.G.G.G.C.G c * A $.Z.G.G.H.Z.Z.V.H.V.D.H.E.+X} o.A.H.Z.P.&X$.t ; : : : 1 ; ; $ ",
"A A A D { E.y y G.G.G.G.G.G.G.G.P.<X} / H.G.G.H.C.G.D.D.-.G F 9 R A.G.G.V.F.Z.H.G.Z.G.H.V.E.=X/ { Z.Z.H.F.*XC.j : y P A A R L./ ",
"P R R U @.=Xy p Z.H.V.V.H.H.Z.G.P.-X..R Z.H.V.G.D.H.V.C.K._ c O ~ V.G.H.H.V.G.Z.V.G.G.Z.D.E.*X/ { V.V.G.H.@XC.g ; j Y / R R =X} ",
"D U [ [ C.!.j y G.D.V.H.V.B.G.V.P.-X@./ V.G.G.G.V.V.G.V.C.#.x = { H.H.Z.Z.V.H.Z.G.G.G.V.D.E.@X{  .H.H.V.H.*XF.p 3 y R Y | } !.} ",
"p / +X$XC.A 3 p G.H.U.+XB.[ Z.H.U.-X| ! A.Z.G.V.H.Z.G.G.U.<X^ p B.H.Z.G.Z.V.H.V.G.G.G.V.H.E.@X/ { H.G.G.H.*X%.y : t m T.!.~.Y 4 ",
"6 A B.K.} 6 3 y Z.G.Y.#X| R | V.P.<X@.! Z.V.G.H.V.G.H.G.H.<X/ j J.H.V.G.G.V.H.Z.V.D.G.H.H.E.*XR ! H.V.H.H.-XC.j : : t @.C.%.g ; ",
": 4 4 4 6 3 : j A.H.E.#X} R R C.P.-X| R J.H.H.L.H.F.V.H.U.@X/ j V.V.H.H.H.H.H.H.H.H.H.H.F.E.&Xj P A.H.H.H.@X$.j : : 4 : 6 3 y $ ",
"m M A M / L.y r | U.=X-X} R Y E.*X<X@.} +X*X@X@X@X#X&X&XQ.+.M g { U.@X&X@X&X&X@X@X&X+X*X@X=X=Xj m { !.+X+XA.Y y : y M A M Y C.Y ",
"D R / R @.=Xj 4 P @.L.K.Y M A C.L.K.R Y C.L.L.K.L.K.K.L.C.D j y C | L.L.L.L.K.K.K.L.K.L.L.F.C.j j P C.P.L.A j y ; y R Q R R @X+.",
"P R U R @.@Xj 3 u j g j j j y f j l j j j d l h j j j j j t u u y j l g j j p k j l j g j j j y p p j g j g y u : u R E E [ @X} ",
"P I R R @.=Xj ; : 3 : : : : : : 3 : ; & 4 ; 3 : 3 : : 3 ; 3 ; 3 : 4 ; : : : : : ; : 3 & : : : 4 : : : : : : : : ; j Y R Y ^ @X+.",
"Y Y Y U $.&Xy : y y y y y u u y 4 y M z ; 4 r y t y y y t r m z ; 4 t t y t y y u r m A $ 4 u i t y y y t y j M : u Y U R / @X) ",
"A R R R A.&Xj y R U T Y U Y R U R Y !.+X1 m R Y U R Y U R Y E.&X4 m Y U Y P R Y U U L.&X; j R R Y U Y Y P R C.*X3 u R Y R / @X} ",
"P ! U R o.&Xj 4 R R ! / R Y R R Y R Y.+X2 M Y R Y R U Y R Y Y.#X- m ! / R R R Y R Y P.1X; l R R / R R R Y R C.-X4 r Y ! R / +XX.",
"M Y } @.$.P.j 4 P { { / } | } } } o.L.U.2 j R | | | | | { } F.Y.2 l A } { } } } } } C.Y.1 f P } [ } | o.| } C.Y.: y R [ } | I.^ ",
"; D #X#X$.j & : l K.-X=X=X=X@X-X#X~.D 4 % t Y Q.&X@X@X;X;X@X/ 6 $ 4 A Q.&X:X=X-X@X:X} y % 3 j !.-X=X#X#X;X@X+.l ; 4 4 !.&XQ.d $ ",
"X + 3 6 ; X . . . 3 3 ; 3 6 3 ; 3 7 # + . X + 3 3 3 3 1 & 6 # . + X X 3 3 3 ; 3 3 & # . X + + ; & 3 6 ; 1 3 % . X + + # 6 ; . o ",
"                                                                                                                                "
};
