/* XPM */
static char *cfa73db3c13b41d2a379d423b7e48f65wkDKLV4T5Xt8B1fe[] = {
/* columns rows colors chars-per-pixel */
"64 64 225 2 ",
"   c #010102",
".  c #060608",
"X  c #25262C",
"o  c #292A2E",
"O  c #27282D",
"+  c #372926",
"@  c #272B33",
"#  c #2C2D34",
"$  c #2E2E39",
"%  c #282731",
"&  c #312F34",
"*  c #312F3B",
"=  c #2E3135",
"-  c #2E313A",
";  c #313236",
":  c #33333B",
">  c #39373E",
",  c #36393D",
"<  c #393A3E",
"1  c #3C3633",
"2  c #423938",
"3  c #513F37",
"4  c #412F2B",
"5  c #47433A",
"6  c #50463B",
"7  c #2F3342",
"8  c #353641",
"9  c #373A44",
"0  c #3C3C44",
"q  c #3D3D49",
"w  c #363C4C",
"e  c #413E45",
"r  c #413F4A",
"t  c #3E4145",
"y  c #3E4349",
"u  c #424146",
"i  c #4A4645",
"p  c #43424B",
"a  c #49464C",
"s  c #46484E",
"d  c #494A4E",
"f  c #4D4943",
"g  c #534D4B",
"h  c #564946",
"j  c #5C534D",
"k  c #5F5A4F",
"l  c #454652",
"z  c #484753",
"x  c #474953",
"c  c #4C4C54",
"v  c #4D4E5A",
"b  c #4E5055",
"n  c #4D505B",
"m  c #515256",
"M  c #52525B",
"N  c #55585E",
"B  c #59595C",
"V  c #5C5754",
"C  c #62564D",
"Z  c #685D56",
"A  c #745B5E",
"S  c #696359",
"D  c #71695E",
"F  c #77675D",
"G  c #7B705C",
"H  c #555562",
"J  c #585767",
"K  c #565965",
"L  c #5A5B65",
"P  c #575968",
"I  c #5C5D6A",
"U  c #575469",
"Y  c #5D5F72",
"T  c #4B5265",
"R  c #605F6E",
"E  c #605F66",
"W  c #645F73",
"Q  c #5E616C",
"!  c #5E6064",
"~  c #5F6370",
"^  c #656265",
"/  c #6D6664",
"(  c #62636C",
")  c #69676C",
"_  c #64696E",
"`  c #696969",
"'  c #746D6A",
"]  c #7A7468",
"[  c #646471",
"{  c #656A74",
"}  c #6B6C74",
"|  c #666D7B",
" . c #6C6E79",
".. c #696772",
"X. c #706F79",
"o. c #6D7176",
"O. c #6D727B",
"+. c #727275",
"@. c #72737C",
"#. c #74797D",
"$. c #7A7B7E",
"%. c #7E7570",
"&. c #84735F",
"*. c #846C67",
"=. c #857B66",
"-. c #827A73",
";. c #957970",
":. c #AA6E76",
">. c #FD4C5C",
",. c #FF4A63",
"<. c #FC5768",
"1. c #DA7A6E",
"2. c #DC7E72",
"3. c #E56968",
"4. c #F6656A",
"5. c #E7786C",
"6. c #FA6C71",
"7. c #E97371",
"8. c #F87B75",
"9. c #7E807F",
"0. c #8B826C",
"q. c #8B8678",
"w. c #928A7A",
"e. c #948873",
"r. c #9D957C",
"t. c #91876E",
"y. c #A3957C",
"u. c #AB9E7D",
"i. c #A39778",
"p. c #B39D75",
"a. c #B89B78",
"s. c #BB8970",
"d. c #AEA47C",
"f. c #AEA57B",
"g. c #B4A37C",
"h. c #BAA57D",
"j. c #B5AA7D",
"k. c #BBAA7E",
"l. c #B6A275",
"z. c #D98A73",
"x. c #C29A7D",
"c. c #C49277",
"v. c #D08773",
"b. c #E68476",
"n. c #FC887A",
"m. c #C2A47D",
"M. c #6E7B85",
"N. c #6C7580",
"B. c #747581",
"V. c #737D85",
"C. c #7B7D83",
"Z. c #757F89",
"A. c #7B7E8A",
"S. c #787183",
"D. c #817F87",
"F. c #758086",
"G. c #7C8186",
"H. c #76818A",
"J. c #7A838B",
"K. c #7F888F",
"L. c #748390",
"P. c #828383",
"I. c #84858C",
"U. c #85898E",
"Y. c #8A8B8C",
"T. c #88868D",
"R. c #9D9385",
"E. c #848B93",
"W. c #8A8C93",
"Q. c #8E8E99",
"!. c #848490",
"~. c #8C9096",
"^. c #8D939A",
"/. c #879095",
"(. c #909495",
"). c #93959B",
"_. c #95999D",
"`. c #999A9F",
"'. c #989198",
"]. c #928D90",
"[. c #A59983",
"{. c #A79A85",
"}. c #B89E85",
"|. c #ACA882",
" X c #B4A583",
".X c #BBA583",
"XX c #B4AB83",
"oX c #BCAA84",
"OX c #BBAB89",
"+X c #B5A98A",
"@X c #B7B189",
"#X c #A9A69B",
"$X c #B8B19D",
"%X c #B2AE8E",
"&X c #9597A0",
"*X c #969AA1",
"=X c #9B9DA3",
"-X c #9D9EA9",
";X c #9DA1A6",
":X c #9EA3AA",
">X c #A2A4AA",
",X c #A5A8AE",
"<X c #A5A5A8",
"1X c #A6A7B0",
"2X c #A5AAB1",
"3X c #AAACB3",
"4X c #B8B5A4",
"5X c #C99F81",
"6X c #D08D85",
"7X c #FF8B85",
"8X c #FB9788",
"9X c #EE9381",
"0X c #C2A483",
"qX c #C3AC84",
"wX c #C3AB8B",
"eX c #C1B08B",
"rX c #C9BC96",
"tX c #C7AF95",
"yX c #FFA78D",
"uX c #FDAC95",
"iX c #FBB699",
"pX c #EEA280",
"aX c #CFC29A",
"sX c #FBCA9A",
"dX c #CBC2A1",
/* pixels */
"                        .                   .                                     .                                             ",
"& v m m $.} , v v m N v m m m m m ^ I.d ; M v m m v m m N B Y.m ; v m v v m M v m N Y.) & x v m m v v m M b I.} : d m N v p O O ",
"9 H L I W.U., v [ I P L R I I I I  .-XL : L J I L I R I I { =X..8 H P I I K I I P ( ;X#.: H I I P I I I P ( *XW.$ M I I P L x # ",
"K P ~ [ E.W.9 H H I I I P I I K L { -XH : K I I I I P P P | =X( 8 H P I ~ P I P Y [ _.o.; H I P I I P P K { &XJ.8 H I P I  .&X9 ",
"I I I I W.U.- H Q Q P I I K I I L } ,XM - Q I L U L I I Q ( 3X! 8 H I K L I Q K P ( >X#.; M I P L L I I I L <XI.: v L K K @.3X> ",
"L L I Q ~.U.; c H { { O.O. .O.O.@.#.I.c : v ( } O.} o.} } } U.L # c ( O.O.} o.} } @.G.( 9 l I o.O.o.o.} } o.U.+.; v I I L #.>X< ",
"I K I ( W.I.9 9 N *X3X>X:X2X2X:X,XW.v : # 0 C.>X,X>X>X,X>X).c : # p #.=X,X>X>X3X3X).m > $ 9 @.=X>X,X>X,X,X=Xv , # m L I L #.=X0 ",
"I I I I W.T.9 $ : m d v m c c m c z ; # # ; p m c c b d c v ; # # # p v c b c b v s > : $ $ p b d b c v v v ; ; ; H L P I  .,X< ",
"J [ [ ( T.G.; ; ; ; ; > ; ; > # = - : 8 # : , 7 - $ ; : > 0 0 0 e e > - - - : # $ - ; : 8 : $ : ; ; # > ; ; $ : ; v I ( ( #.*X> ",
"p W.>X=X( 9 # m P L L I L I H 8 s H L P L L H P I p e Z w.[.[.[.r.[.%.^ ( Q L ; p H H N L L L L I x $ m L L L v # > ( *X=XI.u O ",
": d m c 0 # ; p l l x z l H H $ 9 z x x l v z d ^ ' 0.[.OXOXqXqXeXeXu.[.w./ B - 8 v l s z p z l H x # p l l L v # ; 0 N m p ; X ",
"9 > p > z p # 9 q q q q q H H : 8 0 < 0 q 0 u V 0.y.OXoXh.h..X.Xh.g.k.k.+XR.' u > 0 9 0 0 0 p w L v # 0 0 p L v # $ q 0 9 0 m # ",
"U J M I T.I.9 > 0 0 9 0 p m m ; 8 0 < t e u Z r.OXoXh.h.k.OXOXOXk.k.OX.XwXtX X=.i 0 0 0 , 0 p 9 L p # 0 0 q M v $ H H H H } ).> ",
"I R [ ( W.T.; ; # ; ; ; ; > 9 # # ; : ; o Z r.oXOX Xg..Xh.g.g. X.X+X X.Xa.a..Xg.=.5 ; , - ; ; : q : $ ; # : 9 0 8 x I R I @.1X0 ",
"L I } ..T.C.> # # : # # ; : > 8 9 8 8 > 1 =.OXp. X.X.X.Xh.h.h.g.}.+Xg.l.l.a..Xu.u.Z & $ - O @ ; $ ; # # # ; ; % # v I { ..} ).; ",
"s Y.=X>X) < # 8 9 0 $ 8 H I H H H I U I -.{.g.qXk.k..X.X.X.X.X.Xm.g.XXg.0X0X.XOXj.e.V q 9 ; , 9 9 0 0 0 0 < 0 9 # 0 ) =X;XW.u # ",
"> y m c > ; O 0 0 p ; ; p p p p y x a D  Xg.h.oXqX.X0XXX X5X7.1.0X@Xh.h.XX.XoXoXh. Xw.g 9 - - 0 0 0 p 9 0 0 0 9 # # 0 z m p ; O ",
": 9 ; > p q # 9 9 0 # # 0 0 0 0 t q e ]  Xg..XoXXXXX.XoX.X3.>.4.7.0X Xg..X0XoX.Xj. X[.j 0 : , 0 0 0 q 9 0 0 e 9 # : 8 8 9 0 0 # ",
"P P I ( W.!.> 9 0 q : ; 0 0 0 e 0 8 i t.j.g..X.X0X.XoX5Xx.3.6.7X<.z. Xd..XoXXXXXoXoX{.S < # , 0 0 0 p 0 0 9 9 > $ M L I H @.1X0 ",
"I R L ( Q.W.8 ; # : # # ; ; ; ; , > V u.k.g..X.XXXg.XXXXXXc.3.4.v.x.g.d.XX.Xh.oXg..X Xe.i : # : # ; ; : > ; : : $ v I I I @.>X; ",
"L L ( ( T.T.> # # ; # # # # # # @ & Z  Xl.g. Xg.d.h.g.l.v.3.c.XXc.x..X X.Xg.p.h.oXoXg.e.5 ; # ; > ; O # # # & # 8 v L ( ( #.;X0 ",
"p W.,X=X) : # 0 9 0 0 0 0 9 9 ; 8 0 D OXk.oXwX.X@XoXa.z.9X4.x.x.5.z.0X.Xh.XX|.f..XqXrX+X/ L I N N z ; 9 0 0 0 > O 9 ( ).>XI.0 O ",
": c B m p ; # 9 0 0 0 p 0 0 0 # 9 0 D +Xk..X.Xg..XXXf.b.yX8.z.9X8.z..XOX0XXXXXh.oXqXqXy.V l v s z 0 # > 0 0 0 9 # : p L L m ; O ",
"< > > 9 9 0 $ 9 0 9 0 e 0 0 0 # 8 0 D +XOX.X.Xk.XX.Xg.5.uXiXb.uX8Xb.h.@X.XoXoXg. XoXg.y.g q 9 0 0 9 # 0 0 9 0 9 # ; 8 8 > 9 p # ",
"L P H L T.C.; 9 0 0 0 0 9 9 9 # , 0 S OXh.OXOXj.XX X}.5.yXiX6.n.sXpXz.XX+XwXh.h. XoX.Xy.f 9 q 0 0 > # 9 0 0 0 > $ M H L L { =X: ",
"L I L I W.T.9 : ; > ; ; ; ; : # # ; k i.h..X.Xj.qX Xg.z.n.8.>.<.7XuX8.c.h..X.Xg..X.Xg.=.u 8 : ; ; # # ; > ; > ; : v L I I @.,X0 ",
"L ( { ..T.I.: # # ; # # ; ; ; $ : # 1 =.l.h.g.g.p..X}.1.4.<.,.,.<.4.<.c.XX|. XXXg.g.i.C ; $ # ; ; # # ; ; # ; # > v L  .( @.`.# ",
"p W.>X*X..> # 0 9 0 ; # 9 9 9 0 < 9 0 -.OXp.h.oXoXOX+Xm.2.<.<.n.6.<.,.s..XwXg..Xk.eX[.j : $ - < 9 9 9 9 9 9 0 > # 0 ..).=XT.d ; ",
"> z N m 0 > # 9 0 q ; $ 0 0 0 0 u 9 9 V [.l.oXg.XX.X0Xj.c.4.8.sX8X>.3.0X.X.Xh.qXh. X-.g 0 ; ; 0 0 0 0 0 0 0 0 > # ; p H N v : X ",
": : > > 9 9 # > 0 0 $ # 0 0 9 0 9 y 0 0 k i..XOX%X+X.Xj.oXb.4.n.6.7.x.d.@XXXoXh.+X=.g 0 9 = ; q 0 0 0 0 0 0 0 > # # > $ : > 0 O ",
"I M I ( I.I.9 0 0 0 ; ; 0 0 0 0 0 y , q e 0. XoXOX.X0XqX Xw.;.6X:.*.r..Xh.h.qXXX{.D y 9 0 : : w 0 0 9 0 0 9 0 9 ; v I I I { =X, ",
"L ( H I ).T.> ; > > # # ; ; > > 8 = = 7 : 5 i.g.g.0Xj.f.}.].@.^ U , ;. Xj.k..Xu.G 2 , - : ; ; 8 > : ; > ; ; > ; : M L P I #.>X< ",
"I P Q I ).T., @ # # # # # # # # # $ # : # = 5 w.i..Xh.p. X{.P.{ p / u.l.h.g.y.G : $ # # @ # - # - # @ - $ # # # : M I I L #.,X> ",
"q W.>X`.L > # M [ B.J.J.F.V.V.J._.).[ O.J.V.G.Y.R.$XdXaXrXXX=.S j [.rXaXdX4X<Xd x Q V.J.J.J.C.C.V.J.J.V.} Q p 9 # 8 ( :X1XI.u # ",
", N ( ) s ; $ I O.V.J.H.H.Z.H.J.(.=XQ O.H.M.J.B.J.).#X%XrX+X&.Z 3 t.$X$X#X(.2XT P  .V.V.F.F.Z.J.H.J.J.J.J.J.p > # ; s ( ( M 0 X ",
": - , # 9 : @ O.H.J.F.V.H.H.H.H._.).( O.L.H.J.Z.Z.Z.G.P.#X#X*.A f %.Y.$.T.W.=X( O.Z.J.Z.J.J.F.H.H.H.B.F.W.;Xm 9 # # , - , = < X ",
"U I H I I.D.9 [ V.J.H.Z.H.Z.Z.H.`.).(  .Z.H.V.F.J.H.Z.Z.&X'.A C 1 B #.J.:XT.) B { V.J.Z.J.H.V.Z.F.J.H.J.W.:Xv > : v H H M  .).0 ",
"U I I L W.T., o.V.J.J.H.J.H.H.J.).*X..O.Z.V.J.F.F.H.H.H.^.Y.k 6 + ^ F.V.^.J. .| B.Z.J.Z.Z.Z.Z.J.V.F.H.F.E.;Xv < $ M [ P L B.>X> ",
"I I { _ W.C., _ H.H.V.V.Z.H.Z.H._.*X(  .J.H.J.B.V.H.V.J.^.]./ j 2 E B.F.K.V.M.L.H.H.Z.H.H.H.H.H.J.H.V.V.W.;Xm < : x L  .( } =X< ",
"u Y.`.;X) p - { V.H.H.H.H.H.H.J._.).[ O.H.Z.Z.J.H.J.F.F.~.Q.S.W 0 H H.F.#.G.V.F.H.F.H.H.H.V.F.F.J.V.H.J.W.=Xm : # 0 Q *X=XW.d # ",
"> H E ( p = = { H.H.Z.Z.Z.H.H.J.).).( B.J.B.J.V.H.J.H.V.W.E.| T $ w N.H.V.F.H.H.Z.H.V.J.H.J.H.J.H.Z.J.Z.E.>Xz 0 # ; z I I m 9 O ",
"$ 8 : > 9 , @ O.J.J.J.J.J.J.J.J._._.( } V.E.V.I.J.J.J.E.^.I.I w X w | Z.F.V.H.H.J.H.Z.H.V.V.V.V.J.V.V.F.W.;Xm > ; # ; : 8 9 > # ",
"K H I H C.I.; W.>X>X>X>X>X>X>X>X:X).s I.>X:X,X,X>X:X:X>X>X(.) s 2 L V.H.J.H.J.H.Z.Z.H.H.J.J.J.J.F.J.H.J./.;Xv , # v N L H ..)., ",
"Q L L [ W.T.9 ..I.I.I.I.I.I.I.I.#.) p ( #.G.I.G.P.I.J.I.D.$./ g g +.H.F.H.H.J.J.Z.H.J.V.H.F.H.V.U._.^.~._.>Xx 0 : M ( H L @.,X< ",
"K Q L I W.W.; L I I I I I I I I c p 9 9 l Q L L L I P I ( / Z h f +.V.Z.H.Z.J.Z.H.H.J.V.V.B.J.E.2X,X>X,X2X>Xm > : v L ( I #.<X, ",
"l W.,X>X( > # { Z.Z.Z.Z.Z.Z.Z.Z.^.W.z  .Z.V.Z.Z.C.J.Z.Z.T.-.D 3 + ) V.H.H.H.V.Z.H.V.H.H.J.J./.;X( L Q L v 0 9 9 # 9 } =X>XT.u O ",
"> L } _ c , @ } H.H.H.H.H.H.H.H.).*XM  .Z.Z.Z.H.H.J.Z.Z.Y./ h + & ( V.H.Z.J.H.J.H.H.V.F.J.W.E.I.O.[ { { o...p > @ ; z @.} L < # ",
"; ; # : = ; $ { F.F.F.F.F.F.H.J._.).( O.H.H.J.V.F.H.H.F.Y.S h 4 m #.J.H.V.J.V.F.V.J.F.V.E.=XT.( V.H.J.V.W.>Xx 0 # ; # ; # : > O ",
"K H J H I.$.: } Z.V.F.H.H.M.J.J._.=X( O.J.V.V.Z.F.J.H.J.Y./ C 4 N V.J.V.H.F.J.V.F.J.J.Z.J.=XI.Q V.H.Z.J.E.:Xv 9 - v H K H } _., ",
"I U I ( (.U., { H.J.V.V.J.J.V.J.).*X( O.J.H.F.J.H.Z.Z.V.Y.' f 1 N #.F.H.H.V.F.F.V.Z.H.J.K.:XI.( V.V.H.J.W.:Xv > ; v I I I  .,X0 ",
"L ( [ [ I.C.9 { H.H.J.J.B.J.V.H._.*X( O.H.H.Z.Z.H.H.H.H.W.P.i i O.F.J.H.F.F.F.J.J.H.Z.Z.J.=XI.( Z.V.H.V.W.;Xv 0 ; M L ( ( @.*X; ",
"p T.=X).} p - | F.V.).*XQ O.V.J.).*X[ O.H.J.H.J.V.F.H.H.^.).d ! V.V.V.F.J.J.V.V.V.F.H.J.J.;XT.( H.H.H.F.W.>Xc > # > ) ).=XT.m # ",
"< ( @.} s = - { J.V._.>XL { N.V.).).[ @.V.M.V.J.J.Z.Z.H.^._.x Q J.J.H.V.H.H.V.J.J.J.H.Z.J.=XC.M N.H.H.J.U.=Xv 0 $ 0 d ) } L 9 % ",
"; # : > : 9 # { B.U._.=XL I ~ F.`.).( B.J.J.J.J.J.J.J.I.~.U.c I B.J.J.J.F.F.J.I.J.J.J.J.U.;X$.z B.C.J.U.~.*Xm > # # : 9 > > 0 O ",
"K v H I C.#.> H } =X,X;X( L [ =X:X*X..W.;X:X;X=X>X:X:X*XI.) p n  .).;X>X>X;X;X=X;X=X:X>X;X<X+.r L C.=X=XU.{ y 9 $ v H M M ( ).< ",
"P Y P I W.I.< p N C.$.@.n v H C.C.#.v  .C.C.C.C.$.C.C.C.) d q x m C.C.$.C.$.C.C.9.$.C.G.#.G.L r v L C.C.o.c 0 9 , v I P I #.;X, ",
"I I I I ^.I., 9 p 0 p e 0 p p p 0 p e 0 u p r 0 u p p 0 0 r 0 e 0 0 p p p p 0 p p 0 p 0 u 0 q q 0 u e p 0 > e 9 $ H I H Q O.;X0 ",
"I I P I ^.T.9 # # # ; # # # # # ; X # # = # O > = # # # $ > O # ; # # # # # # # # # = # = # # ; # # # # # ; # # , M H ( K O.,X: ",
"K I I ( ~.I.> > p p 9 9 p 0 8 p 0 p L 0 # 0 p 0 9 0 q p q p M p # 0 0 0 y 0 0 y 9 p N p @ 0 9 9 9 q q q 9 p H v ; v L L L #.<X< ",
"I U I I W.Y.> H H Q I I I I I I L } *XN 8 H I L Q I I L I { >X( - H Q I L L I H Q ( =X@.- L I L Q P I I I Q :XJ.; M I I ( } >X< ",
"I I Q Q Q.W.8 v [ P K I L L ( K I } >XM - L P I L I I P I { >XI 8 H I P P I ( P K ( -XB.# M L I L K I I L Q ;XJ.: H P I L  .3X> ",
"c  .O.@.I.o.9 l H @.@.@.C.@.@.B.@.C.A.z ; x {  .B.B.B.O.@.C.C.L : x ( B.B.@.@.@.@.C.A.( > z I B.#.#.#.} @.$.C.+.: l I @.@.C.C.> ",
": C.>X_.! ; O 0 c ).>X).=X`.`.=X=XI.c : # , $.`.`.`.*X=X=XY.c # # u +.).=X=X=X=X=XY.m : X 0 } ).`.`.=X=X=XW.m : = : ) `.=X#.; O ",
"      .                                                                                                   .       .             "
};
