/* XPM */
static char *evil_exit[] = {
/* columns rows colors chars-per-pixel */
"64 64 26 1 ",
"  c #2E242D",
". c #30262F",
"X c #322730",
"o c #352A32",
"O c #392E35",
"+ c #3B3137",
"@ c #3D3339",
"# c #41363C",
"$ c #44393E",
"% c #473C40",
"& c #493E42",
"* c #4D4345",
"= c #4F4348",
"- c #504547",
"; c #514648",
": c #554A4C",
"> c #584C4E",
", c #5B4E51",
"< c #5E5153",
"1 c #615356",
"2 c #655658",
"3 c #6C5B5C",
"4 c #715D5E",
"5 c #735F60",
"6 c #766162",
"7 c #786363",
/* pixels */
"###$#O%#&&&&&%%o@#O##*%##$##@O@#%##%@%#o@#&&###@+%##$#####O#++##",
":::::#42111<211%=*$,:::::::>:%,:::>>>;:#>::::::;=4112<212<#:%=>:",
"**=**+<65543253#&*%:*****==<13332221,:;@:=*===*&$34353334<@*#*==",
"&*&**+;6333312;+%%#*&**=<<5533332122121&@#***&*$@<7335<<<=+*#&**",
"###+#+;1;;;;,==O@%*%+&:21<1*%%@%$&%%,,,2:+O#$#O#+<<==*::*&O$&&##",
":::@>@:3;***;=&O=:::=,64*+O.        O+&>1>$=>=$:@2<****:*$@::::>",
"***@:+,3***=*=@X****,5<*.             .@:<>$$&#:@2<&**;**oO***=*",
"#**+=+=<;@***%@+%*=,5>+.               .O%>,#$#*+><*%***@$@&&*&&",
"*$$+$+;:;:&*@%=+#&,2,o                   .%,*@@#@,;;:&&#&*O$@@$$",
":::>:@;:*;*@*:&o=>,:#                     .&:$%=@,;*;$#;:@@:%*::",
"**;;*+%=-*;:%%+o&,>%.                      X#:$#O;***:;%$OO*#*;=",
"*****+.@**$%%O..:<&X                        +,:+ o#*&%&#o O*O*:=",
"$$$$@o.&%@++O%+.,:@                         o=,O O&@+O@@%ooO+%$$",
"*=*+*O@33<,,:>*o,&.                          $,% ;32<<:::@+*;;**",
";;=#>@>:*<<,;**+&+                           X::#<;,1<,=&&@;;;;;",
"=**@:@&oO;<,+.%+&O                            #=@#X@,<;oO%@==*=*",
"--*#:@@  :6,X O@#.                            o%@O X33&  #@=====",
"@@@$#o$O%2&&+O>+#                              @@#o;1&&o%=o#@@@@",
":::>%.:23&=@<51@O                   o XOo      O@<42$&$33:#>::::",
"--*-$.%,<><:,<=O                        oooX    o*<,>1;<1%#:=*==",
"****$ o%*=*=*%#                            o+X   +&*;;*&&o@:*=*;",
"&***# ##@#$$$#$                            X+oo  &+$$$$$$@@;&&&&",
"##$#&+@**%&&&$+                             o XXo$*&%%&&@oo$$$@@",
":::::#:%*****#                              o  o#:$*===*o @::>$*",
"**=**@*<*o.X.  .                           Xo  X$,,$X.XX  +=**$&",
"**;**+*<6,*++%oX           ..XX.            O  O$;35;*X$$o+===$=",
"*****@*,22:***@o             ..XOooOoooX    o X%$*22<;**&+o&==$*",
"#@+##o&,2<****@X                   OXXXooo    X%%*<<,***$++@@@#$",
":;#>:#&>2:***$+X                   o     @@@X.O%$;<<;***@O#:;:::",
"**#:*+*,,:;**$+o                   OX    o@##++*$*<<;*;*@O@*:;*=",
"**#:*@*,<:***$+X                   o     OO o#@@$;2<****@O@***;*",
"@####o&,<,***%+X                   o     oO .X#+@;<<:***@+X@@#@@",
"::>::+*,,--**%@o                   oX    o.  O@+@;<:;***$+ *::::",
"*****+*,,*--%%@X                   o     o.  O@@%;<:***$$+ *;***",
"*****@*>,-**%%@o        .X               oX .@@**;<>*;*$%+ *;**;",
"**%**+*,<***%%@X     .X .ooOooooX X      o  .@@%%;<:**;$%+ **%**",
"$$O$%O*,,**-%%@X           . ...OoooooXX    O@@+@;2:;*;&%o+*$$$@",
":*%>:@%,,*-***O                .o X XXo@Oo .O@@@$;<:****&.+:::::",
"**$;*+*,<*****+X               .o      oOO+Oooo@$;<:*;**%o+*****",
"**$:*+*,<*-***Oo               .o      o. +*-@oO$;<:***;$O@*;;*;",
"$@$%$+%,,-**-*oo     .         .O      o. +%;$:*#*1:****$oo$$#$#",
"**:**@*,,*--*$@X XooooooX.... ..X      o o+%%@::*;1:**;*++++****",
";;;;;@%<,****@@o........ooooOoooXoXXX   X+++@O***;<:***%#++#::;;",
"*****+*,,***$$@o          ..o  .XXoXoo+++Xo+@O%@$;1:*;*@&O+@:***",
"----*+*,,**$**+o            o       .o+$*O+OOX+@$*1:*%#*%++@:;**",
"@@++@+%,,$$%**+X           .o       O+++#@>;OXO+$*<:@%*;%+o$$@@+",
",:*::@*;,****$+o           Xo     o++++O#@;:*oXO$*::****@++>:::@",
",$-;*+*-,****$+X            X   Xo+@@+o+#@*@:*OX$*::****@++;**;+",
",****+*;,*****+o                   ooo++#+%@%%*o@*::*;*;%++****+",
":*%**+%*;*****+X           @OOo       oo++#@#@@o@*;;****#+O**%*+",
"$$@$$oo******@o.         o+$@+++++ooo  ooXo@#@@oo@*****&+X.+$$$*",
"::::;+.+****@o    ooXooo+$+++++++++++o$$++o++@#o.o#***&+X  *:::;",
"-****+X@+@@O....oXXoX  O$++++++++O%$%%$@+++OO@+o.O@+$+o.. .*****",
"*-***+.*;+OOOO..      o$+++@++#@**;*$@++++++o++o O;*OOOoo .*:*;;",
"$$$$$oX%<-**$@X     X@@@+++O%$;;;**%@%%%$@+++ooo.O;,***$@.X%$$$$",
"**+**+X*<;****O    o@@++@@**;;*********$$%%@@oo+ O;,****%.@*****",
"**%:;@+*1;**;*@o  X+++$@:;;-************%*%%@+ooo#:1;**;%@@;;;;;",
"**$:*@::,;***;:$XO+@%%******;;,;;,;:>;****%%$@oo$:::****;:@***;*",
"**$;*@,<:::::<<$@**%%***:::,11111:<<1<<:::***$+X$11:::::1>@**;**",
"@@%$@o*,221<2<;%#$$$$$%$&*&&**&%*****&**$*%$$$@+@;111111<*o@@@@#",
":::::$*,1,,:,:*%*****************-**************$;1,,>>,*# *::::",
"***;*+%,,**;**%%;*****:**-**:,,,,;:-**:;*;******$;1:*;;;*@.*;;;*",
"**;**+*,,*****@*>:::;:,111<1121211<11<><11::;***$;,:****%@.*;***",
";*;**O$*:***$+O$>1112211121111111121212121111<:*@%;;***#@o.*;;**"
};
