/* XPM */
static char *c98020fc9ffe4454eaead39bbe6a861cTDoqOvobgfJBpug4[] = {
/* columns rows colors chars-per-pixel */
"64 63 221 2 ",
"   c #3D190D",
".  c #321936",
"X  c #300D2D",
"o  c #36363E",
"O  c #30203D",
"+  c #501D15",
"@  c #471C1B",
"#  c #4F221B",
"$  c #592819",
"%  c #642C1A",
"&  c #62341A",
"*  c #693A18",
"=  c #753B1A",
"-  c #441A31",
";  c #522823",
":  c #5D322A",
">  c #5A3222",
",  c #492839",
"<  c #532833",
"1  c #453638",
"2  c #573736",
"3  c #472C25",
"4  c #673827",
"5  c #753A24",
"6  c #683A36",
"7  c #752C2F",
"8  c #6E4018",
"9  c #75441A",
"0  c #7A4718",
"q  c #7C501F",
"w  c #744422",
"e  c #7B4A2C",
"r  c #7B4827",
"t  c #7F532E",
"y  c #6C4639",
"u  c #764737",
"i  c #764C33",
"p  c #3A2946",
"a  c #3D3D45",
"s  c #3D344C",
"d  c #3F2951",
"f  c #470D42",
"g  c #4A194A",
"h  c #4B1854",
"j  c #55175C",
"k  c #4C234C",
"l  c #532249",
"z  c #443A49",
"x  c #543848",
"c  c #4A295A",
"v  c #522154",
"b  c #54215B",
"n  c #4B3555",
"m  c #4A1965",
"M  c #541B62",
"N  c #571869",
"B  c #5A1C77",
"V  c #4E1671",
"C  c #611779",
"Z  c #5D216E",
"A  c #572568",
"S  c #5B2873",
"D  c #533168",
"F  c #65237D",
"G  c #673A57",
"H  c #42424A",
"J  c #474141",
"K  c #5C4446",
"L  c #4E4F54",
"P  c #4C4C58",
"I  c #4D4459",
"U  c #51545E",
"Y  c #5B5257",
"T  c #504B5A",
"R  c #654846",
"E  c #6C544A",
"W  c #79524A",
"Q  c #675657",
"!  c #7C5B54",
"~  c #745B5B",
"^  c #594C62",
"/  c #5A5C69",
"(  c #575664",
")  c #5C5370",
"_  c #645B67",
"`  c #5D646E",
"'  c #63636D",
"]  c #6B646B",
"[  c #6D6569",
"{  c #646572",
"}  c #656974",
"|  c #6C6C73",
" . c #6B6A77",
".. c #706F75",
"X. c #6C727D",
"o. c #6D7077",
"O. c #73747D",
"+. c #727176",
"@. c #75696C",
"#. c #82341D",
"$. c #8F382F",
"%. c #824C19",
"&. c #89541B",
"*. c #965C1A",
"=. c #9B631E",
"-. c #87422B",
";. c #994929",
":. c #845121",
">. c #8C5C25",
",. c #84542A",
"<. c #885B2A",
"1. c #945B25",
"2. c #874936",
"3. c #9A5537",
"4. c #875334",
"5. c #A7512B",
"6. c #AA5A34",
"7. c #BB5C32",
"8. c #B6552A",
"9. c #956223",
"0. c #9D6B2B",
"q. c #9A6626",
"w. c #96643A",
"e. c #9C7238",
"r. c #8E6233",
"t. c #A36D2B",
"y. c #A16624",
"u. c #AC742C",
"i. c #A8742B",
"p. c #B67C2E",
"a. c #AA613B",
"s. c #B96439",
"d. c #A77635",
"f. c #B37B31",
"g. c #C3663A",
"h. c #885848",
"j. c #955048",
"k. c #A46644",
"l. c #A57941",
"z. c #BA764B",
"x. c #B06D49",
"c. c #8E4873",
"v. c #9F7567",
"b. c #A16B59",
"n. c #C97647",
"m. c #C37757",
"M. c #BA8233",
"N. c #B68434",
"B. c #B18231",
"V. c #C28837",
"C. c #B88D48",
"Z. c #B68F47",
"A. c #CA8859",
"S. c #D58553",
"D. c #DA8D5A",
"F. c #DC915E",
"G. c #CB8C49",
"H. c #E2935B",
"J. c #D49061",
"K. c #E39D6A",
"L. c #E29864",
"P. c #E5A26D",
"I. c #EAA46B",
"U. c #ECAA75",
"Y. c #EAA975",
"T. c #F2B27B",
"R. c #EEB27C",
"E. c #651A88",
"W. c #6B1C95",
"Q. c #711D9D",
"!. c #5D2681",
"~. c #662387",
"^. c #6C2495",
"/. c #71239A",
"(. c #741BA5",
"). c #7E1FB7",
"_. c #7524A5",
"`. c #7724A9",
"'. c #7C23B4",
"]. c #6E7480",
"[. c #6F7881",
"{. c #727681",
"}. c #747C85",
"|. c #757F88",
" X c #787F87",
".X c #832E8C",
"XX c #9934AB",
"oX c #8326BD",
"OX c #9A7684",
"+X c #924998",
"@X c #831CCB",
"#X c #8725C8",
"$X c #8C26D4",
"%X c #8D29D8",
"&X c #9129DD",
"*X c #9327DF",
"=X c #9329E5",
"-X c #992BEC",
";X c #9429E8",
":X c #9B2EF3",
">X c #9E2FFA",
",X c #9C30F6",
"<X c #9E30F8",
"1X c #A02FF9",
"2X c #A131FC",
"3X c #768187",
"4X c #768089",
"5X c #7F888F",
"6X c #808990",
"7X c #898C93",
"8X c #95969B",
"9X c #8F929B",
"0X c #979CA0",
"qX c #979CA0",
"wX c #9F9FA1",
"eX c #A1A5A8",
"rX c #A5A9AC",
"tX c #A5A9AC",
"yX c #A1A4A5",
"uX c #CEB19F",
"iX c #EFBB8C",
/* pixels */
"P P P U ` ` ` ` ` ` ` ` ` ` ` ` ` ` ` ` ` ` ` ` ` ` ` ` ` ` ` ` ` ` ` ` ` ` ` ` ` ` ` ` ` ` ` ` ` ` ` ` ` ` ` ` U L P P a o o o ",
"/ / / ` |.|.|.|.|.|.|.|.|.|.|.|.|.|.|.|.|.|.|.|.) ].|.|.|.|.|.|.|.|.4X|.|.|.|.3X|.|.|.|.|.|.|.|.|.|.|.|.|.|.|.|.{ / / / H a a a ",
"/ / / ' 4X4X4X4X4X4X4X4X4X4X4X4X4X4X4X4X4X4X4X}.D s }.4X4X4X4X4X4X4X4X4X4X4X4X4X4X4X4X4X4X4X4X4X4X4X4X4X4X4X4X|.{ / / / H a a a ",
"/ / / ` 4X4X4X|.4X4X4X4X4X4X4X4X4X4X4X4X4X4X4X}.s c ` }.|.4X4X4X3X4X4X4X4X4X4X4X4X4X4X4X4X4X4X4X4X4X4X4X4X4X4X|.} / / / H a a a ",
"].].].[.4X4X4X4X4X4X4X4X4X4X4X4X4X4X4X4X4X4X4X|.o B D s X.}.|.4X4X4X4X4X4X4X4X4X4X4X4X4X4X4X4X4X4X4X4X4X4X4X4X4X7X9X9X9XL a a a ",
"4X4X4X4X4X4X4X4X4X4X4X4X4X4X4X4X4X4X4X4X4X4X4X4X{.c `.~.d I {.|.4X4X4X4X4X4X4X4X4X4X4X4X4X4X4X4X4X4X4X4X4X4X4X4XqXeXtXtXL a a a ",
"4X4X4X4X4X4X4X4X4X4X4X4X4X4X4X4X4X4X4X4X4X4X4X4X4XO '.*XoXN c ( }.4X4X4X4X3X4X3X4X4X4X4X4X4X4X4X4X4X4X4X4X4X4X4XqXrXrXrXL a a a ",
"4X4X|.4X4X4X4X4X4X4X4X4X4X4X4X4X4X4X4X4X4X4X4X4X4XU V $X-X$X`.!.s ' 4X4X4X4X4X4X4X4X4X4X4X4X4X4X4X4X4X4X4X4X4X4XqXrXrXrXL a a a ",
"4X4X4X4X4X4X4X4X4X4X4X4X4X4X4X4X4X4X4X4X4X4X|.4X|.} d W.&X-X:X=XE.p } |.4X4X4X4X4X4X4X4X4X4X4X4X4X4X4X4X4X4X4X4XqXrXrXrXL a a a ",
"4X4X4X4X4X4X4X4X4X4X4X4X4X4X4X4X4X4X4X4X4X4X|.{. ./ . m (.*X:X,X=X_.v X.|.4X4X4X4X4X4X4X4X4X4X4X4X4X4X4X4X4X4X4XqXrXrXrXL a a a ",
"4X4X4X4X4X4X4X4X4X4X4X4X4X4X4X4X|.4X4X4X4X}./ n h E.'.#X$X%X=X:X,X-X#XD  .|.|.|.|.|.3X4X4X4X4X4X4X4X4X4X4X4X4X4XqXrXrXrXL a a a ",
"4X4X4X4X4X4X4X4X4X4X4X4X4X4X4X4X4X4X4X4X}.( M W.$X=X-X-X:X:X=X;X:X,X:XQ.. } _ x x z X.|.|.4X4X4X4X4X4X4X4X4X4X4XqXrXrXrXL a a a ",
"4X4X4X4X4X4X4X4X4X4X4X4X4X4X4X4X4X4X4X|.^ m '.%X%X=X=X-X<X<X<X<X,X:X:X#XC S ^._.~.b T  .|.|.4X4X4X4X4X4X4X4X4X4XqXrXrXrXL a a a ",
"4X4X4X4X4X4X4X4X4X4X4X4X4X4X4X4X4X4X|.U m ).$X#X#X&X;X:X:X2X2X2X2X2X$X'.Q.'.#X/.c / {.|.4X4X4X4X4X4X4X4X4X4X4X4XqXrXrXrXL a a a ",
"4X4X4X4X4X4X4X4X4X4X4X4X4X4X4X4X3X4X|.n (.$X(.Q.&X;X:X,X1X2X<X2X:X:XoX^.C E.m n ].4X4X3X4X4X4X4X4X4X4X4X4X4X4X4XqXrXrXrXL a a a ",
"4X4X4X4X4X4X4X4X4X4X4X4X4X4X4X4X4X4XX.~.#XW.m (.=X-X:X2X2X2X2X:X&X$X_.B M N X { 4X|.3X4X4X4X4X4X4X4X4X4X4X4X4X4XqXrXrXrXL a a a ",
"4X4X4X4X4X4X4X4X4X4X4X4X4X4X4X4X4X|.{ E.W.D S @X=X$X<X2X-X;X-X%X_.~.F b g N h _ |.4X4X4X|.4X4X4X4X4X4X4X4X4X4X4XqXrXrXrXL a a a ",
"4X4X4X4X4X4X4X4X4X4X4X4X4X4X4X4X4X|.{ f n n W.$X'.oX:X<X&XoX'._.F v b h v M N k }.4X4X4X4X4X4X4X4X4X4X4X4X4X4X4XqXrXrXrXL a a a ",
"4X4X4X4X4X4X4X4X4X4X4X4X4X4X4X4X4X4X .x ( X Q.'.^..XXX,X-X/.F Z Z l l v h j C g {.4X4X4X4X4X4X4X4X4X4X4X4X4X4X4XqXrXrXrXL a a a ",
"4X4X4X4X4X4X4X4X4X4X4X4X4X4X4X4X4X4X|.}.` . (._.C 7 j.XX-X_.b b A l , h f j C g }.4X4X4X4X4X4X4X4X4X4X4X4X4X4X4XqXrXrXrXL a a a ",
"4X4X4X4X4X4X4X4X4X4X4X4X4X4X4X4X4X4X4X4XX.s B _.f 7 8.$..X`.Z b b l , g X g h T |.4X4X4X4X4X4X4X4X4X4X4X4X4X4X4XqXrXrXrXL a a a ",
"4X4X4X4X4X4X4X4X4X4X4X4X4X4X4X4X4X4X3X4X|.U g W.$.s.2.6 OXF ~.b h h g g X f -  .|.4X4X4X4X4X4X4X4X4X4X4X4X4X4X4XqXrXrXrXL a a a ",
"4X4X4X4X4X4X4X4X4X4X4X4X4X4X4X4X4X4X4X4X4X{.p j $.F.2.R uXG F A h v h g l X z }.4X4X4X4X4X4X4X4X4X4X4X4X4X4X4X4XqXrXrXrXL a a a ",
"4X4X4X4X4X4X4X4X4X4X4X4X4X4X4X4X4X4X4X4X4X3X/ . 2.P.x.v.iX+Xc.c.M Z b N j j 1 X.4X4X4X4X4X4X4X4X4X4X4X4X4X4X4X4XqXrXrXrXL a a a ",
"4X4X4X4X4X4X4X4X4X4X4X4X4X4X4X4X4X4X4X4X4X4X|.` 2 A.R.R.U.c.m.v.j N g M c ^ {.|.4X4X4X4X4X4X4X4X4X4X4X4X4X4X4X4XqXrXrXrXL a a a ",
"4X4X4X4X4X4X4X4X4X4X4X4X4X4X4X4X4X4X4X4X4X4X4X|.J w.P.P.A.z.w.2.< , ^ _ X.4X4X4X4X4X4X4X4X4X4X4X4X4X4X4X4X4X4X4XqXrXrXrXL a a a ",
"4X4X4X4X4X4X4X4X4X4X4X4X4X4X4X4X4X4X|.4X4X4X4X|.].1 i k.e 4 < @ # $ Q }.|.4X4X4X4X4X4X4X4X4X4X4X4X4X4X4X4X4X4X4XqXrXrXrXL a a a ",
"4X4X4X4X4X4X4X4X4X4X4X4X4X4X4X4X4X4X4X4X4X4X4X4X4X .Y 2 u ; ,.,.9.=.; {.4X4X4X4X4X4X4X4X4X4X4X4X4X4X4X4X4X4X4X4XqXrXrXrXL a a a ",
"4X4X4X4X4X4X4X4X4X4X4X4X4X4X4X4X4X4X4X4X4X4X4X4X4X{.R e w.r.>.w 9 * @ O.3X4X4X4X4X4X4X4X4X4X4X4X4X4X4X4X4X4X4X4XqXrXrXrXL a a a ",
"4X4X4X4X4X4X4X4X4X4X4X4X4X4X4X4X4X4X|.4X4X4X4X4X4X' 4 <.f.:.%.0.i.=.# O.4X3X3X4X4X4X4X4X4X4X4X4X4X4X4X4X4X4X4X4XqXrXrXrXL a a a ",
"4X4X4X4X4X4X4X4X4X4X4X4X4X4X4X4X4X4X4X4X4X4X4X4X|._ e i.y.1.9.B.N.i.0 K |.4X4X4X4X4X4X4X4X4X4X4X4X4X4X4X4X4X4X4XqXrXrXrXL a a a ",
"4X4X4X4X4X4X4X4X4X4X4X4X4X4X4X4X4X4X4X4X4X4X4X4X4X: 9.t.u.9 &.i.B.u.*.2 |.3X4X4X4X4X4X4X4X4X4X4X4X4X4X4X4X4X4X4XqXrXrXrXL a a a ",
"4X4X4X4X4X4X4X4X4X4X4X4X4X4X4X4X4X4X|.|.}.3X4X4X4X; &.u.M.* 9 q.,.w &.2 }.4X4X4X4X4X4X4X4X4X4X4X4X4X4X4X4X4X4X4XqXrXrXrXL a a a ",
"4X4X4X4X4X4X4X4X4X4X4X4X4X4X4X4X4X4X{.E E | O.O.] ; 9.t.0.& $ e z.a.% , |.4X4X4X4X4X4X4X4X4X4X4X4X4X4X4X4X4X4X4XqXrXrXrXL a a a ",
"4X4X4X4X4X4X4X4X4X4X4X4X4X4X4X4X|.3X| 4.C.e.! x 4 + 9 1.:.* % S.U.F.+ , |.4X4X4X4X4X4X4X4X4X4X4X4X4X4X4X4X4X4X4XqXrXrXrXL a a a ",
"4X4X4X4X4X4X4X4X4X4X4X4X4X4X4X4X4X4X{.K y l.C.w.d.$ % * :.& u Y.T.D.$ , |.4X4X4X4X4X4X4X4X4X4X4X4X4X4X4X4X4X4X4XqXrXrXrXL a a a ",
"4X4X4X4X4X4X4X4X4X4X4X4X4X4X4X4X4X4X4X}.| x i 4.i.5 3.5 u A.P.L.n.5 9 2 |.4X4X4X4X4X4X4X4X4X4X4X4X4X4X4X4X4X4X4XqXrXrXrXL a a a ",
"4X4X4X4X4X4X4X4X4X4X4X4X4X4X4X4X4X3X4X4X|.}.K e.& 3.K.P.U.K.n.7.% @ 4 ] |.4X3X4X4X4X4X4X4X4X4X4X4X4X4X4X4X4X4X4XqXrXrXrXL a a a ",
"4X4X4X4X4X4X4X4X4X4X4X4X4X4X4X4X4X3X4X|.4X|.| 2 # s.L.K.S.a.r $ * 9 ,.Q |.4X4X4X4X4X4X4X4X4X4X4X4X4X4X4X4X4X4X4XqXrXrXrXL a a a ",
"4X4X4X4X4X4X4X4X4X4X4X4X4X4X4X4X3X4X4X4X4X4X|.o.6 5.7.-.= w G.Z.t q >.y ..4X4X4X4X4X4X4X4X4X4X4X4X4X4X4X4X4X4X4XqXrXrXrXL a a a ",
"4X4X4X4X4X4X4X4X4X4X4X4X4X4X4X4X4X4X4X4X4X|.4X|.' $ $ $ > $ e d.C.e.* > _ |.4X|.4X4X4X4X4X4X4X4X4X4X4X4X4X4X4X4XqXrXrXrXL a a a ",
"4X4X4X4X4X4X4X4X4X4X4X4X4X4X4X4X4X4X4X4X4X4X4X|.R :.9.0.t.i.0.w e d.Z.t E _ |.|.4X4X4X4X4X4X4X4X4X4X4X4X4X4X4X4XqXrXrXrXL a a a ",
"4X4X4X4X4X4X4X4X4X4X4X4X4X4X4X4X4X4X4X4X4X3X|.| 4 q >.>.,.i.M.M.i.,.4 e.l.w.Y |.4X4X4X4X4X4X4X4X4X4X4X4X4X4X4X4XqXrXrXrXL a a a ",
"4X4X4X4X4X4X4X4X4X4X4X4X4X4X4X4X4X4X4X3X4X4X{.Q & * 9 9 * &.=.u.M.N.i.* & e : | 4X4X4X4X4X4X4X4X4X4X4X4X4X4X4X4XqXrXrXrXL a a a ",
"4X4X4X4X4X4X4X4X4X4X4X4X4X4X4X4X4X4X4X4X|.|.| > * %.>.9.r 8 0 *.u.V.M.*.9 & 2 O.4X4X4X4X4X4X4X4X4X4X4X4X4X4X4X4XqXrXrXrXL a a a ",
"4X4X4X4X4X4X4X4X4X4X4X4X4X4X4X4X4X4X|.O.| | R w q.u.u.q.:.4 :.q.u.M.M.q.%.%.i ..4X4X4X4X4X4X4X4X4X4X4X4X4X4X4X4XqXrXrXrXL a a a ",
"4X4X4X4X4X4X4X4X4X4X4X4X4X4X4X4X4X3XO.W 2.u 2 <.B.f.t.>.8 $ r t.M.V.V.f.q.&.y O.4X4X4X4X4X4X4X4X4X4X4X4X4X4X4X4XqXrXrXrXL a a a ",
"4X4X4X4X4X4X4X4X4X4X4X4X4X4X4X4X4X{.R 4 ;.#.#.w 0.q.1.q &   > = &.u.M.p.u.r W {.4X4X4X4X4X4X4X4X4X4X4X4X4X4X4X4XqXrXrXrXL a a a ",
"4X4X4X4X4X4X4X4X4X4X4X4X4X4X4X4X4XO.y s.2.n.g.;.3.,.w * $ 1 ] y 0 &.y.1.;.s.6.h.|.|.4X4X4X4X4X4X4X4X4X4X4X4X4X4XqXrXrXrXL a a a ",
"4X4X4X4X4X4X4X4X4X4X4X4X4X4X4X4X4X{.R ;.2.L.I.F.L.z.6.4 3 | |...E i r ;.g.L.D.6.! |.4X4X4X3X4X4X4X4X4X4X4X4X4X4XqXrXrXrXL a a a ",
"4X4X4X4X4X4X4X4X4X4X4X4X4X4X4X4X4X|.| 2 4 z.Y.U.T.H.5.~ X.|.3X|.{.O.+.2.g.L.U.S.6.@.4X4X|.|.4X|.4X4X4X4X4X4X4X4XqXrXrXrXL a a a ",
"4X4X4X4X4X4X4X4X4X4X4X4X4X4X4X4X4X4X|.| Q 6 j.J.K.S.;.@.4X4X4X4X4X|.O.h.7.D.U.S.3.] 4X4X|.|.4X4X4X4X4X4X4X4X4X4XqXrXrXrXL a a a ",
"4X4X4X4X4X4X4X4X4X4X4X4X4X4X4X4X4X4X4X|.|.O.Q 6 k.a.W |.3X4X4X4X|.! $.g.S.I.L.s.: | 4X4X|.4X4X4X4X4X4X4X4X4X4X4XqXrXrXrXL a a a ",
"4X4X4X4X4X4X4X4X4X4X4X4X4X4X4X4X4X4X4X4X4X|.}...~ Q | 4X4X4X4X X~ $.s.D.Y.Y.x.6 [ |.4X4X4X4X4X|.4X4X4X4X4X4X4X4XqXrXrXrXL a a a ",
"4X4X4X4X4X4X4X4X4X4X4X4X4X4X4X4X4X|.4X|.|.|.4X4X|.|.|.4X4X4X4X}.2.;.2.k.K.z.y ] |.4X4X4X4X4X4X4X4X4X4X4X4X4X4X4XqXrXrXrXL a a a ",
"4X4X4X4X4X4X4X4X4X4X4X4X4X4X4X4X3X4X4X4X4X4X4X4X3X4X4X4X4X4X4X|.u 2.x.x.h.y ] |.4X4X4X4X4X4X|.4X4X4X4X4X4X4X4X4XqXtXtXtXL a a a ",
"{.{.{.}.6X6X5X6X6X6X6X6X6X6X6X6X6X6X6X6X6X6X6X6X6X6X6X6X6X6X5X5X[ 6 h.h.Q O.5X6X6X6X6X6X6X6X6X6X6X6X6X6X6X6X6X6X9X8X8X8XL a a a ",
"/ / / } tXtXtXtXtXtXtXtXtXtXtXtXtXtXtXtXtXtXtXtXtXtXtXtXtXtXtXtXyXwX8XwXyXeXtXrXtXtXtXtXtXtXtXtXtXtXtXtXtXtXtXeX{./ / / H a a a ",
"/ / / } rXrXrXrXrXrXrXrXrXrXrXrXrXrXrXrXrXrXrXrXrXrXrXrXrXrXrXrXrXrXrXrXrXrXrXrXrXrXrXrXrXrXrXrXrXrXrXrXrXrXrXeXO./ / / H a a a ",
"/ / / } rXrXrXtXrXrXrXrXrXrXrXrXrXrXrXrXrXrXrXrXrXrXrXrXrXrXrXrXtXrXrXrXrXrXrXrXrXrXrXrXrXrXrXrXrXrXrXrXrXrXrXeXO./ / / H a a a ",
"/ / / { eXeXeXeXeXeXeXeXeXeXeXeXeXeXeXeXeXeXeXeXeXeXeXeXeXeXeXeXeXeXeXeXeXeXeXeXeXeXeXeXeXeXeXeXeXeXeXeXeXeXeXyXO./ / / H a a a ",
"a a a a a a a a a a a a a a a a a a a a a a a a a a a a a a a a a a a a a a a a a a a a a a a a a a a a a a a a a a a a a a a a ",
"a a a a a a a a a a a a a a a a a a a a a a a a a a a a a a a a a a a a a a a a a a a a a a a a a a a a a a a a a a a a a a a a "
};
