/* XPM */
static char *_6599beea8ce4963c8b9dacc746aeaf19fdgWiPwF2BSxzw3[] = {
/* columns rows colors chars-per-pixel */
"64 63 242 2 ",
"   c #300F36",
".  c #322E37",
"X  c #3B0819",
"o  c #4F1E09",
"O  c #582806",
"+  c #5A2C18",
"@  c #572F15",
"#  c #652807",
"$  c #673509",
"%  c #733B0B",
"&  c #693718",
"*  c #733614",
"=  c #6B2F13",
"-  c #551A26",
";  c #4D1430",
":  c #592A21",
">  c #593726",
",  c #5B3D34",
"<  c #4C3533",
"1  c #653927",
"2  c #773C27",
"3  c #6D3A34",
"4  c #37403E",
"5  c #7B460D",
"6  c #794519",
"7  c #5C483B",
"8  c #55492F",
"9  c #7B4C23",
"0  c #764627",
"q  c #7A5328",
"w  c #684838",
"e  c #7B4837",
"r  c #795436",
"t  c #684E34",
"y  c #3A1A48",
"u  c #3A1255",
"i  c #362644",
"p  c #3D3D44",
"a  c #3D3C47",
"s  c #2D3041",
"d  c #3C1266",
"f  c #441648",
"g  c #4C0C5A",
"h  c #481657",
"j  c #541C5C",
"k  c #561B57",
"l  c #4F1246",
"z  c #423B45",
"x  c #403E49",
"c  c #48255C",
"v  c #56245A",
"b  c #483B59",
"n  c #4F3253",
"m  c #4A1965",
"M  c #581968",
"N  c #481A73",
"B  c #5B1877",
"V  c #500E67",
"C  c #621B77",
"Z  c #631E6F",
"A  c #4A2467",
"S  c #592367",
"D  c #553667",
"F  c #5A2578",
"G  c #4B2973",
"H  c #64237A",
"J  c #622D6F",
"K  c #603141",
"L  c #394043",
"P  c #42424A",
"I  c #55565C",
"U  c #53585C",
"Y  c #585559",
"T  c #524B53",
"R  c #664B46",
"E  c #6C5748",
"W  c #765648",
"Q  c #75544E",
"!  c #766158",
"~  c #5C4B68",
"^  c #545A63",
"/  c #5A5C65",
"(  c #585964",
")  c #5E4E76",
"_  c #685A6B",
"`  c #675479",
"'  c #705174",
"]  c #5C626A",
"[  c #68676E",
"{  c #7B6867",
"}  c #78736C",
"|  c #6A6A77",
" . c #756877",
".. c #6C757A",
"X. c #747C7E",
"o. c #7B7C7D",
"O. c #787478",
"+. c #5E665B",
"@. c #813E1A",
"#. c #874919",
"$. c #8A5519",
"%. c #91561B",
"&. c #8A4B13",
"*. c #A35F1B",
"=. c #94661B",
"-. c #884B23",
";. c #934C27",
":. c #8A5629",
">. c #965926",
",. c #8A4D36",
"<. c #895739",
"1. c #935837",
"2. c #A35925",
"3. c #A75C38",
"4. c #B25E32",
"5. c #996729",
"6. c #996735",
"7. c #946831",
"8. c #A4682B",
"9. c #A8752A",
"0. c #B17A2E",
"q. c #A36B33",
"w. c #A6653A",
"e. c #B76639",
"r. c #AC753A",
"t. c #A97735",
"y. c #B37C34",
"u. c #B57B3A",
"i. c #CE733E",
"p. c #8B594E",
"a. c #976A43",
"s. c #876656",
"d. c #946A59",
"f. c #977958",
"g. c #83684B",
"h. c #AA6A47",
"j. c #B67749",
"k. c #AC734E",
"l. c #886A66",
"z. c #84736B",
"x. c #847A74",
"c. c #837B7B",
"v. c #867678",
"b. c #987670",
"n. c #A05C45",
"m. c #C97746",
"M. c #C77347",
"N. c #6F827C",
"B. c #74827D",
"V. c #B68338",
"C. c #B0802E",
"Z. c #C48D3B",
"A. c #B28550",
"S. c #81807E",
"D. c #D08852",
"F. c #ED9056",
"G. c #D79567",
"H. c #EA9C73",
"J. c #F7A56C",
"K. c #F3AB71",
"L. c #5D1087",
"P. c #651A86",
"I. c #721F94",
"U. c #6C1A9D",
"Y. c #5C2287",
"T. c #6A2589",
"R. c #663381",
"E. c #692499",
"W. c #78289C",
"Q. c #73329D",
"!. c #712991",
"~. c #7919AD",
"^. c #7826A9",
"/. c #7833AE",
"(. c #705583",
"). c #766884",
"_. c #6D7D82",
"`. c #6F7986",
"'. c #747D85",
"]. c #797E86",
"[. c #767E8A",
"{. c #797E8A",
"}. c #757487",
"|. c #757E91",
" X c #7B7C92",
".X c #787694",
"XX c #6C6988",
"oX c #5C4684",
"OX c #8429B9",
"+X c #8538BC",
"@X c #8132AF",
"#X c #811CB6",
"$X c #847D83",
"%X c #877886",
"&X c #837892",
"*X c #8626C6",
"=X c #8835C7",
"-X c #8C2AD2",
";X c #9328DC",
":X c #8D37D7",
">X c #9436D8",
",X c #933ECD",
"<X c #952CE8",
"1X c #9B33ED",
"2X c #9635E8",
"3X c #9B2CF5",
"4X c #9A34F7",
"5X c #8E32E5",
"6X c #A92DFB",
"7X c #A333FC",
"8X c #A532F5",
"9X c #A334E9",
"0X c #861FC8",
"qX c #A142F4",
"wX c #6D8285",
"eX c #6E848B",
"rX c #758186",
"tX c #798184",
"yX c #768089",
"uX c #7A828A",
"iX c #7A8A8B",
"pX c #748292",
"aX c #7A8291",
"sX c #7B8696",
"dX c #82838B",
"fX c #838287",
"gX c #898C95",
"hX c #8C9197",
"jX c #8D919A",
"kX c #909195",
"lX c #949E9F",
"zX c #979A9D",
"xX c #959DA3",
"cX c #989BA0",
"vX c #9FA4AB",
"bX c #A5A7AF",
"nX c #A9A6AC",
"mX c #A5A9AD",
"MX c #A8A8AC",
"NX c #A5A7B1",
"BX c #A4A9B2",
"VX c #A9A9B2",
/* pixels */
"^ ] ^ '.'.'.'.{.'.'.'.'.'.{.'.'..X}.X.B.rXyX X|.[.`.eXwX..rX X}.'.wXX.rX_.'.}.[ b _ }.[.|.|.{.{.{.'.'.'.'.'.'.'.| / ^ / ( a a a ",
"/ ] ^ '.{.uXyXyX{.uXyX{.'.{.{.{.[.gXtXN.rX'.`.aXuX'.wXyXyX'.{.{.'.dX].'.}.XXb i i [ uX{.|.|.'.].yXyXyX{.yXyX].].| / / / I p a P ",
"^ / ^ '.{.uXyX{.yXuXuXyX'.{.yXyX'.'.rXrXrXuXuX].X.tXiXrX'.'.].$XO._ _ ~ h m N A b O.uX_.uXsXX.rXrXyXyXyXuXuXuXuX../ / / ( P p a ",
"] ] ] '.'.yX{.{.{.uXuXyXyXyXyXyXuX'.yXyX..X.uX].].X.X.'..XXX) ` D   u F B Q.Q.F ).].'._.aXuXB.B.rXyXyXyXyXyX].].| ] / / ( p a P ",
"'.'.`.uXyX{.{.yX{.yX{.{.yXuX{.'.`.}.`.'.dXuX[.[.'.dX}.~ A d N Y.E.^.=X:X>X+XC J &XX.tXuX[.'.rXB.rXyXyXyXyXyX].].hXbXNXBXgXP a p ",
"uXuXuXuXuX{.'.uXuXyX{.{.yXyX'.`.s   . b ` XX.X.X X` D m E./.=X:X2XqX2X5X>X^.M ).%XX.uXuX'.[.uX'.rXyXyXyXyXyX].].hXBXbXNXgXp P a ",
"yX'.{.{.{.yX{.yXyXyXyXyXyXyX'.'.T . y A N G oX) ` A L.OX9X1X1X4X4X1X;X=XQ.R.) }.uXtXuX'.'.uXuX'.yXyXyXyXuXuXuXuXhXNXbXmXkXa P p ",
"uX'.yX'.uXuXyXyX{.yXyXyXyXyXyX'.tXT c R./.Q.N d m T.=X9X6X6X7X3X3X<X*XU.M ' &X'.'.uX].].uXrX'.{.yXyXyXyXyXyX].].hXbXVXbXgXa a P ",
"yXyXyXyXyXyXyXyXyXyXyXyXyXyXyXrXX.uX~ m Q.+X/.U.L.OX9X8X6X6X7X7X<X-X#XP.R.(.| {.uX'.aX{.'.tX'.{.yXyXyXyXyXyX].].hXmXmXmXkXp p p ",
"yXyXyXyXyXyXyXyXyXyXyXyXyXyXyXyXyX'.&X` N E.,X*X~.;X8X6X6X6X7X8X1X>X>XOXT.m D XX X[.[.{.yXyX'.yXyXyXyXyXyXyX].].hXmXmXmXkXp a p ",
"yXyXyXyXyXyXyXyXyXyXyXyXyXyXyXyX{.{.{..Xh Y.+X-X;X8X8X7X7X7X8X8X7X3X1X2X>X/.F c XX[.yXyXuXuXyXrXyXyXyXyXyXyX].].hXmXmXmXkXp a p ",
"yXyXyXyXyXyXyXyXyXyXyXyXyXyXyX{.[.aX'.}.` m @X*X;X<X1X4X4X4X8X8X4X4X<X5X1X2X+XF D }.uXrX{.[.iXwXyXyXyXyXyXyX].].hXmXmXmXkXp a p ",
"yXyXyXyXyXyXyXyXyXyXyXyXyXyXyX{. X X{.{.~ u Q.^.*X-X:X5X4X4X1X8X1X2X-X*X0X-X>X+XA  .].'.'.yXiXwXyXyXyXyXyXyX].].hXBXmXmXkXp p p ",
"yXyXyXyXyXyXyXyXyXyXyXyXyXyXyX{.[. X'.| i c F E.^./.*X-X5X5X;X<X;X-XOX^.~.~.*X+XF ' }.tXyXyXyXyXyXyXyXyXyXyX].].hXBXmXmXkXp p p ",
"yXyXyXyXyXyXyXyXyXyXyXyXyXyXyXyXuXuXdXT y A M H P.W.^.OXOX*X*X*XOXOXW.P.L.P.E./.R.(.&X{.rXyX{.uXyXyXyXyXyXyX].].hXmXmXmXkXp p p ",
"yXyXyXyXyXyXyXyXyXyXyXyXyXyXyXyX_.yX'.T y m M M M H I.I.^.^.^.^.^.I.T.Z B M V T.F oX&X{.X.rX{.{.yXyXyXyXyXyX].].hXmXmXmXkXp p p ",
"yXyXyXyXyXyXyXyXyXyXyXyXyXyXyXrXwXrX'.~   j M M M S H B T.I.W.W.!.C M M Z V g j f (..XuXyXrXuX{.yXyXyXyX{.yX{.'.hXmXmXMXkXp p p ",
"yXyXyXyXyXyXyXyXyXyXyXyXyXyXyXrXrX_.'.| f f k k k j S M C P.T.T.C Z Z S H g h f n ).[.yXrX'.uX{.yXrXyXyX{.{.{.'.hXmXMXMXkXp a a ",
"yXyXyXyXyXyXyXyXyXyXyXyXyXyXyXyXyXpX_.{.~ f v k k k j j M C P.P.C B B F H h v n _ ].uXyXrXX.uX{.yXrXyXyX{.yX{.'.hXbXMXMXkXp a a ",
"yXyXyXyXyXyXyXyXyXyXyXyXyXyXyXyX[.sXuX'.).  f v v k j j V M C B B B V F F c  . .O.uXyXrXrXB.uXyXyXrXyXyXyXyX{.'.hXbXMXMXkXp a a ",
"yXyXyXyXyXyXyXyXyXyXyXyXyXyXyXyX{.pXyXyX}.i   v j j j M V B B B M M V M A D %XfXtXtX{.yXtXrXrXyXyXrXyXyX{.{.].].hXbXmXmXkXp a a ",
"yXyXyXyXyXyXyXyXyXyXyXyXyXyXyXyXuX'._.sX`. .n f j j g M g M M V k l f v ~ ).fXX.rXrX{.yXrXrXyXyXyXrXyXyX{.{.].].hXbXmXmXkXp a a ",
"yXyXyXyXyXyXyXyXyXyXyXyXyXyXyXrXtX'.yXuX].%X! < l k l h l k l l ; X ; K { %XfXrXuX'.|.{.{.yXyXyXyXrXyXyX{.{.].].hXmXmXmXkXp a a ",
"yXyXyXyXyXyXyXyXyXyXyXyXyXyXyXrXrX'.uX'.x.E w 3 - - X ; ; ; ; - : o 3 1 W z.o.rXpX[.|.{.'.{.yXyXyXrXyXyX{.{.].].hXmXmXmXkXp a a ",
"yXyXyXyXyXyXyXyXyXyXyXyXyXyXyXyXuX{.fX} E r <.1.6 ,.+ : 1 p.2 # 6 -.6.6.r t } uXuXpX[.uX[.{.iXrXyXrXyXyX{.{.].].hXmXmXmXkXp a a ",
"yXyXyXyXyXyXyXyXyXyXyXyXyXyXyX{.[.].x.E r a.j.>.$.q.:.6 $ $ #.w.>.$.r.r.a.r E  .].[.'.yX{.{.yXyXyXrXyXyX{.{.].].hXmXmXmXkXp a a ",
"yXyXyXyXyXyXyXyXyXyXyXyXyXyXyX].}.$Xs.q 6.j.q.&.&.t.t.9.9.$.r.u.r.% 5.u.t.:.w { o.].'.rXyX'.yXyXyXrXyXyX{.{.].].hXmXmXmXkXp a a ",
"yXyXyXyXyXyXyXyXyXyXyXyXyXyXyX].$Xz.a.A.&.8.;.$ &.t.V.C.V.5.A.t.5.$ 5 q.%.D.a.s.x.tXB.rXuX'.yXyXyXrXyXyX{.{.].].hXmXmXmXkXp a a ",
"yXyXyXyXyXyXyXyXyXyXyXyX{.{.{.].z.d.G.K.r.#.-.# #.r.V.V.t.5.V.r.>.# 6 #.D.K.H.<.z.S.tXtXuX'.yXyXyXrXyXyX{.{.{.{.hXmXmXmXkXp a a ",
"yXyXyXyXyXyXyXyXyXyXyXyX{.{.{.$XQ k.K.J.D.#.2 + -.r.u.V.8.t.y.8.$.6 O 0 D.K.J.h.! v.tX'.].].yXyXyXrXyXyX{.{.{.{.hXmXMXmXkXp a a ",
"yXyXyXyXyXyXyXyXyXyXyXyX{.{.yX$Xs.h.D.F.2.#.2 + 9 q.y.9.&.8.5.=.%.7.> e w.F.J.m.W c.].{.{.{.uXyXyXrXyXyX{.{.{.'.hXmXMXMXkXp a a ",
"yXyXyXyXyXyXyXyXyXyXyXyX{.{.yX$Xl.<.e.i.e.;.0 @ 6 $.8.8.5 5.5.5.6.<.> d.#.m.F.M.W %XaX[.{.{.uXyXyXrXyXyX{.{.{.'.hXmXMXMXkXp a a ",
"yXyXyXyXyXyXyXyXyXyXyXyXyXyXyX].%Xs.,.4.e.e.w.:.O $ O = # :.:.q & O : d.#.m.F.M.p.v.{.{.{.{.rXrXrXrXyXyX{.{.].'.hXbXmXmXkXp a a ",
"yXyXyXyXyXyXyXyXyXyXyXyXyXyXyXyX].v.s.,.;.>.;.;.9 $ O & # * $ O O O @ 0 ;.m.F.j.p.v.].'. X{.rXrXrXrXyXyX{.{.].].hXbXmXmXkXp a a ",
"yXyXyXyXyXyXyXyXyXyXyXyXyXyXyXyX'.o.v.b.e = h.-.% :.% O % :.6 % $ 6 <.0 2.i.i.3.s.v.rXwXpX[.yXrXrXyXyXyX{.{.].].hXmXmXmXkXp a a ",
"yXyXyXyXyXyXyXyXyXyXyXyXyXyXyXrXrXuXO.c.! r k.* #.q.r.5.&.&.$.$.5.7.a.6 &.e.M.-.l.c.B.wXpX[.uXrXrXrXyXyX{.{.].].hXmXmXmXkXp a a ",
"yXyXyXyXyXyXyXyXyXyXyXyXyXyXyXyX_.iXiXO.8 f.q % 6.>.9.C.C.t.u.u.t.5.:.% #.3.M.<.z.o.N.wXpX|.uX'.rXrXyXyX{.{.].].hXmXmXmXkXp a a ",
"yXyXyXyXyXyXyXyXyXyXyXyXyXyXyXyXsXeX_.+.t A.O $ 6 >.9.0.V.V.y.y.5.5 % # 3.n.k.W x.X.N.yXpX|.uX'.rXrXyXyX{.{.].'.hXmXmXmXkXp a a ",
"yXyXyXyXyXyXyXyXyXyXyXyXyXyXyXuX|.sX..R f.9 o 9 :.6 5 &.5 &.%.%.&.&.-.= 2 3 ! x.o.tXrXyXpX[.uXrXrXrXyXyX{.yX{.'.hXmXmXmXkXp a a ",
"yXyXyXyXyXyXyXyXyXyXyXyXyXyXyX[.sX'.+.t f.O O 0 <.6.5.8.r.q.:.6.r.q.w.6 e l.v.$XtXrXrXuX|.[.uXrXrXyXyXyXyXyX{.'.hXmXmXmXkXp a a ",
"yXyXyXyXyXyXyXyXyXyXyXyXyXyXyXyX[.O.7 g.r & 0 0 7.q.t.V.r.5.6 :.6.u.r.9 1 { ].uXyXrXrXrX[.[.yXrXrXrXyXyX{.{.].'.hXmXMXMXkXp a a ",
"yXyXyXyXyXyXyXyXyXyXyXyXyXyXyXyXuXO.< f.> W w 0 5.9.V.y.5.% O :.q.t.t.:.> { uX_.yXrXrXrX[.[.yXrXrXrXyXyX{.{.].].hXmXMXMXkXp a a ",
"yXyXyXyXyXyXyXyXyXyXyXyXyXyXyXyX'.O.. T  .c.w r t.V.V.5.-.= $ 6 =.9.V.q.> { fXrXeXwXrXrXyX{.].].yXrXyXyX{.{.].].hXbXMXMXkXp a a ",
"yXyXyXyXyXyXyXyXyXyXyXyXyXyXyXyX'.X.Y ] ].$X7 q t.C.t.6.1.O $ 5 =.C.C.7.1 { o.yXeXwXwXrXyX].{.].yXrXyXyX{.{.].].hXbXMXMXkXp a a ",
"yXyXyXyXyXyXyXyXyXyXyXyXyXyXyXyXuXrXrXiX..o.7 q 9.V.y.q.:.O 5 5.0.C.9.7.1 z.o.rXeXeXwXrXrX].[.uXyXrXyXyX{.{.].].hXbXmXmXkXp a a ",
"yXyXyXyXyXyXyXyXyXyXyXyXyXyXyXrX'.rXeX_.sXo.t q 9.Z.y.q.:.# %.5.*.*.5.7.> { fX].yXeXrXrXrXrXuXyXyXrXyXyX{.{.].].hXbXmXmXkXp a a ",
"yXyXyXyXyXyXyXyXyXyXyXyXyXyXyXrXtXrXyXyX].v.w r t.y.0.u.1.# @.2.4.2.%.9 > { $X].|.|.yXrXtXrXeXeXyXrXyXyX{.{.].].hXmXmXmXkXp a a ",
"yXyXyXyXyXyXyXyXyXyXyXyXyXyXyXyXyX'.yXyXfXv.w r 5.9.0.5.6 # 3.H.J.D.>.6 , } ].]. X|.].].rXrXeXeXyXyXyXyX{.yX].].hXmXmXmXkXp a p ",
"yXyXyXyXyXyXyXyXyXyXyXyXyXyXyXyXyXyXyXrXtXO.R r 7.y.0.8.#.* 3.w.e.j.h.& s.x.o.'.].{.].yXyXyXrXyXyXyXyXyXyXyX{.'.hXmXmXmXkXp x p ",
"yXyXyXyXyXyXyXyXyXyXyXyXyXyXyXuXpXpX_.rX].$X{ t 7.y.u.u.w.= = # # #.n.<.s.} o.dX].].].yXyXyXrXyXyXyXyXyXyXyX'.'.hXmXmXmXkXp z z ",
"yXyXyXyXyXyXyXyXyXyXyXyXyXyXyXuXpXpX'.tXo.v.E & 6 5.8.2.;.* # # # # 2 r Q x.tX'.].{.{.yXyXyXyXyXyXyXyXyXyXyX].].hXmXmXmXkXp p p ",
"yXyXyXyXyXyXyXyXyXyXyXyXyXyXyXuX[.|.yX].$X%X, 0 5 2.8.2.@.,.1 + & + + > < } tX_.].{.[.uXyXyXyXyXyXyXyXyXyXyX].].hXmXmXmXkXp p p ",
"yXyXyXyXyXyXyXyXyXyXyXyXyXyXyX{.{.{.rX'.{.$XR e w.D.J.G.1.d.R , @ @ : < 8 [ uXyX{.{.{.yXyXyXyXyXyXyXyXyXyXyX].].hXmXmXmXkXp a p ",
"yXyXyXyXyXyXyXyXyXyXyXyXyXyXyX].{.uX'.yX'.].{ 1 h.G.K.D.,.b.} Y R R R R [ ].uXrX{.].{.yXyXyXyXyXyXyXyXyXyXrX].].hXmXmXmXkXp a p ",
"uXuXyXyXrXrXrXrXrXrXrXrXrXrXrX].'.].rXiXpXyX$XE & j.H.k.w { fX'.x.x.x.c.].'.{.yXyXyXyXrXyXyXyXyXyXrXrXrXrXrX].].hXmXmXmXhXp a p ",
"yXuXyXyXrXrXrXrXrXrXrXrXrXrXrX].uXrXrXwXyX'.].z.W r r w ! O.tX'.].$Xo.tX'.uXyX{.rXrXrXrXrXrXrXrXrXrXrXrXrXrX].].hXmXmXmXhXp a p ",
"'.'.'.'.uX].uXuXtXtXtXtXtXtXtXuXyXyXrXrXrXrXtXc.x.x.x.x.c.].tXtXtXtXtX].uXyXuXyXrXtXtXtXtXtXrXrXtXtXtXtXtXtXtXtXhXvXBXVXgXp P a ",
"[ [ | gXxXxXxXxXxXxXxXxXxXxXxXxXxXxXxXlXlXlXxXzXzXzXzXcXcXcXzXzXlXxXxXxXxXxXxXxXxXlXlXlXxXxXxXxXxXxXxXxXxXxXxXcXgXX.....[ p p a ",
"/ ^ / jXVXNXbXBXBXBXmXmXmXmXmXBXBXBXbXmXmXmXBXBXBXBXBXVXBXmXMXMXmXbXBXBXBXBXBXBXmXmXmXMXmXmXbXbXbXbXmXmXmXmXBXBXgX/ ( ^ I P p P ",
"/ / ^ xXVXbXbXmXmXmXmXmXmXmXmXmXmXmXmXmXbXBXBXBXBXBXBXBXNXbXnXnXMXmXbXbXNXBXbXmXbXmXmXMXnXnXmXmXmXmXmXmXmXmXmXmXdX/ ] / I a . a ",
"( / / jXNXBXVXBXmXmXmXmXmXmXmXmXMXMXnXnXNXBXVXBXBXBXMXMXMXVXVXVXnXmXbXbXBXVXnXnXbXbXmXMXnXnXbXmXmXmXmXmXmXmXmXmXfX/ ( / I P a x ",
"P T a ( / I I I I I I I I I I I Y Y I ( ( ( ( I I U U I I I ( ( I I U U I ( ( I U U U U I I I I I I I I I I I I I P a P P p p p ",
"a a p a p a P P p p p p p p p p L L p a z z p p . 4 4 L p p a a z p L p a z z z p L L a z z a a p p p p p p p p p p a P a a a x "
};
