/* XPM */
static char *_fa69d2e5f3043998190ebf996be09416j8g3vpmjFFiOkc1[] = {
/* columns rows colors chars-per-pixel */
"64 64 18 1 ",
"  c #778089",
". c #2E2E37",
"X c #5A5C68",
"o c #3D3D45",
"O c #34343D",
"+ c #393942",
"@ c #8C8F94",
"# c #4A4C55",
"$ c #A2A5A7",
"% c #404049",
"& c #74777F",
"* c #44454F",
"= c #555560",
"- c #61636D",
"; c #6B6F78",
": c #9B9FA2",
"> c #84898F",
", c black",
/* pixels */
"..+++#%.O+++++++++%#O.++++++++%#O.++++++++o#+.++++++++o#+.++++..",
"..=XX:&.=XXXXXXXX=&:*+XXXXXXX=;:#+XXXXXXXX;:#O=XXXXXX=;:=O=XXXo.",
"o#XX-:&.=XXXXXXXXX&$*+XXXXXXXX&$#+XXXXXXXX;$=OXXXXXXXX;$XOXXXX;&",
"*XXX-:&.=XXXXXXXXX&$*+XXXXXXXX&$#+XXXXXXXX;$=OXXXXXXXX;$=OXXXX@$",
"*XXX-:&.=XXXXXXXXX&$*+XXXXXXXX&$#+XXXXXXXX;$=OXXXXXXXX;$=OXXXX@:",
"*XXX-:&.%-@@@@@@@@ -+O# @@@@@@ -+O#&@@@@@@>-oO*&@@@@@@>-%OXXXX@:",
"*XXX-:&.OX@@@@@@@@&+..o @@@@@@&+..+&@@@@@@&+..+&@@@@@@ o.OXXXX@:",
"*XXX-:&...OOOOOOOO.....OOOOOOO.....OOOOOOOO.....OOOOOOO..OXXXX@:",
"+# @>;#.*######o.%#######*OO####*##*###%.%########OO*###OO*&@@&-",
"O%>@@#O.#=====X#.#======XX++==========X#.#======XXoO===Xo.+;@@XO",
"..OOO...o%%%%%=#.+%%%%%%#X+.%%%%%%%%%%=#.+%%%%%%*Xo.o%*Xo..OOO..",
"+***#;=.+oooo%=#.+oooooo*X+.oooooooooo=#.+oooooo*Xo.oo*Xo.****-;",
"*XXX-:&.+++++o#*.+++++++*=O.++++++++++##.O++++++%=+.++%=+OXXXX@$",
"*XXX-:&..................................................OXXXX>$",
"o# >>&=.OOO.O********o.OOOOOOOOOOOO..OOOOOOOOO.OOOOOOOOO.O#;>>&-",
"O%>:@#O.+oo.o=X=X=X=X#.+ooooooooooo..oooooooo+.+ooooooooO.+&::XO",
"..O++...+oo.O%%%%%%%%+.+ooooooooooo.Ooooooooo+.+ooooooooO..O++..",
"+****-=.+oo.Ooooooooo+.+oooooooooooO.oooooooo+.+ooooooooO.****X;",
"*XXX-:&.+++..++++++++O.++++++++++++..+++++++++.O++++++++.OXXXX@$",
"*XXX-:&..................................................OXXXX>$",
"o=&> &=.OOOOOOO..OOOOOOOOO..OOOOOOOOOOOO.o********O.OOOO.O#;>>&;",
"O%>:@#O.+oooooo+.+oooooooo..ooooooooooo+.#XXXXXXXXo.ooooO.+&::-O",
"..+++...+oooooo+.+oooooooo..ooooooooooo+.+%%%%%%%%O.ooooO..O++O.",
"+*%%*-#.+oooooo+.+ooooooooO.ooooooooooo+.+ooooooooO.ooooO.%%%%=-",
"*XXX-:&.+o++++oO.+o+++++++..++++++++++o+.+o+++++++..++++.OXXXX@$",
"*XXX-:&..................................................OXXXX>$",
"o=&  &=.OOO..OOOOOOOO..OOOOOOOOOOOO..OOOOOOOOO..OOOOOOOO.O#;  &;",
"O*@::#O.+oo.Ooooooooo+.+ooooooooooo..oooooooo+.+ooooooooO.+&::-+",
"..o%o...+oo.Ooooooooo+.+ooooooooooo.Ooooooooo+.+ooooooooO..+%%O.",
"O%%%%X#.+oo.Ooooooooo+.+oooooooooooO.oooooooo+.+ooooooooO.%%%%=X",
"*XXX-:&.+o+.OooooooooO.+oooooooooo+..+ooooooo+.Ooooooooo.OXXXX@$",
"*XXX-:&..................................................OXXXX>$",
"o=&   X.o*#######X=%#########*oOo*####X=Oo*##########*oO.O#;   &",
"O*@$:#O.=;       :@X&        ;=%=;    :@%=-          ;X%O.+&$$-+",
"..%*%...;        $@X&        @ %-     :@X;&          @>%O..+**O.",
"Oooo%=*.;        :@X&        :>%;    @@ X&           :@%O.oooo#=",
"*XXX-:&.;        $@X&        :>%;   >$&XX&           :@%.OXXXX@:",
"*XXX-:&.;        :@X&        :>%;    > &&            :@%.OXXXX@$",
"o=;&& X.;        $@X&        :>%;                    :@%.O#;&& &",
"O*@$:#O.;        :@X&        :>%;                    :@%O.+ $$-+",
"..***O..;        $@X&        :>%;                    :@%O..%**+.",
"Oo++o=*O&@@@@>@@@$>= @@@@>@@@$>%;                    :@%O.oo++#=",
"*XXX-:&O@$$$$$$$$$ %@$$$$$$$$$>%;                    :@%.OXXXX>:",
"*XXX-:&.-;;;;;;;;X#o#X;;;;;;;;X%;               >::::$@%.OXXXX@$",
"%=;&&>-.X---------=o#=-------;-%;              >@@@@@@&%OO#-&&  ",
"O*@$:#O.;        : %;        :>%;              :@-XXX#%oO.o $$-+",
".O*##O.O;        $>=&        :>%;            >: ;&&&&>&%O..%##+.",
"O++++#%.;        :@X&        :>%;            >$&-    :@%O.++++*#",
"*XXX-:&.;        $@X&        :>%;            >$&-    :@%.O=XXX>:",
"*XXX-:&.;        :@X&        :>%;            >$&-    :@%.OXXXX@$",
"%=;;&>-.;  > &   $@X&        :>%;            >$&-    :@%.O=-;; >",
"O*@$:=O.;  :@X&  :@X&        :>%;            >$&-    :@%O.o $$-o",
".O#=#O.O;  :@X-; :@X&        :>%;            >$-=    :@%O..*==o.",
"O+OO+*o.- >$@XX;>$@X >>>>>>>>@&%- >>>>>>>>>>>@$-#& >>@ %O.++OO*#",
"*XXX-:&.=&$$>XX&$$@X@$$$$$$$$&=o=&$$$$$$$$$$$$$-*X@$$&=%OO=XXX>:",
"*XXX-:&.%=--=**=--=#X--------#*o*#-------------*%*=--=*oOOXXXX@:",
"*XXX-:&.O+O+++++O++++O+O+O+O+++++++O+O+O+O+O+O++++++O+++.OXXXX@:",
"*XXX-:&..................................................OXXXX@:",
"*XXX-:&.*#########X&oO########X&%O########=&*O########=&#OXXXX@:",
"*XXX-:&.=XXXXXXXXX&$*oXXXXXXXX&$#+XXXXXXXX&$=OXXXXXXXX;$XOXXXX@:",
"*XXX-:&.=XXXXXXXXX&$*+XXXXXXXX&$#+XXXXXXXX;$=OXXXXXXXX;$XOXXXX@:",
"O* @>;#.%-@@@@@@@@ -+O# @@@@@@ -+O#&@@@@@@ -oO#&@@@@@>>-%.*&@@;=",
".O@$:#O.O-:::::::$ +..%>$::::$ +..o>$::::$>o..+ $::::$>%..+&$:=.",
",,,,,,,,,,,,,,,,,,,,,,,,,,,,,,,,,,,,,,,,,,,,,,,,,,,,,,,,,,,,,,,,"
};
