/* XPM */
static char *_a646ff026074898a4de07ac20be8c6a8T2vc9SmS7hpNFsU[] = {
/* columns rows colors chars-per-pixel */
"64 64 7 1 ",
"  c #D32F2F",
". c #D32F2F",
"X c #D32F2F",
"o c #D32F2F",
"O c #D32F2F",
"+ c #D32F2F",
"@ c #D32F2F",
/* pixels */
"                                                                ",
"@@@@@@@@@@@@@@@@@@@@@@@@@@@@@@@@@@@@@@@@@@@@@@@@@@@@@@@@@@@@@@@@",
"@@@@@@++OOOOOOOOOOOOOOOOOOOOOOOOOOOOOOOOOOOOOOOOOOOOOO++@@@@@@@@",
"@@@@@+OooooooooooooooooooooooooooooooooooooooooooooooooO+@@@@@@@",
"@@@@@OooXXXXXXXXXXXXXXXXXXXXXXXXXXXXXXXXXXXXXXXXXXXXXXoo+@@@@@@@",
"@@@@@OoX..............................................XoO@@@@@@@",
"@@+OOOoooX.............................................ooO++@@@+",
"@+OoooOOooX............................................XXooO+@+O",
"@+ooXoO++oo...............................................oo+@+o",
"@OoX.oO++oo...............................................Xo+@+o",
"@OoX.XoOooX...............................................Xo+@+o",
"@OoX.XXooXX...............................................Xo+@+o",
"@OoX......................................................Xo+@+o",
"@OoX......................................................Xo+@+o",
"@OoX......................................................Xo+@+o",
"@OoX......................................................Xo+@+o",
"@OoX......................................................Xo+@+o",
"@OoX......................................................Xo+@+o",
"@OoX......................................................Xo+@+o",
"@OoX......................................................Xo+@+o",
"@OoX......................................................Xo+@+o",
"@OoX......................................................Xo+@+o",
"@OoX......................................................Xo+@+o",
"@OoX......................................................Xo+@+o",
"@OoX......................................................Xo+@+o",
"@+OooXX...................................................Xo+@+O",
"@@+OooX...................................................Xo+@@+",
"@@@@+oo...................................................Xo+@@@",
"@@@@+Oo...................................................Xo+@@@",
"@@+OOoX...................................................Xo+@@@",
"@+OooXX...................................................Xo+@@@",
"@+oo......................................................Xo+@@@",
"@OoX......................................................Xo+@@@",
"@OoX......................................................Xo+@@@",
"@OoX......................................................Xo+@@@",
"@OoX......................................................Xo+@@@",
"@OoX......................................................Xo+@@@",
"@OoX......................................................Xo+@@+",
"@OoX......................................................Xo+@+O",
"@OoX......................................................Xo+@+o",
"@OoX......................................................Xo+@+o",
"@OoX......................................................Xo+@+o",
"@OoX......................................................Xo+@+o",
"@OoX......................................................Xo+@+o",
"@OoX......................................................Xo+@+o",
"@OoX......................................................Xo+@+o",
"@OoX......................................................Xo+@+o",
"@OoX......................................................Xo+@+o",
"@OoX......................................................Xo+@+o",
"@OoX......................................................Xo+@+o",
"@OoX......................................................Xo+@+o",
"@OoX......................................................Xo+@+o",
"@OoX......................................................Xo+@+o",
"@OoX......................................................Xo+@+o",
"@OoX......................................................Xo+@+o",
"@+oo.....................................................Xoo+@+o",
"@+OooXX................................................XoooO+@@O",
"@@++OoX................................................ooO++@@@+",
"@@@@@Oo...............................................XoO@@@@@@@",
"@@@@@OooXXXXXXXXXXXXXXXXXXXXXXXXXXXXXXXXXXXXXXXXXXXXXXoo+@@@@@@@",
"@@@@@+OooooooooooooooooooooooooooooooooooooooooooooooooO+@@@@@@@",
"@@@@@@++++++++++++++++++++++++++++++++++++++++++++++++++@@@@@@@@",
"@@@@@@@@@@@@@@@@@@@@@@@@@@@@@@@@@@@@@@@@@@@@@@@@@@@@@@@@@@@@@@@@",
"@@@@@@@++++++++++++++++++++++++++++++++++++++++++++++++@@@@@@@@@"
};
