/* XPM */
static char *_4249ea7369043b88174a716d01339179IWEI6JBH2W2xOJX[] = {
/* columns rows colors chars-per-pixel */
"64 63 228 2 ",
"   c #37373F",
".  c #3D3D45",
"X  c #42424A",
"o  c #4E4F54",
"O  c #4C4C58",
"+  c #51525E",
"@  c #6C5D4B",
"#  c #7B6C58",
"$  c #7A6B4C",
"%  c #5A5C69",
"&  c #585A67",
"*  c #5D646E",
"=  c #786D64",
"-  c #7B776C",
";  c #666874",
":  c #636773",
">  c #737473",
",  c #7C7B74",
"<  c #72757B",
"1  c #747A7C",
"2  c #7B7C7B",
"3  c #787673",
"4  c #60626F",
"5  c #976732",
"6  c #8F6B3C",
"7  c #B1792E",
"8  c #866B48",
"9  c #847155",
"0  c #887858",
"q  c #9B7D55",
"w  c #957C59",
"e  c #92744E",
"r  c #A87B48",
"t  c #A57D53",
"y  c #867A68",
"u  c #957F64",
"i  c #817C74",
"p  c #7D827C",
"a  c #7E8177",
"s  c #7C806F",
"d  c #A9922E",
"f  c #B1952F",
"g  c #A98F38",
"h  c #B9863A",
"j  c #AC9133",
"k  c #B49636",
"l  c #998F3A",
"z  c #CE8D0C",
"x  c #D38D0D",
"c  c #D78E03",
"v  c #CD920E",
"b  c #CF9005",
"n  c #D3930E",
"m  c #D9960C",
"M  c #D69B0D",
"N  c #DA9C0B",
"B  c #D49207",
"V  c #CD8D14",
"C  c #CF871B",
"Z  c #C58E1B",
"A  c #CC8C1C",
"S  c #C28E14",
"D  c #D28C14",
"F  c #DB8C15",
"G  c #D4871D",
"H  c #D9871B",
"J  c #D38B1C",
"K  c #D9891A",
"L  c #CC9215",
"P  c #CD911B",
"I  c #C99517",
"U  c #D39313",
"Y  c #D49B14",
"T  c #DB9B13",
"R  c #D4911A",
"E  c #DB9916",
"W  c #E29E13",
"Q  c #D8A10C",
"!  c #DEA315",
"~  c #DEA31A",
"^  c #D9A417",
"/  c #E3A314",
"(  c #E4AA14",
")  c #E4A41A",
"_  c #E9A71C",
"`  c #E5AB19",
"'  c #EBAC1D",
"]  c #EBA914",
"[  c #ECB314",
"{  c #ECB41C",
"}  c #E9B81A",
"|  c #F3BC1D",
" . c #F4B918",
".. c #E9AA12",
"X. c #CD8624",
"o. c #C68C24",
"O. c #CD8B23",
"+. c #CC862C",
"@. c #C58C2D",
"#. c #CB8B2B",
"$. c #C5862A",
"%. c #D38725",
"&. c #D98624",
"*. c #D28B23",
"=. c #D4872B",
"-. c #D28B2B",
";. c #DA8828",
":. c #CD9127",
">. c #D2902A",
",. c #D29020",
"<. c #C28633",
"1. c #CB8632",
"2. c #C58C34",
"3. c #CC8B32",
"4. c #C48A3B",
"5. c #CA8B3C",
"6. c #C8863C",
"7. c #D28D33",
"8. c #D18935",
"9. c #C8963D",
"0. c #D29135",
"q. c #D69139",
"w. c #DDBA3B",
"e. c #D4B63F",
"r. c #CEAE37",
"t. c #E8A921",
"y. c #ECB423",
"u. c #E4BB25",
"i. c #ECBB22",
"p. c #EDBC2C",
"a. c #E6B629",
"s. c #F2B524",
"d. c #F3BC23",
"f. c #F3BE2B",
"g. c #F5B72B",
"h. c #E9BB39",
"j. c #F1B531",
"k. c #F7C319",
"l. c #EDC41E",
"z. c #DEC138",
"x. c #EDC32A",
"c. c #EAC429",
"v. c #F3C325",
"b. c #F9C223",
"n. c #F3C22C",
"m. c #F5C82B",
"M. c #EDC533",
"N. c #EBC43B",
"B. c #E9C638",
"V. c #F3C231",
"C. c #F1C53E",
"Z. c #9B8457",
"A. c #A98346",
"S. c #AA864B",
"D. c #BC8944",
"F. c #B5834B",
"G. c #B68847",
"H. c #A78556",
"J. c #BA8B55",
"K. c #A49659",
"L. c #B79556",
"P. c #AF9449",
"I. c #BDA94C",
"U. c #BCAC5B",
"Y. c #B9A757",
"T. c #8C8B6D",
"R. c #898569",
"E. c #9C8463",
"W. c #9C846B",
"Q. c #948E6B",
"!. c #948467",
"~. c #9C9265",
"^. c #95926F",
"/. c #828374",
"(. c #8D8C75",
"). c #84857A",
"_. c #8A8C7C",
"`. c #89877C",
"'. c #968773",
"]. c #959578",
"[. c #A4886A",
"{. c #A59965",
"}. c #AA986E",
"|. c #AEA566",
" X c #B7A865",
".X c #A6A273",
"XX c #BDAC74",
"oX c #C48C43",
"OX c #C98B43",
"+X c #C49453",
"@X c #C3AA4C",
"#X c #C6B348",
"$X c #DAB947",
"%X c #C2AB54",
"&X c #C4AB58",
"*X c #D5BA55",
"=X c #D7BA59",
"-X c #CBB350",
";X c #E4BC44",
":X c #E9BD44",
">X c #CAB965",
",X c #D1B76D",
"<X c #DCC449",
"1X c #DAC457",
"2X c #E5C246",
"3X c #EAC84E",
"4X c #E2CA60",
"5X c #6E7580",
"6X c #757D84",
"7X c #797F84",
"8X c #757F88",
"9X c #757A85",
"0X c #768187",
"qX c #7B8284",
"wX c #768089",
"eX c #78828A",
"rX c #7F888F",
"tX c #818584",
"yX c #858A84",
"uX c #8B8D82",
"iX c #808990",
"pX c #898C93",
"aX c #93959A",
"sX c #8F929B",
"dX c #979CA0",
"fX c #A1A5A8",
"gX c #A5A9AC",
"hX c #A0A4A7",
/* pixels */
"O O O + * * * * * * * * * * * * * * * * * * * * * * * * * * * * * * * * * * * * * * * * * * * * * * * * * * * * + o O O .       ",
"& & & * 8X8X8X8X8X8X8X8X8X8X8X8X8X8X8X8X8X8X8X8XwXwX8X8XwX0X8X8X8X8X8X8X8X8X8X8X8X8X8X8X8X8X8X8X8X8X8X8X8X8X8X8X: & & & X . . . ",
"% % % 4 wXwXwXwXwXwXwXwXwXwXwXwXwXwXwXwXwXwXwX0XwXwXwXwXwX0XwXwXwXwXwXwXwXwX8XwXwXwXwXwXwXwXwXwXwXwXwXwXwXwXwX8X: % % % X . . . ",
"% % % * wXwXwXwXwXwXwXwXwXwXwXwXwXwXwXwXwXwXwXwXwXwXwXwXwXwXwXwX8XwXwX8XwXwXwXwX8XwXwXwXwX8XwXwXwXwXwXwXwXwXwX8X; % % % X . . . ",
"5X5X5X5XwXwXwXwXwXwXwXwXwXwXwXwXwXwXwXwXwXwXwXwX8X8X8X8XwXwXwXwXwXwXwXwX0XwXwXwXwXwXwXwXwXwXwXwXwXwXwXwXwXwXwXwXpXsXsXsXo . . . ",
"wXwXwXwXwXwXwXwXwXwXwXwXwXwXwXwXwXwXwXwXwX0XeXyXuXuX_._._.uXuXuXuXuXuXyXtXqXwXwXwXwXwXwXwXwXwXwXwXwXwXwXwXwXwXwXdXfXgXgXo . . . ",
"wXwXwXwXwXwXwXwXwXwXwXwXwXwXwXwXwXwXwXwXwX0X(.>X=X=X*X*X*X=X=X=X*X1X=X*X&X}.qXwX8XwXwXwXwXwXwX0XwXwXwXwXwXwXwXwXdXgXgXgXo . . . ",
"wXwX8XwXwXwXwXwXwXwXwXwXwXwXwXwXwX0X).T.!.Z.@XC.x.u.u.y.y.j.j.j.i.u.u.v.x.$X{.T.(.`.0XwXwXwXwXwXwXwXwXwXwXwXwXwXdXgXgXgXo . . . ",
"wXwXwXwXwXwXwXwX8XwXwXwXwXwXwXwX0Xp >X2X;Xh.p.v.i.^ U n m F F F U L Y d.b.f.h.2X<X>XR.0XwXwXwXwXwXwX8XwXwXwXwXwXdXgXgXgXo . . . ",
"wXwXwXwXwXwXwXwXwXwXwXwXwXwXeXp R.K.N.n.y.! / ! ^ L R R J *.*.-.*.J A Y T ~ ~ ~ v.B.I.T.s 2 0XwXwXwXwXwXwXwXwXwXdXgXgXgXo . . . ",
"wXwXwXwXwXwXwXwXwXwXwXwXwXeX_.U.#X:Xn.d./ x D V P L P ,.#.4.h 2.#.O.J V V V z T | v.M.e.#X|.p wXwXwXwX0XwXwXwXwXdXgXgXgXo . . . ",
"wXwXwXwXwXwXwXwXwXwXwX8XwXqXK.B.n.g.( N m D D J P L P @.G.# # A.2.Z D A A P D U W / | m.M.<XR.8XwXwX0XwXwXwXwXwXdXgXgXgXo . . . ",
"wXwXwXwXwXwXwXwXwXwXwXwXuX{.e.i.../ U D D D J O.A J O.oXw < < 9 oX#.J J A Z A A D n E ' i.B.Y.].qXwXwXwXwXwXwXwXdXgXgXgXo . . . ",
"wXwXwXwXwXwXwXwXwXwXwXqX|.3Xn.{ N U *.O.J A *.*.*.*.#.J.y wX8X- J.5.=.*.*.A O.A O.A D D _ f.N.1X].0XwXwXwXwXwXwXdXgXgXgXo . . . ",
"wXwXwXwXwXwXwXwXwXwXtXXX;Xd.] / U A *.*.O.O.O.-.%.#.h y 1 wXwX1 y F.1.*.*.*.*.O.A A V A E ) y.C.Y./.0XwX8XwXwXwXdXgXgXgXo . . . ",
"wXwXwXwXwXwXwXwXwXwX_.4Xm.[ B x D ,.J *.O.O.O.*.*.2.Z.< 8XwXwX8X1 Z.9.#.*.%.%.*.A A P P A z T p.2X>X/.wXwXwXwXwXdXgXgXgXo . . . ",
"wXwXwXwXwX0XwXwXwXeXT.3Xm.{ n D D O.*.*.*.O.O.O.3.G.R.8XwXwXwXwX1 y S.@.#.X.%.X.O.#.>.o.A D E g.v.<XR.0XwXwXwXeXdXgXgXgXo . . . ",
"wXwXwXwXwXwX8XwXtX.X%XN.` E D D D J H &.*.O.A X.5.8 1 wXwXwXwXwX8X1 $ h O.X.O.O.-.7.0.>.*.D J ) } M.I.T.0XwXwXwXdXgXgXgXo . . . ",
"eXwXwXwX8XwXwXwX].1X2Xj.U D K J A *.H *.*.O.A o.5.8 6XwXwXwXwXwX0X8X9 h O.X.X.-.-.0.0.#.*.J A z / b.N.U.p wXwXeXdXgXgXgXo . . . ",
"wXwXwXwX8XwXwX6X~.2Xa.E D J J O.#.+.#.O.O.Z A X.1.t , wXwXwXwXwXwXi A.#.J #.7.0.>.>.>.O.A A V z / d.m.#X).wXwXwXdXgXgXgXo . . . ",
"wXwXwX0XwXwXwX6XK.N.^ L A O.O.#.1.3.#.#.O.A A C +.J.'.8XwXwXwXwX8X!.D.O.G -.q.0.-.O.Z Z A A A V m / d.$X/.wX0XwXdXgXgXgXo . . . ",
"wXwXwXwXwXwX2 R.9.f.~ Z Z O.#.+.#.O.+.#.O.A A X.X.D.!.8XwXwXwXwX6X!.OX=.-.7.3.#.O.O.O.Z O.X.O.P v m s.h.Z./.8XwXdXgXgXgXo . . . ",
"wXwXwXwXwXwX(.*Xx.| ! S Z O.*.-.O.O.1.+.O.O.O.X.X.4.Z.6XwXwXwXwX9XE.oX3.q.0.2.@.@.<.1.#.*.-.*.A L n s.n.;X|.1 wXdXgXgXgXo . . . ",
"wXwXwX0XwX8XQ.2X| [ Y Z Z Z X.X.#.7 r F.G.G.G.h $.<.q 1 wXwXwXwX1 E.+XOXOXJ.L.S.S.t r $.-.=.%.A P L ~ d.M.&X1 eXdXgXgXgXo . . . ",
"wXwXwXwXwX6XQ.2Xi.n V A Z O.X.$.D.8 = 3 , , - w D.4.H.3 8XwXwX8X2 E.+X+Xq i i 2 3 3 - h 1.=.%.X.O.P v ` V.&X1 8XdXgXgXgXo . . . ",
"wXwXwXwXwX6XQ.$Xi.n J *.O.$.<.h H., 8XwXwXwX8X2 [.H.[.`.8XwX8X8Xi [.H.E.i 8XwXwXwXwX2 Z.D.<.-.G A V z ( h.U.1 wXdXgXgXgXo . . . ",
"wXwX0XwX0X1 ~.2Xi.U C +.6.G.q y , 6XwXwXwXwXwX8X< > i 2 8XeX8X8X2 , > > 8XwXwXwXwXwX8X, R.q h #.O.A z ` p.Y.1 wXdXgXgXgXo . . . ",
"wXwXwXwXwX1 K.B.} n O.OXt y 2 6X0XwXwXwXwXwXwXwX8X8X0X8XwXwXwXwX8X0X8X8XwXwXwXwXwXwXwXwX8X2 0 r h O.D ( f.I.1 wXdXgXgXgXo . . . ",
"wXwX8X8XwX- k V.[ n #.F.3 9X8XwXwXwXwXwX8XwXwXwXwXwXwX8XwXwXwXwXwXwXwXwXwXwX8XwXwXwXwXwX8X8X< = r @.V _ f.%X1 wXdXgXgXgXo . . . ",
"wX8X8XwXwX!.r.n.{ v @.F.3 8XwXwXwXwX8XwXwXwXwXwXwXwXwXwXwXwXwXwXwXwXwXwXwXwX0XwXwXwXwXwXwXwX9X> e @.L _ V.%X1 wXdXgXgXgXo . . . ",
"0X8XwXwXwXy r.m.[ v o.oXq /.8XwXwXwXwXwXwXwXwXwXwXwXwX8X8XwXwXwXwXwXwXwXwXwXwX8XwX0XwXwXwX9Xy q h @.L ` n.Y.1 wXdXgXgXgXo . . . ",
"wX0XwXwXwX- @Xm.[ m J *.2.G.w - 7XwXwXwXwX8X0XwX7X1 2 7XwXwXwXwX0XqX7X7XwXwXwXwXwXwX0X1 - w F.6.-.A D ] n.%X1 wXdXgXgXgXo . . . ",
"wXwXwXwXwX3 L.N.[ c F &.*.#.2.G.'.7XwXwXwXwXwX1 '.W.'.tX8XwXwXwXtX'.[.'.3 wXwXwXwXwX7XW.L.4.+.%.G C x ] n.@X1 wXdXgXgXgXo . . . ",
"wXwXwXwXwX6X~.;Xy.m K *.*.-.-.1.J.= < 2 2 2 , u J.J.[.2 8XwXwXwXqX[.D.G.0 i 2 2 2 6X2 S.5.#.-.*.C D x ] v.@X1 eXdXgXgXgXo . . . ",
"wXwX8XwXwX2 0 w.d.t.R ,.O.O.-.#.5.5 9 q H.S.A.h 1.oXW.6XwXwXwX0X8XW.5.#.h A.t t q y 0 h #.O.O.O.A A x ] n.I.1 eXdXgXgXgXo . . . ",
"wXwXwXwXwX(.P.u.k.| T I Z O.*.*.o.@.<.3.#.:.@.#.O.4.u 6XwXwXwXwX8XW.5.O.o.#.+.8.2.D.D.2.O.O.#.o.Z A D _ V.U.6XwXdXgXgXgXo . . . ",
"wXwXwX0XwX_.Y.x.k. .M L o.#.-.*.O.O.%.&.*.O.@.#.X.4.u 8XwXwXwXwX8XW.5.#.O.O.%.&.O.@.2.o.A J O.O.Z V / s.M. X0XwXdXgXgXgXo . . . ",
"wX0XwXwX8XqXQ.w.k. .N L *.-.;.&.*.J H H *.O.@.@.X.4.u 6XwXeXwXwX8XW.OXO.Z O.*.*.A O.O.*.G G %.*.V z ' V.2X.XwXwXdXgXgXgXo . . . ",
"wXwXwXwXwXwX_.>Xc. .Q U J &.&.&.*.J H H J o.@.#.+.D.!.8XwX8X8XwX8X'.oX#.O.O.O.*.A D K H G H G J V b ' h.{.uXwXwXdXgXgXgXo . . . ",
"wXwXwXwXwXwX0X_.I.c.d.t.J *.&.*.*.*.*.*.O.O.O.#.1.r i 8XwXwX8X8X8X).J.2.O.O.*.*.O.D K J K K D D U ! p.@Xp 8XwXwXdXgXgXgXo . . . ",
"wXwXwXwXwXwXwXwX~.z.v.y.L J *.A *.*.*.O.O.J J %.8.6 < wXwX8X8XwXwX6X9 h O.%.&.*.O.O.O.O.A D z z ) f.N. XqXwX8XwXdXgXgXgXo . . . ",
"wXwXwXwXwXwXwXwX).#Xc.} Y P Z A J *.-.O.O.D F H -.6 > wXwX8XwXwX8X6X0 h O.G &.%.#.#.+.#.O.V z b ) f.-X].0XwXwXwXdXgXgXgXo . . . ",
"wXwXwXwXwXwXwXwXqXY.c.l.Q v P O.*.J -.O.J J D J O.h 0 < 8XwXwX0X, w G.@.O.*.%.%.-.-.*.O.A V n ) t.$X{.0XwXeXwXeXdXgXgXgXo . . . ",
"wXwXwXwXwXwXwXwX0X].U.B.} ` Y *.*.*.O.-.J J H *.O.2.G.!.7XwXwXqX[.oX-.>.O.O.O.O.*.O.O.A V U ) y.$XXX_.wXwXwXwXwXdXgXgXgXo . . . ",
"wXwXwXwXwXwXwXwXwXwXyX=XV.b.' J *.O.-.*.J *.*.;.&.-.4.Z.2 8X8X2 H.7.*.-.O.O.J A Z O.O.A U _ | h.{.0XwXwXwX0XwXwXdXgXgXgXo . . . ",
"wXwXwXwXwXwXwXwXwXwXyX,X2Xb.[ n R J O.*.J A *.;.&.=.8.F.# 6X< # G.3.-.*.*.*.H D A A A V n { f.*X].wXwXwXwX8X0XwXdXgXgXgXo . . . ",
"wXwXwXwXwXwXwXwXwXwXeXuX{.w.| { ` U D A P A A J &.=.-.2.A.@ @ S.4.-.*.O.O.*.G K D z Y ~ ` p.I.Q.tXwXwXwXwXwXwXwXdXgXgXgXo . . . ",
"wXwXwXwXwXwXwXwXwX8XwXwXqX|.z.c.| ( T V V P L V *.O.O.O.h 5 5 4.-.*.*.O.O.O.*.K D M { v.M.*X^.7XwXwXwXwXwXwXwXwXdXgXgXgXo . . . ",
"wXwXwXwXwXwXwXwXwXwXwX0XwX).|.&Xw.x.( M U L L A ,.A A Z #.5.6.-.%.G J O.O.-.J m N ( v.N.-X.XtX0XwXwXwXwXwXwXwXwXdXgXgXgXo . . . ",
"wXwXwXwXwXwXwXwXwXwXwXwXwXwXtX`.~.;Xx.i.y.! v D V P P A O.7.=.*.J J D A A z t.{  .i.w.K._.0XwXwXwXwXwXwXwXwXwXwXdXgXgXgXo . . . ",
"wXwXwXwXwXwXwXwXwXwX8XwX8X0XwXwX/. X$XN.V.s.) _ ) U V R R J J A A L x / ! ` f.d.V.;XK.qXeXwXwXwXwXwXwXwXwXwXwXwXdXgXgXgXo . . . ",
"wXwXwXwXwXwXwXwXwXwXwXwXwXwXwXwX0Xa ~. X%Xh.V.b.b./ M T M N T Y Y Y Q | v.M.e.%XU..Xp 8XwXwXwXwXwXwXwXwXwXwXwXwXdXgXgXgXo . . . ",
"wXwXwXwXwXwXwXwXwXwXwXwXwXwXwXwXwXwX6X1 a |.<XM.v.l.d.d.d.k.| d.d.d.k.b.M.1XQ.2 1 6XwXwXwXwXwXwXwXwXwXwXwXwXwXwXdXgXgXgXo . . . ",
"wXwXwXwXwXwXwXwXwXwXwXwXwX8XwX0XwXwXwXwX8X2 R.K.z.c.p.p.p.d.| i.x.x.i.a.P._.qXwXwXwXwX8XwXwXwX8XwXwXwXwXwXwXwXwXdXgXgXgXo . . . ",
"wXwXwXwXwXwXwXwXwXwXwXwXwXwXwXwXwXwXwXwXwX8X6XR.l d j j j f f f d d d g 0 8XwX8XwXwXwXwXwXwXwXwXwXwXwXwXwXwXwXwXdXgXgXgXo . . . ",
"wXwXwXwXwXwXwXwXwXwXwXwXwXwXwXwXwXwXwX8XwXwXwX8XwXwX0XwXwXwXwXwXwXwX8XwX8XwXwXwXwXwXwXwXwX8XwXwXwXwXwXwXwXwXwXwXdXgXgXgXo . . . ",
"6X6X6X8XiXiXrXiXiXiXiXiXiXiXiXiXiXiXiXiXiXiXiXiXiXiXiXiXiXiXiXiXiXrXiXiXiXiXiXiXiXiXiXiXiXiXiXiXiXiXiXiXiXiXiXiXsXaXaXaXo . . . ",
"% % % ; gXgXgXgXgXgXgXgXgXgXgXgXgXgXgXgXgXgXgXgXgXgXgXgXgXgXgXgXgXgXgXgXgXgXgXgXgXgXgXgXgXgXgXgXgXgXgXgXgXgXgXfX5X% % % X . . . ",
"% % % ; gXgXgXgXgXgXgXgXgXgXgXgXgXgXgXgXgXgXgXgXgXgXgXgXgXgXgXgXgXgXgXgXgXgXgXgXgXgXgXgXgXgXgXgXgXgXgXgXgXgXgXfX< % % % X . . . ",
"% % % ; gXgXgXgXgXgXgXgXgXgXgXgXgXgXgXgXgXgXgXgXgXgXgXgXgXgXgXgXgXgXgXgXgXgXgXgXgXgXgXgXgXgXgXgXgXgXgXgXgXgXgXfX< % % & X . . . ",
"& & & : fXfXfXfXfXfXfXfXfXfXfXfXfXfXfXfXfXfXfXfXfXfXfXfXfXfXfXfXfXfXfXfXfXfXfXfXfXfXfXfXfXfXfXfXfXfXfXfXfXfXfXhX< % & & X . . . ",
". . . . . . . . . . . . . . . . . . . . . . . . . . . . . . . . . . . . . . . . . . . . . . . . . . . . . . . . . . . . . . . . ",
". . . . . . . . . . . . . . . . . . . . . . . . . . . . . . . . . . . . . . . . . . . . . . . . . . . . . . . . . . . . . . . . "
};
