/* XPM */
static char *evil_closed[] = {
/* columns rows colors chars-per-pixel */
"64 64 29 1 ",
"  c #2E242D",
". c #31262F",
"X c #312730",
"o c #352A32",
"O c #392E35",
"+ c #3B3037",
"@ c #3E3339",
"# c #41363C",
"$ c #43393E",
"% c #473C40",
"& c #493E42",
"* c #4E4346",
"= c #4F4348",
"- c #504547",
"; c #514649",
": c #55494C",
"> c #584C4F",
", c #5B4E51",
"< c #5E5053",
"1 c #625356",
"2 c #685456",
"3 c #655659",
"4 c #695758",
"5 c #67585A",
"6 c #6C5B5C",
"7 c #715D5E",
"8 c #725F60",
"9 c #766262",
"0 c #7A6464",
/* pixels */
",,,,<$731111111%::@<,,,,,,,,>$>><>>,,,,$>>,,,,,;-6<<<<5<<<@<*-,,",
"*****@565555556#*&$:*-*****:<>1<<<<>:;-@;*******$856555565+-$*;*",
"-****@;0099757,@*&$:***-:>38609864633<,%**;;*;-*@<0099666-+;$*;*",
"@@@+@o;5::::>**@@@%@@%-,536,;;;-;:;:<3<<%O+@+@++@<<>::::;*O+#%@@",
">:>@:@:3-***:**+-:>:*:67:$$O..oooXXo%%;<<:@;:-#:@<,***;;*%@:>>;:",
"**-@:@,6******$X&*-*:66:O.OOOO&&&$O%$++%,<:@**$;+8,******++***--",
"***@:@;1*$***&@o***:63*Oo@*****-**@>-*%@$*,;@%#-+<<*****$++**-**",
"#@@o#o;,;;**%@*@@%:63@ oo@@@@+@@@@+$@@@+oO*,*@@#+,:;***@#*O@@@@@",
",:;;:@;:*:%$&:*o;;<:@o@;;:::>@:::::::::@:%O::#&-@,;;*$#*:#@:**::",
"**;;*+*;**;*%*#X*,,*++**:;***@:********@:*oO$*#$@:;*==***++-@*;*",
"*****+o$****&+o.;<*O.*******=@:********+:-*X@<*@ @%****$oX+-O*;*",
"***&*O @@@+Oo#oX,,@  @****%**@=*%****%OO-&*@O:>O X#@++O+@Xo@o***",
"#$$O#oO2<:;**:$o,;Xo@@$$+@@%$*%$+@%$$$$*%$$$o%<$ *<<:;*;;+o#&*##",
";::#:@;2<51,>:*+*@.@>:::%*>:::::%%::::::::::&+>-O<<13<,:;%@:::::",
"***@:@-@@:<,#+*+*+o*;***$*=*****$$***********+&-@=+%<<:@@*@*****",
"-==@:@#  ;8>. ++$o@---;=$*;--*-=$$-***--*----@O&@o X<5*  @@*;;**",
"$$$@%+@.O2<;oX&##.#$$$$$@%%@$$$$@@@$%@%@%@$@$@.@@@ $6>& o&o%%%%%",
"***>$X*<4;$+:21##.&&&;;&;*@==&**::=*@%****;*=$.@@:<5%%%>2>#&&&&&",
";;;;$X;11*<*<4>O #&-;;;;**$>=>;;;;:;%=:;;;--:-@ O,3,&1&32&&>;:&>",
"***-$ X*:>><:;#..&---&--**$>********$*;**--**-$. O;:>,>;&+%>&:&&",
"*=*;$ @##$$$$#$ O**-----=*$;*=***---@;:--******o &O#%$%#%@@:-&--",
"@@@@#o@*$$$$$#@ O+##O#O#@@$$@o@@@@@@@%@@@@@@@@@@X%&%%#%%@oo%##@+",
":::::#=%-;---$..&::;$:::>:>::$@,:::::>:::@::>::;#&&:--;-+ @::>%&",
"*;**=@::@+++@.  #--&$;--****;=%:*-*--***;@:-*=*%#,-+OOOO  O;&;%&",
"***-*@*55*@oo+..#**&%:&-**-**&$:****-****@>*****+:65$@ OoX+--=#&",
"=*--=@*>65:&&-@o#-**$:---**-**$:-----*--=@>**;**@*561:$-&++&--%;",
"$$$$$o*,11;***@.O###$&$$#$$###$%@@$$@@@$$@%$$$$@+*11,***&Oo%%%@%",
"*&@**@%,1,**-$@o$&&-:&*O&*=**=:=**@**;***:=*$$**@-11;***#O#&%&;;",
";*%:=@%<1;*-*$+o$>:;;;-#,;;;;;;;**$::-;,;;;;%=;*@-1<**-*@OO;::;;",
"**%:*@*,1;***$+o@*----*#:*==***=**$:**--**=;$=;*+-<<-***@O@*&;==",
"$@#%$o*,1>***@+oo##$$$$#&%%#$#$#$$#%$#$$$$$$@%$@@;1<:***@Oo%#%$$",
"**:=*@&,<;****@.O**&**&:-&&O**=*=*:**+***=*=;;*%@=<>;***$O %=&*=",
";;-;-@*,,***$*@X#>;;;;;;;;;@:;;;=:;;;#::*;;;;;**+;<>*--$&+ -:;;;",
"*****+&,,****$@X#:*********@:******;*@:*********+*<>***$$+ *-***",
"*****@&,,-**$$@X@:******;*;@:;;*****-@:****=****@;<>***%%+ *;-**",
"$$+@@O*,,****%@o@##@@#@@@@@$$@@@@@@@@$$@###@@#@++;<>***%%+O$@@@#",
";*$::@*,,*-***O *::::::#:::>:::;#>:;::::::::&&:;@*<>;***%X@:::::",
"**$:*@&,,-;***O @******@:*;***;%$:***-*;****$*;%@;<:****%X+--*-*",
"*&$:*+*,,****%+O+%*****@:****;;&$:*****-****$=;*@;<:****%++*-**-",
"*&$-&+*<,*****OXO$**%**@;*$%*&&%#;*%*%***%**#&*%+*<>*;*;$XO*&&*&",
"$$*$$+&,,*****+oo+$$$$$*%$&%O$$%*$$$$#O$$$#$*&##@-<:****$Oo+#$$$",
":::::#*,<****++OO*>::::::::;$>:::::::*$,:::::::;@-1:****++@$::::",
"*****@&,,***$%@Xo*;********&$:********$:*******&+-1:***@&++@:***",
"**-**@&,<**%$*@Oo*;***;**;*&$:****;***$:;*******@-1:**%&%++@:---",
"$$$$$O&,,%$#;*@XO%$$$$$#$$$$$%$$$##$$##%$$$$$$$#+*1:$$$;$OO@&$$$",
"**&**@*:,%***%@o%;**$$**%***;*$$******:***@=*%&&@*>:$-;*#++:***+",
",**;-@&*,****$+o$;;;$*;%:;;;;;%*:;;;;;;;**#:$;:*@*::****@++;;;;+",
">%;**+*-,****%@X@&*;$***;*;***$*;;**;*****#:&;**+*::****$++-***+",
",****+*-:***-*+o+***$*;****;**$;;*;******&%;****@*:;**-*$++****+",
"$@@@+O@**-***$O O@@@$$#@@@@@@@%%#@@@@@@##@%%#@@#o$******@oo@#@@$",
":::::+.@****$O  @::::::::::#::>::::::$::;:>;;:;;.o$-*-*#o  %>::>",
"*-*-*+X++%&@o   $:*****;***@:*;-*****@:*--**--*&.O+@%$+o.  *-***",
"*-***+X%*+oXXO  $:*********@:********@:*********.O*$Ooooo  *-***",
"&*&*&OX&:*%%@+  @**%&%*****@**%**&&*&@;&*&&*&*&&.O::%%$+O  *****",
"$$O$$oX&,;****O $$$$$$$+@$$*$$$+$$$$$*%$$%$$@@%# O;,--**$.+*$$#$",
":-$>:+o*<;****+X%:::::;#:::::::$:::::::::::;%*:-oO:,-**-%o+::::-",
"**$;*@;*<;--**-@#******#:*****-@:***********$*-*$*:<-*****@*****",
"**$>*$,<>;-;-><$#******@:*--*--@:****-;****;$*;&$1,;----<,@*--*-",
"$@@&$O*<111<<<>@+$$$$$$#*@$$$$$@*$$$$$$$$$$$@&%#+>1<11111-O$$$$$",
"**;**@*,11<><>*o+******:-**-@$*-%****+******;;*&@-111,,1:$.$****",
"-;;;-@*,,-;;;-* #:;-;;;;;;;;$$;::;;;*#:;;;;-;;**@-1:*::-*@.*:;;;",
"*****@%,,-;*-*$X#:********--$$----***@:***--***&+-<:***-*+.*****",
"***-*@$-;;**%$O #:***-*****-$$-*-****@:-********O*:;***%@O *;*-*",
"@++++Xo@$$$$@oX o@@+++++++++oO+++++++o@++++++@OO O@$$$@+X..+++++"
};

