/* XPM */
static char *e97819fbc9114eedf22754e90c033ae5hmwOX4TS9cnH7sYo[] = {
/* columns rows colors chars-per-pixel */
"64 63 227 2 ",
"   c #320D16",
".  c #351131",
"X  c #36273E",
"o  c #37373E",
"O  c #481A14",
"+  c #501E17",
"@  c #572717",
"#  c #4C2419",
"$  c #673718",
"%  c #73391D",
"&  c #672A17",
"*  c #430D3B",
"=  c #531C2C",
"-  c #522729",
";  c #5C352C",
":  c #482A37",
">  c #4C3836",
",  c #573A3C",
"<  c #4B282E",
"1  c #662D25",
"2  c #693823",
"3  c #743B29",
"4  c #642933",
"5  c #673E36",
"6  c #753233",
"7  c #6C421B",
"8  c #7C4B1D",
"9  c #774517",
"0  c #54423F",
"q  c #724424",
"w  c #75492B",
"e  c #774927",
"r  c #694438",
"t  c #794836",
"y  c #70492B",
"u  c #361846",
"i  c #382643",
"p  c #3D3D45",
"a  c #3C3947",
"s  c #49174A",
"d  c #520F5B",
"f  c #4B1A57",
"g  c #53185A",
"h  c #4F154A",
"j  c #4D2247",
"k  c #51214E",
"l  c #482557",
"z  c #522153",
"x  c #54215A",
"c  c #4A3558",
"v  c #553B44",
"b  c #702E54",
"n  c #4B1965",
"m  c #5B1C6D",
"M  c #581767",
"N  c #5D1B73",
"B  c #5A1777",
"V  c #5B0D6C",
"C  c #611A79",
"Z  c #601A63",
"A  c #4D2867",
"S  c #562162",
"D  c #5A2467",
"F  c #5C2671",
"G  c #593D66",
"H  c #64247B",
"J  c #702D6F",
"K  c #3F4045",
"L  c #44434B",
"P  c #5E4548",
"I  c #4D4C59",
"U  c #4B4A54",
"Y  c #564857",
"T  c #4F515D",
"R  c #515159",
"E  c #5D5359",
"W  c #664B48",
"Q  c #6C514C",
"!  c #675556",
"~  c #795754",
"^  c #764E45",
"/  c #4D4361",
"(  c #5B5C69",
")  c #585869",
"_  c #584667",
"`  c #645C68",
"'  c #625273",
"]  c #5D646E",
"[  c #5F6072",
"{  c #65626B",
"}  c #6B656C",
"|  c #6C6769",
" . c #766568",
".. c #646472",
"X. c #656974",
"o. c #6C6B74",
"O. c #6A6D7A",
"+. c #696473",
"@. c #6D727C",
"#. c #677077",
"$. c #73747C",
"%. c #72777D",
"&. c #716C73",
"*. c #756357",
"=. c #8E3F21",
"-. c #8A541C",
";. c #885419",
":. c #8C5317",
">. c #A26A1D",
",. c #894628",
"<. c #8C5A22",
"1. c #875729",
"2. c #915D24",
"3. c #97522B",
"4. c #824B38",
"5. c #885734",
"6. c #95583B",
"7. c #9A462D",
"8. c #A9532E",
"9. c #A34A32",
"0. c #B65A34",
"q. c #A9502C",
"w. c #946426",
"e. c #996629",
"r. c #926436",
"t. c #9D7130",
"y. c #A26B2A",
"u. c #A56D24",
"i. c #AB732B",
"p. c #A8762A",
"a. c #B47C2D",
"s. c #B87F2E",
"d. c #B56439",
"f. c #A97933",
"g. c #B27C31",
"h. c #A7663B",
"j. c #C26B3D",
"k. c #9A3A69",
"l. c #893654",
"z. c #815D55",
"x. c #8D5844",
"c. c #A96A49",
"v. c #AA7C41",
"b. c #B7724C",
"n. c #946C6F",
"m. c #9D6A5C",
"M. c #C4794C",
"N. c #D37B47",
"B. c #C0745C",
"V. c #BB8334",
"C. c #B68734",
"Z. c #AF8130",
"A. c #C18837",
"S. c #AE8642",
"D. c #BD934C",
"F. c #B78C46",
"G. c #D4844F",
"H. c #CA875B",
"J. c #D68957",
"K. c #DD925C",
"L. c #D18A65",
"P. c #DA9867",
"I. c #E59C67",
"U. c #E8A36D",
"Y. c #ECAA74",
"T. c #EBA975",
"R. c #F0AF7A",
"E. c #F1B37C",
"W. c #5D1581",
"Q. c #651C8A",
"!. c #6A1A96",
"~. c #731D9D",
"^. c #6A2387",
"/. c #6E2298",
"(. c #72249E",
"). c #711FA2",
"_. c #771BB1",
"`. c #7323A3",
"'. c #7923AC",
"]. c #7D25B4",
"[. c #6E7580",
"{. c #6F7881",
"}. c #737781",
"|. c #747C85",
" X c #757F88",
".X c #7C7D82",
"XX c #8223BC",
"oX c #873B86",
"OX c #841DC5",
"+X c #8324C4",
"@X c #8A25CC",
"#X c #882BCA",
"$X c #8F29DB",
"%X c #8C28D4",
"&X c #9126DB",
"*X c #932DC1",
"=X c #9429E4",
"-X c #972AE9",
";X c #992BEC",
":X c #982EE1",
">X c #9B2EF3",
",X c #9D31F9",
"<X c #9A30F6",
"1X c #9130E2",
"2X c #A231FC",
"3X c #A12FF9",
"4X c #768187",
"5X c #768089",
"6X c #778089",
"7X c #76818A",
"8X c #768089",
"9X c #7B818A",
"0X c #7F8A90",
"qX c #808990",
"wX c #898C93",
"eX c #969A9E",
"rX c #919297",
"tX c #8F929B",
"yX c #979CA0",
"uX c #979CA0",
"iX c #A1A5A8",
"pX c #A4A8AB",
"aX c #A5A9AC",
"sX c #A5A9AC",
"dX c #A4A5A7",
"fX c #C6918E",
"gX c #E5B287",
/* pixels */
"I I I T ] ] ] ] ] ] ] ] ] ] ] ] ] ] ] ] ] ] ] ] ] ] ] ] ] ] ] ] ] ] ] ) X / ] ] ] ] ] ] ] ] ] ] ] ] ] ] ] ] ] ] R I I I a o o o ",
"( ( ( ]  X X X X X X X X X X X X X X X X X X X X X X X X4X X X X X X|.[ l ) |. X X X X X X X X X X X X X X X X X..( ) ( L p p p ",
"( ( ( { 5X5X5X5X5X5X5X5X5X5X5X5X5X5X5X5X5X5X5X5X5X5X5X5X5X5X5X X}.X.L A n T |. X5X5X5X5X5X5X5X5X5X5X5X5X5X5X5X XX.( ( ( L p p p ",
"( ( ( ..5X5X5X5X5X5X5X5X5X5X5X5X5X5X5X5X5X5X5X5X5X5X5X X5X X X{.a l N `.A @. X5X5X5X5X5X5X5X5X5X5X5X5X5X5X5X5X5XX.( ( ( L p p p ",
"{.{.{.}.5X X5X5X5X5X5X5X5X5X5X5X5X5X5X5X5X5X5X5X5X5X X X X|.( _ m '.&X).X |.4X5X5X5X5X5X5X5X5X5X5X5X5X5X5X5X5X5XwXrXrXrXI L p p ",
"5X5X5X5X5X5X5X5X5X5X5X5X5X5X5X5X5X5X5X5X5X5X5X5X5X5X X|.] / A (.@X=X&Xn R  X5X5X5X5X5X5X5X5X5X5X5X5X5X5X5X5X5X5XeXpXpXpXR K p p ",
" X5X5X5X5X5X5X5X5X5X5X5X5X5X5X5X5X5X5X5X5X5X5X5X5X X|...i !.&X;X>X=X`.i {. X5X5X5X5X5X5X5X5X5X5X5X5X5X5X5X5X5X5XuXpXaXaXR p p p ",
"5X5X5X5X5X5X5X5X5X5X5X5X5X5X5X5X5X5X5X5X5X5X5X5X5X|.+.l /.=X>X>X$X).u a {.|. X5X5X5X5X5X5X5X5X5X5X5X5X5X5X5X5X5XeXpXaXaXR p p p ",
"5X5X5X5X5X5X5X5X5X5X5X5X5X5X5X5X X5X5X X X5X X4X X+.F XX-X<X>X=X@X].!.B D i ] {. X5X5X5X5X5X5X5X5X5X5X5X5X5X5X5XuXpXaXaXR p p p ",
"5X5X5X5X5X5X5X5X5X5X5X5X5X5X5X5X5X X XX.{ ..+.}...z +X>X,X>X=X=X-X;X=X&XOX~.n c O. X5X5X5X X5X X5X5X5X5X5X5X5X5XuXpXaXaXR p p p ",
"5X5X5X5X5X5X5X5X5X5X5X5X5X5X5X5X X{.R c F H F _ i Q.=X,X<X<X>X>X,X>X;X-X=X$XOXQ.c O. X5X5X5X5X5X5X5X5X5X5X5X5X5XuXpXaXaXR p p p ",
"5X5X5X5X5X5X5X5X5X5X5X5X5X5X5X5X5X|.O.c l '.@X].~.XX$X>X,X2X2X2X2X>X;X=X$X%X=X@XQ.i @. X5X5X5X5X5X5X5X5X5X5X5X5XuXpXaXaXR p p p ",
"5X5X5X5X5X5X5X5X5X5X5X5X5X5X5X5X5X X X}.+.l Q._.Q./.].=X2X2X,X2X2X>X>X-X=X@X_.@X@XW.I  X5X5X5X5X5X5X5X5X5X5X5X5XuXpXaXaXR p p p ",
"5X5X5X5X5X5X5X5X5X5X5X5X5X5X5X5X5X5X5X5X XX.u d C C (.@X;X>X2X2X2X2X,X>X-X$X!.B +X].' |. X5X5X5X5X5X5X5X5X5X5X5XuXpXaXaXR p p p ",
"5X5X5X5X5X5X5X5X5X5X5X5X5X5X5X5X5X5X5X5X X}.: M g f H (.+X%X;X,X;X3X,X>X=X=X).f C +XN +. X X5X5X5X5X5X5X5X5X5X5XuXpXaXaXR p p p ",
"5X5X5X5X5X5X5X5X5X5X5X5X5X5X5X5X5X4X5X5X X[ l N f k S D H '.#X1X$X;X2X>XXX$X+XF G N d `  X4X5X5X5X5X5X5X5X5X5X5XuXpXaXaXR p p p ",
"5X5X5X5X5X5X5X5X5X5X5X5X5X5X5X5X5X X5X5X|.Y V M x z z k x ^.^.`.].=X2X:X'.`.+X!.X Y . `  X4X5X5X5X5X5X5X5X5X5X5XuXpXaXaXR p p p ",
"5X5X5X5X5X5X5X5X5X5X5X5X5X5X5X5X5X7X5X5X|.Y V M h g f j g m x N +X>X:Xk.J Q.'.~.. X.Y o. X5X5X5X5X5X5X5X5X5X5X5XuXpXaXaXR p p p ",
"5X5X5X5X5X5X5X5X5X5X5X5X5X5X5X5X5X X5X5X XY d M * s k j z S x F #X*Xk.9.4 m '.`.u #. X X5X5X5X5X5X5X5X5X5X5X5X5XuXpXaXaXR p p p ",
"5X5X5X5X5X5X5X5X5X5X5X5X5X5X5X5X5X5X5X5X X@.j d . * h j z x S ^.].l.9.0.= Z `.n I |. X X5X4X5X5X5X5X5X5X5X5X5X5XuXpXaXaXR p p p ",
"5X5X5X5X5X5X5X5X5X5X5X5X5X5X5X5X5X5X5X5X5X|.Y * X s h s z z S ^.b n.= 6.j.b B X ] 5X5X5X5X5X5X5X5X5X5X5X5X5X5X5XuXpXaXaXR p p p ",
"5X5X5X5X5X5X5X5X5X5X5X5X5X5X5X5X5X X5X5X5X XX.  = h h x z x H F n.fX- c.K.6 s o |.5X X5X5X5X5X5X5X5X5X5X5X5X5X5XuXpXaXaXR p p p ",
"5X5X5X5X5X5X5X5X5X5X5X5X5X5X5X5X5X5X5X5X5X XY k m N D S m M m.oXfXgXm.P.P.4 X @. X5X4X5X5X5X5X5X5X5X5X5X5X5X5X5XuXpXaXaXR p p p ",
"5X5X5X5X5X5X5X5X5X5X5X5X5X5X5X5X5X5X5X5X5X X XO.I x f h g J B.b.L.Y.E.Y.b.> O. X5X5X5X5X5X5X5X5X5X5X5X5X5X5X5X5XuXpXaXaXR p p p ",
"5X5X5X5X5X5X5X5X5X5X5X5X5X5X5X5X5X5X5X5X5X5X5X5X XO.+.` = ; t h.M.H.U.P.w E |.5X5X5X5X5X5X5X5X5X5X5X5X5X5X5X5X5XuXpXaXaXR p p p ",
"5X5X5X5X5X5X5X5X5X5X5X5X5X5X5X5X5X5X5X5X5X5X5X5X5X Xo.r $ # < ; 1 t x.r L {.5X5X5X5X5X5X5X5X5X5X5X5X5X5X5X5X5X5XuXpXaXaXR p p p ",
"5X5X5X5X5X5X5X5X5X5X5X5X5X5X5X5X5X5X5X5X5X5X5X5X5X X! <.u.2.5.w - 5 : R }.4X5X5X5X5X5X5X5X5X5X5X5X5X5X5X5X5X5X5XuXpXaXaXR p p p ",
"5X5X5X5X5X5X5X5X5X5X5X5X5X5X5X5X5X5X5X5X5X5X5X5X5X XE + $ $ q e.t.5.q !  X5X5X5X5X5X5X5X5X5X5X5X5X5X5X5X5X5X5X5XuXpXaXaXR p p p ",
"5X5X5X5X5X5X5X5X5X5X5X5X5X5X5X5X5X5X5X5X5X5X5X5X5X XE 8 u.p.w.8 e.p.5.; %. X5X5X5X5X5X5X5X5X5X5X5X5X5X5X5X5X5X5XuXpXaXaXR p p p ",
"5X5X5X5X5X5X5X5X5X5X5X5X5X5X5X5X5X5X5X5X5X5X5X5X5Xo.; <.a.C.p.<.e.y.i.r @. X5X5X5X5X5X5X5X5X5X5X5X5X5X5X5X5X5X5XuXpXaXaXR p p p ",
"5X5X5X5X5X5X5X5X5X5X5X5X5X5X5X5X5X5X5X5X5X5X5X5X X{ @ >.Z.f.t.8 e.i.y.<.,  X5X5X5X5X5X5X5X5X5X5X5X5X5X5X5X5X5X5XuXpXaXaXR p p p ",
"5X5X5X5X5X5X5X5X5X5X5X5X5X5X5X5X5X5X5X5X5X4X5X5X5X{ @ -.1.e.<.$ e.V.e.8 < |. X5X X|.|.5X5X5X5X5X5X5X5X5X5X5X5X5XuXpXaXaXR p p p ",
"5X5X5X5X5X5X5X5X5X5X5X5X5X5X5X5X5X5X5X5X5X5X5X5X X{ O =.b.6.2 @ w.y.i.-.< O.|.}.o., ! |.5X5X5X5X5X5X5X5X5X5X5X5XuXpXaXaXR p p p ",
"5X5X5X5X5X5X5X5X5X5X5X5X5X5X5X5X5X5X5X5X5X5X5X5X X{   9.U.P.h.O 8 <.w.9 O - Y *.r.D.w { 5X5X5X5X5X5X5X5X5X5X5X5XuXpXaXaXR p p p ",
"5X5X5X5X5X5X5X5X5X5X5X5X5X5X5X5X5X5X5X5X5X5X5X5X X{   c.Y.E.H.O 9 <.7 @ $ q r.D.F.t P $. X5X5X5X5X5X5X5X5X5X5X5XuXpXaXaXR p p p ",
"5X5X5X5X5X5X5X5X5X5X5X5X5X5X5X5X5X5X5X5X5X5X5X5X X{ @ % d.I.U.H.5.2 & 6.$ g.r.5.5 { @. X4X5X5X5X5X5X5X5X5X5X5X5XuXpXaXaXR p p p ",
"5X5X5X5X5X5X5X5X5X5X5X5X5X5X5X5X5X5X5X5X5X5X5X5X Xo.5 $ @ 8.N.I.Y.U.K.J.1 w.1., }. X5X5X5X5X5X5X5X5X5X5X5X5X5X5XuXpXaXaXR p p p ",
"5X5X5X5X5X5X5X5X5X5X5X5X5X5X5X5X5X5X5X5X5X5X5X5X X$.r 7 $ & @ ,.G.U.R.P.8.+ ; o. X5X5X5X5X5X5X5X5X5X5X5X5X5X5X5XuXpXaXaXR p p p ",
"5X5X5X5X5X5X5X5X5X5X5X5X5X5X5X5X5X5X5X5X5X5X5X5X X| e w.e w f.f.3 3.d.j.0.4 {  X5X4X X5X5X5X5X5X5X5X5X5X5X5X5X5XuXpXaXaXR p p p ",
"5X5X5X5X5X5X5X5X5X5X5X5X5X5X5X5X5X5X5X5X5X5X5X5X|.r 7 7 r.D.F.w 2 # @ & 1 }  X5X5X5X5X5X5X5X5X5X5X5X5X5X5X5X5X5XuXpXaXaXR p p p ",
"5X5X5X5X5X5X5X5X5X5X5X5X5X5X5X5X5X5X5X5X5X5X X}.o.; e S.v.1.q 2.1.2.1.8 q |  X5X5X5X5X5X5X5X5X5X5X5X5X5X5X5X5X5XuXpXaXaXR p p p ",
"5X5X5X5X5X5X5X5X5X5X5X5X5X5X5X5X X5X5X5X5X X|.! w S.v.1.2 w.C.V.a.t.y.2.8 Q %.5X5X5X5X5X5X5X5X5X5X5X5X5X5X5X5X5XuXpXaXaXR p p p ",
"5X5X5X5X5X5X5X5X5X5X5X5X5X5X5X5X5X5X5X5X5X XP r.5.1 2 e.V.V.a.u.;.% 8 8 % ; }  X5X X5X5X X5X5X5X5X5X5X5X5X5X5X5XuXpXaXaXR p p p ",
"5X5X5X5X5X5X5X5X5X5X5X5X5X5X5X5X5X5X5X X5X Xv @ $ 9 e.A.V.i.2.;.$ 8 8 9 $ $ W |.5X5X5X5X X5X5X X5X5X5X5X5X5X5X5XuXpXaXaXR p p p ",
"5X5X5X5X5X5X5X5X5X5X5X5X5X5X5X5X5X5X5X5X5X X! q 9 ;.i.A.s.u.;.9 2 w.p.p.w.8 5 |  X X X5X5X5X5X5X5X5X5X5X5X5X5X5XuXpXaXaXR p p p ",
"5X5X5X5X5X5X5X5X5X5X5X5X5X5X5X5X5X5X5X5X5X XW -.-.2.V.A.V.g.y.e $ 8 2.p.g.y.e 0 ! Q  . X X5X5X5X5X5X5X5X5X5X5X5XuXpXaXaXR p p p ",
"5X5X5X5X5X5X5X5X5X5X5X5X5X5X5X5X5X5X5X5X5X X&.q y.a.V.V.V.y.8 @ @ 9 w.y.g.f.1.1 ,.d.t `  X X5X5X5X5X5X5X5X5X5X5XuXpXaXaXR p p p ",
"5X5X5X5X5X5X5X5X5X5X5X5X5X5X5X5X5X5X5X5X5X|.~ 7.,.i.s.u.;.9 2 , # $ 8 2.<.e % 7.7.,.3.^ }.5X5X5X5X5X5X5X5X5X5X5XuXpXaXaXR p p p ",
"5X5X5X5X5X5X5X5X5X5X5X5X5X5X5X5X5X4X5X X}.~ d.N.d.,.3.2.8 w | @.> @ % ,.6.b.j.G.J.3 0.t %.5X5X5X5X5X5X5X5X5X5X5XuXpXaXaXR p p p ",
"5X5X5X5X5X5X5X5X5X5X5X5X5X5X5X5X5X5X5X Xz.8.K.U.J.0.,.Q W }  X XE 0 t j.K.Y.U.E.J.3 3 W }.5X5X X5X5X5X5X5X5X5X5XuXpXaXaXR p p p ",
"5X5X5X5X5X5X5X5X5X5X5X5X5X5X5X5X5X5X5X}.4.N.Y.U.N.7. .|. X X5X5X X}.~ d.P.E.Y.P.6.; W %. X5X5X5X5X5X5X5X5X5X5X5XuXpXaXaXR p p p ",
"5X5X5X5X5X5X5X5X5X5X5X5X5X5X5X5X5X5X5X}.r j.I.I.N.0.x.&. X5X X5X5X X .8.G.L.c.r W o.}. X X5X5X5X5X5X5X5X5X5X5X5XuXpXaXaXR p p p ",
"5X5X5X5X5X5X5X5X5X5X5X5X5X5X5X5X5X5X5X|.! 3 M.U.I.J.0.7. . X5X5X5X5X X^ 6.5 P |  X X X5X5X5X5X5X5X5X5X5X5X5X5X5XuXpXaXaXR p p p ",
"5X5X5X5X5X5X5X5X5X5X5X5X5X5X5X5X5X5X5X X%.! t H.R.I.M.8.3  . X4X4X5X Xo.| } }. X X5X5X5X5X5X5X5X5X5X5X5X5X5X5X5XuXpXaXaXR p p p ",
"5X5X5X5X5X5X5X5X5X5X5X5X5X5X5X5X5X5X5X5X X}.! t J.b.4.2 8.~  X5X4X5X5X X X X X5X5X5X5X5X5X5X5X5X5X5X5X5X5X5X5X5XuXpXaXaXR p p p ",
"5X5X5X5X5X5X5X5X5X5X5X5X5X5X5X5X5X5X5X5X5X5X%.! t 4.J.9.t !  X4X5X4X5X5X5X5X5X5X5X5X5X5X5X5X5X5X5X5X5X5X5X5X5X5XuXpXpXaXR p p p ",
"}.}.}.|.qXqXqXqXqXqXqXqXqXqXqXqXqX0X0XqXqX0XqX9X$.Q z.^ Q .XqXqXqXqXqXqXqXqXqXqXqXqXqXqXqXqXqXqXqXqXqXqXqXqXqXqXtXeXeXeXI p p p ",
"( ( ( O.pXpXpXpXpXpXpXpXpXpXpXpXpXpXpXaXpXpXpXpXiXdXdXdXdXiXpXpXpXpXpXpXpXpXpXpXpXpXpXpXpXpXpXpXpXpXpXpXpXpXpXpX}.( ( ( L p p p ",
"( ( ( O.aXaXaXaXaXaXaXaXaXaXaXaXaXaXaXaXaXaXaXaXaXaXpXiXpXaXaXaXaXaXaXaXaXaXaXaXaXaXaXaXaXaXaXaXaXaXaXaXaXaXpXiX$.( ( ( L p p p ",
"( ( ( O.aXaXaXaXaXaXaXaXaXaXaXaXaXaXaXaXaXaXaXpXaXaXaXaXaXaXaXaXaXaXaXaXaXaXaXaXaXaXaXaXaXaXaXaXaXaXaXaXaXaXpXiX$.( ( ( L p p p ",
"( ( ( X.iXiXiXiXiXiXiXiXiXiXiXiXiXiXiXiXiXiXiXiXiXiXiXiXiXiXiXiXiXiXiXiXiXiXiXiXiXiXiXiXiXiXiXiXiXiXiXiXiXiXiXdX$.( ( ( L p p p ",
"p p p p p p p p p p p p p p p p p p p p p p p p p p p p p p p p p p p p p p p p p p p p p p p p p p p p p p p p p p p p p p p p ",
"p p p p p p p p p p p p p p p p p p p p p p p p p p p p p p p p p p p p p p p p p p p p p p p p p p p p p p p p p p p p p p p p "
};
