/* XPM */
static char *_308db5bef6c48c5f718c263d9f5cfb8A4QPseFk2KoFTa86[] = {
/* columns rows colors chars-per-pixel */
"64 64 233 2 ",
"   c #010102",
".  c #05060A",
"X  c #35353F",
"o  c #37383D",
"O  c #6B523C",
"+  c #3D3D45",
"@  c #3E3E48",
"#  c #373A43",
"$  c #403F45",
"%  c #42434A",
"&  c #4A4B57",
"*  c #4E515C",
"=  c #57575B",
"-  c #5B584F",
";  c #675846",
":  c #786A5A",
">  c #63625D",
",  c #565965",
"<  c #5C5D65",
"1  c #5B5D69",
"2  c #525561",
"3  c #4F5160",
"4  c #5F6571",
"5  c #5C6169",
"6  c #61646E",
"7  c #696569",
"8  c #746C6A",
"9  c #7A7165",
"0  c #636A74",
"q  c #656875",
"w  c #6B717B",
"e  c #71757C",
"r  c #787979",
"t  c #BB5C03",
"y  c #B26A14",
"u  c #9A6833",
"i  c #A46B2A",
"p  c #BA7D38",
"a  c #AC6D32",
"s  c #8F551E",
"d  c #CB5E00",
"f  c #C25702",
"g  c #D45D02",
"h  c #C66300",
"j  c #CA6301",
"k  c #CA6A03",
"l  c #D56401",
"z  c #D66C02",
"x  c #D96D05",
"c  c #D96C08",
"v  c #D47303",
"b  c #DD7406",
"n  c #DC7C0C",
"m  c #D7750A",
"M  c #C46B18",
"N  c #DA7B15",
"B  c #C67810",
"V  c #E5760C",
"C  c #E47D13",
"Z  c #E97916",
"A  c #F27E15",
"S  c #F17609",
"D  c #C37D2A",
"F  c #CB7A2E",
"G  c #F07D20",
"H  c #8C7759",
"J  c #967656",
"K  c #926E47",
"L  c #A47743",
"P  c #B87E5D",
"I  c #8B7B6A",
"U  c #937865",
"Y  c #8C7E76",
"T  c #C17B45",
"R  c #78817E",
"E  c #BB803E",
"W  c #D98913",
"Q  c #E8860A",
"!  c #F38B0B",
"~  c #F88609",
"^  c #FA980D",
"/  c #E48214",
"(  c #EB8413",
")  c #EB8B15",
"_  c #E4841B",
"`  c #E58A1D",
"'  c #EB8C1A",
"]  c #E98717",
"[  c #F48B14",
"{  c #F38C1A",
"}  c #F68715",
"|  c #EB941D",
" . c #ED9715",
".. c #F49B14",
"X. c #FC9C14",
"o. c #F4941B",
"O. c #FA961C",
"+. c #F59D1A",
"@. c #FB9C1C",
"#. c #F69615",
"$. c #EB930B",
"%. c #F7A60B",
"&. c #EDA719",
"*. c #F5A415",
"=. c #FCA515",
"-. c #FCAA15",
";. c #F5A41B",
":. c #FBA41B",
">. c #F5A91C",
",. c #FBA91B",
"<. c #F6AA15",
"1. c #D68A28",
"2. c #C98A36",
"3. c #DC9F37",
"4. c #CE902A",
"5. c #E68925",
"6. c #EA9529",
"7. c #F39C23",
"8. c #FC9C22",
"9. c #F59727",
"0. c #E59C3A",
"q. c #F2902F",
"w. c #DFB337",
"e. c #DFA82A",
"r. c #ECA522",
"t. c #ECAB24",
"y. c #E8A92A",
"u. c #F5A422",
"i. c #FCA423",
"p. c #F4AA23",
"a. c #FCA923",
"s. c #FDA42B",
"d. c #F3AC2B",
"f. c #FBAA2A",
"g. c #F5A229",
"h. c #E5A938",
"j. c #FDA835",
"k. c #E6B838",
"l. c #F6B637",
"z. c #EDB22A",
"x. c #FDC33C",
"c. c #F3C53C",
"v. c #B58548",
"b. c #A7855D",
"n. c #B38853",
"m. c #8D826B",
"M. c #908065",
"N. c #9B826C",
"B. c #8C8578",
"V. c #938975",
"C. c #A38163",
"Z. c #B59063",
"A. c #B8A571",
"S. c #96915A",
"D. c #D79742",
"F. c #C78D46",
"G. c #D8B44D",
"H. c #E8BA47",
"J. c #F3B843",
"K. c #E3B657",
"L. c #EAAE4D",
"P. c #C29E6C",
"I. c #D7B96B",
"U. c #C9B571",
"Y. c #F1BA60",
"T. c #EBC54B",
"R. c #FDC342",
"E. c #FDCA44",
"W. c #F5CE4F",
"Q. c #FBCC4C",
"!. c #F5C349",
"~. c #F9D248",
"^. c #ECCA55",
"/. c #F5CC52",
"(. c #F5CA5A",
"). c #F8D559",
"_. c #EFD55C",
"`. c #F7D566",
"'. c #F1D972",
"]. c #FBE66C",
"[. c #FDE374",
"{. c #FCE57B",
"}. c #FDEA7E",
"|. c #F6E67B",
" X c #F2F079",
".X c #6C7D8B",
"XX c #6C7983",
"oX c #737E86",
"OX c #7A7D84",
"+X c #757F89",
"@X c #7A7D8A",
"#X c #757688",
"$X c #747D91",
"%X c #787D93",
"&X c #6E7D92",
"*X c #847C83",
"=X c #817E91",
"-X c #6D8183",
";X c #6E848B",
":X c #6C888C",
">X c #768186",
",X c #798184",
"<X c #76818A",
"1X c #7A828B",
"2X c #6E8493",
"3X c #748292",
"4X c #7A8291",
"5X c #848287",
"6X c #858C94",
"7X c #8B8E92",
"8X c #808791",
"9X c #8D9195",
"0X c #92969C",
"qX c #9A988C",
"wX c #979CA2",
"eX c #989DA1",
"rX c #9EA2A5",
"tX c #A2A6A7",
"yX c #A5A7AB",
"uX c #A6AAAE",
"iX c #A8ACAF",
"pX c #AAADB1",
"aX c #ACB0B3",
"sX c #B1B4B9",
"dX c #EEED8B",
"fX c #FBE484",
"gX c #FEEC83",
"hX c #F4ED8A",
"jX c #FDEE8A",
"kX c #F5EA84",
"lX c #FBF38E",
"zX c #F9F287",
"xX c #FCF095",
/* pixels */
"                                                                                                                                ",
"          .                                                                                                                     ",
"* 1 , 1 w @X+X<X>X>X>X>X>X>X>X>X>X>X>X>X>X>X>X>XoXoXoXoXoXoXoXoX>X>X>XoXoXoXoXoX>X>X>X>X>X>X>X>X>X>XoXoXoX>X>X>Xq 1 6 , & + + + ",
"* 1 , , XX1X<X<X<X<X<X<X<X<X<X<X<X<X<X<X<X<X<X<X<X<X<X<X<X<X<X<X<X<X<X<X<X<X<X<X<X<X<X<X<X<X<X<X<X<X<X<X<X<X<X<Xq , 1 , & # + + ",
"* 6 , 1 XX+X+X+X+X+X+X+X+X+X+X+X+X+X+X+X+X+X+X+X<X<X<X<X<X<X<X<X+X+X+X+X+X<X+X+X+X+X+X+X+X+X+X+X<X+X+X+X+X<X<X<Xq 2 * , % # + + ",
"* q 6 6 #X<X<X<X>X>X>X>X>X>X>X>X>X>X>X>X>X>X>X>X>X>X>X>X>X>X>X>X>X>X>X>X>X>X>X>X>X>X>X>X>X>X>X>X>X>X>X<X<X<X<X<Xe e e OX& o % + ",
"w 8X<XoX1X<X<XoX<X<X<X<X<X<X<X<X<X<X<X<X<X<X<X<X<X<X<X<X<X<X<X<X<X<X<X<X+X+X+X+X<X<X<X<X<X<X<X<X+X+X<X<X<X<X+X+XrXpXpXsX6 o $ + ",
"4 1X<X+X1XoX<X<X<X<X<X<X<X<X<X<X<X<X<X<X<X<X<X<X4X4X4X4X4X4X4X4X1X1X<X<X<X<X<X+X<X<X<X<X<X<X<X<X+X<X<X<X<X<X+XoX0XpXrXaX, o % + ",
"0 1X+X<X<X<X<X<X<X<X<X<X<X<X<X<X>X>XOX1X;X,XOX+XXX0 7 > - - - = 7 7 7 OX1X.X<X<X<X<X<X<X>X>X<X%X<X+X<X<X+X<X<XoXwXiXtXaX< o @ + ",
"0 1X+X<X<X<X<X<X<X<X<X<X<X<X<X<X<X4X+X+X#X1XoX*XL L a i i i i i s s u : e 3X+X,X>XoXoX+X+X<X<X<X<X+X<X<X+X<X<XoXwXiXtXaX< o @ + ",
"0 1X+X<X<X<X<X<X<X<X<X<X<X<X<X<X+X,X+X%X1X+X8 K 5.5.' ' { o.o.] z k M u O e 4X+X,X,X,X<X4X<X<X>X<X+X<X<X+X<X<XoXwXiXtXaX< o @ + ",
"0 1X+X<X<X<X<X<X<X<X<X<X<X<X<X<X<X-Xr 1X2Xe J D o.o.O.@.@.@.@.o.( ( / N a J r &XoXoXoXoX+X@X<X>X<X+X<X<X+X<X<XoXwXiXtXaX< o @ + ",
"0 1X+X<X<X<X<X<X<X<X<X<X<X<X<X<X,X<X,X>Xw J 1.9.f.f.i.i.u.u.f.f.f.7.| ' 6.L ; XX4X<X>XoXoX+X<X<X<X+X<X<X+X<X<XoXwXiXtXaX< o @ + ",
"0 1X+X<X<X<X<X<X<X<X<X<X<X<X<X<X+X@X3X+XJ F 9.o.*.*.;.;.*.,.,.*.%...+.r.l.G.n.V.OX<X1X<X>X,X@X@X<X+X<X<X+X<X<XoXwXiXtXaX< o @ + ",
"0 1X+X<X<X<X<X<X<X<X<X<X<X<X<X<X@X,Xe U 1.o.s.;.,.:.a.a.a.a.:.=.-.,.f.d.c./.'.I.: 8 oX<X<X,X<X+X<X+X<X<X+X<X<XoXwXiXtXaX< o @ + ",
"0 1X+X<X<X<X<X<X<X<X<X<X<X<X<X<X-X3XH D 7.^ %.*.s.' / / / n / Q r.u.g.d.).W.h.0.K I 5X$X+X,X>X<X<X+X<X<X+X<X<XoXwXiXtXaX< o @ + ",
"0 1X+X<X<X<X<X<X@XOX,X<XoX,X,XOX#XH 2. .:.a.u.:.s.' j l g g d c s.s.g.k.].].4.` 6.n.8 .X3X>X+X%X<X+X<X<X+X<X<XoXwXiXtXaX< o @ + ",
"0 1X+X<X<X<X<X<X<X,X<X<XoX3X2XOXU v.6.=.=.u.i.+./ C V V V V V C / 1./.`.[.[.^.H.' 1.L m.oX<X<Xr <X+X<X<X+X<X<XoXwXiXtXaX< o @ + ",
"0 1X+X<X<X<X<X<X;X>X<X<X,X&X.XH D.6.:.-.*.f.j.) j z ( ! } ~ } Q d B {.lXfXfX{.].' ( 5.v.9 @X4X>X<X+X<X<X+X<X<XoXwXiXtXaX< o @ + ",
"0 1X+X<X<X<X<X<X+X@X+X,XR r J D 7.X.=.-.u.6.` C V ( O.^ X.^ X.! Z N h.G.hX|.^.J.9.O.{ _ a I @X.X<X+X<X<X+X<X<XoXwXiXtXaX< o @ + ",
"0 1X+X<X<X<X<X<XOX3X+X@XoXU 2.8.:.,.=.:.j.5.f c { o.:.=.=.=.:.+.) ] t y }.].y.u.;.u.! ~ 5.b.*X<X<X+X<X<X+X<X<XoXwXiXtXaX< o @ + ",
"0 1X+X<X<X<X<X<XoX:X>X3X.XJ 5.8.=.*.p.| _ 5.V ( o.+.=.-.=.*.t.t.l.j.N N h.y.r.;.%.&.Q ~ q.P r ,X<X+X<X<X+X<X<XoXwXiXtXaX< o @ + ",
"0 1X+X<X<X<X<X<XoX<X>X3Xe L ` | ,.u.f.` h b { { :.:.:.,.*.r.y.k.[.(.4.1.f z 8.a.>.&.$.~ 5.v.9 OX<X+X<X<X+X<X<XoXwXiXtXaX< o @ + ",
"0 1X+X<X<X<X<X<X<X@XOX<XI p 7.;.:. .W ) Q [ #.+.,.,.=.=.a.l.T._.gX|.G.L.Z S V Q i.*...#.d.G.S.5X<X+X<X<X+X<X<XoXwXiXtXaX< o @ + ",
"0 1X+X<X<X<X<X<X@X<X$XB.5.q.f.*.:.( j / i.:.-.:.>.*.-.,.r.H.{.}.dXzX}.).6.G g z 8.,.u.f.R.Q.^.U.,X>X<X<X+X<X<X+XwXiXtXaX< o @ + ",
"0 1X+X<X<X<X<X<X@X<X+Xm.5.9.a.;.a.] h C :.=.=.;.*.,.>.t.!._.{.gXlX|.^.J.5.A l x @.,.>.a.R.Q.^.U.,X>X<X<X+X<X<X+XwXiXtXaX< o @ + ",
"0 1X+X<X<X<X<X<XOX>X+XM.5.9.,.;.a.] h C :.=.=.:.:.;.y.H.{.}.gXgXgX`.w.r.) A l x @.>.;.>.x.E.W.I.,X>X<X<X+X<X<X+XwXiXtXaX< o @ + ",
"0 1X+X<X<X<X<X<X<X>X+XM.` o.:.;.f.] h / a.=.=.:.p.y.T.'.zXhXgX[.(.!.t.;.[ A l x @.>.*.>.x.E.W.I.,X>X<X<X+X<X<X+XwXiXtXaX< o @ + ",
"0 1X+X<X<X<X<X<X+X<X+XM.` O.:.:.a.] j C a.*.*.p.y.J.{.kXdXhXgX`.y.t.>.X.[ } l x 8.>.>.p.x.E./.I.,X>X<X<X+X<X<X+XwXiXtXaX< o @ + ",
"0 1X+X<X<X<X<X<X+X<X$XM.` +.,.:.f.] d C i.;.&.z.H.(.}.lXxX}.).!.r.;.,.^ ! } l c 8.,.u.p.R.Q.W.I.,X>X<X<X+X<X<X+XwXiXtXaX< o @ + ",
"0 1X+X<X<X<X<X<X>X<X$XM.` #.,.;.a.] d Z s.t.z.T.{.{.fXjXgX`.h.t.a.,.-.X.[ ( l c @.,.>.p.R.E.Q.I.,X>X<X<X+X<X<X+XwXiXtXaX< o @ + ",
"0 1X+X<X<X<X<X<X,X<X$XM.] ..-.=.a.' g Z s.z.k._.kXgXgX|.`./.y.>.:.=.=.X.{ C x l @.,.>.p.x.E.W.I.,X>X<X<X+X<X<X+XwXiXtXaX< o @ + ",
"0 1X+X<X<X<X<X<X<X>X<XY ` ^ :.<.a.Q g / y.k.].gXhXjXgX`.h.r.;.*.;.-.-.=.} A l z 7.,.;.f.l.E.Q.I.>X>X>X>X+X<X<XoXwXiXtXaX< o @ + ",
"0 1X+X<X<X<X<X<X,X+X3XY 1.^ -.,.a.{ g 1.H./.{.kXhX|.`.!.y.&.,.,.,.-.-.X.~ A l x @.-.;.p.x.E.Q.U.>X>X>X>X+X<X<XoXwXiXtXaX< o @ + ",
"0 1X+X<X<X<X<X<X,X$X3XI 4.#.-.;.d.6.t D.gX{.|.lXjX`.w.y.p.a.-.=.,.=.-.:.} A l x @.=.*.p.R.E./.U.>X>X>X<X+X<X<XoXwXiXtXaX< o @ + ",
"0 1X+X<X<X<X<X<X@X@X>Xm.4.#.,.z.J.0.t D.jXhXdXfX(.!.y.;.=.=.=.,.;.*.-.:.} A l x s.>.u.d.Q.E./.U.<X+X<X<X+X<X<XoXwXiXtXaX< o @ + ",
"0 1X+X<X<X<X<X<X1X+X-XV.4.! r.T.fXL.h 0.|.dXlX`.t.d.>.=.=.=.=.a.:.;.,.X.[ A l c g.>.p.d.E.E./.A.<X+X<X<X+X<X<XoXwXiXtXaX< o @ + ",
"0 1X+X<X<X<X<X<X<X<X.X5X2.g.!.'.xXL.t 3.gX}.`.!.;.;.=.=.=.,.;.>.:.:.,.:.{ ( l z +.<.,.>.x.E.(.A.+X+X<X<X+X<X<XoXwXiXtXaX< o @ + ",
"0 1X+X<X<X<X<X<X-X@X<X<Xb.Y.[.kXlXK.t 3.}.(.e.p.*.,.,.,.=.=.=.,.:.;.,.:.{ ( l v ;.-.,.a.x.Q.I.qX+X+X<X<X+X<X<XoXwXiXtXaX< o @ + ",
"0 1X+X<X<X<X<X<X<X@XR 1Xr P.`.|.gXK.2.L.(.k.t.=.,.,.*.,.,.,.=.=.a.=.*.#.( A c C 8.:...g.J.L.A.4X+X+X<X<X+X<X<XoXwXiXtXaX< o @ + ",
"0 1X+X<X<X<X<X<X%X-X5X4X.XH 2.H.].fXxXK.y W a.i.=.a.;.u.u.;.=.=.:.+.$.) j c 9.s.j.X.! ) 6.v.r +X<X+X<X<X+X<X<XoXwXiXtXaX< o @ + ",
"0 1X+X<X<X<X<X<X@X<X,X@X<XI v.T. X|.`.h.B W | o.+.,.,.,.*.,.,.;.a.+.Q ( b n s.f.i.+.$.~ 5.C.+X<X<X+X<X<X+X<X<XoXwXiXtXaX< o @ + ",
"0 1X+X<X<X<X<X<XoX1XoXoX1X*Xb.K.zXT.y.p.i._ k n a.*.,.<.<.,.;.>.:.O.l V 8.;.a.p.a.i.! ~ F.B.3X<X<X+X<X<X+X<X<XoXwXiXtXaX< o @ + ",
"0 1X+X<X<X<X<X<XoX1X<X+X5X@XY Z.`.l.>.&.,. .m W 7. .:.=.-.,.>.u.7.9.b b a.>.>.>.| ! S F N.+X+XOX<X+X<X<X+X<X<XoXwXiXtXaX< o @ + ",
"0 1X+X<X<X<X<X<X@X,X<X<X,X<X;X5Xv.6.a.a.,.,.a.| h n a.a.:.a.a.+.k v 9.s.f.a.a.X.x l M J oX.X<XOX<X+X<X<X+X<X<XoXwXiXtXaX< o @ + ",
"0 1X+X<X<X<X<X<X1XoX<X<XoX>X2X%XB.v.7.@.*.*.a.o.v n 9.o.o.o.o.' v v u.a.;.i.O.} l a H ,X>X>X1X<X<X+X<X<X+X<X<XoXwXiXtXaX< o @ + ",
"0 1X+X<X<X<X<X<X<XoX<X<X+X<X<X3XXXm.F.7.i.u.a.8.s.) v k j j z b 8.g.d.>.:.O.z j M U +X<X>X>X>X+X<X+X<X<X+X<X<XoXwXiXtXaX< o @ + ",
"0 1X+X<X<X<X<X<X;X@X,X,X%X@Xr ,X$X%XM.4.g.i.;.,.,.#.v m N m m n :.f.r.:.X.[ c M L OX$XOX3X;XOX<X<X+X<X<X+X<X<XoXwXiXtXaX< o @ + ",
"0 1X+X<X<X<X<X<X<X<X<X<X<X<X<X<X@X>X-XI 1...a.%.%.*.;.9.g.j.s.:.=.:.a.@.! } q.T oXoX+X<X<X<X<X+X<X<X<X<X<X<X<XoXwXiXtXaX< o @ + ",
"0 1X+X<X<X<X<X<X<X<X<X<X<X<X<X<X,X1X<Xr C.4.X.=.+.=.;.:.u.u.a.,.,.g.6.{ } 5.n.V.oX+X<X<X<X<X<X<X<X<X<X<X<X<X<XoXwXiXtXaX< o @ + ",
"0 1X+X<X<X<X<X<X<X<X<X<X<X<X<X<XR 3XoXoX+XJ 1...s.a.,.,.<.>.>.>.a.6.m l j a 9 ;X<X<X<X<X<X<X<X<X<X<X<X+X<X<X<XoXwXiXtXaX< o @ + ",
"0 1X+X<X<X<X<X<X<X<X<X<X<X<X<X<X<X<X3X1X:X,Xb.1.@.X.=.X.X.:.:.=.O.{ z h i I OX4X<X<X<X<X<X<X<X<X<X<X<X+X<X<X<XoXwXiXtXaX< o @ + ",
"0 1X+X<X<X<X<X<X<X<X<X<X<X<X<X<X+XoX+X>XR +Xr K ` ' { [ [ { [ ( m m y u : OXoXoX<X<X<X<X<X<X<X<X<X<X<X+X<X<X<XoXwXiXtXaX< o @ + ",
"0 1X+X<X<X<X<X<X<X<X<X<X<X<X<X<X;XOX,X<X@X1X>XR P v.E p p D F T i i K Y #X<X1X2X<X<X<X<X<X<X<X<X<X<X<X<X<X<X<X+XwXiXtXaX< o @ + ",
"0 1X+X<X<X<X<X<X<X<X<X<X<X<X<X<X<XoX,X<X$X1XR 3X#Xr : ; ; ; ; ; ; ; 8 +X@X@XoX.X<X<X<X<X<X<X<X<X<X<X<X<X<X<X<X+XwXiXtXaX< o @ + ",
"0 1X+X<X<X<X<X<X<X<X<X<X<X<X<X<X=X;X<X1X<X1XoX@X;X<X<X+X@X@X<X>X@X3X<X,X,X3X1X*X<X<X<X<X<X<X<X<X<X<X<X<X<X<X<X+XwXiXtXaX< o @ + ",
"0 1X<X<X<XoXoX+XoXoXoXoXoXoXoXoXoXoXoXoXoXoXoXoXoXoXoXoXoXoXoXoX+X+X+X+X+X+X+X+XoXoXoXoXoXoXoXoXoXoXoXoXoX+XoXoXeXaXpXsX< o + $ ",
"5 #Xe w 1X6X6X9X6X6X6X6X6X6X6X6X6X6X6X6X6X6X6X6X6X6X6X6X6X6X6X6X6X6X6X6X6X6X6X6X6X6X6X6X6X6X6X6X6X6X6X6X6X6X6X6X0X7X7X9X= + + + ",
"* 1 , , 0XpXuXyXuXuXuXuXuXuXuXuXuXuXuXuXuXuXuXuXuXuXuXuXuXuXuXuXuXuXuXuXuXuXuXuXuXuXuXuXuXuXuXuXuXuXuXiXuXuXuXpXw * , , % # + + ",
"* 1 1 * 7XpXyXyXyXyXyXyXyXyXyXyXyXyXyXyXyXyXyXyXyXyXyXyXyXyXyXyXyXyXyXyXyXyXyXyXyXyXyXyXyXyXyXyXuXyXyXuXyXtXyXpXoX2 1 1 & @ + + ",
"3 4 6 , 0XpXpXpXpXpXpXpXpXpXpXpXpXpXpXpXpXpXpXpXpXpXpXpXpXpXpXpXpXpXpXpXpXpXpXpXpXpXpXpXpXpXpXpXpXiXpXpXpXuXpXaXw , , 5 & + + + ",
"& * * * OX9X7X7X7X7X7X7X7X7X7X7X7X7X7X7X7X7X7X7X7X7X7X7X7X7X7X7X7X7X7X7X7X7X7X7X7X7X7X7X7X7X7X7X7X7X7X9X7X7X7X9X6 , * = % + + + ",
"  .                                                                                                                             ",
"                                                                                                                                "
};
