/* XPM */
static char *c1aa4057eaf241f1cc06ae729d1870d7tEW9x3qkXrMflrin[] = {
/* columns rows colors chars-per-pixel */
"64 64 230 2 ",
"   c #010102",
".  c #05060A",
"X  c #35353F",
"o  c #37383D",
"O  c #6C5439",
"+  c #73583D",
"@  c #3D3D45",
"#  c #3E3E48",
"$  c #373A43",
"%  c #403F45",
"&  c #42434A",
"*  c #4A4B57",
"=  c #4E515C",
"-  c #53545D",
";  c #725944",
":  c #776756",
">  c #7A6A53",
",  c #565965",
"<  c #5C5D65",
"1  c #5B5D69",
"2  c #525561",
"3  c #4F5160",
"4  c #5F6571",
"5  c #5C6169",
"6  c #61636F",
"7  c #646569",
"8  c #7B736B",
"9  c #767469",
"0  c #636A74",
"q  c #656A76",
"w  c #6B727A",
"e  c #71747B",
"r  c #747C7E",
"t  c #7A7777",
"y  c #BC5E00",
"u  c #B96719",
"i  c #B1640D",
"p  c #9E5E20",
"a  c #9B6336",
"s  c #B56523",
"d  c #A66938",
"f  c #AD7A35",
"g  c #CC5E00",
"h  c #C85908",
"j  c #D45E04",
"k  c #CB6400",
"l  c #CC6A01",
"z  c #C76509",
"x  c #D16301",
"c  c #DC6E09",
"v  c #D86804",
"b  c #DA7304",
"n  c #D6730A",
"m  c #DB740A",
"M  c #DD7D0B",
"N  c #D77504",
"B  c #D97814",
"V  c #C97214",
"C  c #E5790A",
"Z  c #E67412",
"A  c #EA7512",
"S  c #E77B15",
"D  c #F87D18",
"F  c #FC7F07",
"G  c #C87A2C",
"H  c #CD7322",
"J  c #997549",
"K  c #876C54",
"L  c #917455",
"P  c #A47045",
"I  c #877A67",
"U  c #967A64",
"Y  c #857A74",
"T  c #76827C",
"R  c #BD873C",
"E  c #DD8917",
"W  c #D78713",
"Q  c #E8860B",
"!  c #F8890A",
"~  c #EC9708",
"^  c #F6980C",
"/  c #E48313",
"(  c #EB8514",
")  c #EB8A14",
"_  c #E88A1B",
"`  c #F38413",
"'  c #F38C14",
"]  c #F38C1B",
"[  c #F88916",
"{  c #ED951B",
"}  c #EB9717",
"|  c #F49213",
" . c #F89412",
".. c #FC9B14",
"X. c #F3931B",
"o. c #F59B1B",
"O. c #FC9E1C",
"+. c #F29A15",
"@. c #ECA41D",
"#. c #E9A71E",
"$. c #F5A415",
"%. c #FCA514",
"&. c #F6AB14",
"*. c #FBA914",
"=. c #F5A41C",
"-. c #FCA51B",
";. c #F5A91C",
":. c #FCAA1C",
">. c #F7A70B",
",. c #CD852D",
"<. c #D3842B",
"1. c #D98924",
"2. c #DE922E",
"3. c #C98639",
"4. c #D68836",
"5. c #D59431",
"6. c #ED8D23",
"7. c #E68927",
"8. c #EE9322",
"9. c #E99928",
"0. c #F49B22",
"q. c #FC9D24",
"w. c #F69827",
"e. c #E59730",
"r. c #F18F24",
"t. c #DBA439",
"y. c #DFB032",
"u. c #EDAA25",
"i. c #E7A726",
"p. c #F5A422",
"a. c #FCA523",
"s. c #F3AB22",
"d. c #FCAA22",
"f. c #FEA52A",
"g. c #FDAA2C",
"h. c #F4A82A",
"j. c #F7B529",
"k. c #E7AA36",
"l. c #F7A935",
"z. c #EAB63A",
"x. c #FBBB31",
"c. c #F8B738",
"v. c #E8B42F",
"b. c #F5C63C",
"n. c #B98747",
"m. c #AC8858",
"M. c #B78956",
"N. c #AB8549",
"B. c #8B897C",
"V. c #998576",
"C. c #A88C67",
"Z. c #ABA362",
"A. c #C68A46",
"S. c #D58B44",
"D. c #D3A543",
"F. c #D5B052",
"G. c #EAB945",
"H. c #F3B944",
"J. c #E6B959",
"K. c #F6B853",
"L. c #C39B60",
"P. c #CFB269",
"I. c #E5BF6C",
"U. c #DCC345",
"Y. c #EAC348",
"T. c #FCCC45",
"R. c #FBCC4B",
"E. c #F6C549",
"W. c #EAC959",
"Q. c #F4CC5A",
"!. c #F9C852",
"~. c #FAD65B",
"^. c #DCC36E",
"/. c #E8C763",
"(. c #EBD666",
"). c #F6D662",
"_. c #FCDA76",
"`. c #F1CF6F",
"'. c #FDE475",
"]. c #FCE27B",
"[. c #FEEA7D",
"{. c #F8E477",
"}. c #F9EA6E",
"|. c #6C7E8B",
" X c #6B7882",
".X c #737E86",
"XX c #7A7D84",
"oX c #757F89",
"OX c #797E8B",
"+X c #6E7E95",
"@X c #747E92",
"#X c #787E93",
"$X c #817B89",
"%X c #6D8182",
"&X c #6E818B",
"*X c #768186",
"=X c #7A8284",
"-X c #76818A",
";X c #79828B",
":X c #7F8980",
">X c #6B8395",
",X c #748292",
"<X c #7A8393",
"1X c #788A95",
"2X c #858A87",
"3X c #858C94",
"4X c #8A8E92",
"5X c #808791",
"6X c #8D9195",
"7X c #92969C",
"8X c #9D9C80",
"9X c #979CA2",
"0X c #989DA1",
"qX c #9EA2A5",
"wX c #A2A6A7",
"eX c #A6A7AB",
"rX c #A6AAAD",
"tX c #A8ACAF",
"yX c #AAAEB1",
"uX c #ACB0B3",
"iX c #B1B4B9",
"pX c #F6EB84",
"aX c #FCEC83",
"sX c #F5ED8B",
"dX c #FCEC8B",
"fX c #FDE383",
"gX c #FBF38A",
"hX c #F7F291",
"jX c #ECED8E",
"kX c #E9C787",
/* pixels */
"                                                                                                                                ",
"          .                                                                                                                     ",
"= 1 , 1 w OXoX;X*X*X*X*X*X*X*X*X*X*X*X*X*X*X*X*X.X.X.X.X.X.X.X.X.X.X.X.X.X.X.X.X*X*X*X*X*X*X*X*X*X*X.X.X.X*X*X*X6 1 6 , * @ @ @ ",
"= 1 , ,  X;X-X-X-X-X-X-X-X-X-X-X-X-X-X-X-X-X-X-X-X-X-X-X-X-X-X-X-X-X-X-X-X-X-X-X-X-X-X-X-X-X-X-X;X-X-X-X-X-X;X;X0 , 1 , * $ @ @ ",
"= 6 , 1  XoXoXoXoXoXoXoXoXoXoXoXoXoXoXoXoXoXoXoXoXoXoXoXoXoXoXoXoXoXoXoXoXoXoXoXoXoXoXoXoXoXoXoX-XoXoXoXoX-X-X-Xq 2 2 , & $ @ @ ",
"= q 6 6 .X-X-X-X*X*X*X*X*X*X*X*X*X*X*X*X*X*X*X*X;X;X;X;X;X;X;X;X;X;X;X;X;X;X;X;X*X*X*X*X*X*X*X*X*X*X*X;X;X;X;X;Xe e e XX* o & @ ",
"q 5X;X.X;X-X-X.X-X-X-X-X-X-X-X-X-X-X-X-X-X-X-X-X-X-X-X-X-X-X-X-X-X-X-X-X-X-X-X-X-X-X-X-X-X-X-X-XoXoX-X-X-X-XoXoXqXyXyXiX7 o % @ ",
"4 ;X-XoX;X.X-X-X-X-X-X-X-X-X-X-X-X-X-X-X-X-X-X-X-X-X-X-X-X-X-X-X-X-X-X-X-X-X-X-X-X-X-X-X-X-X-X-XoX-X-X-X-X-XoX.X7XyXqXuX, o & @ ",
"0 ;XoX-X-X-X-X;X-X-X-X-X-X-X-X-X*X&XXXXX,XoX=X%X>X,XoX.X.X.X.X.X.XoX,X;X-X*X.X<X;X.X.X*X.X-X;X-X-XoX-X-XoX-X-X.X9XtXwXuX< o # @ ",
"0 ;XoX-X-X-X-X;X-X-X-X-X-X-X-X-X,X;X;X|.oXOX.X-X> > ; + O O O O O O : t |.;X*XXX-X-X-X;X-XoX-X-X-XoX-X-XoX-X-X.X9XtXwXuX< o # @ ",
"0 ;XoX-X-X-X-X;X-X-X-X-X-X-X-X-XoXXX-X|.=X1X XY 3.3.,.<.<.<.4.G s u d K e ;X*XT -X-X-X;X-X.XoX-X-XoX-X-XoX-X-X.X9XtXwXuX< o # @ ",
"0 ;XoX-X-X-X-X;X-X-X-X-X-X-X-X-X*X*X.X.X%X%X9 a r.] X. .'  .] / b n V p + w ,X%XoX*X*X-X-X.X.X;X-XoX-X-XoX-X-X.X9XtXwXuX< o # @ ",
"0 ;XoX-X-X-X-X;X-X-X-X-X-X-X-X-X*X*X.X<X|.8 n.7.p.0.a.-.O.a.f.q...{ _ E 3.K q 1X-X-X*XoX-X-XoX;X-XoX-X-XoX-X-X.X9XtXwXuX< o # @ ",
"0 ;XoX-X-X-X-X;X-X-X-X-X-X-X-X-XOX-XXX@Xt d 6.9.d.;.:.:.=.=.:.=.%.p.E X.l.f : r XX;X-XoX;X;XoX*X-XoX-X-XoX-X-X.X9XtXwXuX< o # @ ",
"0 ;XoX-X-X-X-X;X-X-X-X-X-X-X-X-XOX-X.XY M.7.a.p.%.=.-.-.-.-.-.:.=.p.h.c.c.!.kXV.w *X;X.X-X;X.X*X-XoX-X-XoX-X-X.X9XtXwXuX< o # @ ",
"0 ;XoX-X-X-X-X;X-X-X-X-X-X-X-X-XT *X.XJ _ ^ p.%.a.0.X.{ 8.{ } o.=.:.=.z.~.b.K.N.7 r *X.X-X-X.X*X-XoX-X-XoX-X-X.X9XtXwXuX< o # @ ",
"0 ;XoX-X-X-X-X;X-Xr OX,X*X.XOX*X>X8 n.7.o.-.-.a.g.) l x j x k B j.f.w.E.}.U.W _ A.Y |.*X;X#X-X*X-XoX-X-XoX-X-X.X9XtXwXuX< o # @ ",
"0 ;XoX-X-X-X-X;X;X.XOX;X*X;X<X-Xt L 4.+.*.*.p.w.) / m c c c c S 8.9.G.(.[.W.t.e.1.P I *X<XOX.X;X-XoX-X-XoX-X-X.X9XtXwXuX< o # @ ",
"0 ;XoX-X-X-X-X;X*X*X,XoX=XoX.X9 n.4.h.:.$.d.g.} l m ( ' ` ` ` C y t.[.dXfXfX_.G./ 7.A.I w ,X5Xr -XoX-X-XoX-X-X.X9XtXwXuX< o # @ ",
"0 ;XoX-X-X-X-X;X*X*X;XXX*X.XY J 7.0.-.-.p.w.8.) c C | |  . . .C c 2.J.`.dX].).H.] [ ] f I .X;Xr -XoX-X-XoX-X-X.X9XtXwXuX< o # @ ",
"0 ;XoX-X-X-X-X;X*XoX-X*X,X.Xm.1.f.d.>.$.x.8.g c ] ] O.%.%.%.a.o.` Z y D.gXW.i.=.p.! ! 7.M.T |.<X-XoX-X-XoX-X-X.X9XtXwXuX< o # @ ",
"0 ;XoX-X-X-X-X-X-XoX;X*X+X8 A. .-.$.;.=.8._ c Z ' | %.*.*.$.s.u.k.6.v 7.H.z.s.&.&.~ ! D S.Y +XOX-XoX-X-XoX-X-X.X9XtXwXuX< o # @ ",
"0 ;XoX-X-X-X-X;X*X@X;X*XoXK ,.| %.=.g.9.l b ' ' a.a.-.%.$.@.v.Y.}.G.1.B g / p.;.;.~ ! [ 4.I  XXX-XoX-X-XoX-X-X.X9XtXwXuX< o # @ ",
"0 ;XoX-X-X-X-X;X*X#X-X%XXXJ 5.i.-.0._ ) C Q | o.=.:.%.-.:.v.G.).aX(.F.e.v D ( X.a.$.} w.k.m.2X$X-XoX-X-XoX-X-X.X9XtXwXuX< o # @ ",
"0 ;XoX-X-X-X-X;X,X-X;XoXM.6.h.;.-.o.l m f.-.=.=.=.$.%.;.i.G.'.pXjXsX[.H._ Z x Q a.:.p.x.!.!.I.2XoX-X-X-X-X-X;XoX9XtXwXuX< o # @ ",
"0 ;XoX-X-X-X-X;X;X*X*X.Xn.6.a.;.-.X.l n q.%.%.=.:.=.;.v.E.).[.pXgX{.Q.l._ Z g Q :.=.=.x.R.!.^.2XoX-X-X-X-X-X;XoX9XtXwXuX< o # @ ",
"0 ;XoX-X-X-X-X;X-X*X=XXXn.] -.*.f.w.l m a.%.%.:.=.;.i.G.'.[.pXpX[.Q.v.o.' Z g ( :.=.=.x.T.R./.2XoX-X-X-X-X-X;XoX9XtXwXuX< o # @ ",
"0 ;XoX-X-X-X-X;X-X*X*XXXn.' -.%.f.w.l m O.%.%.=.=.v.E.(.gXsXpX_.!.H.u.^ ! Z x / :.=.=.x.T.R./.B.oX-X-X-X-X-X;XoX9XtXwXuX< o # @ ",
"0 ;XoX-X-X-X-X;X-X-X;XXXn.' -.%.p.8.l m q.%.$.s.i.z.'.sXsXdXaXQ.i.h.:.^ ! A x / d.:.p.x.R.R./.B.oX-X-X-X-X-X;XoX9XtXwXuX< o # @ ",
"0 ;XoX-X-X-X-X;X-XoX;XXXn.' -.=.d.0.l m q.=.#.v.G.Q.[.sXhX].Q.c.=.d.%.^ ! A x ( d.:.p.x.R.R./.B.oX-X-X-X-X-X;XoX9XtXwXuX< o # @ ",
"0 ;XoX-X-X-X-X;X-XoX;XXXR ' -.:.d.0.x m q.u.v.Y.[.aXpXpXaXQ.i.s.d.:.*.^ ` A g ( p.:.p.x.R.R./.B.oX-X-X-X-X-X;XoX9XtXwXuX< o # @ ",
"0 ;XoX-X-X-X-X;X*X*X*XXXR ' =.:.:.o.l C f.j.Y.~.pXpXaX{.W.H.s.:.%.=.:.^ ' S g ( :.=.=.j.R.R./.B.oX-X-X-X-X-X;XoX9XtXwXuX< o # @ ",
"0 ;XoX-X-X-X-X;XXX*X&XXX3.! =.:.f.X.v n l.c.).gXsXgX[.~.i.@.=.:.=.*.*. .` A k / f.:.%.x.!.T.W.2X.X-X-X-X-X-X-X*X9XtXwXuX< o # @ ",
"0 ;XoX-X-X-X-X;X.X.X,X*Xn.' d.>.s.8.v H Y.Q.].pXdX{.W.z.u.d.:.:.:.:.*. .` Z k / %.=.-.x.R.T.J.2X.X-X-X-X-X-X-X*X9XtXwXuX< o # @ ",
"0 ;XoX-X-X-X-X;X;XOX@X*XN.) -.>.u.9.h <.{.aXdXdXaX).k.u.;.:.%.%.$.*.*...[ A k ( d.s.=.x.T.T.I.2XoX-X-X-X-X-X-X*X9XtXwXuX< o # @ ",
"0 ;XoX-X-X-X-X;XoX;XoX.Xm.) o.s.!.K.V 4.].jXjX_.E.z.u.=.%.%.%.:.=.:.%...` Z g ( d.u.u.c.T.R.P.5XoX-X-X-X-X-X-X*X9XtXwXuX< o # @ ",
"0 ;XoX-X-X-X-X;XOX;X*X.Xm.) p.z.fX`.z W _.hXpX~.i.s.=.%.%.%.$.d.:.:.-.| ` Z k ) g.s.s.c.T.R.P.5XoX-X-X-X-X-X-X.X9XtXwXuX< o # @ ",
"0 ;XoX-X-X-X-X;X;X*X=XoXU e.!.(.hX`.z 1.[.{.Y.c.=.:.%.%.%.-.=.:.-.%.:.O.] S x / d.&.$.x.T.W.P.=XoX-X-XoX-X-X-X.X9XtXwXuX< o # @ ",
"0 ;XoX-X-X-X-X;X;X X*X;XB.L._.[.gX`.u ,.{.~.p.@.=.=.%.-.%.:.:.-.a.=.-.o.( S l / :.-.=.x.!.^.8XXX-X-X-XoX-X-X-X.X9XtXwXuX< o # @ ",
"0 ;XoX-X-X-X-X;X*X|.OX<X&XI L.W.'.'.J.P.D.{ =.p.=.=.:.d.$.-.%.%.-.^ ^ Q C S S q.%.q.X.@.t.C.OX#X-X-X-XoX-X-X-X.X9XtXwXuX< o # @ ",
"0 ;XoX-X-X-X-X;X;X;X*X*X;XY N.i.'.[.gX/.i V s.-.-.-.-.-.-.-.-.-.p.+.Q S k E p.a.f.! ! ) R Y @XXX-XoX-X-XoX-X-X.X9XtXwXuX< o # @ ",
"0 ;XoX-X-X-X-X;X-X;X.X*X;X$XC.D.[.}.Y.H.9.) b E :.d.:.:.$.:.:.:.a.} b S _ } s.g.:.| ! ] m.;X,XT -XoX-X-XoX-X-X.X9XtXwXuX< o # @ ",
"0 ;XoX-X-X-X-X;X*X-XoX*X,XOXB.C.'.~.i.@.d.X.l B p.:.=.*.>.&.;.=.a.Q g S f.;.s.h.;. .` 4.V.,X-XT -XoX-X-XoX-X-X.X9XtXwXuX< o # @ ",
"0 ;XoX-X-X-X-X;X*X;XOX*X*XoXXXB.L.k.d.;.:.=.{ ) M Q -.=.:.$.:.} M ( ] q.p.$.:.) / C H I .XOXOX*X-XoX-X-XoX-X-X.X9XtXwXuX< o # @ ",
"0 ;XoX-X-X-X-X;X*XoXOX-X*X*XoX.XY R a.-.=.*.j.8.k M q.O.a.q.q._ y / f.p.=.:.-.` g s L &X*XXXOX-X-XoX-X-XoX-X-X.X9XtXwXuX< o # @ ",
"0 ;XoX-X-X-X-X-X*XoXoX*X*X*X-XOX-XY S...-.-.:.=.] ) C C m m M S 9.0.;.@.d.| b v H U ,X;X;X;XoX&X-XoX-X-XoX-X-X.X9XtXwXuX< o # @ ",
"0 ;XoX-X-X-X-X;X;X*XoX-X.X*X-XoX%X@XV.5.p.q.-.*.g.} l l k k l M g.=.:.d.a.C z s L OX+XXXXXOXoX*X-XoX-X-XoX-X-X.X9XtXwXuX< o # @ ",
"0 ;XoX-X-X-X-X;X*X*X*X;X-X-X;XOX$X*X.XU 2.+.=.*.$.=.{ 6.w.r.X.q.*.-.-.o.! ` 4.P |.XXXX*X*XoXoX=X-XoX-X-XoX-X-X.X9XtXwXuX< o # @ ",
"0 ;XoX-X-X-X-X;X-X-X-X-X-X-X-X-XoX;X*X.XC.2.-.$.-.=.:.d.g.d.d.-.h.a.O.] ` 7.M.=X-X-X-X-X-X-X-X-X-X-X-X-X-X-X-X.X9XtXwXuX< o # @ ",
"0 ;XoX-X-X-X-X;X-X-X-X-X-X-X-X-X;X;X*X.Xt J 5...-.%.:.:.:.d.:.$.a._ m b V d 8 oX-X-X-X-X-X-X-X-X-X-X-X-X-X-X-X.X9XtXwXuX< o # @ ",
"0 ;XoX-X-X-X-X;X-X-X-X-X-X-X-X-XXXoX*X;X-Xr m.7.a.-.......-.a.-.O./ l z d t +X<X-X-X-X-X-X-X-X-X-X-X-XoX-X-X-X.X9XtXwXuX< o # @ ",
"0 ;XoX-X-X-X-X;X-X-X-X-X-X-X-X-XXX&X-X=X;X*XY J 7.6.X. . .X.] / C n u a 8 OX<XOX-X-X-X-X-X-X-X-X-X-X-XoX-X-X-X.X9XtXwXuX< o # @ ",
"0 ;XoX-X-X-X-X;X-X-X-X-X-X-X-X-X-X;X-XXXXXOX.Xr n.3.3.,.<.4.,.G s s P Y -X.Xr r -X-X-X-X-X-X-X-X-X-X-XoX-X-X-X.X9XtXwXuX< o # @ ",
"0 ;XoX-X-X-X-X;X-X-X-X-X-X-X-X-X;XXXXX-X-X<XOX<Xt 8 : ; + + ; + ; : 9 .X;X-X;X;X-X-X-X-X-X-X-X-X-X-X-X-X-X-X-XoX9XtXwXuX< o # @ ",
"0 ;XoX-X-X-X-X;X-X-X-X-X-X-X-X-X;XXXXX;X&X-X.X.X+X+XoXoX.X.X.X.X XoX;X*X.X-X&X.X-X-X-X-X-X-X-X-X-X-X-X-X-X;X-XoX9XtXwXuX< o # @ ",
"0 ;XoX-X-X-X-X;X-X-X-X-X-X-X-X-X*X-X,X;XXX=X.X;X*X*X*X;X-X*X;X*X;X-X.X*X;X;X;X2X-X-X-X-X-X-X-X-X-X-X-X-X-X;X-XoX9XtXwXuX< o # @ ",
"0 ;X-X*X-X.X.XoX.X.X.X.X.X.X.X.X.X.X.X.X.X.X.X.X.X.X.X.X.X.X.X.X.X.X.XoX.X.X.X.X.X.X.X.X.X.X.X.X.X.X.X.X.XoX.X.X0XuXyXiX< o @ % ",
"5 .Xe w ;X3X3X6X3X3X3X3X3X3X3X3X3X3X3X3X3X3X3X3X3X3X3X3X3X3X3X3X3X3X3X3X3X3X3X3X3X3X3X3X3X3X3X3X3X3X3X3X3X3X3X3X7X4X4X6X- @ @ @ ",
"= 1 , , 7XyXrXeXrXrXrXrXrXrXrXrXrXrXrXrXrXrXrXrXrXrXrXrXrXrXrXrXrXrXrXrXrXrXrXrXrXrXrXrXrXrXrXrXrXrXrXtXrXrXrXyXw = , , & $ @ @ ",
"= 1 1 = 4XyXeXeXeXeXeXeXeXeXeXeXeXeXeXeXeXeXeXeXeXeXeXeXeXeXeXeXeXeXeXeXeXeXeXeXeXeXeXeXeXeXeXeXrXeXeXrXeXwXeXyX.X2 1 1 * # @ @ ",
"3 4 6 , 7XyXyXyXyXyXyXyXyXyXyXyXyXyXyXyXyXyXyXyXyXyXyXyXyXyXyXyXyXyXyXyXyXyXyXyXyXyXyXyXyXyXyXyXyXtXyXyXyXrXyXuXw , , 5 * @ @ @ ",
"* = = = XX6X4X4X4X4X4X4X4X4X4X4X4X4X4X4X4X4X4X4X4X4X4X4X4X4X4X4X4X4X4X4X4X4X4X4X4X4X4X4X4X4X4X4X4X4X4X6X4X4X4X6X6 , - - & @ @ @ ",
"  .                                                                                                                             ",
"                                                                                                                                "
};
