/* XPM */
static char *enemy_right_01739715791[] = {
/* columns rows colors chars-per-pixel */
"64 64 238 2 ",
"   c #010102",
".  c #0C0302",
"X  c #05060A",
"o  c #120301",
"O  c #1B0603",
"+  c #1B0A09",
"@  c #0F0F11",
"#  c #0C1514",
"$  c #0F1E1B",
"%  c #151314",
"&  c #161718",
"*  c #1A100E",
"=  c #2B0200",
"-  c #250607",
";  c #380204",
":  c #2B1917",
">  c #381514",
",  c #36100D",
"<  c #1A241C",
"1  c #26221E",
"2  c #141D24",
"3  c #2C1C26",
"4  c #252523",
"5  c #272626",
"6  c #35353F",
"7  c #36393D",
"8  c #30262F",
"9  c #4B0302",
"0  c #490806",
"q  c #520403",
"w  c #5D0402",
"e  c #5C0A0A",
"r  c #590906",
"t  c #4B160F",
"y  c #590B13",
"u  c #5B1314",
"i  c #5A1917",
"p  c #5A1D1D",
"a  c #541919",
"s  c #4E140E",
"d  c #650B0B",
"f  c #6B0B0D",
"g  c #690707",
"h  c #74050C",
"j  c #740B0C",
"k  c #790A0A",
"l  c #690C19",
"z  c #690813",
"x  c #730C12",
"c  c #7A0A12",
"v  c #621114",
"b  c #6A1619",
"n  c #7C131B",
"m  c #781516",
"M  c #642503",
"N  c #712A0E",
"B  c #561A24",
"V  c #4E1F27",
"C  c #651A23",
"Z  c #761A25",
"A  c #572629",
"S  c #5C363C",
"D  c #532B2B",
"F  c #682328",
"G  c #75252A",
"H  c #672A32",
"J  c #752B33",
"K  c #673A3C",
"L  c #733133",
"P  c #64413C",
"I  c #3D3D45",
"U  c #3E3E48",
"Y  c #373A43",
"T  c #403F45",
"R  c #5E3E44",
"E  c #663D42",
"W  c #42434A",
"Q  c #5E4343",
"!  c #5B464B",
"~  c #4A4B57",
"^  c #4E515C",
"/  c #52535D",
"(  c #58595B",
")  c #634244",
"_  c #67494A",
"`  c #6B4F54",
"'  c #664E55",
"]  c #6B5456",
"[  c #68555A",
"{  c #75595E",
"}  c #704B4B",
"|  c #565965",
" . c #5C5D65",
".. c #5B5D69",
"X. c #525561",
"o. c #4F5160",
"O. c #6A5D62",
"+. c #705D61",
"@. c #5C6169",
"#. c #5F6571",
"$. c #5F7173",
"%. c #6E6365",
"&. c #62636E",
"*. c #6C666A",
"=. c #686869",
"-. c #73646B",
";. c #74676A",
":. c #636A74",
">. c #696A73",
",. c #736D75",
"<. c #796C75",
"1. c #6B737A",
"2. c #72747B",
"3. c #747C7D",
"4. c #78767A",
"5. c #73746F",
"6. c #840A0C",
"7. c #860A14",
"8. c #960C14",
"9. c #831316",
"0. c #8E141C",
"q. c #86151E",
"w. c #931117",
"e. c #94131C",
"r. c #99161C",
"t. c #88110D",
"y. c #A8151D",
"u. c #BA161E",
"i. c #891A24",
"p. c #931521",
"a. c #9A1322",
"s. c #981925",
"d. c #AB1523",
"f. c #A51C24",
"g. c #AC1A24",
"h. c #A91B28",
"j. c #B31B25",
"k. c #BC1A25",
"l. c #B51D2A",
"z. c #BC1C2B",
"x. c #B91525",
"c. c #A71F35",
"v. c #8C222A",
"b. c #A8212B",
"n. c #BD212B",
"m. c #BD2230",
"M. c #C31D2B",
"N. c #CC1D2C",
"B. c #C31B24",
"V. c #D21E2D",
"C. c #D61A2B",
"Z. c #C51F32",
"A. c #CC1E31",
"S. c #C91F39",
"D. c #D21D32",
"F. c #D71E37",
"G. c #C5222D",
"H. c #CC212E",
"J. c #C72226",
"K. c #D2222D",
"L. c #D8232C",
"P. c #C62232",
"I. c #CC2232",
"U. c #CB2239",
"Y. c #C6293A",
"T. c #D32234",
"R. c #D52639",
"E. c #9A5A28",
"W. c #9A2844",
"Q. c #8A2642",
"!. c #AE3653",
"~. c #BB3B61",
"^. c #AD3362",
"/. c #C73855",
"(. c #D73755",
"). c #D22A43",
"_. c #D83964",
"`. c #C03C63",
"'. c #B2475D",
"]. c #B9456A",
"[. c #C24B5E",
"{. c #C84368",
"}. c #D2466B",
"|. c #E64B76",
" X c #DF7E6D",
".X c #F87771",
"XX c #72867D",
"oX c #BAA21C",
"OX c #B9A222",
"+X c #D48A4D",
"@X c #6E7A84",
"#X c #6E7885",
"$X c #747D86",
"%X c #7A7D85",
"&X c #757F88",
"*X c #7B7D89",
"=X c #787785",
"-X c #777E90",
";X c #ED4E86",
":X c #6E838A",
">X c #6E8283",
",X c #768086",
"<X c #7A8386",
"1X c #768089",
"2X c #7A828B",
"3X c #768B8C",
"4X c #7B8292",
"5X c #7A8894",
"6X c #85888C",
"7X c #86918E",
"8X c #8A928F",
"9X c #858C94",
"0X c #8A8D92",
"qX c #848A94",
"wX c #8B9293",
"eX c #879297",
"rX c #92959B",
"tX c #918B97",
"yX c #979CA2",
"uX c #989DA1",
"iX c #8891A0",
"pX c #AA9EAB",
"aX c #9EA3A5",
"sX c #9CABA5",
"dX c #9DAFB3",
"fX c #A2A6A7",
"gX c #A5A7AB",
"hX c #A5AAAD",
"jX c #A8ACAF",
"kX c #ABA7AD",
"lX c #A4ACB2",
"zX c #ABADB1",
"xX c #A9A5B1",
"cX c #B2ABB5",
"vX c #ACB0B3",
"bX c #A6B0B1",
"nX c #B1B3B9",
"mX c #A6B0AF",
/* pixels */
"                                                                                                                                ",
"          X                                                                             X           X               X           ",
"o...| @.1.&X&X1X1X1X1X1X&X1X1X1X,X,X,X&X&X1X,X1X&X&X1X1X1X1X,X,X1X1X1X1X1X$X1X,X2X,X,X,X,X1X1X1X,X1X,X,X,X1X,X,X:...&...~ I I I ",
"^ @.| | #X2X1X1X1X1X1X2X1X1X3X2X1X1X1X1X1X1X1X1X1X3X1X2X1X1X2X1X1X2X1X1X1X3X2X2X1X1X1X2X1X1X1X1X3X1X1X1X2X1X2X1X&.| ....~ Y I I ",
"^ #.| ..#X&X&X&X&X*X&X&X1X&X&X&X&X&X&X&X&X&X&X&X&X&X&X&X&X&X&X&X1X*X&X&X&X1X1X$X&X&X&X&X&X&X&X$X&X&X&X&X&X,X2X&X:.X./ | W Y I I ",
"^ :.#.&.=X&X1X1X,X,X,X,X,X,X,X,X,X,X,X,X,X,X,X&X&X,X,X,X,X,X,X,X,X<X,X,X1X1X,X,X,X,X,X&X,X,X,X,X&X&X&X2X,X,X,X,X2.2.2.=X~ 6 I I ",
":.qX&X&X2X1X1X1X1X1X1X&X1X1X&X1X&X&X,X&X&X&X&X&X1X&X1X&X*X1X1X&X1X2X2X&X&X$X,X1X&X1X1X1X1X1X1X1X&X&X1X1X2X&X&X&XaXzXjXnX&.7 T I ",
":.-X&X&X2X@X2X1X1X1X1X1X&X&X1X1X&X1X1X1X*X,X2X&X1X1X1X1X1X1X1X1X1X1X&X$X#X@X$X2X1X1X&X1X&X1X1X,X&X&X1X1X2X&X&X&XrXjXfXvX( 7 W I ",
":.2X&X1X1X1X,X*X&X1X,X1X&X1X&X2X,X1X&X&X2X&X1X1X<X,X&X,X&X1X,X:X,X=X2X2.K _ $X&X=X2X,X1X1X&X&X,X&X&X&X1X&X2X1X$XuXjXfXvX .6 I I ",
":.2X&X1X1X1X&X2X&X1X&X&X1X1X&X&X1X&X1X1X1X&X1X&X,X,X1X1X1X&X2X&X,X2X,.K Z J ' =X<X2X,X:X1X:X2X%X&X&X2X1X&X1X1X&XuXjXfXzX .Y U I ",
":.2X&X1X1X1X,X2X2X1X1X2X&X&X1X1X2X&X&X&X1X2X&X,X1X1X&X%X,X:X1X-X1X,.K m j.r.A *.1X$X*X2X1X-X$X2X,X&X&X1X&X1X1X&XuXjXfXvX .6 U I ",
":.2X&X1X&X2X&X&X&X&X1X&X1X2X&X,X&X1X1X2X1X&X&X1X-X4X<X&X&X,X:X3X,.S i.u.K.t.a ;.3X&X*X*X&X3X1X1X1X&X1X,X&X1X1X&XuXzXfXvX .Y U I ",
":.5X,X2X1X1X1X2X1X&X&X1X1X1X1X&X,X&X1X&X1X&X1X&X@X1X3X$X2X4.[ ' P s e.T.I.t.u P _ %.3.&X@X2X1X,X1X&X1X&X&X1X2X$XuXjXgXvX .6 I I ",
":.2X&X,X&X1X1X2X,X&X2X1X&X1X&X2X1X1X1X1X1X1X1X1X<X<X:X:X3.{ C d r w w.P.U.a.w e z A ] 3.1X1X&X*X1X&X&X2X&X1X1X&XyXjXfXzX .6 U T ",
":.2X&X1X1X2X&X2X&X2X&X1X&X&X&X1X1X&X1X1X&X1X1X1X:X*X&X,X[ G i.t.w r.n.I.N.w.g 0.x.p.F ] %X1X1X*X&X&X&X,X&X2X1X$XyXzXfXzX .6 U I ",
":.2X&X&X1X1X&X2X&X&X1X1X,X2X&X1X1X&X1X&X1X1X&X1X1X<.' [ D g e.j j z.D.T.P.9.k j.L.z.p.J [ 3.3X1X1X&X1X1X&X1X1X&XyXjXfXzX .Y U I ",
":.2X&X1X1X1X&X2X&X&X1X1X1X1X1X&X,X&X@X5X*X=X3.2.<.E v d e d w w j k.G.n.Z.w.j j.H.N.H.w.F { ,X@X1X&X,X&X&X1X2X$XyXjXfXvX .6 I I ",
">.2X&X1X1X2X&X2X2X&X1X&X2X&X1X&X,X2X4X@X:X6X] D A G f.y.y.d.d.d.l.P.r.j c w.h.H.A.R.G.l.s.F ' ,X1X&X&X2X&X1X,X&XyXjXfXvX .6 U I ",
":.2X1X1X&X1X&X2X1X1X2X&X&X1X1X&X&X2X&X:X,X] J 7.6.f.H.V.N.T.R.I.D.N.d.k j d.M.f.l.A.H.L.z.f K $X,X&X&X1X&X2X,X&XyXjXfXvX .6 U I ",
":.5X,X1X1X2X&X,X,X&X&X1X&X,X&X2X<X*X$X,X%.B p.M.k.N.T.H.I.M.N.N.P.I.A.N.n.T.k.k w.M.n.V.k.d K XX&X&X1X1X&X1X1X&XyXjXfXvX .Y U I ",
":.2X&X2X&X1X&X2X&X1X1X1X1X&X&X,X2X$X<X] F s.j.K.I.I.A.A.H.H.K.F.G.J.N.D.T.T.g.f t.Z.w.a.n.e P =X1X&X1X&X&X1X1X&XuXjXgXvX .6 T I ",
":.2X&X&X1X2X&X2X&X2X&X1X1X&X2X1X,X2.{ J e.z.T.J.N.S.Z.D.V.z.g.r.y.g.s.h.G.T.h.d k f.F Z r.d Q $X1X&X1X1X1X1X1X$XyXjXfXzX .6 U I ",
":.2X&X1X&X1X&X2X1X&X&X2X1X&X&X1X,X*.A i.z.M.R.I.N.I.U.T.A.h.q.z d z z q.y.T.M.j g F { _ v r K *X1X&X1X&X&X2X1X&XyXzXfXzX .6 U I ",
":.2X&X1X1X,X&X2X,X1X&X&X1X1X1X1X2X-.v 8.H.V.A.U.V.H.H.N.K.Y.!.~.'.~.~.!.0.y.y.d A ( =X<.P t S &X*X,X1X1X&X1X1X&XyXjXfXzX .Y U T ",
":.2X2X2X,X2X&X1X1X&X1X1X,X1X&X&X2X%.a w.I.N.I.I.H.I.M.T.).(.{.].`.].{.~.Q.h.j.g Q 2X*X<X1.! ' ,X&X&X1X&X&X2X1X&XyXjXfXvX .6 U I ",
":.2X,X1X&X1X1X2X1X,X1X&X1X1X&X&X3X%.i w.I.I.H.N.A.H.N.A._.}.i.l z C z Z {.}.l.j S =X=X,X1X<.4.1X&X&X2X1X&X1X1X&XyXjXfXvX .6 U I ",
":.2X&X1X&X2X&X&X1X1X1X1X&X*X&X,X1X%.i w.I.N.I.H.D.N.H.S.}.}.z 9 q q 9 M +X.X~.n E 6X1X3X&X5X1X1X,X&X1X1X&X1X1X&XyXjXfXvX .6 U I ",
":.2X&X1X&X2X1X2X1X1X1X&X2X,X&X&X4X-.i w.I.A.A.N.A.V.N.U.(.{.Q.l w 9 9 M oX+X'.l A +.$X4X#X&X1X:X1X&X&X,X&X1X1X$XyXjXfXzX .Y T I ",
":.2X&X1X1X2X1X2X1X1X&X1X,X&X&X&X4X%.i w.I.A.H.H.N.I.T.A.U.(.{.W.r w y N OXE.b w 0 A -.2X2X=X&X3X1X&X&X1X&X1X2X$XyXjXgXvX .6 I I ",
":.2X&X&X&X1X&X&X1X,X1X1X1X1X&X&X:X%.i w.H.T.A.I.G.I.I.N.N.R.(._.!.^.^.'. XE.9 9 9 u ;.1X1X$X*X&X1X&X,X1X&X1X,X&XyXjXfXzX .Y U I ",
":.2X2X1X1X1X&X2X1X1X1X1X1X1X&X&X4X%.a w.I.I.A.N.I.I.N.N.K.N.U.(.|.;X;X|.|.!.v 9 q u ,.1X$X,X*X2X1X&X&X2X&X2X2X&XyXjXfXzX .6 U I ",
":.5X&X,X,X2X1X2X:X&X1X&X&X1X&X&X4X%.i w.P.N.H.H.D.T.H.M.I.A.G.G.).).).F.F.P.y.h q i *.1X$X3X&X&X1X&X&X&X&X1X&X&XyXjXfXzX .Y U I ",
":.2X&X2X&X1X&X&X1X&X1X&X1X1X1X&X2X,.O.J 8.B.K.I.F.P.P.G.G.K.D.P.P.n.P.K.V.g.c g D [ 4.$X&X*X&X:X1X&X1X&X&X1X2X$XyXjXfXvX .6 I I ",
":.2X&X&X1X2X,X2X1X1X1X&X1X&X1X&X1X*X=X) G f.Z.A.G.N.A.T.V.N.I.D.N.n.h.x.d.i.p B ' 5.*X&X1X1X&X1X1X&X&X2X&X1X1X&XyXjXfXvX .6 U I ",
":.2X&X1X1X2X1X2X1X*X&X2X&X2X&X2X1X1X1X3.` b r.P.V.I.Z.U.Z.N.I.P.d.9.d h b K ;.<.2.<X2X:X1X&X&X1X1X&X&X1X&X1X1X$XyXjXfXvX .Y U I ",
":.2X&X1X&X1X&X&X1X,X,X1X&X&X1X,X:X1X=X5X1.] G m l a n z.T.C.D.p.C K Q ) Q =.<X,X,X1X:X:X1X1X&X1X&X&X1X1X&X2X1X&XyXjXfXvX .Y T I ",
":.2X2X2X&X1X1X2X1X&X1X1X1X&X2X1X&X4X$X&X,X;.L g ; O ; q.b.h.s.a % =.<X@X,X$X$X4X1X1X1X1X1X&X$X1X1X&X1X&X&X2X1X&XuXjXfXzX .6 I I ",
":.2X,X1X,X2X1X2X1X1X&X1X1X1X&X&X*X&X3X1X%.H i.h.h.l ; , - - - o 2 &.5X:X2X&X$X1X1X1X&X&X&X,X1X$X1X&X1X1X&X1X1X$XuXjXfXcX .6 U I ",
":.2X&X1X&X1X&X2X&X1X1X1X1X&X2X&X2X$X-X=.L n d.I.N.8.0 % # # $ # & 7  .$X&X2X2X&X2X1X&X1X1X1X*X2X1X&X&X&X&X1X1X&XuXzXfXzX| Y U I ",
":.2X&X1X&X2X&X2X1X1X&X1X1X&X&X,X$X2X2.R m j.T.N.k.n t : 1 5 1 5 < # 7 &.,.1.$X*X1X@X&X1X:X1X2X*X1X&X2X&X&X2X2X$XyXjXfXzX .Y T I ",
":.2X&X,X1X1X&X2X2X&X&X,X&X2X1X1X*X&X&XS x M.N.g.x t 1 5 4 < 4 5 1 4 & : B ! 2X&X1X1X&X1X1X,X&X1X,X&X1X1X&X1X1X$XyXjXfXvX .6 I I ",
":.2X&X&X1X2X&X2X&X1X1X1X&X&X&X&X&X1XXXQ x B.T.x.d 0 > > t : 4 5 4 4 # o m G ' 2.1X1X1X1X&X1X1X1X&X&X1X&X&X2X1X&XyXjXfXvX .Y U I ",
":.5X,X&X&X1X&X2X&X1X&X&X1X&X1X2X2X2X3.Q h x.U.z.k g e d d u > 1 5 8 & O f.r.B *.1X1X&X1X1X1X1X&X2X&X1X1X&X1X1X&XyXjXfXvX .6 U I ",
":.2X1X2X1X2X&X1X1X1X,X2X1X1X1X&X=X1X3.) f l.T.Z.j.j.h.h.h.s.d > 4 4 # - j.8.a *.&X&X1X1X&X1X1X1X&X&X1X1X1X1X1X$XyXjXfXzX .Y U I ",
":.2X&X&X,X1X&X2X2X&X&X&X&X1X&X1X1X*X%XS d n.K.H.K.D.T.K.K.x.h > 4 5 # O 7.v._ 2.2X&X1X1X&X2X1X1X1X&X,X1X&X1X1X&XyXjXgXvX .6 I T ",
":.2X&X1X&X2X&X2X&X1X1X1X1X1X1X1X4X&X&X_ b h.k.B.l.z.M.k.B.f.v : 4 5 @ o a _ 2.&X1X&X&X&X&X&X1X1X&X&X&X1X,X1X2X$XyXjXfXzX .6 U I ",
":.2X&X,X&X1X&X2X1X1X1X&X,X1X1X1X$X1X4X,.} Z j h f f x f j v > : 4 5 % & T 2.2X1X1X1X1X2X1X&X1X,X2X&X1X1X&X1X*X&XyXjXfXzX .6 U I ",
":.2X&X1X1X2X&X1X&X1X1X1X1X&X1X1X,X1X:X1X*.> = = ; ; = = = - * $ & # . $ :.5X*X&X1X&X1X&X1X1X1X*X&X&X&X1X1X1X1X&XyXjXfXzX .Y U I ",
":.2X2X,X1X1X1X2X&X&X1X&X2X,X1X&XXX1X&X&X( , O + + - + . . + + O . * . : O.#X1X:X1X,X&X&X&X&X1X&X,X1X&X1X1X1X1X&XyXjXfXvX .6 I I ",
":.5X&X2X&X2X1X2X,X&X1X1X&X&X1X1X*X4X*X' F i.s.p.p.a.c y l p.e.a.a.a.p.i.C ` 6X<X1X&X&X&X1X1X1X&X&X2X1X1X&X1X,X&XyXjXfXvX .6 U T ",
":.2X&X&X1X1X1X&X&X1X&X&X1X1X1X&X4X1.{ J 0.n.N.L.H.T.j.g j g.M.K.T.N.V.G.q.L [ 4.2X&X&X2X1X2X2X&X1X1X&X&X1X2X&X&XyXjXfXvX .6 U I ",
":.2X&X,X&X2X&X2X1X1X2X&X1X&X&X2X3X%.p w.n.I.H.K.J.N.f.b q c l.I.I.I.N.V.Z.i.A -.1X,X1X1X&X1X1X1X&X1X1X&X1X,X&X&XyXjXfXzX .Y U I ",
":.2X&X&X,X2X&X2X&X1X&X1X&X&X,X1X1X%.u 8.I.I.P.Z.I.d.Z } D f l.Z.A.Z.P.V.K.w.B *.2X1X&X&X1X1X1X1X2X&X1X&X&X2X1X&XyXjXgXvX .6 T I ",
":.2X&X&X&X1X,X&X2X1X1X&X2X&X1X&X-X,.) v.d.N.R.M.d.Z _ 5.) f k.L.F.P.I.K.K.8.p %.1X&X&X&X1X1X1X1X&X2X1X1X1X1X1X&XyXjXfXzX .6 U I ",
":.2X2X2X2X2X&X2X1X2X2X1X2X1X2X1X$X&X2.E Z x.P.j.m } 2.=X_ b y.J.M.k.z.M.n.0.H -.1X&X1X1X1X1X1X1X1X,X1X&X1X2X1X&XyXjXfXzX .6 U I ",
":.5X&X,X&X1X&X2X1X&X1X1X1X1X2X1X,X1X1X*.} m j m _ 1.4X*X,._ b 6.k h 6.c h L { @X2X2X1X&X1X1X2X1X1X2X2X&X2X1X1X&XyXjXfXzX .Y U T ",
":.1X1X&X2X@X#X&X$X$X&X@X1X$X:X@X&X#X&X<X-.S V H 4.&X@X$X2X-.H B p a p a V ' 3.,X$X:X$X$X@X1X&X@X@X$X@X$X@X$X$X$XuXvXzXnX .7 I T ",
"@.3.#X1.2XqX9XeX9X9X9XqX9X9X9X9X6X9X5XeXeX9X8X8X6XeX5X5XeXeX3XwXeXeXrXrX9XeXiX5X9X9X9X9X9X9X9XqX9X9XqXqX9X9X9X0XrX0X0XeX| I I I ",
"^ .. .| rXvXzXgXjXjXjXjXjXjXlXjXzXvXgXfXdXhXhXhXdXmXxXzXlXlXdXdXlXhXxXzXjXjXzXxXjXjXgXjXjXjXhXjXjXjXjXjXjXhXjXjX1.o...@.W Y I I ",
"o...| / rXzXgXgXgXgXfXgXgXgXgXgXaXfXgXkXkXpXpXxXfXaXfXgXkXkXkXpXjXgXaXsXsXsXsXsXgXgXgXgXgXhXfXgXjXfXfXjXgXfXgXjX=XX.....~ I Y I ",
"o.#.#.| rXzXzXvXzXzXzXjXjXjXzXvXzXvXvXzXzXvXvXlXnXcXzXlXgXhXzXzXzXzXjXjXjXzXcXvXjXzXzXzXzXzXzXjXzXjXzXzXjXjXjXvX2.|  .&.~ I I I ",
"~ ^ ^ ^ %XwX0X0X0X8X0X0X0X0X0X0X0X0X0X6X7X7X7X7X0X0X0X0X0XwX7X7X0XwX8X0X6X0XtXtX0X0X8X0X0X8X0X0X0X0XwXwXwX0X0XrX&./ / ( W 7 I 7 ",
"  X                                           .                                                                               X ",
"                                                                                                                                "
};
