/* XPM */
static char *enemy_down_21739715606[] = {
/* columns rows colors chars-per-pixel */
"64 64 240 2 ",
"   c #010102",
".  c #0B0908",
"X  c #180204",
"o  c #0C120C",
"O  c #06110B",
"+  c #11120D",
"@  c #0D1316",
"#  c #171917",
"$  c #100E11",
"%  c #280607",
"&  c #350809",
"*  c #281B19",
"=  c #331819",
"-  c #34110E",
";  c #1E221E",
":  c #23241F",
">  c #2A221D",
",  c #392411",
"<  c #1D1E23",
"1  c #2D1E24",
"2  c #1C2827",
"3  c #1B2932",
"4  c #242423",
"5  c #2A2524",
"6  c #252A25",
"7  c #25232B",
"8  c #2A292B",
"9  c #27272A",
"0  c #332427",
"q  c #35353F",
"w  c #353438",
"e  c #242730",
"r  c #440500",
"t  c #4C0202",
"y  c #430B0B",
"u  c #470708",
"i  c #5B0404",
"p  c #570807",
"a  c #580C11",
"s  c #581717",
"d  c #4C110E",
"f  c #640503",
"g  c #650904",
"h  c #6A0609",
"j  c #640B0C",
"k  c #6C0B0C",
"l  c #690707",
"z  c #750B0C",
"x  c #7D0A0E",
"c  c #75070A",
"v  c #66120B",
"b  c #76100C",
"n  c #6A0C15",
"m  c #7B0C12",
"M  c #750B13",
"N  c #66181A",
"B  c #7B1212",
"V  c #761718",
"C  c #5B211D",
"Z  c #6B310C",
"A  c #5D1E27",
"S  c #651B23",
"D  c #791925",
"F  c #750D29",
"G  c #5A2A29",
"H  c #5A302C",
"J  c #5C2D33",
"K  c #572F30",
"L  c #5C3332",
"P  c #5D353A",
"I  c #563835",
"U  c #4E262C",
"Y  c #64272A",
"T  c #762327",
"R  c #692C35",
"E  c #653437",
"W  c #723938",
"Q  c #6C382C",
"!  c #734400",
"~  c #6F443E",
"^  c #3D3D45",
"/  c #3E3E48",
"(  c #373A43",
")  c #403F45",
"_  c #5F3A42",
"`  c #653C42",
"'  c #793840",
"]  c #43444B",
"[  c #5D4245",
"{  c #5D434B",
"}  c #4A4B57",
"|  c #4E515C",
" . c #54545D",
".. c #5D4A54",
"X. c #644749",
"o. c #774A4B",
"O. c #674B54",
"+. c #645B5B",
"@. c #695658",
"#. c #775559",
"$. c #60594F",
"%. c #565965",
"&. c #5C5D65",
"*. c #5B5D69",
"=. c #525561",
"-. c #4F5160",
";. c #6E5E65",
":. c #745F66",
">. c #5F6571",
",. c #5C6169",
"<. c #6D6267",
"1. c #61636F",
"2. c #6A6669",
"3. c #75666A",
"4. c #636A74",
"5. c #696B75",
"6. c #756A70",
"7. c #6E737C",
"8. c #6A7579",
"9. c #72757C",
"0. c #737B7D",
"q. c #797A7C",
"w. c #787479",
"e. c #820C0C",
"r. c #87070D",
"t. c #8B0E14",
"y. c #860E1B",
"u. c #970C17",
"i. c #831315",
"p. c #8D1116",
"a. c #8C121A",
"s. c #88191B",
"d. c #91141B",
"f. c #9B131C",
"g. c #951715",
"h. c #A3121D",
"j. c #A71A1B",
"k. c #B61A1E",
"l. c #861B25",
"z. c #931D26",
"x. c #A51421",
"c. c #A41B29",
"v. c #AA1A26",
"b. c #B41B24",
"n. c #BB1B25",
"m. c #B41B2A",
"M. c #BC1C2B",
"N. c #B71625",
"B. c #B91B34",
"V. c #A31A36",
"C. c #9A2126",
"Z. c #8C2434",
"A. c #952C3C",
"S. c #B92124",
"D. c #BB222C",
"F. c #B3212C",
"G. c #AA2538",
"H. c #BA2638",
"J. c #C41D2C",
"K. c #CC1D2C",
"L. c #C61827",
"P. c #D31B2B",
"I. c #C61D31",
"U. c #CC1D32",
"Y. c #CF1D3D",
"T. c #D31D33",
"R. c #D61F35",
"E. c #C4222E",
"W. c #CB222D",
"Q. c #C32024",
"!. c #C42332",
"~. c #CC2233",
"^. c #C82739",
"/. c #D32334",
"(. c #D42537",
"). c #A27714",
"_. c #B06B2F",
"`. c #966D14",
"'. c #972945",
"]. c #9C3852",
"[. c #B63556",
"{. c #AC334C",
"}. c #B43C65",
"|. c #C83A56",
" X c #D53655",
".X c #CC2C45",
"XX c #E3304E",
"oX c #D03965",
"OX c #E63D6C",
"+X c #904847",
"@X c #B34D53",
"#X c #BB4469",
"$X c #C74A5A",
"%X c #C4416F",
"&X c #D35270",
"*X c #E8486E",
"=X c #CB7075",
"-X c #B68F28",
";X c #CB9F37",
":X c #D3A245",
">X c #6D7A85",
",X c #737D86",
"<X c #7A7D85",
"1X c #757F88",
"2X c #7A7D8A",
"3X c #747683",
"4X c #7C7E92",
"5X c #807A84",
"6X c #D74C81",
"7X c #EE5686",
"8X c #6E8289",
"9X c #6C8585",
"0X c #768187",
"qX c #7A8285",
"wX c #768189",
"eX c #7A828B",
"rX c #728A8D",
"tX c #788592",
"yX c #82848D",
"uX c #868B8E",
"iX c #8E908F",
"pX c #858C94",
"aX c #8B8E92",
"sX c #838B94",
"dX c #8C9194",
"fX c #8A9096",
"gX c #92969C",
"hX c #979CA2",
"jX c #989DA1",
"kX c #9EA2A4",
"lX c #A2A6A7",
"zX c #A5A6AB",
"xX c #A6AAAD",
"cX c #A8ACAF",
"vX c #AAA3AC",
"bX c #AAADB1",
"nX c #A6ADB1",
"mX c #ACB0B3",
"MX c #A6B1B2",
"NX c #B1B3B9",
/* pixels */
"                                                                                                                                ",
"                                                                                                                                ",
"| *.*.*.7.1X1XwXwXwX1XwX1XwXwXwX2X0XwX0XwXwX0X,XwXwXeXwXwX0XwX0XwX1X1XwX,X1XeXwXwX0X0XwXeXwXwX,XwXwXwXwXwX0X0X0X4.*.1.*.} / ^ ^ ",
"| *.%.%.>XeXwXwXtXwXwXwXwXwXrXeXwXrXwXwXeXeXwXrXwXwXwXwXeXwXwXwXeXrXwXwXwXwXrXeXwXeXwXwXeXwXrXwXeXwXwXwXwXeXeXwX1.%.*.*.} ( / ^ ",
"| >.%.*.>X1X1X1X,X0X0X2XwX1X1X1X,XwX2X,X1X1X1X0XwXwX0X,X0X1X0X1X0X2X1X1XwX1X1X,X,X1X1X1XwX,X1X1XwXwX,XwX1XwX0XwX4.=. . ./ ( ) ^ ",
"| 4.1.1.3X1XwXwX0X2X0X0X0X0X2X0X2XqX0X0X0X0X0X0X0XwX2X0X0X0X2X0X0X0X2XqXwX0XwX0X0X0X0X0X0X0X2XqX0X0X0XwXwX0XeX0X9.9.9.qX} q ) ) ",
"4.sX1X1XeXwXwX1XwXwXwX1XwXwXwXwXwX1XwXwXwX1XwXwXwXwXwXwX1X1XwXwXwX,X1XwX0XwXwXwXwXwXwXwXwXwXwX1X1X1XwXwXwXwX2XwXkXbXxXNX1.q ) ^ ",
">.tX1X1XeX1XwXwX1XwXwX1XwX1XwX0XwXwX1X1XwXwXwXwXwX1X1XwXwXwXwX1XwXwX1XeX1XwX1XwX0X2XwX0X2XwX1X1X1XwXwXwXwXwX,X,XgXcXlXNX .q ) ^ ",
"4.eX2X1XwXwX1XeXwXwXwXwXwXwXwX1X2X,X0X,XrX1X5XyX0X1XwXtX3XqX,XrXwX,XwXeX>XtX1X2X2X,XwXwX0XwX1X,XwXwX1XwXwXwXwX1XkXcXlXmX&.q ^ ^ ",
"4.eX0XwXwXwXwXwX1XwX0X2X0X1XwXwX1XrXwX,X4X1XeX .;.eX1XwXeX2X,X0XqXwXrX>XsX2.+.0X1X1X0X0X,X2XwXrX1X,XwXwXwXwXwX,XhXcXlXmX&.q ) ^ ",
"4.eXwXwXwXeX0XwXwXwXwXwXwXwX1XwXwXwX8XwX5X,X+.Y ` 6.8X8XwXrX0X,X0.<XwX9X+X` Y <.,XeXrX,X2X2XwX0XwX2XwX1X2XwXwX1XhXcXlXmX%.( ) / ",
"4.eX,X0X2XwX2XeXwX1X1XwX1X1XwXwXwX2XwX0XeX+.S c.l.Y 6.2X1XwX,XyXrX1X4X3.Y d.z.Y :.q.rXwX2X,XrXwXwX0XwXwX0XwXwX,XhXcXlXmX&.( / ^ ",
"4.eXwXwX1XeX1XwX0XwXwXwXwXwXwX0XwX,XeX>X+.T u.~.f.i H _ O.qXeX,X1X1XwX3.d f.E.u.R #.,XwXrX,XeX1X1XwXwXwXwXwXwX,XhXcXlXNX&.q ^ ^ ",
"4.tXwXwXwXwXwXeX1XwX1XwXwX1XeX1X0X8XeXq.K y.!.j.d.x z l N o.0XtX2XtX9.@.V j.W.K.n ` 9.rXwX,X1X<XwX,XwX1X1XwXeX2XhXcXlXbX&.q / ^ ",
"4.eX0XwX1XeXwXwXwXwX2X0X2XeX1X1XtXwXrXq.G m F.r.u.v.Q.!.C.N O.<Xw.w.X.n v.W.E.D.c E ,XwXwX0X0X<XwXwXwX2X1XwX1X1XhXcXlXbX&.q / ^ ",
"4.eX2XwXwXwXwXwXwX1XwXwX0X1XwXwX1X2XeXq.L i B f.n./.R./.v.l C H J G d z E./.K.E.m L qXwX<X2XrX1XwX,XwX0X1XwXwX,XhXcXlXbX&.( ) ^ ",
"4.eX2X0XwXwXwXwX0XwXwX,XwXwXwXwX1XwXeX0.I t i v./.K.R.(.b.t.t.z r.m f f a.M.K.E.z I wXeX1X2X1X9X1XwXwXwX,XwXwX,XjXbXlXmX&.q ) ^ ",
"5.tX0XwXwXwXwXwX2XwXwXwXwXwXwX0X,X1XwXqXR i j j.I./.E.J.W.D.I.J.H.~.h.f g u.J.W.r.E 2XwX,X1X1XeXwX,XwX1XwXwXwXwXhXcXzXmX&.q / ) ",
"4.tX0XwX2XeXwXeXwXwXwX1X1XwX1X2XwXeXwX7.R t i b.R.U.W.~.~.~.P./.P.J.M.M.c.s.p.m.k _ 3XeX0XeX1X1XwX,XwX1X1XwXwX,XhXcXlXmX&.q / ^ ",
"4.eX0X0X0XwXwXwX0X2XwXwXwXwXwXwX0X0XrX>X+.H p n.n.d.J.T.E.T.J.E./.~.K.T.U.j.d.s.W 1.wX2X0XeX1XwX0X2XwXwXwXwXwX0XhXcXlXbX&.( / ^ ",
"4.eX,X1XwXwXwXwXwXwXwXwXwXwX,XwXwX1XwXwX6.~ b f.t.V h.J.J.(.(.J.J.R./.E.!.T.N.B o.2.tX1X0.0X1XeXwX,X1XwX2XwXwX2XgXcXlXmX&.q ^ ) ",
"4.eXwXwXwXwX1XeXwX,X1XwXwXwXwXwXeX2X2X0.{ D x.e.p.c.c j.(.b./.P.W.W.L.E.~./.I.v.V X.<XeX0XrX1X1XwXwXwXwX0XwXwX1XjXcXlXmX&.q / ^ ",
"4.eX0XwX0XwXwXwXwXwX2XwX1XwX0XwX0X<XeXq.J M !.j.m.L.f d.I.p.b.I.!.W./.P.T./.~.M.c P 1XeX0XwX1X0XwX1XwX1X1XwXwX,XjXbXlXcX%.( / ^ ",
"4.eX2XwXwXwX2XeXwXwX0XwX1XwX2XwXtX>XrXq.Y b !.K./.I.B a.h.B g.b.U.T./.W.K.K.~.I.z I wX1X2X2X1X0XwX,XwXwX,XwXeX1XjXcXvXmX%.( ) ^ ",
"4.yXwXwX0XwXwXwXwX2X0XwXwX2X0XwX0XqXeX3XJ r.J.~.!.J.M.e.b B.B B I.^.N.Q.I.Y.U.J.z P 0XwX0XwX1XwXwX0XwXwXwXwXwX,XjXbXlXbX;.q / ^ ",
"4.tX0XwX2XeXwXwXwXwXwXwXwX1XwXwX0XwXtX3XH e.Q.~.h.k m t b n.x i.k.a.c z k x.T.E.z P 2XwX0X0X1X0XwX2X1X1XwXwXwX2XhXcXlXbX&.q / ^ ",
"4.eXwXwXwXwX1XeXwXwX1XwXwXwXwXwXeXwXtX0.H e.L./.Y.'.'.'.A.p.a.a.g.Z.'.'.A.H.K.D.z P <XwX0X1X1X0X1X,XwXwX0XwXwX1XhXcXlXNX%.q / ^ ",
"4.eX,XwXwXwXwXwXwX0X2XwX1XwXwXwXtX,X9X0.H e.E..X|.&X6X&X}.D m.v.Z.}.6X&X%X X~.J.z E <XwX0XrX1X0XwXwXwXwX1XwXwX,XhXcXlXbX&.( / ^ ",
"4.eXwXwXwXwX0XwX0X1X1XwXwX1XwX,X2X1X0X0.L x .XOX[.F F n A.#XXX.X#XZ.M F D #X*XI.z E 0XwX0XwX1X0XwX0XwXwX1XwXwX1XjXcXzXmX&.q ^ ^ ",
"5.tX0XwXwXwX2XeXwXwXwXwXwXwXwXwXwX,X0X,XJ x .X*X].u u ! _.7XXX X*X_.Z u t {.7X!.z P 2XwXwXwX1X0X1X2X1X0X1XwXwX1XhXcXlXbX&.q / ^ ",
"4.eXwXwXwXwXwXwX1X1XwX1X2XwXwX0X1XwXeX,XL x ^.OX[.D i ).:X$X{.H.&X:X`.a l.|.OXH.z L 2XwX0XwX1XwXwX,XwXwX1XwXwX,XhXcXlXbX&.( / ^ ",
"4.eXwXwX1XwXwXeXwXwXwXwX0XwXwX2X1XwXwX0.P x m.^.oXoXN ).-XV a i Z ;X`.S oX X^.N.z I 2XwX0XwX1X0XwX1XwX1X1XeXwX,XhXcXlXbX&.( ) ^ ",
"4.eX,XwX1XwX1X1XwXqX0.,XeXeX3XwX0X,X4XwX3.' V b V. X$X=X@Xg t t v $X&X$X Xc.z V O.6.wXwX<X1X1XwXwX1XwXwXwXwXwX,XjXbXlXmX&.q ) ^ ",
"4.eXwX1XwXwXeXeXwXtXqX0X,XwXwXwXrXtX9.;.@.I & & m V.[.#X{.y.i h a.+X[.[.G.n y & ` O.;.9.rXeXwX9XwX1XwX1X0XwXwX,XjXcXlXmX&.q / ^ ",
"4.eXwXwX1XeXwXeXwX0X,XeXwXtX8X,X7.w.@.s j y X < , u p t e.C.k n z.M a a t - : . u n N #.,XwX,XrXwX,XwX1X2XwXwXwXhXcXlXmX&.q / ^ ",
"4.yX,X0X2XeX1XwX0X0X,XeX>XrX1Xw.P A D c.m.k X @ > 0 0 > - % X X & - 1 * 0 6 + . V m.c.Y @.<X2X,XwX2XwXwXwXwXwX,XhXbXlXbX&.( / ) ",
"4.tXwXwXwXwXwXeX9XwXwXwX1XeX3.` l.u.u.L./.c.s * * 0 < 3 2 o # + o 6 e 7 9 # - S b.~.M.h E 5XeX0XwX2XwX1X,XwXwX,XhXcXzXmX&.q / ^ ",
"4.eX0XwX1XeX1XeXwX,X,XeXrX6.' V k.K.^.P.L.T.B.& O ; 4 6 6 * 4 : > : 4 5 4 . & M.W.K.S.k X.,X>XwX0X0XwXwXwXwXwX,XhXcXlXbX&.q ) ^ ",
"5.eXwXwXwXwX1XwXwX0XeXwX7.P V D.K.J.E./.U.(.N.% @ 7 4 : 4 e 7 3 8 2 2 8 5 . u B.~./.S.l ` wXrX2XwX1XwX1X1XwXwX2XhXcXlXbX&.q / ^ ",
"4.eX,XwXwXwXwX1XrX,XwXwXw.G r.P.~./.K.!.@X+XM % + 6 : : 6 9 > : 4 > , - y & & a.M./.n.n [ wXwXq.wX,XwXwXwXwXeX,XhXcXlXbX&.( / / ",
"4.eXwXwXwXwX0XwX<XeXwXtX9.G p.W.~.E.P.~.+XX.H X $ 8 # 4 6 < 9 9 e = a b z m x b b./.n.n [ qX,X0XwX0X1XwXwXwXwXwXhXcXlXbX;.q / ^ ",
"4.eX0XwX2XwXwXeXqX1X>XtXw.J m J./.~.K.U.l.E $.3 + 2 6 6 5 9 4 4 > d B v.J.I.J.J.~.K.n.l X.qX,X,X,X2XwXwXwXwXwX,XhXcXlXNX%.q / ^ ",
"4.eXwXwXwXwXwXwX2X0X0XeXwX2.W s.b./.~.M.N.z.Y  .w $ * 5 4 5 5 5 * y p.W.T././.R.K./.D.k P <XtX1XwX1XwX1X2XwXwX,XhXcXlXbX&.q / ^ ",
"4.tXwXwX0XwX2XeX<XrX0X,XrXrXX.p n.K./.^./.h.a 3.] O < 9 : 4 4 6 5 y a.~.T.I.I.~./.M.i.W +.3XtXwXwX0XwXwX0XwXwX,XhXcXlXbX&.q / ^ ",
"4.eX2XwXwXwXwXwXtX8X0X5X4X1X;.Y j.!.J.U./.g.d $.( $ < 8 7 4 6 6 > y B m.J.S.b.S.b.s.Y 3.<XeX,X0X1X1XwXwXwXwXwX2XjXcXlXmX&.q ) ^ ",
"4.eX,XwXwXwXwXeXwXwX0X1X1X1Xw.+XN f./.(.K.h.a * < 4 2 < 8 4 4 e 6 = s k l f h k c Q 3.,X1XwX0X0XwX1X1XwX1XwXwX1XhXcXlXmX&.q / ^ ",
"4.eXwXwXwXwX1XeXwXwX1X1X>X8XrX5.C p.~.K.~.v.t X   $ $ $ + + o o @ + X X % % = ` `  .qX2XwXwX9X1XwX0XwXwX1XwXwX1XhXcXlXmX&.q / ^ ",
"5.tX,X0X2XeX1XwX,X1X,XeXtX3XeX7.E s.j.S.b.l.s % % % % - & % % X & & - % % X 0 q.eX1X1X2X1XwX1X4X,X2XwX1X1XwXwX,XhXcXlXbX&.( / / ",
"4.tX0X0XwXwXwXeX1XwXwX1XwXwXwXwX3X` j k j E :.U B m.M.v.J.v.M k v.m.M.L.k.z J 3XwXwXwXwXwXwXwX1XwXwXwXwXwXwXwX1XjXcXlXmX;.q / ^ ",
"4.eX0XwXwXwXwXwX2XwXwX1XwX1XwX1XwX2.@.@.O.2.q.<.W t.J.~./.B.m i t.B.I.(.~.m U <X1XwX1X1X1X1XwXwXwXwXwXwXwXwX1X,XhXcXlXbX%.q ) ^ ",
"4.eXwXwX0XwXwX1X0XwX0XwX0XwXwX1XeXwX9X8XeXwX,X<.Q a.!.J.K.!.z p k d.z.h.f.D X.,XwXwXwXwXeX2XwXwXwX1X1X2X0XwXwX2XhXcXlXNX&.q / ^ ",
"4.eX2XwX2XeX1XeXwXwX1XwX1X0X2XeX1XeX,XwXtX<X<.Y s.I.R.L.T.!.z p s s N s s o.5X1XwX1X1X0XwX0X1XwXwXwXwX0XwXwXwX,XhXcXlXbX&.( / ^ ",
"4.eX0XwX1XwXwXeX1XwXeXwXwXwXwX1X8XwXwX1X2X<.Y g.n.T.K./.W.E.m G 3.3.<.;.<.w.wX1XwX2X0XwXwXwXwXwXwX,XwX2X0XwXwX,XhXcXlXmX&.q / ^ ",
"4.eXwX0XwXwX1XwXwX0X2X1XwX1XwXwX8X1XeXwXeX@.p k.(.U.E.~.K.W.M K >X1XeX0XsXeX8X1X1XeX1X0XwXwXwXwXwXwXwXwXwXwXwX1XhXcXlXmX&.q / ^ ",
"4.yX0XwXwXwXwXeXwXwXwXwXwXeXwXeX1X3XwXwXyX;.Y x.b.m.m.m.N.b.D X.wXeXrX,X1X1X0X2XwXwXwXwXwXwXwXwXwXwXeXwXwXwXwX1XhXcXlXmX&.q / ^ ",
"4.tXwXwXwXwXwXwXwXwXwXeXwXwXwXwXtXwXwXwXwXq.<.Y f h k j g v o.8.0XqX0X0XeXwX9XyXwXeXwXwXwXwXwXwXwXwXwXwXwXeXeXwXhXcXlXmX&.q / ^ ",
"4.eXwX,XwX,X>X1X,X1X1X,X>XwX1X>X1XwX1X>XwXtX9.&.{ O.X.{ {  .5.qX>X0X,X,X>X0X>XwX,X,X1X1X>XwX,X,X>X,X,X,X,X,X,X,XjXmXbXNX&.w ^ ] ",
",.>X9.7.eXsXsXfXaXpXpXpXpXpXpXpXsXsXsXsXpXaXpXuXuXaXdXiXiXuXpXtXpXsXpXpXpXpXpXsXpXaXsXpXpXsXpXpXsXsXsXpXsXsXsXaXgXfXaXfX%.^ ^ ^ ",
"| ,.%.%.gXbXcXzXxXxXxXcXxXcXnXxXxXxXzXnXnXkXMXmXMXMXzXxXcXmXbXnXcXxXxXcXxXxXcXcXxXxXxXxXcXxXxXxXcXxXxXcXcXxXcXcX7.| *.*.] ( ( ^ ",
"| *.*. .gXbXxXvXzXxXzXzXzXzXzXxXxXzXzXvXkXzXkXnXzXkXzXzXlXzXzXzXzXxXzXzXzXzXxXzXzXzXzXxXxXzXxXzXxXzXzXzXzXlXzXcX3X=.*.*.} ^ ^ ^ ",
"-.>.1.%.gXbXbXbXmXcXbXcXbXcXbXbXcXcXbXbXbXbXbXbXbXbXmXNXmXcXnXcXcXcXcXcXcXcXcXbXcXbXcXcXmXcXbXcXcXcXcXmXcXcXcXNX7.&.&.,.] ^ ^ ^ ",
"} | | | <XdXaXaXaXaXaXaXaXaXaXaXaXdXiXaXaXaXaXaXaXpXuXsXaXdXfXdXdXaXdXaXdXaXaXdXaXaXdXaXaXaXaXaXdXaXdXdXaXaXdXdX1. . . .] ^ q ^ ",
"  .                                                                                                                             ",
"                                                                                                                          .     "
};
