/* XPM */
static char *enemy_up_11739716041[] = {
/* columns rows colors chars-per-pixel */
"64 64 233 2 ",
"   c #010102",
".  c #040D0B",
"X  c #0C0D0D",
"o  c #050804",
"O  c #150200",
"+  c #1D0707",
"@  c #0A100C",
"#  c #18130F",
"$  c #0B0A10",
"%  c #0C1313",
"&  c #1C1C1C",
"*  c #161616",
"=  c #160B11",
"-  c #220102",
";  c #290707",
":  c #33050A",
">  c #330A07",
",  c #330711",
"<  c #251718",
"1  c #311D1A",
"2  c #3D1517",
"3  c #2F0511",
"4  c #1B211E",
"5  c #3D211D",
"6  c #1A1E21",
"7  c #291C25",
"8  c #1E2323",
"9  c #1F2824",
"0  c #242524",
"q  c #252826",
"w  c #242429",
"e  c #2B2429",
"r  c #29282A",
"t  c #272726",
"y  c #35353F",
"u  c #37383D",
"i  c #470909",
"p  c #5E0902",
"a  c #530709",
"s  c #5C090C",
"d  c #570806",
"f  c #5C120D",
"g  c #590C13",
"h  c #4A1718",
"j  c #5C1514",
"k  c #571618",
"l  c #4D0415",
"z  c #650603",
"x  c #640A0B",
"c  c #6A0A08",
"v  c #760B0C",
"b  c #77070B",
"n  c #670C12",
"m  c #750B12",
"M  c #7D0E14",
"N  c #7A0713",
"B  c #651718",
"V  c #741114",
"C  c #791318",
"Z  c #6E1009",
"A  c #5B211C",
"S  c #681D22",
"D  c #791A23",
"F  c #5A2323",
"G  c #5A2728",
"H  c #5D2E32",
"J  c #5C3435",
"K  c #5F333A",
"L  c #593737",
"P  c #5F342D",
"I  c #642429",
"U  c #722226",
"Y  c #7B2728",
"T  c #682C33",
"R  c #762932",
"E  c #61343A",
"W  c #623B3E",
"Q  c #6A3437",
"!  c #733339",
"~  c #6D3226",
"^  c #3D3D45",
"/  c #3E3E48",
"(  c #373A43",
")  c #403F45",
"_  c #5D3D47",
"`  c #663E46",
"'  c #703D42",
"]  c #42434A",
"[  c #5C414A",
"{  c #4A4B57",
"}  c #5A4852",
"|  c #4E515C",
" . c #52535D",
".. c #55585F",
"X. c #624245",
"o. c #62454B",
"O. c #6B4C4A",
"+. c #674A49",
"@. c #724546",
"#. c #684C52",
"$. c #724952",
"%. c #6A5759",
"&. c #705556",
"*. c #6A615C",
"=. c #565965",
"-. c #5C5D65",
";. c #5B5D69",
":. c #525561",
">. c #4F5160",
",. c #6D5E63",
"<. c #635C63",
"1. c #735A64",
"2. c #5C6169",
"3. c #5F6571",
"4. c #6C6263",
"5. c #63646D",
"6. c #6C626A",
"7. c #696569",
"8. c #716164",
"9. c #72666B",
"0. c #776969",
"q. c #6E726E",
"w. c #636A74",
"e. c #686A77",
"r. c #726E74",
"t. c #796E77",
"y. c #6D747B",
"u. c #6D7C7F",
"i. c #6B7174",
"p. c #74757C",
"a. c #79757D",
"s. c #747A7D",
"d. c #77757A",
"f. c #880A0D",
"g. c #93120E",
"h. c #830B12",
"j. c #860A15",
"k. c #960E17",
"l. c #8C1118",
"z. c #821418",
"x. c #9A1316",
"c. c #93141C",
"v. c #9C141D",
"b. c #95181A",
"n. c #8B110E",
"m. c #A3181E",
"M. c #A8171D",
"N. c #A00E19",
"B. c #B3221D",
"V. c #891B23",
"C. c #9C1622",
"Z. c #9B1A23",
"A. c #951A26",
"S. c #AB1623",
"D. c #A51C23",
"F. c #AC1B24",
"G. c #A61B29",
"H. c #B41A25",
"J. c #BD1D26",
"K. c #B31C29",
"L. c #BB1E2B",
"P. c #B81626",
"I. c #B01A32",
"U. c #82212A",
"Y. c #92202A",
"T. c #BB212A",
"R. c #B62229",
"E. c #B42131",
"W. c #BE2430",
"Q. c #C41D2C",
"!. c #CC1D2D",
"~. c #C81C27",
"^. c #D21C2E",
"/. c #D31927",
"(. c #C41D32",
"). c #CD1E31",
"_. c #CE1D3B",
"`. c #D21D33",
"'. c #D71E35",
"]. c #C52126",
"[. c #C4212C",
"{. c #CC212E",
"}. c #D2222E",
"|. c #C62232",
" X c #CC2131",
".X c #CF2636",
"XX c #D22233",
"oX c #D32439",
"OX c #D82534",
"+X c #67807D",
"@X c #6E7E84",
"#X c #6D7783",
"$X c #737E86",
"%X c #7A7C84",
"&X c #757F88",
"*X c #7A7E8B",
"=X c #737787",
"-X c #797E91",
";X c #807D84",
":X c #6E8385",
">X c #6E828A",
",X c #758186",
"<X c #7B8185",
"1X c #768189",
"2X c #7A828B",
"3X c #7B898C",
"4X c #768591",
"5X c #7B8492",
"6X c #7E8892",
"7X c #7E9092",
"8X c #8A8C8E",
"9X c #85898C",
"0X c #858C94",
"qX c #8B8E92",
"wX c #808791",
"eX c #8C9194",
"rX c #8A9097",
"tX c #92969C",
"yX c #918B8E",
"uX c #979CA2",
"iX c #989DA1",
"pX c #9DA3A5",
"aX c #A2A6A7",
"sX c #A5A6AB",
"dX c #A6AAAD",
"fX c #A8ACAF",
"gX c #A9A4AC",
"hX c #A5ADB0",
"jX c #AAADB1",
"kX c #AAA7B0",
"lX c #A5B0B1",
"zX c #ACB0B3",
"xX c #B1B3B9",
/* pixels */
"                                                                                                                                ",
"                            o                                                                       o         o                 ",
">.;.=.2.y.*X&X2X1X1X&X1X1X1X&X1X1X%X,X1X1X*X1X1X,X,X3X&X&X%X,X<X%X*X&X&X*X1X1X,X1X1X,X1X1X1X1X1X,X1X1X1X&X%X1X,Xw.;.3.;.{ / ^ ^ ",
"| 2.=.=.#X2X1X1X1X4X1X1X2X1X1X1X&X&X&X1X&X1X1X1X,X&X,X,X1X1X1X$X1X2X1X1X1X1X1X2X1X1X1X1X2X2X1X1X1X1X1X1X1X1X3X1X5.=.;.;.{ ( ^ ^ ",
"| 3.=.;.#X&X&X&X&X1X&X&X1X$X1X&X1X1X1X>X1X1X1X,X*X1X,X1X1X1X1X1X$X,X,X,X&X&X&X1X&X&X&X&X&X&X&X,X1X1X&X&X&X1X1X1Xw.:. .=.] ( ^ ^ ",
"| w.5.5.=X&X1X1X,X1X%X,X,X1X,X,X,X,X1X,X,X1X1X%X&X&X*X&X$X@X$X1X,X,X&X2X3X1X,X&X,X,X,X,X%X,X,X1X,X1X,X1X1X,X1X,Xp.p.p.%X{ y ) ^ ",
"e.6X&X&X2X1X&X&X1X1X&X1X&X1X&X1X1X1X1X2X1X,X*X2X&X1X2X2X2X*X,X,X1X&X1X1X,X&X&X%X1X*X1X1X1X1X1X1X1X$X1X1X1X1X%X&XiXjXfXxX2.u ) ^ ",
"3.5X&X&X2X>X1X1X&X1X1X1X1X1X&X1X1X&X%X1X=Xy.e.%X2Xp.7.7.7.s.%X1X&X1X1X&Xy.y.=X1X1X1X&X1X1X1X1X1X&X1X1X1X1X1X1X&XtXfXaXzX..y ] ^ ",
"w.2X&X1X1X1X1X2X1X1X&X1X1X1X1X1X>X,X%X&Xa.Q E r.,X8.I a G 9.3X=X$X1X1Xs.+.I 4.1X>X1X&X%X:X>X*X1X&X&X1X,X1X1X1X$XiXjXaXzX-.y ^ ^ ",
"w.2X&X1X1X1X1X1X1X%X1X1X*X,X1X&X>X1X,Xi.X.V.V.Q L R V.m.A.Q ,.&X&X$Xa.X.U.A.T %.%X2X2X%X>X&X*X1X1X&X1X1X&X1X1X&XiXfXaXzX-.( / ^ ",
"w.2X*X,X*X1X,X1X1X1X1X&X1X&X1X,X-X*X6.@.V F.M.p x l.J.`.H.x o.2X5X2Xr.k h.[.l.U %.%X*X&X,X1X1X,X1X&X*X1X&X1X1X&XiXfXaXzX-.y / ^ ",
"w.2X,X1X1X1X*X2X1X1X1X1X1X1X1X&X*Xa.` D D.{.H.z g.F.oXOXM.v W u.=X:X4.F n.[.T.l.G 6.1X&X1X*X1X,X,X&X1X1X,X1X1X&XiXjXaXjX-.( ) ^ ",
"w.2X1X1X,X1X1X1X1X1X1X1X*X1X1X&X>X@XT b [.`.J.C.n.b.(.`.].F.Y X.a.4.T A.P./.oXv.g 4.4X&X4X*X$X:X&X&X1X1X&X1X1X1XuXfXsXjX-.y / ^ ",
"w.6X1X1X*X2X1X1X&X1X1X1X1X,X1X1X1Xs.J b T.)._. XM v C.S.M.D.N B +.J n P.OXXX).l.B 8.4X&X&X&X&X,X1X&X,X*X1X1X1X%XuXfXsXjX-.y ) ^ ",
"w.2X&X,X1X1X1X1X1X1X%X1X1X1X1X&X2X%XJ b T. XXX[.j.p z z p x p d s d x K. X|.).v.j 4.1X&X&X,X1X,X&X&X1X1X&X1X&X&XuXfXaXjX-.y / ^ ",
"w.2X&X1X1X1X1X1X1X&X1X1X&X&X1X1X*X=XL v Q.'.).].M p z.x.c.l.v.b.c.c c T.|.|.{.x.j *.4X*X,X$X1X*X,X&X1X1X&X1X1X&XuXfXaXjX-.( / ^ ",
"w.2X&X1X1X1X1X1X1X1X&X&X1X1X&X1X2Xa.P V T.!.}.!.k.k.H..X!.!.XX{.XXx.N L.{.[.oXx.n ,.4X&X2X*X&X,X1X&X1X1X&X1X1X&XiXfXaXzX<.y / ^ ",
"e.2X&X1X&X1X1X2X1X,X1X1X*X,X1X1X&X%XE N Q.`.!. XE.K.[.oX).!. X[.!.L.L.^.^. X Xx.h 7.4X&X&X*X1X,X&X&X1X1X1X1X1X&XuXfXaXzX-.y ] ^ ",
"w.6X1X1X1X1X1X1X1X*X1X1X1X,X&X&X&X1X%.! A.K.|. X X X XXX!.!. X X{. XXX`.).T.v.Y O.y.1X*X*X&X1X1X1X,X&X1X&X1X,X&XuXfXaXjX-.y ^ ^ ",
"w.2X,X1X1X1X%X2X1X1X&X&X1X1X1X1X5X$Xq.O.V m.|.!.`.`.!. X X X!.{.!.).|.|.|.L.l.G 8.s.4X;X,X@X1X&X&X&X*X,X&X1X1X&XuXfXaXzX-.( / ^ ",
"w.2X&X1X1X1X1X2X&X1X1X1X1X1X,X*X3Xs.} D C.{.{.{. XXX!. X.X X!.!.[.XX). X X`.P.V.T 6.2X1X+X1X5X*X1X&X&X1X&X1X1X&XiXfXsXzX-.y ^ ^ ",
"w.2X&X1X1X1X1X1X,X1X&X1X&X1X1X1X1Xd.H N Q.OX/.{. X X X!.{. X!. X[.'.`.).[.).'.D.k ,.2X1X$X@X2X1X1X&X1X1X%X1X1X&XiXfXaXjX-.y / ^ ",
"w.2X1X1X1X1X1X2X1X1X1X&X1X1X&X1X1Xs.J V T.^.{.[.{.{.{.!.!.). X X!.`.).`.[.[..Xv.B 4.2X2X1X&X&X,X1X&X,X&X1X1X1X&XuXjXaXjX-.y / ^ ",
"w.2X%X1X1X1X*X1X*X,X1X1X1X&X1X1X4Xs.J v Q.}. X|.^.!.XXXX!.!. X X[. X|.{.!.}.!.b.f 4.1X&X*X-X&X:X&X&X1X1X1X1X1X&XuXfXaXjX-.( / ^ ",
"w.2X1X1X1X1X1X2X1X1X1X1X1X,X&X&X1Xs.K b Q.{. X[. X).{. X X!. X!.!. X X!. X). Xc.j 8.1X&X,X1X&X1X1X&X1X1X&X1X,X&XuXfXaXzX-.y ^ ^ ",
"w.6X1X1X1X1X1X1X%X1X1X1X1X1X1X1X1X%XK b T.`.).{.).{.{.). X). X X).XX X!. X X).v.j ,.2X&X,X1X1X1X1X&X&X,X&X1X1X&XuXfXaXzX-.( / ^ ",
"w.2X&X1X1X1X1X1X1X1X1X*X,X*X1X1X1Xa.K v Q. X). X). X X).).[.{. X). X X).XX X).x.j 4.4X&X,X1X&X$X1X&X*X1X&X1X1X&XuXfXaXzX-.y / ^ ",
"w.2X&X,X*X2X1X1X&X1X1X,X1X1X&X&X1X%XE v T.).).{.{.{.).{. X{.).). X).{.!.).!.).v.j ,.4X1X&X,X&X1X,X&X1X1X,X1X1X&XuXfXaXjX-.( ) ^ ",
"w.2X&X1X1X1X1X1X1X1X&X1X1X&X1X1X1X%XK b T.XX).). X).).{. X).).{. X!.{.). X{.).v.j 4.2X&X,X1X1X1X&X&X1X1X,X1X1X&XuXfXsXjX-.y / ^ ",
"e.2X&X,X1X1X%X2X1X&X,X1X1X1X&X1X&Xs.L v T. X).{.).{. X{.).{. X{. X). X!.XX{. Xv.j 4.1X1X,X1X&X1X1X&X1X%X*X1X1X&XuXfXsXjX-.y ) ^ ",
"w.2X1X1X1X1X1X1X1X1X,X1X&X*X,X1X1X%XK v T.).). X{.{. X).{.{. X).`. X[.XX XQ.).b.k 8.2X&X$X,X&X1X1X&X1X1X&X1X&X&XuXfXaXjX-.y / ^ ",
"w.6X1X1X1X1X1X2X&X1X*X1X1X1X1X1X1X%X` v J.Q.Q.{. X).).{. X).).{.`.).|.).{.Q.Q.c.B 8.4X&X,X1X&X1X1X&X1X1X&X1X1X&XuXfXaXjX-.( / ^ ",
"w.2X&X1X1X1X*X2X>X*X&X:X,X+X*X1X*X$Xi.$.M Z h.!. X}.}..X!.!.^.{._..X{.}.M.M c Y 7.s.1X2X<X,X@X-X1X&X1X1X&X1X1X1XuXfXaXzX-.y / ^ ",
"w.2X&X1X1X1X,X1X1X&X1X1X3X&X1X3Xy.%.$.L > > k v.v.v.v.v.C.D.v.v.b.x.x.k.V > > 5 @.&.7.=X1X,X,X6X&X&X&X1X&X1X1X%XuXfXaXzX-.y / ^ ",
"w.2X1X1X1X1X1X1X2X,X1X*X*X&X2Xy.#.B z i ; # < a a a a d a a a a d d a g 2 < 3 > c s ' r.@X4X&X$X1X&X1X1X&X1X,X&XuXfXaXzX-.y / ^ ",
"w.2X%X1X1X1X,X*X1X,X1X&X-X&X<Xo.U D.F.G.D h # 1 1 1 1 1 1 1 1 1 1 1 1 1 * # B Z.D.G.z.P r.4X1X2X1X&X1X&X&X1X1X&XuXfXaXzX-.( / ) ",
"w.2X1X1X1X1X1X2X&X1X>X&X4Xy.$.U x.[.XX'.Q.s   4 0 0 0 0 0 8 0 0 w t r e % - Z.'.)..XM.M @.7.@X%X1X&X1X1X&X1X1X&XiXfXsXzX-.y ^ ^ ",
"w.6X1X1X1X1X1X2X1X$X1X$Xs.%.B Z.Q.{.|.`.Q.i . 9 t t 0 0 w 0 0 0 9 0 0 e * + A./._.~.}.T.V J d.*X&X&X1X&X%X1X1X&XuXfXaXjX-.y / ) ",
"w.2X&X1X1X1X1X1X1X&X1Xs.#.U k.Q.oX{.[.`.L.i . & e 0 e e e e e e 0 t q e % O Y..X).!..X!.H.V.J q.1X&X,X1X1X1X1X&XuXfXaXjX-.y / ^ ",
"w.2X&X1X1X1X1X1X$X-X&Xs.k n.|.{._.{.].`.(.l $ 7 q 0 0 q q 0 0 q 0 t 9 q * - Z./.{.|.|.Q.`.S.g %.1X&X&X1X1X1X1X&XuXfXaXjX-.( / ^ ",
"w.2X&X,X1X1X1X1X%X2X1Xi.G h.Q.{.).XX].!.(.l X 8 e 0 0 0 0 0 q e t 0 q q % + C.{.{.{..X}./.N.j *.1X&X1X1X%X1X,X&XuXfXaXzX-.y ^ ^ ",
"e.2X&X1X&X1X1X2X>X$X2Xd.F j.~.'.Q.{..XoXE.i o 8 t q t t 0 0 0 0 0 e 0 q % - Z.^.|. XQ.{..Xv.j #.,X,X*X&X1X1X1X&XuXfXaXzX<.( / ^ ",
"w.6X,X1X1X1X*X1X,X$X5Xp.X.Y D.R.XX`.!.).|.m > & & q t 0 q 0 0 0 8 e 7 & # g G.XX!.). X{.F.D ` 6.&X&X1X1X1X1X1X&XuXfXaXzX-.y / ^ ",
"w.2X1X1X1X1X1X1X$X&X5X@Xi.@.B m.!.`..XQ. X!.D = * 0 t 0 q e 0 0 q w w $ g E.W.|.`.!.{.Q.h.T r.1X1X&X1X1X&X1X1X&XuXfXaXjX-.( / ^ ",
"w.2X&X&X1X1X,X2X,X&X1X>X2X#.s M.{.Q..X[./.'.A.o # 0 0 0 t 0 0 0 t 8 6   n .XXX!.{.[.}.J.m J s.2X1X&X&X1X&X1X1X&XuXfXsXjX-.y / ^ ",
"w.2X&X1X1X2X*X1X1X,X1X>X2X,.R V.P.|..X!.{.D.k ; & 0 t 0 t t 0 e 0 e 0 # h l.Q.'..X{.[.v.R #.y.1X1X&X&X,X,X1X1X&XuXfXsXjX-.y / ^ ",
"w.2X&X1X1X1X,X1X1X,X1X&X1X@X0.E z.E.).Q.E.s + < 8 8 8 0 0 8 8 8 < 0 0 8 = > C.(.[.J.v.I #.%X2X1X1X&X1X1X&X1X1X&XuXfXaXjX-.y / ^ ",
"e.2X,X*X1X2X1X1X1X1X$X*X&X>X3X4.Q z.f.n.m ; . . X X X X X X X X % X X $ .   s n.f.N Y #.@X1X&X&X1X&X&X1X&X1X1X&XuXfXaXjX-.( ) ^ ",
"w.2X,X1X1X1X1X1X,X*X&X1X1X,X1X1X9.H k I F 3 - ; , : 3 + O O O + : , 3 , ; + 2 S F F #.a.*X1X1X,X1X1X,X1X1X1X1X&XuXfXaXzX<.y / ^ ",
"w.6X1X1X1X1X1X2X1X1X1X1X1X*X&X1X&Xr.i.q.*.G v b.K.I.I.C a i i a m.m.K.K.b k %.r.0.r.s.2X1X>X1X,X*X1X1X1X1X1X1X&XuXfXaXzX-.y / ^ ",
"w.2X&X1X1X1X1X2X1X1X1X&X&X1X1X1X*X5X6Xy.o.Y M.{.}.XX|.g.d W F Z R..X}.}.H.c.! 4.1X>X1X>X:X1X,X1X1X1X1X&X1X1X&X$XuXfXaXzX-.y / ^ ",
"w.2X&X1X1X1X*X1X,X*X1X,X1X1X1X&X,X&X-X,.k C.XX`.[. XJ.g.A 6.` z I.).).[.[.R.n J =X-X1X1X1X1X1X1X1X&X,X&X&X1X,X&XuXfXaXjX-.( / ^ ",
"w.2X&X1X1X1X1X1X1X*X1X1X1X1X1X1X,X1X1X%.B m.XX_. X).).g.A r.` c J.!.oX X).(.m J &X2X*X%X2X1X&X1X*X1X1X%X1X1X1X&XiXfXsXjX-.y ) ^ ",
"w.2X&X1X1X1X1X%X1X1X1X1X%X1X1X1X1X1X3X%.f x. X X X`.oXf.k 9.` x B.{.OX{.XXQ.b H @X,X,X$X1X1X&X5X1X1X1X1X1X1X1X&XiXfXaXjX-.y / ^ ",
"w.2X1X1X1X1X1X2X1X1X1X2X1X1X1X1X>X1X1X9.I A.K.K.F.P.K.C K t.#.S S.K.H.M.T.D.S X.@X,X,X1X2X1X&X1X1X1X1X1X1X2X2X1XiXjXaXjX-.y / ^ ",
"w.6X,X1X1X1X1X2X1X1X1X1X2X1X1X1X;X2X1X$X8.Q s Z x Z x @.r.@Xa.1.S n c Z z B &.@X*X2X5X1X1X2X1X,X1X1X1X1X1X2X1X1XuXhXaXjX-.( / ) ",
"i.1X1X,X2X=X@X&X&X$X$X$X$X>X&X@X1X@X>X1Xs.<.} _ ` _ } 6.a.1X$X@Xo.o.[ _ [ %.r.%X$X&X@X&X@X&X&X@X@X@X=X@X&X@X$X$XuXzXjXxX-.u ^ ^ ",
"2.=Xp.y.2XwX0XrX0X0X0X0X0X0X0X0X0X0X0X0X0X9X8X8X9X8X0X0XrX0XwX0X9XqX8X8X8X9X3X7X0XqX0X0X0X0X0X0X0X0X0X0X0X0X0XqXtXqXqXrX=.^ ^ ^ ",
"| =.=.=.tXzXfXsXdXfXsXfXfXfXhXfXkXkXhXfXsXhXjXzXhXhXhXhXdXhXgXkXhXhXhXdXdXfXdXhXdXdXdXdXhXfXsXfXhXfXfXfXfXsXfXfXy.| ;.;.] ( ^ ^ ",
">.2.;. .rXjXfXsXfXsXsXsXsXsXsXsXaXsXgXsXsXsXpXpXsXsXaXaXsXfXfXsXsXsXaXsXsXsXsXsXdXsXsXsXsXfXaXsXgXaXsXfXsXpXsXfX=X:.;.;.{ ^ ^ ^ ",
">.3.3.=.tXjXjXjXjXjXjXjXfXjXfXjXjXjXfXfXjXjXjXjXjXjXjXzXlXdXlXlXzXjXjXzXjXlXlXfXjXjXjXhXjXjXjXjXjXfXjXjXfXfXfXxXr.=.-.2.] ^ ^ ) ",
"{ | | | %XrXqXqXeXqXqX8XqXqXqXqXrXqX8XqX8X8XqXeXqXqXrX0X8X8X8XeXyX8XqX8X9X0XeXeXqX8XqXqXeXqXqX8XrXqXeXrXqXqXeXeX5... ...] ^ u ^ ",
"  o                                                       O o           o                                                       ",
"                                                                                                                          o     "
};
