/* XPM */
static char *enemy_up_21739716075[] = {
/* columns rows colors chars-per-pixel */
"64 64 229 2 ",
"   c #010102",
".  c #050709",
"X  c #040A0B",
"o  c #0C0B0B",
"O  c #090708",
"+  c #1A0807",
"@  c #0A0D12",
"#  c #1C1D1C",
"$  c #151A18",
"%  c #11120F",
"&  c #290806",
"*  c #360508",
"=  c #2C1E1C",
"-  c #231819",
";  c #311F1B",
":  c #30151A",
">  c #2A1208",
",  c #28211C",
"<  c #1C1D21",
"1  c #291D21",
"2  c #311C21",
"3  c #1C2623",
"4  c #242424",
"5  c #2B2325",
"6  c #242924",
"7  c #2C2826",
"8  c #262628",
"9  c #2A242A",
"0  c #272A2A",
"q  c #35353F",
"w  c #37383D",
"e  c #4B0B0B",
"r  c #490706",
"t  c #540303",
"y  c #5B0302",
"u  c #530B0B",
"i  c #580B05",
"p  c #450B13",
"a  c #5A0A12",
"s  c #451412",
"d  c #5B1213",
"f  c #5A1D1C",
"g  c #59171B",
"h  c #5E110B",
"j  c #64090A",
"k  c #6D0A0C",
"l  c #690706",
"z  c #730401",
"x  c #740B0C",
"c  c #7A0B0C",
"v  c #790908",
"b  c #691309",
"n  c #77120D",
"m  c #690C15",
"M  c #740C12",
"N  c #7B0B12",
"B  c #790916",
"V  c #651112",
"C  c #6C1214",
"Z  c #6D1A1B",
"A  c #771419",
"S  c #77211E",
"D  c #581C22",
"F  c #671820",
"G  c #761C23",
"H  c #592729",
"J  c #5C2D32",
"K  c #553333",
"L  c #5B3335",
"P  c #5E3438",
"I  c #5C3A3B",
"U  c #573937",
"Y  c #672828",
"T  c #792327",
"R  c #612E38",
"E  c #623335",
"W  c #623439",
"Q  c #693839",
"!  c #743539",
"~  c #732E33",
"^  c #64433C",
"/  c #3D3D45",
"(  c #3E3E48",
")  c #373A43",
"_  c #403F45",
"`  c #5E3E41",
"'  c #683B44",
"]  c #42444C",
"[  c #464245",
"{  c #464954",
"}  c #4D4E5C",
"|  c #494A53",
" . c #4E515C",
".. c #52535D",
"X. c #59575C",
"o. c #5E4548",
"O. c #644444",
"+. c #65454B",
"@. c #69444B",
"#. c #6B4B4C",
"$. c #644A49",
"%. c #70474D",
"&. c #764541",
"*. c #6A4C53",
"=. c #734B54",
"-. c #6A5755",
";. c #745D5C",
":. c #735957",
">. c #62504E",
",. c #555A65",
"<. c #5C5D65",
"1. c #5B5D69",
"2. c #525561",
"3. c #4F5160",
"4. c #6C5D64",
"5. c #645E62",
"6. c #785C62",
"7. c #5C6169",
"8. c #5F6571",
"9. c #62636E",
"0. c #6A6569",
"q. c #766468",
"w. c #636A74",
"e. c #696A75",
"r. c #746B75",
"t. c #6D717C",
"y. c #6B7477",
"u. c #727374",
"i. c #74757C",
"p. c #79757C",
"a. c #747B7D",
"s. c #7A797F",
"d. c #870A0D",
"f. c #830C12",
"g. c #850712",
"h. c #950E15",
"j. c #841315",
"k. c #8A1415",
"l. c #8C121A",
"z. c #85161B",
"x. c #92131B",
"c. c #9C131C",
"v. c #931617",
"b. c #85120F",
"n. c #A60D16",
"m. c #A3151C",
"M. c #A8171F",
"N. c #B01B1F",
"B. c #871A23",
"V. c #9C1924",
"C. c #961923",
"Z. c #991428",
"A. c #AA1622",
"S. c #A31B23",
"D. c #AB1924",
"F. c #A71827",
"G. c #B21524",
"H. c #B41C26",
"J. c #BA1B24",
"K. c #B31C29",
"L. c #BC1D2B",
"P. c #BC1526",
"I. c #BC1D31",
"U. c #89242C",
"Y. c #AF212B",
"T. c #BB2026",
"R. c #BB222B",
"E. c #B32327",
"W. c #BF2032",
"Q. c #C21C1E",
"!. c #C31C2C",
"~. c #CB1E2E",
"^. c #C61C25",
"/. c #D11C2D",
"(. c #C41F31",
"). c #CD1E31",
"_. c #CE1D38",
"`. c #D21D32",
"'. c #D01C39",
"]. c #C4222C",
"[. c #CB212D",
"{. c #C82529",
"}. c #D1222E",
"|. c #D8222F",
" X c #C52231",
".X c #CC2131",
"XX c #C92538",
"oX c #D22133",
"OX c #DD2235",
"+X c #817D7E",
"@X c #73817F",
"#X c #6E7C83",
"$X c #6D7E8A",
"%X c #6E7580",
"&X c #737D86",
"*X c #7A7D85",
"=X c #757F88",
"-X c #7A7E8A",
";X c #757584",
":X c #837E84",
">X c #6E8083",
",X c #6E838B",
"<X c #758186",
"1X c #7A8285",
"2X c #768189",
"3X c #79828B",
"4X c #75888D",
"5X c #79888D",
"6X c #758492",
"7X c #7B8492",
"8X c #788990",
"9X c #6E8491",
"0X c #858D94",
"qX c #8B8E92",
"wX c #808691",
"eX c #8C9194",
"rX c #8A9198",
"tX c #92969C",
"yX c #979CA2",
"uX c #989DA1",
"iX c #9EA2A4",
"pX c #A2A6A7",
"aX c #A5A6AB",
"sX c #A5AAAD",
"dX c #A8ACAF",
"fX c #AAADB1",
"gX c #ACB0B3",
"hX c #A8B4B8",
"jX c #B2B3B9",
/* pixels */
"                                                                                                                                ",
"          .           .                                                         .             .     .               .           ",
" .1.1.1.%X=X=X2X2X2X2X2X2X2X2X2X<X<X=X<X3X3X<X<X3X=X3X3X3X3X2X<X=X=X=X=X=X=X3X=X<X<X=X<X2X2X2X2X<X2X&X=X<X2X<X<Xw.1.9.,.{ ( / / ",
"} 1.,.,.%X3X2X2X2X2X2X2X2X2X2X2X2X2X2X2X2X2X2X2X&X=X=X=X2X2X&X2X3X3X3X=X3X2X3X2X2X2X3X3X2X2X2X2X2X2X2X<X2X2X3X3Xw.,.1.1.{ ) / / ",
"} 8.,.1.t.=X=X=X=X=X=X=X2X2X<X2X<X=X&X=X=X=X=X2X2X2X<X=X=X2X2X2X<X,X2X2X=X<X2X&X=X=X=X=X=X=X=X=X2X2X=X=X=X3X3X=Xw.2...,.] ) / / ",
"} w.8.8.;X3X2X2X1X=X<X=X<X<X=X<X2X<X<X2X<X<X3X3X>X2X3X=X=X<X<X2X<X<X2X2X<X<X2X2X=X<X<X<X<X=X<X<X2X<X<X<X3X<X<X<Xi.u.i.*X} w _ / ",
"e.wX3X=X5X2X2X=X=X<X=X3X2X=X3X=X2X2X2X3X3X=X2X<X2X3X3X1X=X=X1X=X2X2X2X2X=X&X<X3X=X=X=X=X3X=X2X=X<X=X2X=X=X=X=X=XuXfXdXjX7.w _ / ",
"8.8X2X2X2X=X2X2X3X=X2X2X=X3X=X<X=X2X<X<X=X&X#Xa.2X=X;Xt.i.%X-X=X&X2X2X=X&Xa.&X=X3X=X3X3X=X<X2X<X=X2X2X3X3X=X=X=XtXfXpXgXX.q ] / ",
"e.3X=X2X=X3X=X<X=X<X<X=X3X=X3X=X<X<X3X=X$X-X@.Q ;X8X0.R f ` i.-X=X,X2X2Xa.^ Q =X9X2X-X=X<X3X=X2X=X=X=X2X=X2X<X=XuXfXpXgX<.q / / ",
"w.3X=X<X2X=X3X3X3X=X2X=X=X2X=X2X;X2X=X5Xa.@.T T %.$.! z.N T =.t.2X;X-Xt.@.G T -.%X*X3X=X=X3X=X<X<X=X3X2X=X3X2X=XyXfXpXgX<.) ( / ",
"w.5X=X2X=X3X=X3X=X2X2X=X2X=X2X<X-X7X&Xu.-.F V.m.h t k.!.oXc.F :.8X-XwXX.g m.S.C =.r.3X2X=X3X<X$X=X=X=X2X=X2X2X=XyXdXpXgX<.q ( / ",
"w.3X=X=X2X2X2X=X=X2X=X3X2X=X3X=X2X2Xa.O.T c.!.N.l j.R.[.}.c.h -.&X3X1X>.C n.^.F.T #.&X,X-X1X<X&X2X=X<X=X=X3X2X&XyXdXpXgX<.) ( / ",
"w.3X3X2X=X2X2X3X2X2X3X=X2X=X=X2X4X2X*XL B !..XL.k.x.D.!..XH.z.! 0.a.;.~ B.H.)..Xl P y.9X2X=X2X4X2X=X3X=X=X3X2X=XtXdXpXjX<.q ( ( ",
"w.3X=X2X2X3X2X3X3X=X=X<X=X3X=X2X2X-Xi.U B !.).(.R.g.B Y. X!.F.M H :.J N L.XXXXP.v E a.6X3X=X2X2X<X=X2X=X=X2X2X=XuXdXpXfX<.q ( / ",
"e.3X=X2X=X2X=X3X=X=X=X2X=X2X3X=X2X=Xi.I c !./.oX).f.j k z z M i i F u b..X`.(.].x E a.-X-X<X<X-X2X=X=X3X=X2X=X=XuXfXpXfX<.q ( / ",
"w.3X=X2X=X3X<X3X=X2X2X=X3X2X=X<X2X-X1XK x ].^.[.].n y M k.j.f.l.k.B i b ^.`.XX^.x K a.=X3X>X>X=X=X=X<X=X=X3X2X=XuXfXpXfX<.q ( _ ",
"w.5X=X<X=X3X=X3X<X=X3X2X2X=X2X=X<X<Xa.P M L./.|. Xd.k.L.oX). X[. XY.d.k.W.`.`.L.c H =X2X2X2X=X2X2X=X<X=X=X2X2X=XyXdXpXgX<.q / _ ",
"w.3X=X2X3X2X2X=X=X3X=X=X=X3X=X3X=X5X;XP B L.oX!..XK.Y..X).[..X!..XoXP.L.XX`.).R.N W %X=X2X2X=X2X2X=X=X3X=X3X2X=XyXdXpXgX<.q ( / ",
"w.3X2X2X=X2X=X3X2X=X=X3X2X2X=X=X2X2X;X6.! z.K..X)..XXX.X~..X.X.X.X`.`.).oX).D.x.Q 0.=X-X3X=X2X2X<X=X=X3X=X<X=X=XyXdXpXgX<.q ( / ",
"w.7X2X2X2X3X=X3X2X=X2X=X=X2X2X<X2X$X4Xi.^ Z S.oX[.`./.).~.).`..X.X!. X].). XS.n #.e.6X-X=X<X=X2X=X=X2X=X=X3X2X=XyXdXpXfX<.) _ / ",
"w.3X=X3X<X2X=X3X=X3X=X<X2X=X3X=X=X4X&X>.G D.!. X X.X/.~..X).~..X}.~..X.X).`.(.S.S #.;X:X>X4X2X-X2X=X2X=X=X3X2X=XuXdXpXgX<.) ( / ",
"w.3X=X=X=X3X=X3X2X2X=X2X2X2X=X<X*X2Xi.E g.!.oX[.].oX`.[. X`./.).[./.oX[.!.`.`.).v K i.3X>X2X=X-X2X=X=X3X=X2X<X=XuXdXpXgX<.q ( ( ",
"w.3X=X<X=X2X2X3X=X2X2X2X=X3X=X2X3X2Xi.W A L.~.oX~.}.[.[.[.`..X.XXX.X~.!.].~.).^.b U &X3X=X3X=X4X2X=X3X=X=X3X<X=XuXfXpXfX<.q ( / ",
"e.3X=X2X2X3X=X2X=X3X=X=X<X=X=X3X-X8Xa.K x L.oX(.|.~.[..X.X)..X[.~.oX~..X`./.XXE.d.E ;X3X3X=X=X2X=X=X=X<X=X2X2X=XuXdXpXfX<.q ( / ",
"w.3X2X2X2X3X=X3X=X2X2X=X=X=X2X=X;X2X*XL c T.oX)..X.X[.).[.)..X.X[.[.~.oX.X.X X].x L a.2X<X2X=X2X=X=X2X=X=X=X2X=XyXsXaXfX<.q _ / ",
"w.5X=X2X=X2X=X3X<X=X=X3X3X=X2X2X<X2Xs.W M T.[.~.[.).)..X.X).[.).[.).~.oX.X~. X!.x P *X2X<X2X2X2X3X=X<X2X=X3X2X=XyXfXaXfX<.q ( / ",
"e.3X2X2X2X3X=X=X3X2X=X2X=X<X2X=X2X2Xa.P x T.~.XX[.).[..XoX[.~..X[..X~..X)..X.X!.v P ;X=X2X2X2X2X=X=X2X2X=X2X2X=XyXdXpXfX<.) ( / ",
"w.3X=X=X=X3X<X3X=X=X2X2X3X=X2X2X2X4X;XL x T.oX).)..X[.).~..X.X.X[.~.~.`./..X.X(.v L s.=X<X2X3X2X2X=X=X2X=X3X2X&XyXdXpXfX<.) _ / ",
"w.5X=X<X2X3X2X3X=X<X2X2X=X3X3X=X&X2X*XW c L.}.)..X.X[.)..X~..X~..X.X)..X.X~.[.!.v P =X3X<X2X=X=X<X=X3X=X=X3X2X=XuXdXpXgX<.q ( ( ",
"w.3X=X=X=X2X=X2X3X=X=X<X=X=X=X2X=X4X*XL c L.oX.X.X~..X.X.X.X.X~.[..X[.oX.X.X X!.x P ;X<X<X2X=X<X=X=X=X2X=X2X2X=XuXdXpXfX<.q ( / ",
"w.3X2X3X2X2X2X3X=X2X2X=X2X=X3X<X3X=Xi.L x E.[..X.X.X~.~./..X[..X~.[.~..X.X.X.XL.n U &X2X<X2X=X3X3X=X2X2X=X2X-X&XuXfXpXfX<.q ( ( ",
"w.7X2X2X=X3X=X3X2X=X=X3X2X2X=X=X3X,X&XO.A E.P.L.~..X.X.X.X.X)..X~.oX~..X].!.L.G.A I 2X2X<X2X=X<X=X=X=X<X=X3X2X&XuXdXpXfX<.q ( / ",
"e.3X=X=X<X2X=X3X5X;X2X2X#X=XwX$X*X2X=Xy.%.C z j.!.~.[.~.~.~.).~._._.[.{.J.d.k C *.p.#X=X-X-X5X2X=X=X2X2X=X2X3X=XtXfXpXgX<.q ( / ",
"w.3X=X2X=X3X=X=X<X3X3X#X2X=X=X5X5Xy.+.O.K & > s l.l.x.l.l.x.x.x.k.h.h.h.l.g > & K ` >.t.3X=X&X=X=X=X2X=X=X2X2X=XuXdXpXgX<.q _ / ",
"w.5X=X2X2X3X3X3X2X=X<X=X8X=Xi.0.e.=.C k u & - ; r e e e r e e e r u e e p - - * u j Z #.u.4X=X1X=X=X2X2X=X2X<X=XyXdXpXgX<.q ( / ",
"w.3X=X2X=X2X=X=X3X&X3X=X=X2Xq.Y f Z S.P.I.Z.p + = = = ; ; ; ; ; , ; , , # % p C.K.P.A.G o.a.=X=X2X=X3X=X=X3X2X=XyXdXpXgX<.) ( / ",
"w.3X3X2X<X2X2X3X=X<X<X=X<X0.E l.h.m.XX.X|..Xr X , 4 4 4 4 4 4 4 0 1 4 7 , o e ]./.|.].v J a.5X3X=X=X2X2X=X3X2X=XuXdXpXgX<.q _ ( ",
"w.3X2X2X=X3X2X3X<X<X;X*Xq.E j.!.{.}.'.!.[.!.r X 3 8 4 4 8 8 4 4 8 4 4 6 3 o e !.`.[.T.c R u.,X;X2X=X=X2X=X2X2X&XuXdXpXgX<.q ( ( ",
"e.3X=X2X=X2X=X3X&X6X2Xe.J z.R.~.]..X`..X].R.a O 4 4 4 4 4 8 4 8 4 0 6 6 3 @ p L.XX.XE.x W i.2X5X2X=X2X=X=X3X2X=XuXfXpXfX<.q ( ( ",
"w.3X=X2X=X3X3X<X1X2X2X0.V n.[..X)..X}.[.G.Z.* @ 4 4 4 4 4 4 6 4 8 8 5 1 1 X & v.I.).^.x I i.3X&X2X=X=X3X=X<X3X&XuXdXpXfX<.q ( / ",
"w.5X=X=X=X2X=X3X=X-X2X0.g h.~..X X).D.K.Z.Y + o 1 6 3 3 7 5 4 6 1 7 3 4 9 O & M P. XR.k W p.3X&X=X=X=X2X=X2X=X=XyXdXpXgX<.q / / ",
"w.5X=X3X2X3X=X3X,X2X2Xq.Z c..X~.XXJ.v j Y :.7 O 9 4 5 8 4 8 9 8 8 0 3 3 < + p D._.).L.M W i.<X=X<X=X3X2X=X3X2X=XyXdXaXfX<.) _ / ",
"w.3X=X=X=X2X=X3X<X2X=Xi.$.T Y.T.`.!.h.k.B.Q [ w $ - 5 5 4 6 6 3 4 4 0 1 $ s x.^.).|.^.c K i.2X-X2X=X2X=X=X2X2X=XyXdXpXfX<.q ( ( ",
"w.3X=X3X2X3X2X2X-X-X$X,Xa.L l E.XX/./.|.A.a -.,.X $ # < 1 - $ # # # < % + B.oX}./.!.V.T o.#X2X=X<X=X<X=X=X3X<X&XyXdXpXfX<.q ( ( ",
"e.3X=X<X=X2X=X3X&X3X2X,X1XI m L. X[.]..XG.a -.X.X O . X . . . o o O O   + B._.I.[.c.F =.p.;X<X1X=X=X=X2X=X2X3X=XuXdXaXgX<.q _ ( ",
"w.3X=X=X2X3X=X3X,X2X2X&X-X4.! B.D.oX.X[.A.V H Q A V B m * * B B C m F A B l.x.k.f.T @.i.-X=X<X<X3X=X2X=X=X2X2X=XyXdXpXfX<.q ( ( ",
"w.5X=X3X=X2X<X3X2X2X3X-X=X2X6.g n.`.oX).H.l t k ].].}.].v.b.M.].[.[.L.H.m.z i f D #.s.=X$X2X3X&X<X=X2X=X=X3X2X=XyXdXpXfX<.q ( / ",
"w.5X=X=X2X2X=X3X=X=X2X3X,X2X6.D v. X X XS.y t M K.`.). XL.x.N V.`. Xj.j k u K 6.r.0.1X=X2X6X&X2X=X=X=X3X=X2X2X=XyXdXaXfX<.q _ / ",
"w.3X=X3X2X3X=X3X&X-X2X,X2X3Xr.X.T j.d.v.G ' D c Q.}./.).[.S.j x C.!.A.v.x.h.U.^ r.$X2X=X>X2X=X2X2X2X=X2X2X3X=X=XtXfXpXgX<.q ( / ",
"w.3X=X=X=X2X<X3X2X3X2X2X2X3X*Xp.' H f f ^ r.U x T.XX.XXX~.M.t y N ).~.].).).V.d 5.<X2X-X5X2X2X2X2X3X=X<X=X2X2X=XuXdXpXgX<.q ( / ",
"e.3X=X2X2X3X=X3X2X2X2X2X<X=X<XwXa.t.i.0.y.a.L v (.XX).).~.m.t t n !.`.[./.).S.h :.*X2X*X3X&X3X2X3X=X3X=X2X3X=X=XyXdXpXgX<.) ( / ",
"w.3X=X=X=X2X=X3X2X&X=X2X1X=X&X=X2X6X7X4X3X*XL c !..X).oXOXM.i t c ~.).[.~.).K.C.Y ;.;X-X7X=X=X,X=X2X=X=X<X2X=X=XyXdXpXgX<.q ( _ ",
"w.8X=X3X=X3X2X3X4X2X=X&X3X3X2X2X1X-X;X&X:X;XO.Z D.K.H.N.D.C.Y e N !.]. X[.}.`.!.m W a.7X4X=X=X=X<X=X=X=X2X3X=X=XuXdXpXgX<.q / / ",
"w.3X=X=X=X2X=X=X$X2X2X2X=X=X4X2X@X3X3X2X=X=Xi.:.V j j h j ~ :.H x ]. X.X[.[.oX Xf.J *X6X>X<X=X3X=X3X2X2X2X2X<X=XuXdXpXgX<.q ( _ ",
"w.7X3X<X2X2X=X3X=X2X4X2X2X2X=X=X,X2X4X<X&X=X<Xy.-.#.#.>.+.4.u.K c !.oXoX[..X XW.x K ;X6X2X<X=X$X2X2X3X=X3X2X2X=XuXfXpXfX<.q ( ( ",
"w.3X=X2X2X3X<X3X7X2X2X2X2X2X-X=X8X;X3X1X*X-X6X2X,X7X;X2X7X2Xa.' A Y.A.E.K.Y.K.D.A $.<X&X3X:X-X9X3X2X2X2X2X3X3X=XuXdXpXfX<.q ( ( ",
"w.2X<X=X2X&X$X=X$X&X=X=X$X&X<X$X<X$X&X>X=X$X=X$X$X&X&X&X$X&X#X#X&.u y l t y y l X.r.-X;X=X=X#X=X$X<X&X$X&X&X$X&XuXfXfXjX<.w w ] ",
"7.&Xi.t.3XwX0XqX0X0X0X0X0X0X0X0X0X0X0X0X0X0XqX0X0X0X0X0X0X0X0X0X+X0.=.+X:.;.;.6.:XqXqX0XrX0X0X8X0X0XwX0XwX0X0XqXtXrXqXrX,./ _ / ",
" .1.,.,.tXfXdXaXsXsXsXsXsXdXsXsXdXdXaXdXsXdXsXsXaXaXaXdXaXsXsXsXhXfXjXjXhXhXhXjXfXfXaXaXsXsXsXhXaXsXdXdXdXdXdXdXt. .1.1.] ) / ) ",
" .1.1...tXfXdXaXaXaXaXaXaXaXaXaXaXaXaXaXaXaXaXaXaXaXaXdXpXdXaXdXpXaXaXaXiXsXiXaXaXaXaXaXsXiXsXsXaXaXaXaXaXpXaXdX;X2.1.1.{ / / / ",
"3.8.9.,.tXfXfXfXgXdXfXdXfXdXfXgXdXfXdXdXgXdXfXdXfXdXdXfXdXdXdXdXdXgXsXdXhXdXdXdXfXfXfXgXgXfXfXdXfXfXfXfXdXdXdXjXt.,.1.7.{ / / / ",
"{ 3. . .*XrXqXqXqXqXqXqXeXqXqXqXqXqXeXqXqXqXqXqXeXqXqXqXqXqXqXqXqXeXqXeXeXqXqXqXqXqXeXeXqXqXqXqXeXqXqXeXqXqXeXeX9.X...X.[ / w / ",
"  O                                                                                                                           . ",
"                                                                                                                                "
};
