/* XPM */
static char *enemy_left_21739715759[] = {
/* columns rows colors chars-per-pixel */
"64 64 231 2 ",
"   c #010102",
".  c #0B0908",
"X  c #1B0603",
"o  c #190706",
"O  c #121314",
"+  c #151718",
"@  c #0D1311",
"#  c #250202",
"$  c #2A0001",
"%  c #210A04",
"&  c #25080A",
"*  c #3C0909",
"=  c #241B1C",
"-  c #381718",
";  c #310E10",
":  c #26221F",
">  c #1B1C21",
",  c #2B1F24",
"<  c #1D2527",
"1  c #242423",
"2  c #2A2525",
"3  c #232925",
"4  c #272729",
"5  c #312124",
"6  c #2A2932",
"7  c #35353F",
"8  c #37383D",
"9  c #283732",
"0  c #4D0202",
"q  c #46090B",
"w  c #540502",
"e  c #5B0205",
"r  c #570808",
"t  c #5C0B12",
"y  c #481416",
"u  c #561313",
"i  c #5D1517",
"p  c #401109",
"a  c #640E0B",
"s  c #6B0B0B",
"d  c #6A0607",
"f  c #740C0C",
"g  c #7A0C0D",
"h  c #770909",
"j  c #62110F",
"k  c #78100B",
"l  c #680D14",
"z  c #770C15",
"x  c #651315",
"c  c #6A1518",
"v  c #771417",
"b  c #5A2608",
"n  c #712912",
"m  c #571F20",
"M  c #6B1722",
"N  c #731B25",
"B  c #781726",
"V  c #5C2323",
"C  c #5C2C2B",
"Z  c #592828",
"A  c #58342D",
"S  c #5C2A32",
"D  c #5A3A3A",
"F  c #4D2A28",
"G  c #67262C",
"H  c #732A2C",
"J  c #7A242C",
"K  c #632B35",
"L  c #782B31",
"P  c #6A3838",
"I  c #753A3A",
"U  c #71302E",
"Y  c #3D3D45",
"T  c #3E3E48",
"R  c #373A43",
"E  c #403F45",
"W  c #663D43",
"Q  c #723242",
"!  c #42434A",
"~  c #5C4C4B",
"^  c #4A4B57",
"/  c #4E525C",
"(  c #53545D",
")  c #545759",
"_  c #634A4D",
"`  c #6B4B4C",
"'  c #654547",
"]  c #714647",
"[  c #674C52",
"{  c #6B5552",
"}  c #6C5A5C",
"|  c #665558",
" . c #735656",
".. c #565A65",
"X. c #5C5D65",
"o. c #5B5D69",
"O. c #525561",
"+. c #4F5160",
"@. c #6E5C64",
"#. c #725C69",
"$. c #5C656A",
"%. c #5F6571",
"&. c #6D6263",
"*. c #62646E",
"=. c #6A6668",
"-. c #756C6C",
";. c #766669",
":. c #636A74",
">. c #6C6D74",
",. c #656874",
"<. c #736B73",
"1. c #7A6B74",
"2. c #6E7375",
"3. c #6B737A",
"4. c #737375",
"5. c #73747B",
"6. c #78767A",
"7. c #71726C",
"8. c #850D0E",
"9. c #860C15",
"0. c #970E18",
"q. c #851318",
"w. c #94121B",
"e. c #9B131C",
"r. c #961417",
"t. c #A9191E",
"y. c #A7151D",
"u. c #B31A1F",
"i. c #A00D17",
"p. c #891A25",
"a. c #9B1423",
"s. c #9A1924",
"d. c #981B27",
"f. c #820F20",
"g. c #A91622",
"h. c #A41A24",
"j. c #AE1B24",
"k. c #A51725",
"l. c #B31A26",
"z. c #B31C2A",
"x. c #BC1C2B",
"c. c #BA1725",
"v. c #BC1D33",
"b. c #9A343F",
"n. c #BC222C",
"m. c #BA2128",
"M. c #B0222B",
"N. c #C41D2C",
"B. c #CB1E2D",
"V. c #C61C27",
"C. c #D21D2D",
"Z. c #CB1E32",
"A. c #C71E32",
"S. c #D11D33",
"D. c #DA1E34",
"F. c #C4212D",
"G. c #CB212D",
"H. c #C52429",
"J. c #D3232D",
"K. c #C42332",
"L. c #CC2232",
"P. c #CC253B",
"I. c #C92538",
"U. c #D22234",
"Y. c #DB2234",
"T. c #9D3349",
"R. c #9C2F56",
"E. c #A62E4D",
"W. c #BD2D47",
"Q. c #D3314F",
"!. c #D53D68",
"~. c #CE3963",
"^. c #B34A4D",
"/. c #867D7E",
"(. c #D5565F",
"). c #C7446B",
"_. c #CA4971",
"`. c #D64677",
"'. c #D8517B",
"]. c #D54566",
"[. c #E64167",
"{. c #E64476",
"}. c #DE7176",
"|. c #A46728",
" X c #74827D",
".X c #B69228",
"XX c #C88A3A",
"oX c #E68864",
"OX c #6E7D84",
"+X c #6D7883",
"@X c #737D86",
"#X c #7A7D86",
"$X c #757F88",
"%X c #7A7E8A",
"&X c #757783",
"*X c #777790",
"=X c #827E87",
"-X c #6E8185",
";X c #6E828A",
":X c #758186",
">X c #798187",
",X c #768189",
"<X c #79828B",
"1X c #79898E",
"2X c #7A8292",
"3X c #748292",
"4X c #6F8094",
"5X c #82828B",
"6X c #878487",
"7X c #8A918F",
"8X c #858C94",
"9X c #8B8D92",
"0X c #838995",
"qX c #918D95",
"wX c #8D9194",
"eX c #8A9198",
"rX c #92969C",
"tX c #979CA2",
"yX c #989DA1",
"uX c #9DA4A4",
"iX c #9EA7A7",
"pX c #A2A6A7",
"aX c #A5A7AB",
"sX c #A5AAAD",
"dX c #A8ACAF",
"fX c #A3AAA6",
"gX c #A5ADB2",
"hX c #AAADB2",
"jX c #A6B1B3",
"kX c #ACB0B3",
"lX c #B1B3B9",
/* pixels */
"                                                                                                                                ",
"                                                                                                                                ",
"/ o.o.o.3.%X$X<X,X,X,X$X$X$X,X,X#X%X$X@X$X,X,X#X<X,X$X&X$X,X%X$X,X$X#X,X:X,X,X,X,X,X>X,X,X$X,X,X,X,X,X,X$X$X>X:X,.o.*.o.^ T Y Y ",
"/ o.....+X2X,X,X,X,X,X1X,X1X,X,X%X,X,X,X<X,X<X<X,X,X1X,X$X,X,X<X<X1X,X,X,X,X,X1X,X,X,X,X1X,X,X,X1X,X,X,X1X,X,X,X,...o...^ R Y Y ",
"/ %...o.+X$X$X$X$X$X$X$X$X$X$X$X,X$X:X,X:X@X#X,X@X$X:X,X,X;X@X,X$X$X$X$X$X$X$X$X,X$X$X$X$X,X$X$X$X@X,X$X$X,X,X,X,.O.( ..! R Y Y ",
"/ ,.*.%.&X$X,X,X>X:X:X>X,X,X:X>X:X:X:X,X:X>X,X<X<X,X:X,X,X,X,X<X>X:X>X$X,X:X>X:X:X#X:X:X:X:X#X>X,X:X#X>X,X:X,X>X5.5.5.#X^ 7 E Y ",
",.1X<X$X<X$X$X@X$X,X,X$X%X,X$X,X@X,X,X@X,X<X#X&X#X%X%X$X-X,X,X,X$X,X,X:X,X,X,X$X,X,X:X,X,X$X$X,X$X$X,X,X,X,X#X$XyXhXdXlX$.8 E Y ",
"%.2X%X,X1X@X,X,X,X$X:X,X,X,X$X,X,X<X,X@X,X,X&X*.X.5.<X<X@X,X,X$X$X,X,X,X%X$X,X,X$X,X,X%X,X,X,X,X$X,X,X,X,X,X$X$XrXhXpXlX) 7 E Y ",
":.<X$X,X<X>X,X,X$X,X,X,X,X,X,X$X%X1X-X>X=X:X7.P G } :X$X,X,X:X:X$X,X,X@X,X,X:X#X$X,X,X$X,X,X$X$X,X$X$X:X,X,X:X$XyXhXpXkXX.7 T Y ",
":.<X$X$X%X,X,X,X,X,X,X$X%X,X,X,X>X<XOX&X,X*.K p.d.G [ =X,X@X,X,X<X,X:X:X,X,XOX1X,X$X,X,X:X,X,X,X,X$X,X,X$X,X,X$XyXdXpXkXX.7 T Y ",
":.<X$X,X,X,X,X,X,X,X$X:X,X,X,X,X:X,X2X1X1X&.x i.N.w.J  .3.1X2X@X6.:X,X:X,X,X,X,X$X,X$X,X,X%X,X,X,X$X,X,X$X,X,X$XyXdXpXkXX.7 T Y ",
">.2X$X,X,X,X%X<X,X%X,X,X,X,X:X#X<XOX#X5.>.| t 0.V.K.q.V } 6.4.:X1X,X%X,X%X<X,X$X,X,X$X,X,X,X$X$X,X$X%X,X:X,X,X$XyXgXpXkXX.R T Y ",
":.<X,X,X,X,X,X>X#X,X,X,X,X,X,X,X,X,X&.K G m r w.B.K.8.r V G K 4.1X$X+X$X%X$X@X@X,X%X,X,X,X:X:X,X#X,X,X$X$X,X,X$XyXdXaXhXX.7 E Y ",
":.<X,X,X,X,X,X>X,X,X,X,X:X,X<X,X&X@.I v 8.s a w.D.K.h.k e d v I *.%X,X1X;X;X1X;X,X,X%X,X,X$X,X,X,X$X,X,X$X,X,X%XyXdXpXhXX.7 T Y ",
":.<X,X,X,X,X,X,X,X,X,X$X,X,X,X&X1.H q.n.B.a.s 0.Z.Z.L.y.k q.d.v D ;./.5.,X,X1X$X,X,X,X,X,X,X$X%X:X$X$X,X$X,X,X$XyXhXpXhXX.7 T Y ",
":.<X$X,X,X,X,X,X%X,X,X,X,X2X&X>.D p.j.F.J.h.d e.L.L.U.V.t.r.g w u C A _ &X%X@X3X,X$X:X$X$X,X,X,X$X$X,X,X$X,X,X@XtXdXpXhXX.R T E ",
":.<X,X,X$X,X,X,X$X<XOX<X%XOX=.I v c.U.C.L.M.9.r.t.i.l.I.K.y.8.h k f g J { | #.-X2X%X#X-X;X%X$X:X,X$X,X%X$X,X,X$XyXdXpXkXX.7 Y Y ",
":.<X$X,X,X,X,X,X1X,XOX$X$X2.D z x.A.K.L.Z.N.l.w.d h e.G.D.K.F.x.x.K.N.s.x i Q 7.+X<X:X;X1X,X,X:X,X$X,X:X,X,X,X#XyXdXpXkXX.R T Y ",
":.5X,X,X%X<X,X>X;X:X$X@X<X4.V 9.B.U.Z.N.k.e.A.z.e.e.j.Z.Z.K.K.P.C.U.L.c.h.w.p.P =.:X;X$X%X%X:X-X,X$X,X,X$X,X:X$XyXdXpXkXX.7 T Y ",
":.1X,X,X,X>X,X,X$X%X%X@X<X4.V 9.V.g.c.N.g s N.S.I.P.U.U.C.B.L.Z.V.F.F.G.L.L.l.v I &.$X%X#X$X:X,X,X$X,X$X$X,X,X$XyXgXpXhXX.R T Y ",
":.<X$X$X,X<X,X,X,X#X%X$X;X7.Z f l.z p.z.f k x.B.A.Z.V.V.N.G.B.V.U.L.B.B.V.S.S.c.v P <.%X@X@X:X,X$X$X$X,X$X,X,X$XtXdXpXkXX.7 Y E ",
":.<X$X:X$X,X,X,X,X:X$X:X1X4.G d q.P P q.d g c.I.x.e.9.9.q.k w.N.L.Z.B.G.G.L.U.B.z.p.W =.@X1X:X$X:X$X,X,X$X,X,X$XtXdXpXkXX.7 T Y ",
":.<X,X,X,X,X%X,X,X;X$X@X1X<.Z r S ;.@.K u f c.n.d.B B B J M p.v.L.Z.U.I.G.F.K.A.U.e.x _ $X,X,X$X,X$X,X,X:X,X,X$XtXdXpXhX..R T Y ",
":.2X%X,X,X,X,X,X%X,X,X@X1X1.S C =.-X+X;.C f x.0.B ).'.`.`.'.).Q.L.G.G.B.C.S.L.B.U.l.s ' <X@X<X:X,X$X%X:X$X,X,X%XtXdXpXhXX.R E Y ",
":.5X,X,X,X,X,X>X,X,X,X,X>X4.=.| %X,X4X4.A g c.W.E.R.T.b.T.T.E.!.Q.P.G.G.B.S.Z.G.L.g.a _ $X,X:X,X,X$X:X,X$X,X,X$XtXdXpXhX@.7 T Y ",
":.1X:X,X,X,X,X,X<X$X,X,X,X,X#X#X@X X*X$XS z Q.(.^.v e e e w v ).[.Q.G.B.G.U.B.G.U.t.j _ %X,X:X,X,X$X,X%X$X,X,X$XtXdXaXkX..7 T Y ",
":.<X,X,X,X,X$X<X,X,X,X,X-X:X,X,X,X6.%X*XA B _.oXXXb 0 r 0 0 v ).[.S.B.B.Z.U.Z.B.S.g.a [ @X$X$X,X$X$X,X,X$X,X,X$XtXdXpXkXX.7 T Y ",
":.<X$X$X,X,X%X<X$X,X,X1X,X,X-X@X1X&X<.[ b a b.XX.Xb 0 w w N E.~.Q.B.G.L.L.Z.V.L.S.g.a _ %X$X$X,X,X$X$X,X>X,X,X$XtXdXpXhXX.R T Y ",
":.<X$X,X,X,X,X>X,X,X,X,X,X,X<X<X,X4X| u w 0 w |..Xn c v v E.].Q.L.Z.L.G.B.G.G.Z.S.g.a _ $X<X:X,X,X$X,X$X:X,X,X$XyXdXpXkXX.7 Y Y ",
":.<X$X,X,X,X,X>X,X,X@X,X$X$X#X$X,X3X} w e 0 w ^.}.'.)._.~.~.Q.I.Z.L.Z.B.Z.U.L.G.U.h.a _ @X,X:X:X:X$X,X,X%X,X,X$XyXdXpXkXX.7 E Y ",
":.5X,X,X,X,X,X,X:X;X,X,X<X,X<X,X$X$X@.u e t 9.W.[.{.[.{.`.Q.A.P.G.L.Z.Z.Z.B.L.Z.L.t.j [ %X$X$X:X,X$X%X,X$X,X$X$XyXgXpXhXX.7 T Y ",
":.1X,X,X%X,X,X,X,X,X,X:X:X:X,X-X<X X@.m 0 s t.A.J.Z.P.K.P.Y.C.G.B.U.Z.L.L.B.B.L.K.t.x | $X$X$X,X,X$X,X:X$X,X,X$XtXdXaXhXX.R T Y ",
":.<X$X,X<X>X,X,X,X%X,X$X$X,X,X$X>X%X5.} Z 0 f y.Z.G.L.J.G.F.L.S.L.G.N.U.Z.K.L.V.e.J | 5.%X$X,X:X,X:X,X,X#X,X,X$XyXdXpXkXX.7 T Y ",
":.<X$X,X%X,X,X,X:X,X,X,X,X,X$X>X,X,X,X5.| P I J e.w.r.y.L.U.B.C.L.G.G.B.U.L.n.e.H ' 2.,X$X$X$X$X,X:X,X@X,X,X,X$XyXhXpXkXX.7 T Y ",
":.<X$X,X,X,X%X,X,X,X$X,X,X%X$X,X1XOX;X,X5.6.-.W c c x v s.F.N.V.V.K.x.z.x.c.d.N | 2.-X3X$X,X,X$X,X$X,X,X$X,X:X$XtXdXpXkXX.7 T Y ",
":.<X$X,X,X,X,X<X,X$X:X,X,X,X,X,X,X@X,X<X#X,X,X>.| | | _ i f.I.U.D.v.M q q l H  .3.1X-X$X%X,X,X<X,X@X,X,X$X,X,X$XtXdXpXhXX.R T Y ",
":.5X,X,X%X,X,X>X,X,X%X,X,X$X,X,X@X>X,X<X%X@X,X%X1X$X2X%.= q B f.p.z * # q l J { <.=X%X%X>X:X,X,X,X$X,X,X$X,X,X$XyXdXaXhXX.7 Y E ",
":.1X,X,X,X,X,X,X$X,X,X:X,X,X,X$X,X,X&X$X<X,X;X%X$X$X$X/ > . o X . % * g x.V.a.N | 5.,X,X:X,X,X,X,X$X$X,X#X,X,X$XyXdXpXkXX.7 T Y ",
":.<X$X,X,X>X,X,X,X,X,X$X%X:X,X,XOX1X,X,X%XOX;X=X,XOX..9 + + O O @ = * k m.U.x.d.U [ 3.;X,X,X,X:X$X$X,X,X,X,X,X$XtXhXpXhXX.7 T Y ",
":.<X$X,X,X,X,X,X$X$X,X,X,X,X$X$X@X,X,X,X%X,X,X<.@.) 9 O = 2 3 1 4 5 - z g.N.G.V.g G <.2X%X@X$X:X,X$X,X$X$X,X,X$XtXdXpXhXX.R E Y ",
":.2X%X,X,X,X,X,X,X,X%X,X,X$X,X,X,XOX,X3X,X:X1.' u O + : : 4 < 2 < 4 5 - j k.K.F.z G 1.<X<X,XOX1X,X$X,X,X#X,X,X$XtXdXpXkXX.7 T Y ",
":.<X#X,X:X,X,X,X$X,X,X:X,X,X,X:X,X,X,X,X,X>.' p.c o + 2 1 4 : - * * p 0 d y.L.Z.f Z 4.,X,X,X:X,X,X$X,X#X,X,X,X$XyXdXpXkXX.7 T Y ",
":.1X,X,X,X,X,X>X$X,X,X%X,X,X$X%X%X<X$X$X>X} i r.d.o @ , 3 2 p j h g f s 9.g.L.N.8.V 4.,X@X,X,X,X,X$X,X,X$X,X,X$XtXdXpXkXX.7 T Y ",
":.<X,X,X,X,X%X<X,X,X:X,X$X,X,X,X:X,X%X@X1X&.i w.a.X O 2 3 = x r.M.l.M.j.z.A.L.n.8.V 4.;X,X%X,X:X:X$X,X,X$X,X,X$XtXgXpXhXX.7 T E ",
":.<X$X,X,X,X,X,X,X$X,X,X,X$X$X,X:X@X$X$X<X4.` L l . O , 1 ; s c.L.U.U.L.U.U.J.F.g V >.,X%X$X:X,X$X$X,X,X$X,X,X$XyXdXpXkXX.7 E Y ",
":.<X$X,X,X,X<X>X:X,X,X$X,X,X,X,X,X@X,X$X,X-X6.[ y . O 1 4 - t e.c.c.c.j.j.u.u.u.N ' 5.2X%X$X:X,X,X$X:X%X,X,X,X$XyXdXpXhXX.7 E Y ",
":.<X$X,X,X,X%X,X%X,X,X,X$X,X,X$X,X,X:X$X,X;X<X<.~ + O 3 2 5 - u s s d s j s s c ' ;.$X,X,X:X:X$X,X$X,X,X$X,X,X$XtXhXpXhXX.7 T T ",
":.<X%X,X,X,X,X,X,X,X$X,X$X,X,X$X$X1X:X>X#X,X,X2X$.O . @ @ O @ X X # $ $ $ $ # % ) 5X,X,X$X:X>X%X,X$X$X,X$X,X,X@XtXdXaXhXX.R T Y ",
":.5X,X,X,X,X,X,X,X,X,X,X$X%X:X,X$X,X1X$X<X%X$X1.) - $ X o & o & o o % # o & & ; ~ 2.3X3X#X:X:X3X,X,X,X,X,X,X,X$XtXdXpXkXX.7 T Y ",
":.1X,X,X,X,X%X,X,X,X$X,X,X,X,X,X$XOX:XOX;X3X:X~ J q.h.d.d.k.a.a.l e q.s.k.a.a.d.c W 2.,X<X>X:X@X$X,X%X,X,X,X,X$XtXdXpXkX@.7 T Y ",
":.<X$X,X,X,X%X<X,X,X>X,X%X,X$X,X,X<X,X<X,X2.` H r.F.L.G.J.D.B.y.z d h.G.U.J.J.V.h.p.] =.:X$X,X,X,X,X:X$X$X,X$X$XtXdXpXkX..7 T Y ",
":.<X$X,X,X,X,X>X%X,X$X,X:X,X$X,X@X<X$X<X<X@.M w.n.L.F.F.L.U.z.h w i d.V.B.F.G.U.F.h.l { ,X,X,X:X,X$X,X:X,X,X:X@XtXdXpXhX$.7 T Y ",
":.<X$X,X,X,X,X>X,X,X,X,X,X$X,X,X,X+X<X,X:X&.i r.Z.Z.B.L.B.S.z.a C ` H a.K.L.N.P.L.y.s ` $X,X,X:X$X,X%X,X,X,X,X$XyXdXpXkXX.7 Y Y ",
":.<X:X%X,X,X,X,X,X,X%X$X,X,X,X$X1X-X<X$X1X} u e.U.J.S.U.B.D.x.f P 7.~ J 0.N.S.N.l.p.W @.OX$X%X,X,X,X,X,X,X,X,X,XyXdXpXkXX.7 E Y ",
":.1X,X,X%X,X,X,X,X,X,X<X>X,X,X,X,X,X$X@X5X@.M p.n.l.N.n.m.N.k.v ' 4.&X .N y.K.x.v P ;.OX1X%X$X@X,X>X<X$X,X<X,X%XtXdXpXhXX.7 T Y ",
":.2X>X,X,X,X,X,X,X,X,X<X<X,X,X,X%X,X<X-X1X5. .U g f 9.f h f B ] >.1X2X<.{ H s 9.P -.$X*X,X:X:X<X,X,X<X$X,X,X,X,XtXdXaXhXX.R T Y ",
":.1X,X,X,XOX@X@X@X@X@X@X$X$X$XOX$X@X@X@X@X%X5.) Z Z C V Z F D #.$XOXOX,X6.~ A S ,.5.$X,XOX$X@X@XOX@X@XOXOX:XOX@XyXkXhXlX@.8 Y Y ",
"$.OX3.5.<X0X0XeX8X8X8X8X0X8X8X8X8X0X8XeX0X9X9X=X#X6X6X=X5X=X<XeX0XeX8X0X8X6X/.6X5X8X9X8X1X8X8X8X0X8X0X8X8X8X8X9XrX9X9XeXO.Y Y Y ",
"^ o.X...rXkXdXaXdXdXdXdXdXsXgXsXhXaXdXdXiXsXgXdXgXkXdXdXkXkXhXdXaXkXdXiXgXgXsXjXdXdXdXsXgXdXaXdXdXdXdXhXdXsXdXdX3.+...o.! R R Y ",
"+.o.o.( qXhXsXaXdXaXpXaXpXdXaXaXsXpXiXaXgXpXpXsXiXiXfXuXfXfXfXpXfXaXaXsXgXaXiXiXdXaXaXsXdXsXaXaXdXpXaXaXaXpXaXdX@XO.o.o.^ Y Y Y ",
"+.%.o.o.rXhXhXhXhXhXhXhXhXgXdXhXhXhXhXdXlXhXhXhXkXhXjXjXkXjXgXhXjXdXdXhXhXhXhXhXgXdXgXhXhXgXdXhXhXdXdXkXdXdXdXlX3...X.$.^ Y Y Y ",
"^ / / / #XwX9X9X9X7X9X7X9X9X7X9X9XqXqX9X9X9X9X9XqX9X9XqXwX7X7X9X9XqXqX9X9X9X7X9XwX9X9X9X9X7X9XwX9X9XwXwXqX9XwXwX*.( ( ) ! 8 R Y ",
"  .                                                                                                                             ",
"                                                                                                                    .           "
};
