/* XPM */
static char *b5357441684d4630d41798c571b19b41hzKjg3i1LhhTuZ7T[] = {
/* columns rows colors chars-per-pixel */
"64 64 235 2 ",
"   c #010102",
".  c #02090A",
"X  c #0B0A0C",
"o  c #050606",
"O  c #130101",
"+  c #190804",
"@  c #0E120C",
"#  c #090B12",
"$  c #1A1C1A",
"%  c #13100E",
"&  c #2C0404",
"*  c #3A0604",
"=  c #37150E",
"-  c #281B19",
";  c #371815",
":  c #2D1210",
">  c #12211C",
",  c #25241E",
"<  c #1C1F23",
"1  c #271D21",
"2  c #301F27",
"3  c #1D2323",
"4  c #1E2925",
"5  c #1B2330",
"6  c #242424",
"7  c #2A2423",
"8  c #232529",
"9  c #23292A",
"0  c #292728",
"q  c #35353F",
"w  c #38393D",
"e  c #29292E",
"r  c #470906",
"t  c #540201",
"y  c #540C0C",
"u  c #590908",
"i  c #5D120E",
"p  c #5A1809",
"a  c #460B14",
"s  c #5D0E14",
"d  c #461314",
"f  c #541414",
"g  c #5B1513",
"h  c #5B1419",
"j  c #58181B",
"k  c #4C1400",
"l  c #670908",
"z  c #7B0B0C",
"x  c #760809",
"c  c #620B15",
"v  c #680917",
"b  c #7B0B14",
"n  c #64141B",
"m  c #641717",
"M  c #761416",
"N  c #59241D",
"B  c #6E2B15",
"V  c #5B0E20",
"C  c #681622",
"Z  c #791624",
"A  c #6C0A21",
"S  c #592628",
"D  c #5A2E33",
"F  c #5A3B3B",
"G  c #4D3D3E",
"H  c #622B2D",
"J  c #67282A",
"K  c #78262A",
"L  c #653638",
"P  c #733637",
"I  c #702B35",
"U  c #69413F",
"Y  c #7E470F",
"T  c #3D3D45",
"R  c #3E3E48",
"E  c #373A43",
"W  c #403F45",
"Q  c #683D44",
"!  c #444449",
"~  c #4A4B57",
"^  c #4E515C",
"/  c #58545B",
"(  c #5C4245",
")  c #664545",
"_  c #675859",
"`  c #74575C",
"'  c #6C4B52",
"]  c #69635E",
"[  c #565965",
"{  c #5C5D65",
"}  c #5B5D69",
"|  c #525561",
" . c #4F5160",
".. c #6C5C64",
"X. c #725D64",
"o. c #715E6B",
"O. c #5F6571",
"+. c #5C6169",
"@. c #666265",
"#. c #6C6365",
"$. c #61636F",
"%. c #6C6B6C",
"&. c #69686B",
"*. c #756568",
"=. c #636A74",
"-. c #696B73",
";. c #726C73",
":. c #6D737B",
">. c #697676",
",. c #73747A",
"<. c #777578",
"1. c #74716A",
"2. c #870A0C",
"3. c #950D0D",
"4. c #8A120C",
"5. c #870D17",
"6. c #920D14",
"7. c #990E1A",
"8. c #8C1115",
"9. c #8C141B",
"0. c #861619",
"q. c #9B1215",
"w. c #93131B",
"e. c #9C121B",
"r. c #9B191D",
"t. c #921518",
"y. c #A2141E",
"u. c #AB131D",
"i. c #A01617",
"p. c #B41B1F",
"a. c #871A26",
"s. c #9C1923",
"d. c #9F1E30",
"f. c #A31922",
"g. c #AC1925",
"h. c #A91827",
"j. c #B31523",
"k. c #B41B24",
"l. c #BB1A24",
"z. c #B41B28",
"x. c #BC1C2B",
"c. c #B51727",
"v. c #BD1E32",
"b. c #832325",
"n. c #96293A",
"m. c #822635",
"M. c #BC212B",
"N. c #B4222B",
"B. c #BA2436",
"V. c #C41D2C",
"C. c #CB1C2C",
"Z. c #C41A27",
"A. c #D21B2D",
"S. c #D5182B",
"D. c #CC1D32",
"F. c #CB1E34",
"G. c #D31E32",
"H. c #D51C36",
"J. c #C3222C",
"K. c #CB222D",
"L. c #C5282B",
"P. c #D3242E",
"I. c #C52332",
"U. c #CC2333",
"Y. c #C82936",
"T. c #D32233",
"R. c #D62537",
"E. c #936714",
"W. c #A55B30",
"Q. c #9A2A45",
"!. c #8E3147",
"~. c #A8334C",
"^. c #B8375A",
"/. c #B02E4B",
"(. c #BD3E69",
"). c #D5395A",
"_. c #CF304A",
"`. c #D03E62",
"'. c #E43965",
"]. c #BE4163",
"[. c #C75159",
"{. c #CE7253",
"}. c #C94469",
"|. c #D6436B",
" X c #D54977",
".X c #D35473",
"XX c #E4446B",
"oX c #DB7566",
"OX c #77827E",
"+X c #B28D27",
"@X c #B59914",
"#X c #C5AB29",
"$X c #CC9441",
"%X c #6D7982",
"&X c #747582",
"*X c #737D86",
"=X c #797D86",
"-X c #757F88",
";X c #7A7E8A",
":X c #7B7585",
">X c #787F91",
",X c #817C88",
"<X c #DB5386",
"1X c #ED548C",
"2X c #6F8285",
"3X c #6E858A",
"4X c #6D8B8D",
"5X c #768186",
"6X c #768089",
"7X c #79828B",
"8X c #778587",
"9X c #748291",
"0X c #7B8291",
"qX c #748A97",
"wX c #898C8E",
"eX c #81828B",
"rX c #858D94",
"tX c #8A8E91",
"yX c #818491",
"uX c #8B9193",
"iX c #899097",
"pX c #92969C",
"aX c #918C90",
"sX c #979CA2",
"dX c #989DA1",
"fX c #9EA3A6",
"gX c #A2A6A7",
"hX c #A5A6AB",
"jX c #A6AAAD",
"kX c #A8ACAF",
"lX c #AAADB1",
"zX c #A6ACB0",
"xX c #A7B1B2",
"cX c #ACB0B3",
"vX c #B1B4B9",
/* pixels */
"                                                                                                                                ",
"          .                                                                                                                     ",
"^ } [ } :.;X-X6X5X5X5X5X5X5X5X5X*X*X*X*X=X=X=X*X5X5X5X5X5X5X5X5X=X*X*X*X6X6X=X=X5X5X5X5X5X5X5X5X5X5X*X*X*X5X5X5X$.} $.[ ~ T T T ",
"^ } [ [ %X7X6X6X6X6X6X6X6X6X6X6X7X7X-X-X-X6X7X7X6X6X6X6X6X6X6X6X7X6X6X6X6X6X7X7X6X6X6X6X6X6X6X6X7X6X6X6X6X6X7X7X=.[ } [ ~ E T T ",
"^ $.[ } %X-X-X-X-X-X-X-X-X-X-X-X5X6X-X*X*X-X6X5X-X-X-X-X-X-X-X-X5X6X6X-X*X*X*X6X-X-X-X-X-X-X-X-X6X-X-X-X-X6X6X6X=.| | [ ! E T T ",
"^ =.$.$.&X6X6X6X5X5X5X5X5X5X5X5X5X6X7X6X6X6X6X5X5X5X5X5X6X5X6X6X5X6X6X6X6X5X5X5X5X5X5X5X5X5X5X5X5X5X5X6X6X6X6X6X,.,.,.=X~ w ! T ",
"-.yX6X*X7X6X6X*X6X6X6X6X6X6X6X6X-X6X7X-X*X-X6X6X6X6X6X6X6X6X6X6X6X-X*X*X;X6X6X6X6X6X6X6X6X6X6X6X-X-X6X6X6X6X-X-XfXlXzXvX@.w W T ",
"O.7X6X-X7X*X6X6X6X6X6X6X6X6X6X6X-X6X;X&X&X*X6X6X6X6X6X6X6X6X6X6X6X*X%X&X*X6X6X6X6X6X6X6X6X6X6X6X-X6X6X6X6X6X-X*XpXlXfXcX[ w ! T ",
"=.7X-X6X6X6X6X6X6X6X6X6X6X-X6X6X2X9X>X` S X.5X2X0X6X*X5X5X*X7X-X>XOX) L ,.8X:X5X6X6X6X6X6X6X6X6X6X-X6X6X-X6X6X*XsXkXgXcX{ w R T ",
"=.7X-X6X6X6X6X6X6X6X6X6X6X-X6X6X*X;X_ I a.I ..,X6X6X6X;X7X7X-X6X:.) b.a.Q &.7X>X6X6X6X6X6X6X6X6X6X-X6X6X-X6X6X*XsXkXgXcX{ w R T ",
"=.7X-X6X6X6X6X6X6X6X6X6X6X-X6X6X=XX.H 8.l.b D ` &.,.7X*X*X-X%X8X&.f q.j.0.U ,.>X6X6X6X6X6X6X6X6X6X-X6X6X-X6X6X*XsXkXgXcX{ w R T ",
"=.7X-X6X6X6X6X6X6X6X6X6X6X-X6X6X*.S s.l.x.b y m f Q <.0X9X9X6X5X@.n i.K.j.M F ,.6X6X6X6X6X6X6X6X6X-X6X6X-X6X6X*XsXkXgXcX{ w R T ",
"=.7X-X6X6X6X6X6X6X6X6X6X6X-X6X6X..y g.x.w.9.w.t.y.a.) ,.5X6X,X..P a.k.U.U.2.S <.6X6X6X6X6X6X6X6X6X-X6X6X-X6X6X*XsXkXgXcX{ w R T ",
"=.7X-X6X6X6X6X6X6X6X6X6X6X-X6X6X*.g 5.w.5.c.T.L.T.6.g ) #.#.` D x l.G.F.I.b D &X6X6X6X6X6X6X6X6X6X-X6X6X-X6X6X*XsXkXgXcX{ w R T ",
"=.7X-X6X6X6X6X6X6X6X6X6X6X-X6X6X_ f t M h.C.P.C.U.q.l g g y h y x k.R.G.M.z D &X6X6X6X6X6X6X6X6X6X-X6X6X-X6X6X*XsXkXgXcX{ w R T ",
"=.7X-X6X6X6X6X6X6X6X6X6X6X-X6X6X#.h t x U.A.J.H.F.x.y.7.y.y.t.z r 2.c.I.L.2.J &X6X6X6X6X6X6X6X6X6X-X6X6X-X6X6X*XsXkXgXcX{ w R T ",
"=.7X-X6X6X6X6X6X6X6X6X6X6X-X6X6X*.y t x D.S.K.G.J.T.G.I.U.T.U.u.M z w.g.J.z H <.6X6X6X6X6X6X6X6X6X-X6X6X-X6X6X*XsXkXgXcX{ w R T ",
"=.7X-X6X6X6X6X6X6X6X6X6X6X-X6X6Xo.d y M x.C.I.B.U.C.U.U.U.A.U.M.Z.N.9.2.g.5.D :.6X6X6X6X6X6X6X6X6X-X6X6X-X6X6X*XsXkXgXcX{ w R T ",
"=.7X-X6X6X6X6X6X6X6X6X6X6X-X6X6X:X_ N b B.y.3.I.U.C.G.C.U.A.U.U.R.C.c.e.M P *.*X6X6X-X6X6X6X6X6X6X-X6X6X-X6X6X*XsXkXgXcX{ w R T ",
"=.7X-X6X6X6X6X6X6X6X6X6X6X-X6X6X&X_ K 5.9.0.2.j.M.T.G.U.J.U.G.C.J.U.D.z.0.P X.;X6X6X-X6X6X6X6X6X6X-X6X6X-X6X6X*XsXkXgXcX{ w R T ",
"=.7X-X6X6X6X6X6X6X6X6X6X6X-X6X6X@.n y.f.z r.r.l k.U.z.U.D.I.G.U.C.U.D.C.M.5.D ,.6X6X-X6X6X6X6X6X6X-X6X6X-X6X6X*XsXkXgXcX{ w R T ",
"=.7X-X6X6X6X6X6X6X6X6X6X6X-X6X6X] c u.J.g.U.y.u c.f.0.x.G.U.C.U.G.C.U.U.V.z D ;.6X6X-X6X6X6X6X6X6X-X6X6X-X6X6X*XsXkXgXcX{ w R T ",
"=.7X-X6X6X6X6X6X6X6X6X6X6X-X6X6X#.f e.T.C.T.z.5.w.8.8.6.z.U.V.I.T.Y.Y.J.J.5.D >.6X6X-X6X6X6X6X6X6X-X6X6X-X6X6X*XsXkXgXcX{ w R T ",
"=.7X-X6X6X6X6X6X6X6X6X6X6X-X6X6XX.n e.U.U.Z.l.z.l 9.x.x 0.D.V.V.M.x.C.G.K.2.S ,.6X6X-X6X6X6X6X6X6X-X6X6X-X6X6X*XsXkXgXcX{ w R T ",
"=.7X-X6X6X6X6X6X5X6X-X-X6X-X-X7XX.h s.P.C.5.l x t 5.k.x 9.l.z v l x h.V.B.b S *X6X6X-X6X6X6X6X6X6X-X6X6X-X6X6X*XsXkXgXcX{ w R T ",
"=.7X-X6X6X6X6X6X5X6X-X-X6X-X-X7X] h e.S.G./.!.!.Q.n.t.5.0.w.Q.n.!.!.B.T.Z.2.H >.6X6X-X6X6X6X6X6X6X-X6X6X-X6X6X*XsXkXgXcX{ w R T ",
"=.7X-X6X6X6X6X6X5X6X-X-X6X-X-X7X] g e.R._.}..X X X~.8.g.s.a.(..X<X X).R.L.2.S ,.6X6X-X6X6X6X6X6X6X-X6X6X-X6X6X*XsXkXgXcX{ w R T ",
"=.7X-X6X6X6X6X6X5X6X-X-X6X-X-X7Xo.s e._.|.Q.Z Z Z n.}._._.}.a.C Z Z ^.XXI.2.I ,.6X6X-X6X6X6X6X6X6X-X6X6X-X6X6X*XsXkXgXcX{ w R T ",
"=.7X-X6X6X6X6X6X5X6X-X-X6X-X-X7X..h q.).<XI * k Y {.1X_.'.1XW.B r t ^.1XY.2.D :.6X6X-X6X6X6X6X6X6X-X6X6X-X6X6X*XsXkXgXcX{ w R T ",
"=.7X-X6X6X6X6X6X5X6X-X-X6X-X-X7X#.p q._.|.Q.v p @X$X XB._..X#XE.u b ^.XXJ.z D &X6X6X-X6X6X6X6X6X6X-X6X6X-X6X6X*XsXkXgXcX{ w R T ",
"=.7X-X6X6X6X6X6X5X6X-X-X6X-X-X7X] j 7.T._.`.~.m +X+Xm l l B #XE.C ].)._.V.b S :X6X6X-X6X6X6X6X6X6X-X6X6X-X6X6X*XsXkXgXcX{ w R T ",
"=.7X-X6X6X6X6X6X5X6X-X-X6X-X-X7X<.' m.8.2._.).^.oXW.t t r m {.[.^.|.g.2.a.P ] =X6X6X-X6X6X6X6X6X6X-X6X6X-X6X6X*XsXkXgXcX{ w R T ",
"=.7X-X6X6X6X6X6X-X5X5X5X7X3X8X;.&._ S * r 9./.|.}.~.v t u Z ^. X[.h.M * * F %.@.,.-X9X0X*X8X5X;X6X6X6X-X6X6X6X*XsXkXgXcX{ w R T ",
"=.7X-X6X6X6X6X6X-X5X7X5X*X6X<.) g j & X ; f c c n 5.s.x z h.5.h n c d : + a h n #.eX:.*X7X*X6X-X6X6X6X-X6X6X6X*XsXkXgXcX{ w R T ",
"=.7X-X6X6X6X6X6X5X6X*X;X7X,.Q Z 3.w.& . 0 - = = : d d & & d d : : ; 7 >   c 7.i.H L F %.7X*X;X6X6X6X6X-X6X6X6X*XsXkXgXcX{ w R T ",
"=.7X-X6X6X6X6X6X5X6X&X-X7X#.f w.U.U.M = - , 7 9 0 < . X X X 8 e 7 7 3 $ a s.U.K.w.z M ) >.7X-X7X6X6X6X-X6X6X6X*XsXkXgXcX{ w R T ",
"=.7X-X6X6X6X6X6X6X6X7X7X%X@.g q.U.D.V.Z + $ 8 5 7 1 1 8 6 1 1 9 6 6 @ & d.D.V.K.V.C.z.M Q <.*X6X6X6X6X-X6X6X6X*XsXkXgXcX{ w R T ",
"=.7X-X6X6X6X6X6X*X6X6X-X2X#.g q.U.C.H.a.O $ 7 0 9 7 e 4 3 0 6 4 9 0 @ * v.R.I.F.U.T.C.y.a.Q ;.4X6X6X6X-X6X6X6X*XsXkXgXcX{ w R T ",
"=.7X-X6X6X6X6X6X-X6X*X*X7X#.y t.U.C.j.M & = ; ; 1 6 3 9 8 8 0 6 3 3 % & 9.V.U.D.U.V.C.R.e.s *.3X6X6X6X-X6X6X6X*XsXkXgXcX{ w R T ",
"=.7X-X6X6X6X6X6X7X*X6X7X;XX.n w.Y.C.4.u t y y y 2 7 6 7 7 7 0 0 7 e # O g r.Z.R.C.R.D.K.q.p *.0X6X6X6X-X6X6X6X*XsXkXgXcX{ w R T ",
"=.7X-X6X6X6X6X6X;X7X*X;X;X#.j q.U.V.x.j.g.f.f.s.i = 8 9 7 7 0 4 6 7 X $ _ I w.J.G.D.G.R.7.f %.9X6X6X6X-X6X6X6X*XsXkXgXcX{ w R T ",
"=.7X-X6X6X6X6X6X5X2X5X*X6X#.y e.T.G.G.C.U.D.G.V.x = 6 9 6 , 6 0 $ $ 8 w ) K 6.M.U.U.J.u.Z ) ;.,X6X6X6X-X6X6X6X*XsXkXgXcX{ w R T ",
"=.7X-X6X6X6X6X6X5X2X8X*X7X%.S 9.x.U.K.J.I.T.U.z.x d 6 9 8 4 4 0 6 . ~ X.f s.T.H.V.K.J.z L <.2X6X6X6X6X-X6X6X6X*XsXkXgXcX{ w R T ",
"=.7X-X6X6X6X6X6X;X5X*X6X6X>.X.I 8.x.T.T.K.C.T.x.x d , 7 7 6 6 2 $ . ~ #.y r.U.F.G.T.k.x L 6X3X5X6X6X6X-X6X6X6X*XsXkXgXcX{ w R T ",
"=.7X-X6X6X6X6X6X6X6X;X;X7X*X8X_ I a.7.f.w.e.r.w.f ; , , 7 6 6 7 6 # e G i i.U.U.U.M.t.P ..&X-X6X6X6X6X-X6X6X6X*XsXkXgXcX{ w R T ",
"=.7X-X6X6X6X6X6X3X5X7X;X7X5X5X&X_ H c s r r r r - - 3 < < 8 3 < - 6 % O u q.C.T.T.e.i _ 7X;X0X6X6X6X6X-X6X6X6X*XsXkXgXcX{ w R T ",
"=.7X-X6X6X6X6X6X2X5X6X-X6X*X*X7X*X&.@.! % O O O o X X . . # X . o .   O y s.R.S.A.y.n ..6X*X;X*X6X6X6X-X6X6X6X*XsXkXgXcX{ w R T ",
"=.7X-X6X6X6X6X6X=X;X*X8X5X*X7X*X:X-X7X/ : a n v s c s r r s c c A h * ; L K 0.4.4.b.Q ,.3X5X6X3X6X6X6X-X6X6X6X*XsXkXgXcX{ w R T ",
"=.7X-X6X6X6X6X6X6X6X6X6X6X6X6X6X6X*X6X_ i u.T.I.G.C.f.x 6.L.K.D.J.x.0.L 1.( j n j ) ;.8X6X6X5X7X6X6X6X6X6X6X6X*XsXkXgXcX{ w R T ",
"=.7X-X6X6X6X6X6X6X6X6X6X6X6X6X6X-X7X7X/ h f.C.U.Y.r.l t 9.J.K.R.z.M ) %.6X&X;.%.*.<.*X5X;X;X-X*X6X6X6X6X6X6X6X*XsXkXgXcX{ w R T ",
"=.7X-X6X6X6X6X6X6X6X6X6X6X6X6X6X*X;X0X-.) b.2.6.2.K L f w.F.U.C.V.w.P _ &X7X5X2X7X7X7X6X;X;X6X8X6X6X6X-X6X6X6X*XsXkXgXcX{ w R T ",
"=.7X-X6X6X6X6X6X6X6X6X6X6X6X6X6X5X*X0X7X<.) S S j ' 1.N 6.D.I.K.K.T.7.Z ` ,.=X8X-X6X7X7X*X*X5X3X6X6X6X-X6X6X6X*XsXkXgXcX{ w R T ",
"=.7X-X6X6X6X6X6X6X6X6X6X6X6X6X6X8X*X;X-X6X,.;.%.;.:.<.N 3.K.V.K.I.T.l.s.J X.yX>X7X6X5X5X5X5X5X5X6X6X6X-X6X6X6X*XsXkXgXcX{ w R T ",
"=.7X-X6X6X6X6X6X6X6X6X6X6X6X6X6X2X5X7X*X;X0XrX7XqX6X;.N 2.K.T.A.T.C.R.k.t ' 8X-X5X5X5X5X5X6X;X;X6X6X6X6X6X6X6X-XsXkXgXcX{ w R T ",
"=.7X-X6X6X6X6X6X6X6X6X6X6X6X6X6X-X5X6X7X7X*X;X&X-XyX,.Q Z y.N.h.k.u.p.r.J ] 2XeX5X6X7X6X-X-X*X=X6X6X6X6X6X6X6X-XsXkXgXcX{ w R T ",
"=.7X-X6X6X6X6X6X6X6X6X6X6X6X6X6X>X7X2X2X8X5X5X5X=X5X%X&X' l l i i c y H *.-X9X;X5X7X;X;X;X7X5X8X6X6X6X6X6X6X6X-XsXkXgXcX{ w R T ",
"=.7X6X5X6X*X*X-X*X*X*X*X*X*X*X*X*X*X*X*X*X*X*X*X*X*X*X&X-.{ / _ _ / / @.,.=X6X*X*X*X*X*X*X*X*X*X*X*X*X*X*X-X*X*XdXcXlXvX{ w T W ",
"+.&X,.:.7XrXrXiXrXrXrXrXrXrXrXrXrXrXrXrXrXrXrXrXrXrXrXiXtXwXwXaXwXwXwXrXrXrXrXrXrXrXrXrXrXrXrXrXrXrXrXrXrXrXrXrXpXtXtXiX/ T T T ",
"^ } [ [ pXlXkXhXkXkXkXkXkXkXkXkXkXkXkXkXkXkXkXkXzXzXkXkXkXkXkXlXkXkXlXzXkXhXhXzXkXkXkXkXkXkXkXkXkXkXkXkXkXkXkXlX:.^ [ [ ! E T T ",
"^ } } ^ tXlXhXhXhXhXhXhXhXhXhXhXhXhXhXhXhXhXhXhXhXhXhXhXhXhXgXfXhXhXhXhXhXhXhXhXhXhXhXhXhXhXhXhXkXhXhXkXhXhXhXlX*X| } } ~ R T T ",
" .O.$.[ pXlXlXlXlXlXlXlXlXlXlXlXlXlXlXlXlXlXlXlXkXkXlXlXlXcXlXlXxXxXxXxXxXxXxXxXlXlXlXlXlXlXlXlXlXkXlXlXlXkXlXcX:.[ [ +.~ T T T ",
"~ ^ ^ ^ =XuXtXtXtXtXtXtXtXtXtXtXtXtXtXtXtXtXtXtXwXuXtXwXwXtXtXtXwXwXtXtXwXwXuXuXtXtXtXtXtXtXtXtXuXtXtXuXuXtXtXuX$.[ ^ / ! T T T ",
"  .                                                                                                                             ",
"                                                        o                                                                       "
};
