/* XPM */
static char *enemy_left_11739715717[] = {
/* columns rows colors chars-per-pixel */
"64 64 224 2 ",
"   c #010102",
".  c #07090A",
"X  c #140201",
"o  c #1C0606",
"O  c #0B1213",
"+  c #191916",
"@  c #0E0B11",
"#  c #270603",
"$  c #36060A",
"%  c #39080B",
"&  c #36160F",
"*  c #341815",
"=  c #201D18",
"-  c #1E201D",
";  c #2A221E",
":  c #1E1E21",
">  c #221D21",
",  c #1D2526",
"<  c #252424",
"1  c #2A2423",
"2  c #262628",
"3  c #35353F",
"4  c #38363B",
"5  c #2A2D34",
"6  c #4D0000",
"7  c #490A07",
"8  c #530202",
"9  c #5B0403",
"0  c #5C0A0D",
"q  c #580709",
"w  c #43140E",
"e  c #5A0C12",
"r  c #481415",
"t  c #561212",
"y  c #5B1314",
"u  c #591719",
"i  c #5F110F",
"p  c #640505",
"a  c #650509",
"s  c #6C0B0D",
"d  c #680809",
"f  c #720A0C",
"g  c #77060D",
"h  c #6D120D",
"j  c #680E13",
"k  c #760B12",
"l  c #691416",
"z  c #7C1313",
"x  c #74141A",
"c  c #7D110F",
"v  c #702017",
"b  c #561E21",
"n  c #691923",
"m  c #781623",
"M  c #592626",
"N  c #5B3B3B",
"B  c #583636",
"V  c #503234",
"C  c #68282A",
"Z  c #74272A",
"A  c #64383A",
"S  c #6E322D",
"D  c #3D3D45",
"F  c #3E3E48",
"G  c #373A43",
"H  c #403F45",
"J  c #5D3F41",
"K  c #6A3D43",
"L  c #3D4246",
"P  c #42444C",
"I  c #404146",
"U  c #5C4347",
"Y  c #4A4B57",
"T  c #4E525B",
"R  c #445157",
"E  c #52535D",
"W  c #55585F",
"Q  c #694446",
"!  c #734E4E",
"~  c #714346",
"^  c #664C54",
"/  c #724D52",
"(  c #62565B",
")  c #6D5C5E",
"_  c #685757",
"`  c #74595A",
"'  c #6E605D",
"]  c #565965",
"[  c #5C5D65",
"{  c #5B5D69",
"}  c #525561",
"|  c #4F5160",
" . c #6B5F65",
".. c #735B63",
"X. c #5C6169",
"o. c #5F6571",
"O. c #6D6364",
"+. c #61636F",
"@. c #696869",
"#. c #716264",
"$. c #716269",
"%. c #786F6F",
"&. c #636A74",
"*. c #686975",
"=. c #736D73",
"-. c #6D737B",
";. c #6A7577",
":. c #72747B",
">. c #7B757C",
",. c #737A7D",
"<. c #767377",
"1. c #890C14",
"2. c #980D17",
"3. c #8E131A",
"4. c #88161A",
"5. c #95121B",
"6. c #9B131A",
"7. c #951619",
"8. c #A40F16",
"9. c #A4141E",
"0. c #AA171D",
"q. c #B0151D",
"w. c #851C22",
"e. c #8C1824",
"r. c #991A25",
"t. c #850E21",
"y. c #A51421",
"u. c #A41A23",
"i. c #AD1B25",
"p. c #AA1A27",
"a. c #B31624",
"s. c #B41A24",
"d. c #BA1B24",
"f. c #B31C2C",
"g. c #BC1D2B",
"h. c #B91628",
"j. c #A8172E",
"k. c #88232D",
"l. c #AB212A",
"z. c #B3212D",
"x. c #BA232A",
"c. c #BE2230",
"v. c #C21E1C",
"b. c #C51D2D",
"n. c #CC1D2C",
"m. c #C71C26",
"M. c #D21E2E",
"N. c #C51E32",
"B. c #CC1E32",
"V. c #CD1F3B",
"C. c #D31D33",
"Z. c #DA1E34",
"A. c #C5222D",
"S. c #CB222D",
"D. c #C72226",
"F. c #D3222D",
"G. c #D2292C",
"H. c #C42231",
"J. c #CC2233",
"K. c #C92E3E",
"L. c #D22233",
"P. c #D52439",
"I. c #916412",
"U. c #97472C",
"Y. c #992847",
"T. c #9F334C",
"R. c #A6334D",
"E. c #AE3552",
"W. c #AC2D4C",
"Q. c #D22B43",
"!. c #D32747",
"~. c #D6324B",
"^. c #CC3651",
"/. c #D33D61",
"(. c #B9405F",
"). c #C77153",
"_. c #D64879",
"`. c #D34C6F",
"'. c #E8457A",
"]. c #C86665",
"[. c #E67E61",
"{. c #7A807E",
"}. c #C2A71C",
"|. c #E0B13D",
" X c #6E7D84",
".X c #6E7783",
"XX c #737E86",
"oX c #7A7C84",
"OX c #757F88",
"+X c #797E8A",
"@X c #777D90",
"#X c #807F8D",
"$X c #EB4D84",
"%X c #E95587",
"&X c #6E8284",
"*X c #6F8189",
"=X c #768186",
"-X c #7B8186",
";X c #768089",
":X c #79828B",
">X c #758393",
",X c #7A8391",
"<X c #84868C",
"1X c #8C908F",
"2X c #858C94",
"3X c #8B8E92",
"4X c #818393",
"5X c #8C9093",
"6X c #869198",
"7X c #92969C",
"8X c #938C96",
"9X c #979CA2",
"0X c #989DA1",
"qX c #9EA8A9",
"wX c #A2A6A7",
"eX c #A6A7AB",
"rX c #A6AAAD",
"tX c #A8ACAF",
"yX c #A5ADB1",
"uX c #AAADB1",
"iX c #AFA7B4",
"pX c #ACB0B3",
"aX c #A5B1B2",
"sX c #B1B3B9",
/* pixels */
"                                                                                                                                ",
"                                                .                     .                                                         ",
"| { ] X.-.OXOX:X;X;X=X;X;X;X;X;X;X=X;X=X;X;X;X;X=X=X=X=X=XoXOX;X;X;X=X;X=X;X;X;X=X;X=X=X;X;X;X;X=X=X;X;XOX=X=X=X&.{ +.{ Y F D D ",
"T X.] ] .X,X;X;X;X>X;X;X;X;X;X:X:X;X;X;X:X:X;X;X+X=X*X:XXX=XOX=X;X:X;X;X;X:X;X;X:X;X;X;X:X;X;X;X;X>X;X;X;X:X:X:X+.] { { Y G D D ",
"T o.] { .XOXOXOXOXOXOXOX;X=X=X=X;X;XOX;X;X;XOX;X-X;XOXXXOX>X>X>X=XOXOXOX;X=X=X=XOXOXOX+X=X+XOXOX;X;XOX;XOX;X=X;X&.} E ] L G D D ",
"T &.+.+.XX;X;X;X=X+X=X=X;X=X;X;X;X-X-X;X-X;X=X=XOX:XXXoXOX X X=X=X+X=X=X=X;X;X;X=X+X=X=X=X+X=X=X=X=X=X=X;X=X=X=X:.:.:.oXY G I D ",
"*.,X:XOX:XOX;XXX=X;XOX;XOX;X;X;X;X;X;XOX;XOX;X;X;X<X=.oX4X=X=X:XOX;XOX;XOX;X;X;X;X;X;XOX;XOX=XOX;X;X;X;X;X;X+XOX0XuXtXsX+.4 H D ",
"o.,X;XOX:XXX;X;X;XOX;X;X;X;X;XOXOX;X;X;X;X;X=X=X=X;.J  .oX&X;X;XOX=X;X;X;X;X;XOX;XOX=X;X;X;X;X;X=X;X;X;X;X;XOXOX7XuXwXpXW 3 I D ",
"*.:XOX;X;X;XOXOX;X;X;X;X;X;X;X;X=XXXOX@XOX;X=X=X@.~ m Z ) oX>X=X=XOX;X+X;XOX=X=X=X;X;X;X;XOX;XOX=XOXOX;X;X;X=XOX0XuXwXpX[ 3 F D ",
"*.:XOX;XOX:X;X:X;XOXOX;X;XOX-XOX=X>X=X;X>X*X X+XU n f.3.M O.=XOXXX:X>X;XXX=X=X;X;X;X=X;X;X=X;X;X;X+X;X;XOX;X;XOX0XtXwXpX[ G F H ",
"&.:XOX;X;X:XOX:X;X;X;XOX;X;XOX;XXX=X=XOXOX=X;X:XK a m.m.7.Z W :X:X,XOX;XOX=X X;X;X;X;X;X;X+XOXOX;XOXOX;XOX;X;XOX0XtXwXpX[ 3 F D ",
"&.:XOX;XOX;XOX:X;XOX;X=X;XOX;X;X;X;XOXXXoX=.( ( M d d.G.s.s M _ ( *.+X;X:XOXOX:X=X;X;X;X=XOXOXOX;XOX;X;X=X;X;X+X0XuXwXuX[ 3 F D ",
"&.,X=X;X;X;X;X:XOX;XOX;XOX;XOX;X;X:XOX;X>.A y l q f d.A.i.f e j y ~ %.OX;X;XOXOXOX;X;X;XOX;X+X=X;XOXOX;X;X;X;XOX9XuXwXpX[ 3 G F ",
"&.,X=X;X;X;X;X-X-X;X;X;X;X;X;X;X&XXX:X;.Q w.6.8.s d h.P.N.y.k 9 2.Z Q <.;X>XOXXXOX;X;XOX;X;X;X;X=XOX;X;XOX;X;XOX9XuXwXuX .3 F D ",
"*.:X;X;X;X;XOX:X+X;XOX;XOX;XOX-X:XoX<.K x u.L.M.3.d f.Z.C.C.9.z 0.k t Q _ O.oX:XOXOX=X;XOX;XOX;X=XOXOX;XOX;XOXXX9XuXwXuX[ 3 F D ",
"&.:X=X;X;X;X;X;X;X;X;X;X;X;X;XOXOX:.Q x a.H.g.A.2.s z.M.x.S.b.f.f p 9 i y M $. XOXOXOX;X;X;X;X;X;X+X;X;XOX;X;XOX9XtXwXuX[ G F D ",
"&.,X;X;X;X;X;X;X;X;X;X;X;XOX;X:X;.A w.y.H.F.n.C.l.8.c c 2.x.J.g.6.6.r.6.6.e.Z B N <.;X;XoX=X&X:XOXOX=X;XOX;X;XOX0XtXwXpX[ 3 D D ",
"&.,X=X;X=X;X;X:XOX;XOX;X;X;X;X:X .y r.J.H.n.A.i.b.f.z s 1.h.C.M.L.C.C.L.L.g.3.s x ^ ;.&XOX:X;X=X;XOXOX;X=X;X;XOX0XtXwXpX[ G H D ",
"&.:X=X;X;X-X;X;X;X;XOX:X;XOX;X:X..y 2.N.A.n.i.f 5.V.b.b.d.x.J.n.S.N.H.B.S.n.n.b.a.l Q ,.@XOX:X-X;X=X;X;X=X;X=XOX9XtXwXpX[ 3 F F ",
"&.:X;X;X;X;X;X;XOX;XOX:XOXOX;X-X$.t 6.b.2.a.x.p 5.B.n.L.P.G.L.M.L.L.S.B.S.S.A.J.S.0.m K :.>X=X,.OX+XOX;X+X;X;XOX9XtXwXuX[ G F D ",
"*.:XOXOX;X;X;X;X=XOX;X-X;XOX;X:XO.t 1.r.C 4.5.s 6.n.b.s.0.r.i.a.a.d.S.M.n.n.b.S.H.J.q.z Q ,.;X+X;XOX;X;XOX;X;XOX9XuXwXpX[ 3 F D ",
"&.:XOX;X;X:X;X;X;X;X;X;XOXOX;X:X..u 9 Z ) ~ 0 9 7.N.N.y.g s s j d 7.x.J.J.B.C.C.J.b.n.i.x U +X>X;XOXOX;X+X;X;XOX9XuXwXuX[ 3 F H ",
"&.:XOX;XOX:X;X-X;XOX;X;X;XOXOX:X$.t M ' -.@.B 0 3.f.e.k.W.E.E.T.E.W.J.n.n.H.J.n.N.L.L.d.g M :.>X=XOX;X;X=X;X;XOX9XtXwXuX[ 3 F D ",
"*.,XOX;XOX;X:X:X;X;X;X;X;XOX;X:X*.C _ &X@X:X@.l 5.z.e.T._.`._._.`./.Q.P.J.J.b.M.M.J.N.c.f B -XOX;XOXOX;XOX;X;XOX9XtXwXiX[ G H D ",
"&.,X=X=X;X;X;X:X;X;X;X;XOX;X;X;X X-.XX+X+X>X@.l 1.K._.R.h l y h h R.$X!.S.D.n.J.J.n.L.g.f B oX;X=X+X;XOXOX;X=XOX9XtXwXpX[ 3 D D ",
"&.,X=X;X;X;X;X-X;XOX;XOX;X;X;XOX;XoX;X,.-X,X$.y j.`.[.U.8 6 8 9 8 Y.%X!.n.S.N.C.J.S.n.g.g A oX;X;XOX;X;X;X;X;XOX9XtXwXpX[ G F D ",
"&.:X;X;X;X;X;X:XOX;X;X;XOX;XOX-X@XOX:X;X:X:.Q u Y.).|.I.t 8 q 8 m R.`.Q.J.B.L.B.N.L.n.g.k B ,.:X;XOX;X;XOX;X;XOX9XtXwXpX[ 3 F D ",
"&.:X=X;X;X;X;X-X;X;X;XOX;XOX:XOXOXXX;X=XXX^ u 7 d S }.I.q 8 6 l (./.!.V.B.J.J.n.n.L.S.x.s B >.;X;XOXOX;X=X;X;XOX9XtXwXuX[ G F D ",
"&.:X=X;X;X;X;X;X;X;XOX-XOX;X;X;XOX;X;X=XoXA 9 6 8 x ).).W.T.Y.E./.~.J.M.C.n.n.S.J.M.M.g.f A -X;X;X=X=XOXOX;X;XOX9XtXwXpX[ 3 H D ",
"*.,X;X;X;X;X;X;X;XOX;X;X;X;X;XOX;X&X;X,X,.N 8 9 8 e.`.$X$X%X%X'.Q.J.n.F.J.S.A.J.A.S.L.N.g B ,.;X+XOX;X;X;X;X;XOX9XtXwXpX[ 3 F D ",
"&.:X=X;X;X;X;X:X;X;X;X;XOX;XOX;X:X=X=X@XoXN 7 8 z f.Q.~.!.Q.Q.P.B.n.n.n.J.S.S.N.b.J.S.f.k N :.;X;XOXOX;XOX;X;XOX9XtXwXuX[ 3 F D ",
"&.,X=X;X;X;X;X;X;XOX;XOX;X;X;X;X;X;XOX@X;X' C q k y.v.A.V.S.b.B.J.m.J.V.V.m.n.P.C.L.a.r.C _ oX#X;XOX;X;X;X;X;XXX9XtXwXiX[ G F H ",
"*.:XOX;X;X;X;X:X;XOX;XOX;X;X;X;X;XXX,X;X;X-X..V r x l.d.h.g.g.n.Z.A.J.C.J.A.S.D.b.b.3.C  .#XXX;X;X;X;X;XOX;X;XOX7XpXwXpX[ 3 L D ",
"&.:XOX;X;X;XOX;X;X;X;X;XOX;XOX;X:XOX:XXX X:XoX$.=.! l s k g 6.K.A.A.J.m.H.J.C.P.N.2.S #. X@X;X&X;X;XOX;X;X;X;X+X0XtXwXpX[ 3 H D ",
"&.,XOX;X;X;X;X;X;XOX;X;X;X;X;XOX;X;XOX;X*X*X:X;X;X>.Q V J A C m N.L.L.F.C.B.3.l y $ V XX;X;X=X;X;XOX;X;XOX=X;XOX9XtXwXpX[ 3 F D ",
"*.:XOXOX:X-XOX:X;X;XOX-XOX;X;X;X=X;X;X:X;X*X X=XOXoXoXoXXX:.V # r.j.p.l.f.r.% o # X G XX;X+XOX;X;XOXOX;X+X;X;XOX9XtXwXpX[ G F D ",
"&.,X=X=X+X;X;X;X;X+X;X;X;XOX;XOX=X;X=XOX:X;XXX=X;X=X:X;X:X;XL . # $ $ $ $ # $ q z 8 J OX=X+X:X*X=XOX;XOXOX;X;XOX0XtXwXpX[ G D D ",
"&.,X=X;XOX:X;X:XOX-X;X;XOX:X;X;X&X:X;XOX;X+XOX,X&X=XXX;X-.T 5 O . O O @ o # h h.n.y.Z ( -.;XXX:X;XOX;X;X;X;X;XOX0XtXwXuX[ 3 F H ",
"*.:X;X;X;X-X;X;X;XOX;XOX-XOX;XOX=X;X;X;X;XOX;X;X-XOXXX+X[ , O , 1 , , < * 0 p.B.A.H.5.u @.;XOX+X;XOX;XOXOX;X;XOX9XuXwXuX[ 3 F D ",
"&.:X=X;X;X;X;X;X;X;X;X;XOX;X;X;X;X=X;X;X=X;X;X;XOX=X=XR , + < 1 2 2 < 1 & p g.n.C.S.6.y ..@X:X XOXOX;X=XOX;X;X=X9XuXwXiX[ G F D ",
"&.:X=X;X;X;X;X;X;XOX;XOX;X;X;X;X;X;XOX;X;X;X;X;XOX;X&X4 . - 2 2 2 2 , 2 & a f.S.A.S.6.t O.&X=XOX=XOXOX;XOX;X=XOX9XtXwXpX[ 3 D D ",
"&.,X=X;X;X;X;X;X;X;X;X;XOX;XOX;X;X;X;X;X;XOX;XOXOX=X=XD . - 2 2 1 > < ; & k a.n.B.n.y.e O.>X>XXX;XOX;X;X+X;X;XOX9XtXwXpX[ G F D ",
"&.:X=X;X;X:X;X;X;XOX;X;X-X;X;X;X;X;X;X;XOX;X;X;XOX=X XD . : < < % % % w h j.b.L.J.J.6.y O.;X>XOX;XOXOX;X=X;X;XOX9XtXwXpX[ 3 F D ",
"&.,X;X;X;X;X:X-X;X;XOX;XOX;XOX;X;X;X=XOX;X;X;XOX=X=XOXD . + * r c c 1.1.r.A.J.n.S.H.5.u O.=XXX;X;XOX;X;X;X;X;XOX9XtXwXuX[ G F D ",
"&.:XOXOX;X;X;X;X;XOX;XOX;XOX;XOX;X;X;X;X;X;X;X;X*X:XOXG   = w d 0.A.m.d.A.b.G.A.n.G.5.y ..:X X:X+XOX;X;XOX;X;XOX9XtXwXpX[ 3 D H ",
"&.4XOX;X;X;X;X;XOX:X;X;X;X;X;X-XOX;XOX;X;XOX;XOX;X;XXXD . + w d s.G.F.L.L.M.P.J.Z.L.6.y ..:X=X&X=XOX;X=X;X;X;XOX9XuXwXuX[ 3 F D ",
"&.:XOX;X;X;X;X;X-XOX;XOX;XOX;XOX;X;X;XOX;X;X;X;X;X=XOXD . = * r r.u.y.u.u.0.u.9.y.u.w.C @.+X;XXX;XOXOX;XOX;X;XXX9XtXwXuX[ 3 F D ",
"&.:XOX;X;X;X;X:XOX;X;X;X;X;X;X;XOX;X;X;XOX;X;XOXOX;X=XF O ; ; ; 7 0 p 9 9 9 9 q 9 9 C _ ,.>X,XOXOXOX;X;X;X;X;XOX9XtXwXiX[ G F H ",
"&.<X;X;X;X;X;X:XOX:X;XOX;XOX;X;X;XOX;XOX;X;X;XOX=X:X+X&.L + . . X o X X o X o X o V W ;.:XXX&X;X;X;X;X;X;X;X;XOX9XtXwXpX[ 3 H D ",
"&.:X;X;X;X;X;X-XOXOX;X;X;X;XOX;X;X;X;X;XOX;X;X;X;X;X:X;Xo.4 + # $ 7 % % $ $ % # $ Q =. XOX;X:X;X;X;X;X;X;X;X;XOX9XtXwXpX[ 3 H D ",
"*.:X=X;X;X;X;X:X;XOX;XOX;X;X;X;X;XOX;X;X;XOX;XOX;X;X=X=X;X;.N q r.f.f.f.f.f.f.3.r ) :X>XOXOX;X@X=X;XOX+X;X;X;XOX9XtXwXuX[ 3 F F ",
"&.:XOX;X;X;XOX;X;X;X;X;XOX;XOX;XOX:XOX;X;X;X;X;X>X=X,.=X>X&XJ h f.J.S.F.M.n.n.2.t O.>X@X=X=X=X:XOXOX;X=X;X;XOXXX9XtXwXpX[ G F D ",
"&.:X;X;X;X;X;X:X;X;X;X;X-X;X;XOX;XOX;XOX;X;X;X;XOX;X=X<X>X XJ p h.L.J.m.n.J.J.2.y ' :XOX=X=X=X;X;X;X;XOX;X;X;XOX9XtXwXpX[ 3 D H ",
"&.:X=X;X;X;X;X-X;XOX;XOXOX;X;X;X;XOX;X;X;XOX;X;X;X=X=XOX@XXX~ f h.C.J.J.L.J.c.r.b O.,XOXOX=X=X=X;X;XOX;XOX:X;XOX9XtXwXpX[ 3 F D ",
"&.,X=X;X;X;X;X;X-X:X:X;X;X;X;X:X;X:X;X;X;X:X;X:X;X;XOX;X:.Q Z r.A.M.S.F.F.s.6.Z ^ >.OXOXOX;X=XOX;X-X:X;X;X:X;XOX9XtXwXuX[ 3 F D ",
"&.,X=X;X;X;X;X;XOX:X;X;X:X:X;X;X;X:X;X:X;X;X;X;X;X;X,X:X=.B 4.d.j.a.a.a.h.r.Z Q OX:XXX;X,X;X;X+X;X;X:XOX;X:X:XOX9XtXwXiX[ G F H ",
"&.:X;X=X;X XXXXXXXXXXXXX XOXOX XXXXX XXXXXOXXX XOXOX@XXX&X;.A 0 i 0 d p 0 n / ,.XXXX XXXXX X XXXXX XXX X XXXXXXX9XpXuXsX[ 4 D I ",
"X.:. X-.,X4X2X6X2X2X2X2X2X2X2X2X2X2X2X2X2X2X2X2X2X3X4X4X>X*X].! / ! ! ! ! #.oX6X2X2X2X2X2X2X2X2X2X2X2X2X2X2X2X3X7X5X3X7X} D D D ",
"T X.} [ 7XuXuXeXyXtXtXtXyXeXyXyXtXtXtXtXyXyXeXtXeXyXyXyXaXaXrXqXiXeXeXqXeXeXyXaXtXtXtXtXtXuXtXtXtXeXyXtXtXeXtXtX-.T ] { P G D D ",
"| { { W 8XuXtXeXeXeXwXeXeXeXeXeXeXeXwXwXeXeXeXeXqXqXqXyXqXqXtXtXtXqXqXyXrXeXwXwXeXeXeXtXwXeXeXeXeXeXeXeXeXwXeXtXXX| { { Y D D D ",
"| o.o.] 7XuXuXuXuXtXuXuXuXuXuXuXuXuXuXyXuXuXpXuXuXpXaXuXtXuXtXtXrXrXtXaXtXuXuXpXtXtXuXtXtXuXtXtXyXuXuXuXuXtXtXpX-.] [ X.P D D L ",
"Y T T T oX5X3X3X3X3X3X1X3X3X3X3X3X1X3X1X3X3X1X1X8X3X3X5X5X5X1X1X1X5X3X8X3X3X2X3X5X3X5X5X5X5X5X3X3X5X3X5X3X1X3X7X+.W E W P D 4 D ",
"  .                                                                 .                                                           ",
"                                                                                                                          .     "
};
