/* XPM */
static char *enemy_right_21739715971[] = {
/* columns rows colors chars-per-pixel */
"64 64 234 2 ",
"   c #010102",
".  c #0B0704",
"X  c #160405",
"o  c #1A1718",
"O  c #121C12",
"+  c #250301",
"@  c #2A0101",
"#  c #220A00",
"$  c #21010B",
"%  c #350703",
"&  c #371611",
"*  c #271815",
"=  c #35353F",
"-  c #37383D",
";  c #2C3437",
":  c #4D0403",
">  c #4C0B05",
",  c #440B08",
"<  c #540302",
"1  c #5B0302",
"2  c #5A0908",
"3  c #5B140D",
"4  c #4E0A11",
"5  c #570D16",
"6  c #4E181A",
"7  c #5B1415",
"8  c #591819",
"9  c #47100D",
"0  c #630404",
"q  c #690204",
"w  c #630905",
"e  c #6C0B06",
"r  c #640C0B",
"t  c #6C0A0C",
"y  c #66050A",
"u  c #78090C",
"i  c #6B0E12",
"p  c #660B17",
"a  c #730B13",
"s  c #7C0D12",
"d  c #641215",
"f  c #67191B",
"g  c #791519",
"h  c #55221E",
"j  c #74221C",
"k  c #591D23",
"l  c #491A20",
"z  c #641B22",
"x  c #621F28",
"c  c #7B1B25",
"v  c #5A2827",
"b  c #59362F",
"n  c #5C2C33",
"m  c #5A3839",
"M  c #762729",
"N  c #732F36",
"B  c #69363A",
"V  c #75333A",
"C  c #65292F",
"Z  c #3D3D45",
"A  c #3E3E48",
"S  c #373A43",
"D  c #403F45",
"F  c #5B3B41",
"G  c #643E47",
"H  c #763D41",
"J  c #3D4248",
"K  c #42444B",
"L  c #414648",
"P  c #5D4749",
"I  c #4A4B57",
"U  c #4E515C",
"Y  c #52535D",
"T  c #55585F",
"R  c #5D4E4F",
"E  c #6B454C",
"W  c #654D4D",
"Q  c #654647",
"!  c #724344",
"~  c #694D52",
"^  c #6C535A",
"/  c #6B5354",
"(  c #78585B",
")  c #565965",
"_  c #5C5D65",
"`  c #5B5D69",
"'  c #525561",
"]  c #4F5160",
"[  c #6B5D62",
"{  c #655A62",
"}  c #715C61",
"|  c #5C6169",
" . c #5F6571",
".. c #61636F",
"X. c #6D626A",
"o. c #696669",
"O. c #73646D",
"+. c #7B6C6C",
"@. c #736869",
"#. c #636A74",
"$. c #686974",
"%. c #7A6D73",
"&. c #756C76",
"*. c #6D747C",
"=. c #6A7276",
"-. c #72747C",
";. c #737B7E",
":. c #787477",
">. c #6B736B",
",. c #840C0D",
"<. c #840E11",
"1. c #8A0C14",
"2. c #8B0D1B",
"3. c #980C18",
"4. c #84131A",
"5. c #8C1219",
"6. c #871014",
"7. c #93131D",
"8. c #9B141C",
"9. c #961516",
"0. c #8D120F",
"q. c #A20E17",
"w. c #AB161E",
"e. c #B5101E",
"r. c #90201E",
"t. c #891925",
"y. c #9E1A24",
"u. c #991724",
"i. c #9B1C36",
"p. c #AA1421",
"a. c #AD1A25",
"s. c #AB1B2A",
"d. c #A21824",
"f. c #B41B25",
"g. c #B41C2A",
"h. c #BB1C2B",
"j. c #B81726",
"k. c #B81E36",
"l. c #812326",
"z. c #902438",
"x. c #AC212A",
"c. c #B4222A",
"v. c #BC232B",
"b. c #B72031",
"n. c #C41C2C",
"m. c #CC1D2D",
"M. c #C41B25",
"N. c #D31D2E",
"B. c #C51D31",
"V. c #CC1D31",
"C. c #CD1F38",
"Z. c #D21D32",
"A. c #D81E3A",
"S. c #C4222D",
"D. c #CB222E",
"F. c #CC252B",
"G. c #D2232E",
"H. c #C52432",
"J. c #CC2333",
"K. c #CA2A3A",
"L. c #D22233",
"P. c #D4243B",
"I. c #D62635",
"U. c #98700F",
"Y. c #B47B2A",
"T. c #972C45",
"R. c #A8354F",
"E. c #B03253",
"W. c #D52A49",
"Q. c #D33554",
"!. c #CC3759",
"~. c #D03B69",
"^. c #E53D6E",
"/. c #A84849",
"(. c #856B6C",
"). c #847274",
"_. c #82706C",
"`. c #C84876",
"'. c #D54778",
"]. c #CA5265",
"[. c #E44567",
"{. c #E15A6D",
"}. c #E4657A",
"|. c #BB9034",
" X c #C7AE2D",
".X c #E59B5A",
"XX c #6E7D85",
"oX c #6E7985",
"OX c #747D86",
"+X c #7A7C84",
"@X c #757F88",
"#X c #7A7D8A",
"$X c #737683",
"%X c #7D7E90",
"&X c #837D89",
"*X c #807C93",
"=X c #E75485",
"-X c #D04983",
";X c #6D8385",
":X c #6E838A",
">X c #698785",
",X c #768186",
"<X c #798287",
"1X c #768089",
"2X c #79828B",
"3X c #708888",
"4X c #758593",
"5X c #7A8392",
"6X c #7A8A91",
"7X c #81828A",
"8X c #858B8B",
"9X c #858C94",
"0X c #8B8E92",
"qX c #868B94",
"wX c #918B95",
"eX c #8C9193",
"rX c #889196",
"tX c #92969C",
"yX c #979CA2",
"uX c #989DA1",
"iX c #9EA5A7",
"pX c #A2A6A7",
"aX c #A5A6AB",
"sX c #A9A6AC",
"dX c #A6AAAD",
"fX c #A8ACAF",
"gX c #A7B1AE",
"hX c #A5ADB1",
"jX c #AAAEB1",
"kX c #A9A9B6",
"lX c #ACB0B3",
"zX c #A5B1B3",
"xX c #B1B3B9",
"cX c #B0AAB4",
/* pixels */
"                                                                                                                                ",
"                                                                                                                                ",
"] ` ) | *.OX@X2X2X@X1X1X1X1X1X1X1X,X,X,X1X1X1X@X1X1X2X1X1X1X,X1X1X1X,X@X1X1X1X@X1X,X,X,X1X1X1X@X1X1X2X@X,X1X,X1X..` ..) I A Z Z ",
"U ` ) ) oX2X2X2X4X1X1X2X1X1X1X2X1X2X2X1X2X1X1X3X1X1X1X2X1X1X1X1X1X1X3X2X1X1X1X2X2X2X1X1X2X1X1X3X3X1X1X1X2X1X2X1X#.) ` ` I S A Z ",
"U  .) ` oX@XOXOX@X@X@X@X1X1X1XOX,X@X@X@X@X,X@X@X1X1X@X@X@X@X@X,X@X@X@X@X1X,XOX1X@X@X@X,X@X@X@X@X#XOX@X@X@X,X2X@X#.' Y ) J S D Z ",
"U #.....$X@X1X1X#X,X,X,X,X,X,X,X#X,X,X,X,X#X,X,X,X1X,X@X,X,X,X#X,X,X2X,X1X1X,X1X,X,X,X#X#X,X,X,X1X1X@X2X2X,X,X,X-.*.-.+XI = L Z ",
"$.6X2X@X2X1X1XOX1X1X1X@X1X1X1X1X,X1X@X1X1X1X@X1X1X1X1X1X@X1X@X1X2X@X1X1X1X1X1X1X@X1X1X1X,X1X1X@X@X@X1X1X@X,X@X@XuXjXfXxXo.- Z Z ",
" .5X@X@X2X1X1X1X,X1X1X1X@X1X@X1X@X@X2X1X1X@X@X2XOX1X1X1X1X1X1X1X2X1X2X1X1X2X1X1X1X1X@X1X1X1X1X1X@X1X1X2X2X@X@X@XtXjXpXjXT = D Z ",
"$.2X@X1X1X1X@X2X1X1X2X@X,X1X@X2X1X1X1X@X@X1X1X@X:X@X#X@X2X@X@X1X;X7X,X*.*.@X+X1XXX1X4X1X@X&X1X:X,X@X1X1X@X2X,X@XuXjXpXlX{ = A Z ",
"#.2X@X,X1X1X@X2X1X@X@X1X@X1X1X@X@X@X@X2X1X1X1X1X#X2X1X:X2X2X2XOX@X$X<XE b :.2X1X2X,XXX1X2X1X@X2X@X@X1X@X@X1X1X@XyXjXpXlX` = A Z ",
"#.2X@X@X@X2X1X2X1X2X@X1X1X@X@X1X@X2X@X@X@X,X@X@X+X<X;XXX@X#X@X#X2XOXW t.c G >.OXOX@X1X1X1X1X1X#X2X@X1X1X@X1X1X@XyXfXpXlX` = A Z ",
"$.2X@X1X1X1X@X@X1X@X1X@X@X2X@X1X,X1X1X2X2X@X1X1XOX2X2X#X@X:X;X2X*.( f d.g.p E 1X@X2X2X:X;X1X1X@X@X@X1X1X@X1X1XOXyXfXpXjX_ S A Z ",
"#.2X1X1X1X2X@X2X1X,X2X@X1X@X1X2X1X@X1X@X1X@X1X@X3X1X@X#XOX1X,X;.W c 8.m.f.e Q 1X1X1X@XOXOX2X1X2X1X@X1X1X@X1X1XOXyXjXpXlX_ = D Z ",
"#.6X1X1X1X1X1X2X@X@X@X1X1X,X@X@X1X@X1X1X1X1X1X1X1X@XOX1X3XO.Q E 8 q v.G.w.r v P P X.<X6XOX#X2XOX@X@X@X,X@X1X2X@XyXjXpXjX_ = Z Z ",
"$.2X@X1X,X1X@X2X2X@X1X1X2X@X1X1X2X@X1X1X,X@X1X1XOX7X@X,X+.V y < < <.g.L.a.1 r a d V %.2X1XOX#X:X1X@X2X@X@X2X@X@XyXfXpXjX_ = D Z ",
"#.2X@X1X@X2X@X2X@X1X@X1X@X1X1X@X1X@X1X@X1X1X@X1X,XOX<X#.n t.u.w 6.c.C.A.a.e <.f.w.l.F >.5X2XOX5X1X@X1X@X@X@X2X@XyXfXpXjX_ S A Z ",
"#.2X@X1X1X2X@X2X@X2X@X1X@X1X@X@X;.1X1X#X1XOX6X4X-.^ Q b r s 4.0 9.L.F.L.g.q q.L.n.w.j B >.5X1X1X@X@X2X@X1X2X@XOXyXfXpXlX` = D Z ",
"#.2X@X@X1X1X@X2X,X1X@X1X1X1X2X@X,X2X1XOX5X;X$.%.( x 0 2 w 0 w w 8.n.c.f.s.s 8.S.Z.I.x.g Q &.4X;.@X,X@X1X@X1X1X@XyXfXpXlX_ = Z Z ",
"#.2X1X1X@X2X@X2X@X1X@X1X@X1X@X1X2X#XOX,X3X&.b 8 f d.j.f.a.c.g.j.C.h.u w a 8.h.I.Z.Z.V.a.c m OX,X@X@X1X1X1X2X@X@XyXfXpXlX_ = D Z ",
"#.6X1X1X1X1X1X1X1X@X2X1X2X@X1X1X@X2X1X2XX.H g ,.9.M.I.J.D.N.m.m.H.h.3.,.8.H.a.w.h.m.L.L.<.k :.@X@X2X@X1X,X1X@X@XyXfXpXjX_ S A Z ",
"$.2X@X1X@X1X1X2X1X@X2X@X1X@X@X,X1X1XOXO.B g g.J.J.Z.D.H.J.m.D.S.V.L.N.J.N.L.<.r M.H.f.F.,.k :.7X@X,X@X@X,X2X@X@XyXjXpXjX_ = A Z ",
"#.2X@X@X1X2X@X1X1X@X@X1X2X1X1X@X3XOXO.B t.f.m.N.B.Z.L.J.N.m.J.m.D.D.D.S.m.S.s i f.8.6.a.,.v =.5X@X@X2X1X@X1X@XOXyXjXpXjX_ = A D ",
"#.2X@X,X@X1X1X2X@X,X1X@X@X@X@X2X,XO.H g w.N.G.Z.J.V.m.J.B.p.7.u.7.5.7.g.N.J.<.q 4.M V t.q v ;.OX@X1X1X1X1X1X1X@XyXfXpXjX_ = A Z ",
"$.2X@X@X2X1X@X2X2X@X1X1X1X1X1X1X#Xm r c.L.V.J.S.m.G.S.S.V.d.p f a i f u.M.S.s 1 8 / @.z < v :.2X@X1X1X@X@X2X1X@XyXfXpXjX_ S A Z ",
"#.2X1X1X1X2X@X1X@X2X@X@X1X@X2X@X#XF t h.G.S.n.L.m.D.H.m.L.!.'.'.-X`.`.z.g s.1.7 [ +X$X$.v k >.5X1X1X1X@X@X2X@X@XyXfXpXlX{ = A Z ",
"#.6X1X1X@X1X1X2X1X@X1X1X1X1X@X1X,XQ t j.J.J.J.m.L.m.N.P.Q.E.R.R.E.E.E.E.E.k.<.8 &.2X@X#X} ~ OX@X@X@X,X@X,X,X@X@XyXfXpXlX` = A Z ",
"#.2X@X1X,X2X@X@X2X@X1X@X@X@X1X@X,Xm t j.L.J.S.m.D.V.N.W.=XT.1 < 1 < r /.{.W.2.x *.@X1X1X+X-.3X#X1X1X1X@X1X1X@X@XyXfXpXlX_ = A Z ",
"#.2X@X1X@X1X2X2X@X1X1X1X2X@X1X,X,XQ t j.N.V.B.J.J.m.N.W.=Xz.: : > 1 2 U..X{.i.v :.,X,X1X1X1X4X@X@X1X1X@X@X2X@X@XyXfXpXjX_ S J Z ",
"#.2X@X1X@X1X1X2X,X@X,X@X1X1X2X@X+XQ t f.Z.L.D.m.J.M.J.K.Q.E.T.< : < : U. X/.g 3 E @.3X,X#X2X@X,X2X@X1X@X1X2X@X@XtXfXpXlX_ = Z D ",
"$.2X@X1X1X1X@X1X1X1X@X2X2X@X@X1X#Xm r f.I.L.m.D.V.N.J.n.I.[.~.c p d 7 |.|.3 < < 4 W ;X@X@X2X+X<X@X1X1X@X@X2X@X@XuXfXpXlX_ = A Z ",
"#.2X1X1X1X1X1X2X@X@X1X@X@X1X1X1X+XP d x.D.m.V.N.V.L.V.n.G.L.Q.[.'.'.`.=X].p < : < W 1X%XOX,X+X1X2X1X1X@X2X@X@X@XuXjXpXlX) S A Z ",
"#.6X1X1X1X2X@X2X2X@X1X1X@X1X@X1X@X} M u.e.J.K.m.S.C.Z.m.K.F.K.~.[.'.[.[.!.u.q > < W XX%X1X>X2XOX@X@X,X@X@X2X@X@XuXfXpXcX) S D Z ",
"$.2X@X@X@X1X@X@X1X1X@X2X1X@X@X@X@X2X$.v 4.f.S.D.Z.V.m.C.N.m.J.m.H.m.N.G.n.f.u 1 6 ^ &X2X@X5X1X,X1XOX1X1X@X1X1XOXyXfXpXjX` = Z Z ",
"$.2X@X1X1X2X1X2X@X1X@X@X1X1X1X2X<X+X+X@.N 1.j.L.H.L.n.b.S.N.L.m.m.D.J.J.c.<.< 8 ^ :.<X;X@X#X1X1X1X,X1X1X@X2X2X@XyXfXpXlX_ = Z D ",
"#.2X@X,X1X2X1X2X2X@X1X1X1X@X@X1X&XOX,X<X{ B t.a.v.V.Z.A.L.S.S.G.j.8.0.3.t.B m / +X,X:X;X3X2XOX2X1XOX1X1X@X1X1X@XyXfXpXlX_ = A Z ",
"#.6X@X1X@X1X@X1X@X1X@X,X@X2X1X1X1XXX3X2X,XX.f ,.h.h.j.g.g.B.C.h.g 8 8 8 C %.OX@X,X1X:X:X2XOXOX5X1XOX1X1X,X1X1X@XyXfXpXlX_ S D Z ",
"#.2X1X1X,X2X@X2X1X@X2X@X1X@X2X@X>X@X&X#X5XO.6 2 t r > + % t.i., m [ o.X.O.2X;X1X#X@X1X1X@X@X#X3X1X@X1X@X@X1X1X@XyXjXpXjX_ = Z D ",
"#.2X1X1X@X1X@X2X1X1X,X@X1X@X@X,XOX6XoX@X1X=.Q 8 1 s g , + 4 5 . L 2X,X5X2X@X@X2X2X1X#XOX@X1X4X#X1X@X1X1X@X2X1XOXyXjXpXjX` = A Z ",
"$.2X@X1X1X2X@X2X2X@X1X@X@X1X1X@X+X2X:X4X;.>.@.m y g.K.s.i % X . J ;.XX1X#XOX2XOX,X@X1X1X@X2X2X#X1X@X1X@X@X1X1XOXyXjXpXjX_ = A Z ",
"#.2X@X1X1X1X@X2X@X1X1X1X2X@X1X,X1XXX5X+XW k z 5 e h.Z.m.g.a % * o ; =.2X1X1X1X,X,X3X1X1XOXOX<X@X1X@X1X1X@X1X2X@XyXfXpXjX_ S D Z ",
"#.2X@X1X,X2X@X2X1X@X2X1X1X1X2X@X>X:X-.^ l.u < < e M.G.D.Z.7.% > + & m @.1X:X:X2X,X2X@X1X1X@X2X@X1X@X1X1X@X1X1XOXyXfXpXlX` = D Z ",
"#.5X@X1X1X1X@X1X1X@X@X@X1X@X@X1XOX#X+.k u.a.0 < r g.L.S.S.3.r r 5 y 7 ! :.1X5XOX,X@X1X@X1X@X@X1X@X@X1X@X@X2X1X@XyXfXpXlX` - D Z ",
"#.6X,X1X1X1X1X2X@X,X1X1X1X2X@X1X%X2XO.9 7.c.t : a f.L.J.V.M.p.s.a.j.d.l.B =.,X#X1X@X1X@X,X1X2X@X1X@X1X1X@X1X1X@XyXfXpXjX_ = A Z ",
"#.2X@X1X@X1X@X2X2X@X1X@X1X@X@X1X#X5X*.W l.1.r : q 6.f.F.D.J.P.Z.N.I.D.s 6 &.,X@X1X1X@X2X1X@X@X1X,X@X,X@X@X2X1XOXyXfXpXjX_ S A Z ",
"#.2X@X1X2X2X@X2X1X1X1X@X1X1X1X1X@X1X@X+XE 5 4 4 > y 5.f.g.h.n.j.j.j.a.g n +X1X1X,X@X1X@X1X1X1X1X1X@X2X@X@X2X@X@XyXfXpXjX_ = D Z ",
"#.2X@X1X@X1X1X1X@X@X@X2X@X1X@X1X,X1X@X4X-.R O # & > q a a u u t a a i H @.OX1X1X1X1X@X2X@X1X@X1X@X@X@X1X@X1X2XOXyXjXpXcX_ = A Z ",
"#.2X@X1X@X2X@X2X@X2X@X1X1X1X1X@X3X1X@X1X6X$.O . o @ % # + @ @ + % @ + R 7X2X2XOX@X1X@X@X2X,X1X@X2X@X1X1X@X2X@X@XyXfXpXjX) S A Z ",
"$.2X@X@X,X1X@X2X1X1X1X@X2X@X1X@X@X@X<X;.#X{ o $ X X + X X X . X X X . L #X@X@X,X2X@X1X1X@X@X@X2X@X@X@X,X@X@X2X@XyXfXpXjX_ S D Z ",
"$.2X1X1X1X2X@X2X@X@X@X@X1X@X2X@X1X2X3X@XW f 7.y.y.d.u.s.u.r 2 u.d.4.> R 5X@X,X3X1X1X@X2X1X1X1X1X1X1X1X@X1X2X@X@XyXdXpXlX` = D Z ",
"#.6X@X1X1X1X@X2X1X,X2X@X1X,X1X@X2XOX*.^ N 7.M.A.J.K.P.h.8.e e b.P.h.7.N ^ &X#X+X1X1X1X1X1X1X2X1X@X2X1X1X1X1X1X@XuXfXpXlX_ = D Z ",
"$.2X1X1X@X2X@X2X@X1X@X1X1X@X1X1X1X2XO.z 3.S.K.V.F.M.m.f.e 1 ,.g.Z.G.v.5.z [ ;X4X1X2X1X1X1XOX2X1X1X1X1X@X1X1X@XOXyXfXpXlX_ = A Z ",
"#.2XOX1X1X1X@X2X1X1X1X1X1X@X2X@X,X1XO.7 9.D.m.F.D.J.P.s.q 5.h.h.m.m.G.M.8.C [ ;.1X2X1X1X1XOX1X1X@X@X,X@X@X2X@X@XyXfXpXjX_ S A Z ",
"#.2X@X1X1X1X@X2X1X1X1X1X1X1X1X#X,X:Xo.7 9.J.m.D.B.Z.m.a.t <.q.J.J.J.m.m.n.2.V / $X2X1X1X5X1X1X1X2X@X@X@X1X2X1X@XyXfXaXjX_ = D Z ",
"#.5X@X@X1X1X@X,X1X1X1X1X@X1X1X,X#X5X%.x 5.v.J.J.J.Z.m.f.r > g d.n.J.B.H.C.B.4.x *.1X@X1X1XOX1X1X@X2X1X1X1X1X1X@XyXfXpXjX_ = A Z ",
"#.2X,X1X1X1X@X2X2X1X1X1X1X2X1X1X@X#XOXX.V 5.j.P.J.G.G.f.i b ! g w.C.J.H.D.J.2.8 $X@X2X@X1X1X@X2X1X1X1X@X1X2X1X,XyXfXpXjX_ S A Z ",
"#.6X1X1X1X2X1X2X2X1X2X1X1X1X1X2X2XOX:X3Xo.M 7.u.8.3.9.t.N [ &.P c 8.q.9.9.q.M W -.<X2X@X2X@X@X2X1X2X2X1X2X1X1X@XyXfXpXjX_ S D Z ",
"#.6X1X,X2XXXXX1XOXXXOXXXOX@X@XXX;X2XoXXX1Xo.n 7 8 d 5 n @.3XOX$XB 6 5 i 3 6 W ;.OXXX1XXX1XXXOXXXXXXXOXXXXXOXOXOXyXlXjXxX` = - L ",
"| $X*.*.2XqXqX9X9X9X9X0X9X9X9X9X9XrXqXqX9X7X).(.+._.(.:.8X6X9XqX).+.+._.+.%.7XrXeX9X9X9X9X9X0XqXqX9XqXqX9X9X9X9XtX0X0XtXT Z D D ",
"U | ) ) tXjXjXaXdXfXdXdXdXdXhXhXdXfXsXaXhXdXhXjXhXzXjXjXfXaXpXfXjXfXzXzXzXkXkXkXdXdXdXdXhXdXdXfXdXdXjXjXfXdXfXfX*.] ) ` K S Z S ",
"U ` ` ' wXjXaXaXaXdXpXsXaXaXaXaXiXdXaXsXdXdXdXiXsXaXaXaXsXaXpXaXaXpXiXdXdXdXaXpXaXaXaXaXaXaXdXpXsXpXpXsXpXpXaXfX$X' ` ` I Z Z Z ",
"]  .` ) tXjXjXjXjXfXjXfXjXjXjXjXjXkXfXfXfXgXlXfXjXsXkXzXfXjXlXgXgXlXdXjXjXhXdXgXfXfXjXfXjXfXjXfXjXhXjXjXfXfXfXxX&.) ` ` K Z Z Z ",
"I U U U +XeX0X0X0X0X0X0X9X0X0X9XwX0X0X0X8X8XwXeX0X0X9X9X0XeX0X9X0XwX0X0X0XtX9X0X0X0XeX0X0X0X0X0XeX0XeXeX0X0XeXeX..T Y T K Z - Z ",
"  .                                                                                                                           . ",
"                                  .       .       .             .     .                                                         "
};
