/* XPM */
static char *enemy_left_01739715666[] = {
/* columns rows colors chars-per-pixel */
"64 64 223 2 ",
"   c #010102",
".  c #0B0302",
"X  c #080809",
"o  c #190401",
"O  c #161A18",
"+  c #290905",
"@  c #3A0504",
"#  c #261818",
"$  c #381917",
"%  c #3C1108",
"&  c #15211F",
"*  c #221B22",
"=  c #362C34",
"-  c #2D3434",
";  c #35353F",
":  c #37383D",
">  c #26272A",
",  c #4B0403",
"<  c #530301",
"1  c #5A0302",
"2  c #560903",
"3  c #56080B",
"4  c #590E11",
"5  c #461618",
"6  c #561E1D",
"7  c #571817",
"8  c #57120D",
"9  c #620303",
"0  c #6C0505",
"q  c #6C0C0C",
"w  c #660909",
"e  c #730B0A",
"r  c #770909",
"t  c #68120F",
"y  c #7C110E",
"u  c #670C13",
"i  c #7B0D12",
"p  c #770B13",
"a  c #66161B",
"s  c #7D1212",
"d  c #76181B",
"f  c #552018",
"g  c #581C23",
"h  c #6D1C23",
"j  c #761623",
"k  c #592826",
"l  c #5A352F",
"z  c #592C33",
"x  c #5A3739",
"c  c #442C28",
"v  c #652829",
"b  c #622E33",
"n  c #762A30",
"m  c #623232",
"M  c #67383C",
"N  c #723C3F",
"B  c #712A29",
"V  c #66443C",
"C  c #3D3D45",
"Z  c #3E3E48",
"A  c #363C42",
"S  c #433D44",
"D  c #593E45",
"F  c #673E44",
"G  c #783F44",
"H  c #3A4040",
"J  c #42434A",
"K  c #5C454A",
"L  c #4A4B57",
"P  c #4E515C",
"I  c #52535D",
"U  c #55585F",
"Y  c #6B454C",
"T  c #654648",
"R  c #695558",
"E  c #725658",
"W  c #6C4B4B",
"Q  c #74605F",
"!  c #565965",
"~  c #5C5D65",
"^  c #5B5D69",
"/  c #525561",
"(  c #4F5160",
")  c #6A5D65",
"_  c #5C6169",
"`  c #5F6571",
"'  c #5F7173",
"]  c #61636F",
"[  c #696467",
"{  c #73666C",
"}  c #74696B",
"|  c #796A6D",
" . c #636A74",
".. c #696A75",
"X. c #736E73",
"o. c #786C70",
"O. c #6D737C",
"+. c #6E797D",
"@. c #6C7575",
"#. c #747375",
"$. c #73757B",
"%. c #79797E",
"&. c #76787C",
"*. c #6F716D",
"=. c #88090E",
"-. c #830E11",
";. c #890C13",
":. c #840B19",
">. c #85131C",
",. c #891518",
"<. c #92141A",
"1. c #99121A",
"2. c #8D0E13",
"3. c #A4141C",
"4. c #A8181C",
"5. c #95241E",
"6. c #8C0D23",
"7. c #8B1523",
"8. c #851C24",
"9. c #851624",
"0. c #951A24",
"q. c #A31622",
"w. c #AD1523",
"e. c #A31923",
"r. c #AC1923",
"t. c #AD1D29",
"y. c #B31624",
"u. c #B31A25",
"i. c #B51C2B",
"p. c #BC1C2B",
"a. c #BA1827",
"s. c #B81E33",
"d. c #9A2835",
"f. c #AD2128",
"g. c #B5222B",
"h. c #BE212C",
"j. c #BD2230",
"k. c #C41D2D",
"l. c #CB1D2C",
"z. c #C41A26",
"x. c #D21B2C",
"c. c #D31B28",
"v. c #C41D31",
"b. c #CC1E31",
"n. c #D31D32",
"m. c #DA1C32",
"M. c #C3232D",
"N. c #CC212E",
"B. c #D2212D",
"V. c #C62231",
"C. c #CC2232",
"Z. c #CA2739",
"A. c #D22233",
"S. c #D52536",
"D. c #95601C",
"F. c #9B452E",
"G. c #956223",
"H. c #9F2D49",
"J. c #953448",
"K. c #B8375A",
"L. c #A23052",
"P. c #B23765",
"I. c #CE2741",
"U. c #D22F4C",
"Y. c #E53F5E",
"T. c #D93B61",
"R. c #CD3D70",
"E. c #B54B5F",
"W. c #80777A",
"Q. c #CA5C62",
"!. c #CB4870",
"~. c #E24665",
"^. c #E54B7A",
"/. c #F14C6E",
"(. c #C8704C",
"). c #6E817F",
"_. c #C6AA2D",
"`. c #E8855E",
"'. c #6E7C84",
"]. c #6D7B86",
"[. c #737E86",
"{. c #7A7D85",
"}. c #757F88",
"|. c #7A7D8B",
" X c #747780",
".X c #797E91",
"XX c #807F91",
"oX c #E24C84",
"OX c #ED5483",
"+X c #6E8284",
"@X c #6E838B",
"#X c #768186",
"$X c #7A8186",
"%X c #768189",
"&X c #79828B",
"*X c #79888E",
"=X c #748492",
"-X c #788892",
";X c #7F919B",
":X c #838A8C",
">X c #8A8B8E",
",X c #87858C",
"<X c #87918E",
"1X c #858D94",
"2X c #8B8D92",
"3X c #828895",
"4X c #8C9194",
"5X c #899097",
"6X c #91959B",
"7X c #979CA2",
"8X c #989DA1",
"9X c #9DA5A6",
"0X c #A2A6A7",
"qX c #A5A6AA",
"wX c #A6AAAD",
"eX c #A8ACAF",
"rX c #A9A5AB",
"tX c #A6ADB1",
"yX c #AAAEB2",
"uX c #ABAEBA",
"iX c #A5B1B3",
"pX c #ACB0B3",
"aX c #B1B3B9",
/* pixels */
"                                                                                                                                ",
"                                                                                                                                ",
"( ^ ! _ O.[.}.}.&X}.#X%X%X%X%X%X{.%X#X%X%X%X%X%X%X%X%X%X%X#X%X%X%X%X%X%X%X%X%X%X%X#X#X%X%X%X&X%X%X%X%X%X}.#X#X#X .^ ] ^ L Z C C ",
"P ^ ! ! ].&X&X&X%X=X%X&X%X%X%X&X*X%X%X%X&X%X%X%X*X%X%X%X&X%X%X&X&X%X%X%X*X%X%X%X%X&X%X%X%X%X%X%X*X%X%X%X&X&X&X&X] ! ^ ^ L A C C ",
"P ` ! ^  X}.}.}.}.}.}.%X%X#X}.%X}.%X{.}.}.}.}.}.%X%X%X%X%X%X%X}.}.}.}.}.%X#X}.}.%X}.{.}.}.}.{.}.%X%X}.}.}.%X%X%X ./ I ! H A Z C ",
"P  .] ]  X}.%X%X#X#X#X{.#X%X}.#X#X{.%X#X#X}.#X%X#X%X#X#X%X$X$X$X}.$X#X#X#X%X#X#X#X{.%X#X#X#X%X#X#X#X#X#X#X%X#X%XO.#.#.{.P A S C ",
"..3X%X}.*X&X%X}.}.%X%X%X}.#X%X%X%X%X%X}.%X}.}.%X%X%X%X%X}.%X}.}.%X}.%X}.%X%X%X}.%X%X%X}.%X%X%X}.%X%X%X%X%X%X{.}.8XuXeXaX] ; Z C ",
"` =X%X}.&X].%X%X}.%X}.%X%X%X%X}.%X}.%X%X%X%X%X%X%X%X%X%X%X%X%X%X%X%X%X}.%X}.%X%X}.%X%X%X%X}.%X%X[.%X%X%X%X%X}.}.6XyX0XpXU ; S C ",
"..&X}.%X}.&X}.}.%X%X%X}.%X$X|.%X#X#X&X=X}.{.&X|..X$X[.[.[.-X|.#X%X%X#X%X%X}.}.%X%X%X%X}.%X%X{.%X%X%X}.%X{.%X%X}.8XyX0XyX~ ; Z C ",
" .&X}.%X}.&X%X&X}.%X%X%X%X}.%X%X%X|.%X#X}.[.%X'.$.O.$X[.=X}.+.*X%X%X%X%X#X}.}.%X%X%X%X%X%X}.%X%X%X{.%X%X%X%X%X}.8XyX0XpX~ A S C ",
" .&X}.}.%X%X}.&X%X$X}.}.%X}.%X%X&X}.&.+X#X-X%XX.l R {.[.}.#X#X{.%X%X%X%X%X}.%X[.%X%X%X{.%X%X}.%X}.}.}.%X}.%X%X}.8XeX0XpX~ ; Z Z ",
" .&X}.%X}.&X}.&X%X}.%X%X%X%X%X}.@X$X$X}.[.}.) G ,.n R {.{.}.&X}.}.}.%X%X}.%X%X%X}.%X%X%X}.%X%X%X%X}.%X%X%X%X%X}.8XyX0XyX~ A Z C ",
" .3X}.}.%X%X%X&X&X|.%X%X%X%X}.%X+X$X#X.X=X=XW t a.0.h E [..X}.}.%X%X}.}.}.&X%X%X%X%X%X%X}.%X%X%X%X}.%X}.}.%X%X}.7XeX0XpX~ ; Z C ",
" .*X}.%X%X%X%X$X}.$X}.%X}.%X%X%X#X#X#X|.[.+.V w u.M.e.a Q &X].#X$X%X&X}.}.%X%X@X}.%X%X%X%X%X%X%X#X}.%X%X%X%X%X}.7XyX0XyX~ ; Z C ",
" .&X}.#X%X%X%X&X%X%X%X}.%X}.}.%X}.%X$X| F M 6 w u.C.i.9 6 m D { }.&X&X}.%X%X%X%X%X%X%X%X}.}.%X{.%X%X}.%X}.%X|.[.7XeX0XyX~ ; Z C ",
" .&X}.%X%X%X}.%X}.%X%X}.%X$X}.%X|.[.*.T w q 1 q a.n.i.y 1 9 u Y $. X&X&X}.}.%X%X%X}.%X{.%X%X%X%X%X{.}.%X}.%X|.[.7XeX0XyX~ A Z C ",
" .&X}.%X%X%X%X%X+X&X|.}.}.}.@X}.[.&.m :.h.h.<.w u.C.c.M.s e d.i x #.+.}.&X}.[.@X].}..X|.'.#X%X[.%X}.%X}.%X%X%X}.8XeX0XpX~ ; Z C ",
" .:X}.%X%X%X%X%X#X}.}.&X}.&X&X$X| z 8.i.C.C.2.w u.C.A.b.u.<.i 0 5 b M R [.%X&X&X&X}.}.&X%X#X%X&X%X}.%X%X{.%X%X}.8XeX0XpX~ A Z C ",
" .*X}.|.%X%X%X$X#X}.&X#X[.&X%X{ N j i.C.B.x.4.s 3.e.t.k.m.i.i -.i =.i n E ~ *.].#X$X}.{.%X#X%X@X%X}.}.%X}.%X#X}.7XeX0XyX~ ; Z C ",
" .&X}.}.}.&X|.&X%X%X%X+X&.%X XD p p.C.N.x.l.v.u.q 1 y t.n.A.p.v.a.k.j.<.w 8 G $X#X%X%X#X%X%X%X%X%X}.}.#X}.%X%X}.7XeX0XpX~ A Z S ",
" .&X}.%X%X&X}.%X#X}.&X#X}.&X%.l r l.C.V.p.2.4.V.g.4.r.C.M.N.C.h.C.l.C.h.4.q.8.x &.[.@X@X%X{.{.%X%X{.}.%X}.%X%X}.7XrX0XpX~ ; Z C ",
" .&X{.%X%X%X%X%X#X[.%X%X}.}.%.z y A.4.u.i.w s C.C.V.n.m.n.x.S.l.k.l.l.m.N.B.u.>.T X.%X-X}.}.}.%X%X}.%X%X{.%X%X}.7XyX0XyX~ ; Z C ",
" .*X}.%X%X&X%X%X%X#X%X{.}.}.&.m r a.-.7.t.q ,.x.x.M.i.k.V.g.i.v.C.C.A.n.l.l.l.g.s Y X.#X}.|.%X#X%X}.%X%X%X%X%X}.7XyX0XyX~ ; Z C ",
"..&X}.%X}.%X}.&X%X%X%X[..X=X{.l < p W V q 9 -.V.A.1.w 0 r w p w.x.C.V.v.Z.l.A.b.4.d F @.&X}.#X%X%X}.%X}.%X%X%X}.7XyX0XyX~ A Z C ",
" .&X|.%X%X%X%X&X}.&X[.*X}.%X%.z 4 K @.{ x 8 ;.g.4.7.L.d.d.J.J.s.b.C.l.C.l.b.C.l.m.=.6 X.*X}.#X%X%X}.%X}.}.%X%X}.7XeX0XpX~ ; Z C ",
" .*X}.%X%X%X%X$X|.&X[.|.[.%X%.T x X.}.,X| v ;.i.9.H.oXoXoX!.R.T.I.b.l.C.b.b.l.N.C.-.k #.%X[.#X&X%X{.%X%X}.%X%X}.7XeX0XpX~ A Z C ",
" .&X}.%X%X%X%X%X%X[.#X%X}.&X{.} #.-X}.=X#.g :.Z.!.H.h 7 j j 8.P.Y.Z.b.N.N.n.b.C.V.-.k X.%X%X#X}.%X}.%X%X}.%X%X}.7XeX0XyX~ ; Z C ",
" .&X}.%X}.&X}.%X%X}.%X%X%X=X&X#X#X&X].-X@.k 0.~.`.F.< , , , 3 E./.I.v.N.l.A.b.b.b.-.6 X.&X%X#X}.%X}.}.%X#X%X%X}.7XeX0XyX~ A Z S ",
" .*X}.%X%X&X}.&X%X%X%X#X%X%X'.%X[.|.=X+.E h 8.Q._.D.2 1 < 3 j U.Y.Z.C.l.l.C.b.b.b.;.k %.*X}.#X%X%X%X%X%X}.%X%X}.7XeX0XpX~ ; Z C ",
"..&X}.}.}.%X&X|.%X%X#X#X@X&X%X@X%X}.|.R 6 < 1 B _.G.< < 2 j !.T.I.v.C.N.l.b.C.C.S.;.6 o.|.%X%X%X}.{.%X%X}.%X%X}.7XyX0XyX~ ; Z C ",
" .&X}.}.%X%X%X&X%X%X}.+X%X&X|.%X%X+X%XR , < < t (.Q.K.P.P.K.T.Z.b.b.C.N.l.C.C.l.V.-.k #.&X&X%X}.%X}.}.%X}.&X|.[.7XeX0XyX~ ; Z C ",
" .*X}.&X%X%X%X$X=X|.[.#X%X}.|.%X%X%X#XR 3 < < 9.R.OX^.^.^.~.Z.c.B.N.l.x.C.C.N.z.u.>.x  X}.].$X&X%X}.}.%X}.|.}.[.7XeX0XyX~ A Z C ",
"..&X}.}.%X%X%X%X}.%X%X%X%X}.}.&X}.%X#XR 5 1 2.z.Z.Z.Z.Z.Z.S.l.C.V.l.A.M.l.n.b.w.a Y %.@X%X&X%X%X%X%X%X%X}.%X%X}.8XeX0XpX~ ; Z A ",
" .&X}.%X}.&X}.%X%X%X}.}.%X%X%X|.%X%X#X#.Y 4 1 >.z.C.m.m.v.l.A.l.b.n.M.M.N.b.q.a W } {.%X}.}.%X%X%X#X%X%X#X%X%X}.7XeX0XpX) A Z C ",
" .&X}.%X%X%X%X&X%X%X%X%X%X}.}.$X}.%X%X%X#.T l v 5.4.3.3.l.l.C.l.N.V.V.S.n.q.j V @.#X=X}.}.}.|.%X%X}.#X%X}.%X%X}.7XeX0XpX~ A Z C ",
" .*X}.%X}.&X|.&X%X}.%X}.%X%X%X%X%X%X&X%X[. X#.[ 6 u u 7 0.i.h.m.z.p.s.a.t.e V +.#X|.|.[.}.%X%X%X%X}.%X}.%X%X%X}.7XeX0XyX~ A Z C ",
" .3X}.%X%X%X%X$X%X}.%X%X$X}.%X%X%X}.[.&X}.}.3X}.) ) E R c a v.m.y.;.p y e < K |.%X&X|.}.@X#X}.}.%X[.%X}.}.%X%X}.7XrX0XpX~ ; C C ",
" .&X}.#X%X%X%X%X}.$X%X}.}.%X%X}.#X*X}.}.=X}.[.%X=X@X&XXX- o d 6.,.s p q < v ) |.%X*X&X%X#X}.}.XX%X}.%X%X#X%X%X}.7XyX0XyX~ ; S C ",
" .&X}.%X%X%X}.&X$X}.%X%X}.%X}.%X}.&X|.[.%X&X[.%X|.}.].O.=   o , ,.h.B.<.8 E o.@.&.%X%X%X#X#X{.}.%X}.%X}.}.%X%X{.7XyX0XyX! A Z C ",
" .&X}.}.%X%X%X&X|.%X%X}.%X%X%X%X*X X&X=X[.%X#X%X{.%X' > # O , 6.u.c.S.<.2 g g M @.#X%X%X%X%X#X@X%X[.%X%X}.%X%X}.7XyXrXyX! A Z C ",
" .&X}.%X%X%X%X$X%X%X%X$X|.%X%X}.}.%X}.%X%X#X%X&X@X{ x + + % 1 q.N.C.V.1.1 < 0 ,.V [ =X=X{.#X#X}.%X}.%X%X}.%X%X}.7XeX0XpX~ ; Z A ",
"..&X}.%X%X%X}.&X}.%X}.%X%X%X%X%X}.%X}.%X%X%X%X[.X.N u 1 t w 0 r.C.x.S.1.< 2 >.i.u Y +X%X}.+X#X&X%X%X{.%X}.%X%X}.7XeX0XyX) A Z C ",
" .&X%X%X}.%X%X&X}.%X}.&X%X%X}.}.&X}.}.%X%X%X}.O.v ,.p.u.i.s.i.p.A.m.V.<.< < >.p.w W +.*X#X#X@X%X%X}.%X}.}.%X%X}.7XeX0XyX~ ; Z Z ",
" .*X%X%X%X&X}.%X%X%X}.}.}.%X%X%X&X}.}.%X}.%X}...7 1.C.B.C.b.A.A.A.l.e.t , , 4 9.F } #X%X|.{.%X%X#X}.%X%X%X%X%X[.7XeX0XyX~ A Z C ",
" .&X}.}.%X%X%X$X}.%X%X$X%X%X%X%X%X%X%X%X{.}.|.$.l d 3.r.g.y.w.r.f.w.r , 5 o + z #.[.&X}.|.}.#X%X}.}.%X%X}.%X%X}.7XyX0XyX~ ; Z C ",
" .&X}.%X}.&X|.&X%X%X%X}.}.%X}.}.%X%X%X%X}.}.|.[.#.N 4 1 0 q 9 9 2 w < 5 # X - &.}.}.}.}.&X@X%X%X%X}.%X}.}.%X%X}.7XyX0XyX~ ; S C ",
" .&X}.%X%X%X%X&X%X}.}.%X%X%X%X%X%X%X%X%X%X}.&X}.[.S o $ 5 $ $ $ $ $ $ $ > X A #X.X}.|.#X%X%X%X%X%X%X%X}.}.&X}.[.7XrX0XyX~ ; Z Z ",
" .3X}.%X}.&X}.%X}.$X%X%X%X}.}.}.}.*X%X%X%X}.%X&X.XA . O O & O # * O O O O   = [ [.}.#X[.}.|.}.%X}.{.%X%X}.}.&X}.7XyX0XyX~ A Z C ",
" .&X%X%X%X%X%X&X%X}.}.%X%X$X}.%X&X}.%X+X*X'.&X[.%.: . . . X X .   o X X X . + v { {.+X%X@X.X|.+X%X%X%X%X%X%X%X}.8XeX0XpX~ ; Z C ",
" .&X#X%X%X%X}.%X%X%X%X%X%X}.}.%X%X#X{.%X}.[.|.%.T j >.8.6.d @ + 3 9.7.>.2.>.<.0.b ) }.*X#X}.|.#X%X%X}.%X%X%X{.}.8XeX0XpX~ A S C ",
" .&X%X%X%X%X|.$X}.}.%X}.}.%X%X%X[.#X%X|.}.%X#.Y d w.C.Z.l.p.-.w >.p.A.B.x.S.S.i.u T {.|.#X%X}.@X%X}.%X{.%X%X}.}.7XeX0XpX~ ; Z C ",
" .&X}.%X}.&X&X%X%X%X%X%X$X%X%X}.[.*X|.}.%XO.W a r.V.N.N.A.n.r.e ;.k.N.N.c.l.b.a.0 Y &X}.#X+X}.}.%X%X%X%X%X%X}.}.7XeX0XyX~ A Z Z ",
" .&X}.%X%X%X}.&X}.%X%X%X|.%X%X}.=X$X|.[.$.T 8.4.V.C.l.l.A.i.:.1 -.M.V.M.C.C.C.g.w T %X%X#X+X#X&X%X}.%X}.%X%X%X}.7XrX0XpX~ ; Z C ",
"..&X}.%X%X%X}.&X%X%X}.}.%X%X%X%X%X X|.&X#.7 =.S.C.c.B.C.u.d l 3 r l.C.l.S.A.i.<.m [ %X%X+X%X}.#X%X%X}.%X%X%X%X}.7XyX0XyX~ ; Z C ",
" .*X%X%X%X&X}.%X%X$X%X&X%X%X%X&X%X}.%X*X#.b >.u.p.l.u.g.9.m E M d a.k.k.k.a.0.B | [.%X%X#X&X}.}.%X$X&X%X%X&X%X}.7XyX0XyX~ A Z C ",
" .&X%X%X}.$X%X&X&X&X%X&X%X&X%X%X%X#X#X%X[.} G u q w e a G } [.+.T d e e e u M *. X*X}.&X%X}.|.#X%X%X&X}.%X&X&X}.7XyX0XyX~ ; Z C ",
" .%X#X}.%X[.'.}.}.].[.[.[.}.].}.}.}.].].%X{.[ D x M D K ) {.&X%X{ K x M T T ) {.[.[.'.}.].%X[.[.'.}.]. X'.}.'.[.7XyXyXaX~ ; C S ",
"_ [.$.O.&X3X3X5X1X1X1X1X1X1X1X1X,X1X1X;X3X2X2X>X<X:X,X|.:X1X;X1X1X3X>X>X>X*X*X;X1X1X1X1X1X1X1X1X1X1X1X3X1X1X1X2X6X2X2X6X/ C H C ",
"P ^ ! ! 6XpXrXwXeXeXwXwXqXeXeXwXyXeXtXtXwX9XiXpXiXiXtXtXtXeXqXeXeXeXeXeXeXeXeXrXeXeXwXeXeXeXeXwXeXwXeXyXeXwXeXeXO.P ! ^ J A C C ",
"P ^ ^ I 6XyXwXwXwX0XrXwXqXwXqXqXwX0X0XrXwX9X9X9XqX0XrXrXrX0X0XrX0X0X0X0X9X0XrX0X0X0XwXqXwX0X0XwXeX0XqXwX0X0XrXeX[./ ^ ^ L Z C C ",
"( ` ^ ! 6XyXyXyXeXeXyXyXyXtXyXyXeXtXyXyXyXyXpXpXyXyXyXyXpXyXtXiXpXyXyXuXuXuXyXyXyXyXpXeXeXeXyXyXyXtXyXyXeXeXeXpX$.U ! ] J C C Z ",
"L P I P {.4X2X2X4X4X2X>X2X2X2X2X2X4X4X2X>X2X2X2X:X<X<X2X2X2X2X4X4X2X2X>X>X>X2X2X2X>X>X4X4X4X2X>X2X2X2X4X4X>X4X6X] U I U J C C C ",
"  X                                       X                               .                                                     ",
"                                                                .                                                               "
};
