/* XPM */
static char *enemy_right_11739715888[] = {
/* columns rows colors chars-per-pixel */
"64 64 221 2 ",
"   c #010102",
".  c #0A0C0B",
"X  c #060708",
"o  c #180401",
"O  c #06110C",
"+  c #14120C",
"@  c #080D12",
"#  c #131417",
"$  c #220301",
"%  c #2B0304",
"&  c #37040B",
"*  c #2A1A1A",
"=  c #271A19",
"-  c #351616",
";  c #3E0C17",
":  c #1B221E",
">  c #28231C",
",  c #291D21",
"<  c #232524",
"1  c #2C2323",
"2  c #222924",
"3  c #212A2A",
"4  c #35353F",
"5  c #3A3539",
"6  c #35282C",
"7  c #4E0202",
"8  c #4D0902",
"9  c #440608",
"0  c #540201",
"q  c #550A02",
"w  c #580707",
"e  c #5F100C",
"r  c #580B12",
"t  c #571414",
"y  c #440F14",
"u  c #650403",
"i  c #6C0403",
"p  c #630B0A",
"a  c #670A09",
"s  c #760A0A",
"d  c #7C0B0B",
"f  c #770508",
"g  c #7A1009",
"h  c #690C15",
"j  c #790D13",
"k  c #6D1011",
"l  c #661518",
"z  c #78181C",
"x  c #651107",
"c  c #5A1C21",
"v  c #6A1E24",
"b  c #791924",
"n  c #452728",
"m  c #5A2926",
"M  c #59322D",
"N  c #592C33",
"B  c #5B3739",
"V  c #5C3D3E",
"C  c #4A3632",
"Z  c #7C252B",
"A  c #65383B",
"S  c #702C30",
"D  c #60413D",
"F  c #3D3D45",
"G  c #3E3E48",
"H  c #373A43",
"J  c #403F45",
"K  c #593D45",
"L  c #643C43",
"P  c #3C4549",
"I  c #42444B",
"U  c #404146",
"Y  c #464A53",
"T  c #4B4D58",
"R  c #4E515B",
"E  c #52535D",
"W  c #5A5459",
"Q  c #5C4D50",
"!  c #644A4E",
"~  c #684747",
"^  c #72474C",
"/  c #67524E",
"(  c #674E55",
")  c #645354",
"_  c #6C5A5E",
"`  c #695459",
"'  c #725758",
"]  c #565A65",
"[  c #5C5D65",
"{  c #5B5D69",
"}  c #525561",
"|  c #4F5160",
" . c #6E5D62",
".. c #5B616A",
"X. c #5F6571",
"o. c #61636F",
"O. c #666167",
"+. c #74656A",
"@. c #636A74",
"#. c #676974",
"$. c #776E74",
"%. c #6D7B7C",
"&. c #6A7278",
"*. c #72757A",
"=. c #7A7B7D",
"-. c #75787A",
";. c #820A0C",
":. c #810509",
">. c #860C16",
",. c #9C0F18",
"<. c #8A1117",
"1. c #9B141B",
"2. c #95161B",
"3. c #A5161D",
"4. c #B8161E",
"5. c #A70F1B",
"6. c #891927",
"7. c #9C1724",
"8. c #961E32",
"9. c #AA1524",
"0. c #A51A25",
"q. c #AB1A26",
"w. c #AB1C2B",
"e. c #A31827",
"r. c #B31625",
"t. c #B41B25",
"y. c #B61D2B",
"u. c #BB1C2B",
"i. c #B01429",
"p. c #BB1B32",
"a. c #AA102B",
"s. c #8E2332",
"d. c #BC202D",
"f. c #AB2232",
"g. c #B92237",
"h. c #C31D2C",
"j. c #CC1D2B",
"k. c #C81C26",
"l. c #D21B2D",
"z. c #CC1D32",
"x. c #C41C31",
"c. c #D31D32",
"v. c #D81B34",
"b. c #C4222E",
"n. c #CB212D",
"m. c #CA2327",
"M. c #D2222D",
"N. c #C32332",
"B. c #CC2232",
"V. c #CC2438",
"C. c #D12233",
"Z. c #D32439",
"A. c #D92434",
"S. c #8F7100",
"D. c #9F6034",
"F. c #A67320",
"G. c #9B244C",
"H. c #AF3559",
"J. c #B73862",
"K. c #CC3A59",
"L. c #D73958",
"P. c #CD2B4D",
"I. c #D63E64",
"U. c #C43E61",
"Y. c #E73C70",
"T. c #B35355",
"R. c #BF4865",
"E. c #B85067",
"W. c #84797D",
"Q. c #DE425A",
"!. c #D04974",
"~. c #E34A6F",
"^. c #DB607F",
"/. c #6A827D",
"(. c #C29538",
"). c #CDA72A",
"_. c #E98F6A",
"`. c #6D7C83",
"'. c #6E7580",
"]. c #737D86",
"[. c #7A7D85",
"{. c #757F88",
"}. c #7B7E8A",
"|. c #767787",
" X c #777D90",
".X c #837C85",
"XX c #DA4F8A",
"oX c #6D8285",
"OX c #6E828A",
"+X c #768186",
"@X c #798286",
"#X c #768089",
"$X c #7A828B",
"%X c #76898E",
"&X c #79898A",
"*X c #758391",
"=X c #7B8391",
"-X c #7C8893",
";X c #7D959F",
":X c #838888",
">X c #858D94",
",X c #8B8E92",
"<X c #848894",
"1X c #918A94",
"2X c #8D9194",
"3X c #8A9098",
"4X c #92969C",
"5X c #979CA2",
"6X c #989DA1",
"7X c #9EA3A4",
"8X c #9EAAAB",
"9X c #A2A6A7",
"0X c #A6A7AB",
"qX c #A6AAAD",
"wX c #A8ACAF",
"eX c #AAA5A9",
"rX c #AAAEB2",
"tX c #A8AAB4",
"yX c #ACB0B3",
"uX c #A5B1B6",
"iX c #B1B3B9",
/* pixels */
"                                                                                                                                ",
"                          X           X           X                 X                         X                                 ",
"R { { { '.{.{.#X#X#X#X#X#X#X#X#X#X#X@X{.#X#X#X#X#X#X#X#X{.{.+X#X#X#X#X#X#X#X#X#X#X#X+X@X#X#X#X#X#X#X#X#X#X#X@X#X@.{ o.] Y F G G ",
"R { ] ] '.=X#X#X*X#X#X#X#X#X#X#X#X#X#X$X#X#X#X#X#X#X#X#X%X#X#X#X#X#X#X#X#X#X#X#X#X#X#X#X#X#X#X#X#X+X%X+X#X#X#X#X@.] { { Y F F F ",
"R X.] { '.{.{.{.{.{.{.{.#X#X#X{.{.{.{.{.{.{.{.{.#X#X{.{.{.+X#X{.{.#X{.{.#X+X+X+X{.{.{.{.{.].+X+X#X{.{.{.{.#X{.{.@.} E ] I H G F ",
"R @.o.o.|.#X#X+X{.@X{.@X+X+X+X+X{.@X@X{.@X#X{.@X+X+X{.+X{.@X[.@X+X[.+X+X@X#X#X#X{.@X@X{.#X+X#X+X+X#X@X#X#X@X@X@X*.*.*.[.T 4 P G ",
"@.-X$X{.$X#X#X+X+X{.#X#X#X{.#X{.@X{.#X{.{.{.@X{.#X#X#X#X{.{.#X{.#X#X{.#X#X{.#X{.#X{.#X#X#X#X#X+X{.{.#X#X#X#X{.{.6XrXqXiXO.4 J 5 ",
"X.=X{.{.*X+X#X#X#X#X{.#X#X#X#X#X{.#X#X#X#X#X{.#X#X#X#X+X#X#X#X#X#X#X#X#X#X#X#X#X#X#X{.#X{.#X#X#X{.#X#X#X#X#X{.{.4XrX9XyX] 5 I G ",
"@.$X{.{.{.$X}.$X#X{.#X#X#X#X#X{.#X#X{.#X#X{.#X#X#X+X{.{.{.{.#X+X+X[.=.].*X@X.X X$X].{.*X+X+X+XoX#X{.#X#X#X#X#X].6XrX9XyX[ 4 G F ",
"@.$X{.#X#X#X#X@X#X#X{.#X{.#X#X#X#X{.#X#X#X#X{.#X#X#X#X$X%X+XoX+X#X%X+X{.-.].`.+X#X+X+X#X+X+X+X[.#X{.{.#X#X#X#X{.5XrX9XyX[ H J F ",
"@.$X{.#X#X#X#X#X@X#X#X#X{.#X#X{.#X#X#X#X#X#X#X#X#X#X+XoX`.+X#X$X|.OX].! K =.%X+X+X+X+X%X+X+X{. X@X{.#X{.{.#X#X{.5XrX9XyX[ 4 G F ",
"@.-X{.#X{.$X{.$X{.{.{.#X#X#X#X#X#X{.#X}.{.#X{.#X#X#X#X#X#X{.{.{.-X].` Z b ^ *.}.oX{.{.{.#X+X#X#X{.{.#X#X#X#X#X{.5XqX9XrX[ H G F ",
"@.$X#X#X#X$X{.#X#X#X#X#X#X@X{.#X{.#X#X@X{.#X#X{.+X#X#X}.=X$X X#X`.' z 1.0.e ` *X%X*X X{.{.+XoXOX#X{.#X#X{.#X$X].5XrX9XrX[ 4 J F ",
"@.$X#X#X{.#X#X#X#X{.#X{.#X{.#X{.#X{.#X{.#X#X#X#X#X#X].].#X#X].+X) S 1.h.t.x ' *X`.#X*X{.}.{.{.#X#X{.{.#X{.#X#X{.5XrX9XrX[ 4 J F ",
"@.$X#X#X#X$X{.$X{.#X#X#X}.{.#X#X{.@X{.#X#X#X#X#X{.=X*X#X#X+.! A m 0 u.A.3.a m A ( $.[.+X#X}.[.#X#X{.#X#X{.$X#X].5XwX9XrX] H G F ",
"@.$X{.#X{.$X{.@X#X#X#X#X#X@X#X{.#X#X#X#X#X{.{.#X[.#XOXOX$.~ l u q <.p.c.q.u p a l ^ -.+X#X#X#X%X#X#X[.#X{.#X#X].5XwX7XtX .H G F ",
"@.$X{.#X#X#X#X#X#X{.#X{.@X}.#X#X X{.+XoXoX}..X].].{.[.-.A >.w.f g k.j.c.e.a 2.j.r.z ~ -.*X+X#X$X#X{.#X+X{.#X#X{.6XwX9XyX[ 4 G F ",
"&.$X{.#X#X#X#X@X{.@X#X#X{.$X{.#X}.{.+X#X#X{.#X%X=X` N m t w k w <.B.C.V.q.i 1.V.B.w.b L $.#X#X{.#X{.#X{.+X#X#X{.6XwX9XyX[ H G F ",
"@.$X#X#X{.$X{.$X#X{.#X#X#X#X#X#X@X+X+X}.{.=X-.Q ) S j d d d ;.d 1.h.3.7.2.<.t.j.M.h.0.b ~ &.#X#X#X{.#X#X{.#X+X{.5XqX9XyX[ 4 G F ",
"@.$X#X#X#X#X#X#X#X#X{.#X{.#X{.#XoX@X{.{.#X%.^ l p 7.u.h.b.b.b.N.B.N.:.i ;.y.h.N.m.n.B.0.l / @XOX#X{.#X{.#X#X#X{.5XrX9XrX[ H F J ",
"@.$X{.#X#X@X$X$X#X{.#X{.{.#X}.@XOX$X}.OX%.~ z 9.t.k.V.Z.c.c.j.h.u.B.t.0.t.V.,.<.l.B.j.t.a ! [.OX#X{.#X#X{.#X#X{.5XqX9XrX[ 4 F J ",
"@.$X{.#X{.#X{.{.#X#X#X#X#X#X#X{.#X=X$X*.~ z 5.C.B.j.j.z.x.V.C.c.B.v.v.Z.n.d.f g h.e.r.4.a ! #X#X+X{.{.#X[.#X#X{.5XrX9XrX[ 4 G F ",
"@.$X{.#X{.$X$X#X{.#X{.#X#X#X#X#X{.].$.^ z q.C.j.b.B.l.M.B.h.u.y.t.w.i.N.B.d.g j 0.v 6.3.e Q #X+X#X{.#X#X#X#X#X{.5XrX9XrX] H G F ",
"@.-X{.#X{.#X{.$X#X#X#X#X#X{.#X{.+X].! b 9.n.n.V.z.V.j.M.B.3.s p i x i 1.c.j.g 0 z / ~ u w ) }.@X{.{.#X#X#X#X#X{.5XqXeXrX[ H J F ",
"@.:X{.#X#X#X#X$X{.#X#X#X#X#X{.#X@X{.B s h.c.B.B.z.M.l.j.m.N.J.J.J.H.H.s.2.y.s t ( *.@.A r ! #X+X+X{.#X#X[.#X#X{.5XrX9XyX .4 H G ",
"@.$X{.#X{.$X{.$X#X{.#X{.#X{.#X#X@X{.B f h.V.b.z.V.h.n.C.P.U.J.E.U.!.E.G.a.q.g M &.<X$X+.A _ #X#X{.{.#X{.#X#X#X{.5XqX9XrX{ H G G ",
"@.$X{.#X#X#X}.@X{.#X#X#X$X{.#X#X@X{.B f h.C.b.B.j.z.B.V.Y.U.k q r x a H.^.V.;.N oX=X X#X$.[.[.].#X{.#X#X{.#X#X{.5XrX9XyX[ 4 G F ",
"@.$X{.#X{.$X#X#X#X#X#X{.{.{.@X{.@X+XB f h.z.n.j.B.B.h.V.~.J.u w 8 0 0 D._.~.b N /.=X|.OXOX&X{.#X#X{.#X#X#X#X#X{.5XqX9XrX[ 4 G F ",
"@.-X{.#X#X#X#X$X#X#X#X{.#X#X#X#X#X{.B f b.C.B.B.z.k.M.Z.L.K.s.r q 0 q S.).T.l t / *. X#X+X].+X@X#X{.#X+X{.#X#X{.6XwX9XyX[ 4 G G ",
"@.$X{.#X#X#X{.#X#X{.#X#X{.#X#X#X@X{.B f h.C.n.j.C.M.l.x.u.L.!.s.p k h F.(.x w 0 t  .*X$X#X+X].+X#X{.#X{.@X#X#X{.5XwX9XyX[ 4 G F ",
"@.$X#X#X#X@X$X#X#X{.#X{.#X{.@X{.@X{.B s h.V.n.B.j.z.j.C.B.B.P.Q.!.Y.XX^.E.p 7 8 t +.$X{.].#X}.#X#X{.#X#X{.#X#X{.5XqX9XyX[ 4 G F ",
"@.$X#X#X#X#X{.$X#X#X#X#X#X#X{.#X@X{.B f h.z.n.z.m.V.z.z.C.j.V.L.~.U.Q.Y.P.1.h 7 t  .$X#XOX*X}.{.#X{.{.#X{.#X#X{.6XwX9XyX[ 4 G F ",
"@.$X{.#X#X#X#X#X{.$X{.#X#X{.#X{.+X=.~ v q.j.j.B.n.n.j.l.l.V.b.N.g.C.l.j.B.q.f w N +.$X+X#X#X].+X+X#X#X#X{.#X#X#X5XwX9XyX[ 4 G G ",
"@.$X{.#X#X#X#X#X{.}.@X#X#X#X#X#X$X].-.' z e.B.x.l.B.B.N.z.v.l.j.c.h.B.h.0.j 9 N +.[.@X`.#X=X#X+X#X].{.#X#X#X#X[.5XwX9XyX[ 4 G G ",
"@.-X{.#X#X@X{.$X#X#X#X#X#X{.#X#X{.].$X-.~ S w.v.Z.z.V.n.C.j.B.n.u.:.j >.b ^ ) +.@X$X+XOX#X{.{.#X#X{.#X#X{.#X#X{.5XwX9XyX[ 4 G F ",
"@.$X{.{.}.$X#X#X{.#X{.#X{.@X{.#X%X=X}.@X-.n 7 <.6.i.l.m.m.m.x.e.v m M N L -.@X|.`.].OX*X#X{.{.#X#X].#X#X+X#X#X{.5XwX9XyX[ 4 G F ",
"@.$X#X#X#X#X#X$X#X#X{.#X#X#X#X#X%.$X|.*X].< o % o k p.d.p.N.8.9 5 =.%.-.=.#XOX$X#X].{.$X#X#X+X+X#X{.{.#X{.#X#X{.6XwX9XyX[ 4 J G ",
"@.$X#X#X{.$X#X#X#X#X#X#X#X{.{.#X[.$XOX*X-.n r b 9 & ; & & y y o 4 {.{.$X].{.+X#X=X{.}.{.#X#X+X{.#X{.#X#X#X#X#X{.5XwX9XyX[ 4 J F ",
"@.$X#X#X#X#X}.@X#X#X{.#X#X#X#X#X@X+XOX&.! b a.l.7.q o + @ @ O O 6 T ].-X`.#X=X+X].#X#X#X+X#X{.@X#X{.#X#X{.#X#X{.5XqX9XyX[ 4 G G ",
"@.$X{.#X{.$X#X#X#X{.#X#X#X{.#X{.$XOX-X' h 9.m.m.B.<.9 > 2 1 1 < # # ] '.#X#X`.+XOX+X+X+X+XOX{.}.#X{.{.#X{.#X#X{.6XwX9XrX[ 4 G F ",
"@.$X{.#X#X#X#X#X{.@X{.$X{.#X#X#X@X].$X .e 3.n.z.m.<.y 1 1 < < 1 , < # Y &X].#X}.#X{.#X#X#X{.#X{.#X#X{.#X{.#X#X{.6XrX9XyX .H H H ",
"@.:X{.#X#X#X#X#X#X#X#X{.#X{.#X}.].#X{. .t 0.B.z.j.2.9 * 3 < < 3 2 : @ P $X$X#X{.#X#X{.#X#X#X#X#X#X[.#X#X{.#X#X{.5XqX9XyX{ 4 G G ",
"@.$X#X#X{.{.#X#X{.#X{.@X#X#X#X@X$X=X=X` h 9.j.V.j.0.l - 1 * , 3 2 : X P $X{.#X#X#X#X#X#X{.#X{.#X#X{.{.#X#X#X#X{.5XqX9XrX[ 4 G G ",
"@.=X#X#X#X$X$X@X#X#X{.#X#X{.#X{.{.{.}. .t 3.j.C.j.h.1.p w w r - > = . P $X{.#X$X{.#X{.#X#X#X#X#X#X{.#X#X#X#X#X{.5XrX9XyX[ 4 G G ",
"&.$X{.#X#X$X{.#X#X#X#X#X#X{.#X#X+X].#X .e 1.n.b.B.V.n.3.2.5.7.e - = X P $X#X$X{.#X#X#X#X{.@X{.#X#X{.@X{.{.#X#X{.6XwX9XyX[ 4 J J ",
"@.$X{.#X{.$X{.$X{.#X#X{.#X#X#X{.#X%X$X .r 9.A.c.N.z.c.M.m.A.n.k - = . P %X#X#X#X#X#X#X{.$X}.#X#X#X{.#X{.#X#X@X{.5XwX9XyX[ 4 G G ",
"@.$X{.#X#X$X#X#X#X#X#X{.#X{.#X#X+XoX]. .v e.h.h.d.d.h.h.d.b.r.s - = @ P $X{.#X#X{.#X{.#X{.#X#X#X#X{.#X{.{.#X#X{.5XqX9XyX[ 4 G F ",
"@.$X{.#X{.#X#X#X{.#X#X#X#X#X#X#X}.{.*X*.D z a k f d f k p s k y 1 * X P $X}.@XoX#X#X@X{.#X{.#X{.#X{.#X#X{.#X#X{.6XwX9XrX[ 4 G F ",
"@.$X#X#X#X@X}.$X{.{.#X#X#X#X#X{.#X{.#X+X+.L n $ o % $ o % % % + + # H ..oX%X}.{.#X#X#X#X#X#X#X#X#X#X#X#X#X#X#X{.5XqX9XyX .4 G H ",
"@.$X{.#X#X#X#X$X#X#X{.#X{.#X#X#X}.#X#X#X[.+.C $ $ & % % % % % X . 3 o.{.OX=X.X@X#X{.#X{.#X#X{.#X{.#X#X#X#X#X#X{.6XwX9XyX] H G G ",
"@.$X#X#X#X#X{.#X#X#X#X#X{.#X#X{.#X+XoX+X X}.! 8 7.w.w.w.f.f.7.a n -.}.}.*X%.{.#X{.#X#X#X{.#X#X{.{.#X#X[.#X#X{.{.6XrX9XyX[ 4 G G ",
"@.$X{.#X{.$X#X#X{.#X{.#X#X#X#X#X X@X/.{. X%X) h 4.A.B.n.l.z.h.;.K [.$X|.].%X$XoX{.@X#X{.#X#X#X#X#X#X#X#X#X#X{.{.5XqX9XrX[ 4 G F ",
"@.$X{.+X#X#X#X$X#X{.#X{.#X#X#X#X=X}.{.[.#X+X~ a y.Z.V.n.j.C.u.s K -.+X#X#X#X$X{.{.#X#X{.#X#X#X{.#X#X#X{.#X@X#X{.6XwX9XyX[ 4 J G ",
"@.<X{.#X#X#X{.$X#X#X#X#X#X{.@X{.OX#X+X{.}.@X' l w.h.n.n.l.C.u.d A W.oX#X=X`.{.#X#X#X#X#X#X#X#X#X#X#X#X#X{.$X#X{.5XwX9XyX[ 4 J F ",
"@.$X#X#X#X#X#X@X@X$X#X#X$X{.#X$X|.@X$X+X{.#X*.) z 0.N.C.j.m.j.t.b A *.#X].%X+X%X$X#X@X$X#X*X#X#X#X#X#X#X$X$X#X{.5XqX9XyX[ 4 G G ",
"@.$X#X#X#X#X#X#X#X}.$X#X#X$X#X#X%X#XOXOX$X].*X|.D 6.7.0.1.7.0.1.6.D *.{. X#X{.{.#X#X$X}.#X#X#X#X#X#X#X#X#X$X#X{.5XrX9XrX[ 4 G F ",
"@.$X#X#X#X`.`.|.].].].].].].OX].+XoX`.].].+X].].-.~ r 0 u q 0 w Q $.&X`.`.{.|.`.+XoX`.].].+X].].].`.`.|.`.].].].6XyXrXiX[ 5 F G ",
"..].'.&.-X>X>X3X>X>X<X<X>X>X>X>X>X>X>X>X>X>X>X>X;X-X.XW.W./..X:X.X,X;X-X>X3X>X>X>X>X>X>X>X>X>X>X>X>X>X<X>X>X>X>X4X,X,X3X] F G F ",
"R { ] ] 4XrXrXqXwXqXqXqXqXqXwXqXwXqX0XwXtXwXqXqXqXrXyXyXuXuXyXyXrXwX8X8XtX0X9XwXwXqX0XwXtXwXqXqXqXqXqXrXwXqXwXwX&.R { { I H H F ",
"R { { E 1XrX9XqXqXqX0XqX0X0XqXqX0X0X0X0XqX9X0X0XeX7X7X7X0X0XeXeX9X0XqXqX0X0X9XqX0X0X0X0XqX9X0X0XqX0XqXqX9X9XeXwX{.} { { Y F F F ",
"| X.X.{ 4XrXrXrXyXwXrXwXrXwXrXrXwXrXwXwXrXrXrXrXwXqXuXuXrXrXrXyXrXqXrXrXrXrXrXrXwXrXwXwXyXwXrXwXrXwXwXyXwXqXwXiX*.] [ o.Y U G G ",
"Y E R T [.2X,X,X,X,X,X,X,X,X>X,X,X,X2X,X,X,X,X1X1X1X,X,X1X1X,X:X2X,X1X2X1X,X,X>X,X,X2X,X,X,X,X,X,X,X2X2X2X,X2X2Xo.E E W I 5 P 5 ",
"  X                                                       X                                                                     ",
"                                                              X                                                                 "
};
