/* XPM */
static char *enemy_up_01739716002[] = {
/* columns rows colors chars-per-pixel */
"64 64 227 2 ",
"   c #010102",
".  c #080A05",
"X  c #05040B",
"o  c #070A0E",
"O  c #0A0407",
"+  c #160402",
"@  c #180807",
"#  c #080C12",
"$  c #0D1616",
"%  c #161918",
"&  c #3E0F0B",
"*  c #310705",
"=  c #22140F",
"-  c #241517",
";  c #30110D",
":  c #22221E",
">  c #1C1D21",
",  c #251F23",
"<  c #1E2323",
"1  c #1D2725",
"2  c #232523",
"3  c #282424",
"4  c #232922",
"5  c #252429",
"6  c #2B2529",
"7  c #272929",
"8  c #35353F",
"9  c #3A3A3E",
"0  c #4D0200",
"q  c #4B0B0B",
"w  c #480A08",
"e  c #550402",
"r  c #5C0605",
"t  c #570A07",
"y  c #5D100F",
"u  c #480D12",
"i  c #520B13",
"p  c #5A0D14",
"a  c #491616",
"s  c #5B1C1C",
"d  c #571318",
"f  c #42120E",
"g  c #6C0609",
"h  c #650B0B",
"j  c #670807",
"k  c #730B0E",
"l  c #7A0B0B",
"z  c #78070D",
"x  c #65110B",
"c  c #670E13",
"v  c #750D12",
"b  c #7E0B10",
"n  c #760410",
"m  c #671619",
"M  c #7A1114",
"N  c #78141C",
"B  c #7D100B",
"V  c #59231C",
"C  c #5C1C23",
"Z  c #561720",
"A  c #6F1C22",
"S  c #7B1C24",
"D  c #5A2727",
"F  c #56322F",
"G  c #5B3231",
"H  c #5C383B",
"J  c #5D2C30",
"K  c #682728",
"L  c #752728",
"P  c #612C32",
"I  c #732934",
"U  c #65353B",
"Y  c #693838",
"T  c #743438",
"R  c #6E312C",
"E  c #58433D",
"W  c #68403E",
"Q  c #3D3D45",
"!  c #3E3E48",
"~  c #373A43",
"^  c #403F45",
"/  c #5D3942",
"(  c #6C3E44",
")  c #723F48",
"_  c #42434A",
"`  c #5D4346",
"'  c #4A4B57",
"]  c #5C4954",
"[  c #4E515C",
"{  c #52535D",
"}  c #52565A",
"|  c #634A4A",
" . c #644447",
".. c #634B55",
"X. c #6A4952",
"o. c #6A5658",
"O. c #755A58",
"+. c #704F4D",
"@. c #6A635D",
"#. c #565965",
"$. c #5C5D65",
"%. c #5B5D69",
"&. c #525561",
"*. c #4F5160",
"=. c #685B63",
"-. c #5D6369",
";. c #5F6571",
":. c #61636F",
">. c #6B6A6D",
",. c #6B6367",
"<. c #75676B",
"1. c #636A74",
"2. c #696B74",
"3. c #726D74",
"4. c #7A6F76",
"5. c #6D727C",
"6. c #6A7275",
"7. c #737375",
"8. c #71747B",
"9. c #7A737C",
"0. c #747A7D",
"q. c #7C787A",
"w. c #6F726C",
"e. c #860A0F",
"r. c #810B12",
"t. c #8C0D14",
"y. c #880915",
"u. c #930D15",
"i. c #9D0B1A",
"p. c #950D1B",
"a. c #8D1214",
"s. c #841119",
"d. c #881418",
"f. c #931016",
"g. c #9D1215",
"h. c #9D141D",
"j. c #9B191D",
"k. c #94171C",
"l. c #AC131C",
"z. c #A6151B",
"x. c #B2161C",
"c. c #A00D1F",
"v. c #851B24",
"b. c #881924",
"n. c #991825",
"m. c #AC1522",
"M. c #A31C23",
"N. c #AC1A24",
"B. c #A51625",
"V. c #B31A26",
"C. c #BB1B26",
"Z. c #B61C2A",
"A. c #BB1C2B",
"S. c #B81525",
"D. c #B61B32",
"F. c #AD1329",
"G. c #8F2429",
"H. c #BC2128",
"J. c #B2222A",
"K. c #BD2231",
"L. c #C31D2C",
"P. c #CC1D2D",
"I. c #C91928",
"U. c #D21C2E",
"Y. c #DC1D2F",
"T. c #CE1D31",
"R. c #C11E31",
"E. c #D41E31",
"W. c #D91E35",
"Q. c #C5222D",
"!. c #CB212E",
"~. c #C52B2D",
"^. c #D2212D",
"/. c #DF212D",
"(. c #C42332",
"). c #CC2131",
"_. c #C9263A",
"`. c #D22234",
"'. c #D4233A",
"]. c #D72635",
"[. c #847476",
"{. c #6C817A",
"}. c #6D7D85",
"|. c #6E7884",
" X c #737D86",
".X c #7A7C84",
"XX c #757F88",
"oX c #797E8A",
"OX c #717582",
"+X c #7E7C92",
"@X c #837C85",
"#X c #837F91",
"$X c #6E8284",
"%X c #6E848A",
"&X c #768086",
"*X c #7A8285",
"=X c #768189",
"-X c #79828B",
";X c #798A8D",
":X c #758492",
">X c #7A8391",
",X c #7A8993",
"<X c #8A8E8D",
"1X c #84868A",
"2X c #858C94",
"3X c #8A8E92",
"4X c #828492",
"5X c #849293",
"6X c #8C9194",
"7X c #8C9198",
"8X c #92969C",
"9X c #979CA2",
"0X c #989DA1",
"qX c #9EA2A4",
"wX c #A2A6A7",
"eX c #A5A6AB",
"rX c #A6AAAD",
"tX c #A8ACAF",
"yX c #A8A2A9",
"uX c #A6B1AB",
"iX c #A4AAB3",
"pX c #AAAEB1",
"aX c #ACAFBE",
"sX c #ACB0B3",
"dX c #A9B3BC",
"fX c #B1B3B9",
"gX c #ADB3C1",
/* pixels */
"                                                                                                                                ",
"          X               X                 X                 X     X                 X                             X           ",
"[ %.%.%.5.XXXX=X=X=X=X=X=X=X=X&X=X-X&X&X=X=X=X=X&X=X=X=X=X=X&X=X=X=X=X=X=X&X=X=X=X&X-X&X=X=X=X=X&X=X=X=X=X&X-X&X1.%.:.%.' Q Q Q ",
"[ %.#.#.|.-X=X=X=X=X=X=X=X=X=X=X=X=X=X=X=X=X=X=X=X;X=X=X=X=X=X=X=X=X=X=X=X=X;X=X=X=X=X=X=X=X=X=X=X;X=X=X=X=X=X=X1.#.%.#.' ~ Q Q ",
"[ ;.#.%.|.XXXXXXXX=XXXXX=X=X&X=XoX=X&X=X=XXX-XXX=X=X=XXX=X=X.X=X=X=X-XXX=X&X=X=X=XXXXXXXXXXX=X X=X=XXXXXXX-X-XXX1.&.{ #._ ~ ! Q ",
"[ 1.:.:.OXXX=X=X&X.X&X&X=X&X&X&X&X-X-X&X&XXX-X-X-X=X&X-X-X&X-X&X&X=X.X&X=X-X-X&X=X.X&X&X&X&X&X&X=X&X&X&X-X&X&X&X8.5.8.*X' 8 ^ Q ",
"1.,X-XXX-X=X=X=X=X=X=X=XXX=X=X=XXX=XXX=X-XXX=XXX&X=X=XXXoX=X=X=X=X=X=X-XXX=X&X=X=X=X=XXX=X=X=X=XXXXX=X=XXX=XXXXXqXpXtXfX,.8 ^ Q ",
";.>XoXXX-X=X=X=X=X=XXXXX-X=X=X=X&XXX-XXXXX-X=XXX=X=X=X&X&X=XXX=X=X=XXX=X=X=X=X=X=XXX=X=X=XXX=X=XXX=X=X=X-XXXXXXX8XtXqXsX} 8 _ Q ",
"1.-XXXXX=X=X&XoXXX-X-XXX=X=XXX-XXX&X$X%X-XoX4XXX;X-X>X=XoX}.,XOXoX=X=XoX4X>XXX&X=X=X=XXX=X=X&X=X-XXX=X=XXX=XXXXXqXtXwXsX$.8 ! Q ",
"1.-XXX-X=X=X=X-XXXXXXX=XXX=X&XXX>X|.-X-X}.OX8.0.}.&X8.7..X XXXoXXX;X$X X9.}. XoX%X=X-X-X X=X=X&XXXXXXXXXXX-X&XXX0XtXwXpX$.~ ! ! ",
"1.-XXX=XXX-X&X-X=X-XXX=X=X=XXX-XXX4XOXOX,Xw.U o.;X{./ d G >.&X;XXXXX;X7.H | &XXX=X=XXX=X&X=X=X&X=XXX=X=XXX-X=XXX0XtXwXsX$.8 ! Q ",
"1.-XXXXX=X=XXX=X=XXX=XXXXX=XXXXX}.oX;X1X>.P b.I ` U v.i.d.Y ,.=X&XoX<.( v.L |  X=X=XXX=X&X=X=X&X=XXXXX&XXX=XXXXX0XtXwXsX$.8 ! Q ",
"1.-X-X-X=X-XXX-XXX-X=XXX-X=X=XXX-X}.$X<.R s.L.M r e.S.`.V.c ] >X X-Xo.p F.m.N O.5.&X&X%X=X=X=X=X&XXX-XXXXX-X=XXX0XtXwXsX$.8 ! Q ",
"1.,XXXXXXX=XXX-XXX=XXX-XXXXXXX-X-X=X6.P b.A.I.d.l M.(.Q.S.v  .q.=X.Xo.h l.U.M.m o..X=X%X=X=X=X=XXXXXXX=XXX=X=XXX9XtXwXsX$.8 ! ^ ",
"1.-XXX-X=X-XXXXX=X=X=XXXXX-X=XXXXX=X7.s u.^.P.M.e.k.J.'.`.j.L +..Xo.K k.H.].S.j ] .X=X=X=XoXXX=XXXXX=X=XXX=X-XXX9XtXwXsX$.8 ! Q ",
"1.-XXXXXXX-X=X-X-XXX=XXX&XXX=X=XoX-X>.D a.^.U.'.M.g s.m.l.M.k y ..D e.P.Q.).D.x ] 1X X&X=X-XXX=X=XXX-XXXXX-XXXXX9XtXwXpX$.8 ! Q ",
"1.-X&X=X=X-XXX-XXX-XXX=X=XXX-XXX$X=X>.s u.`.I.).N.e r l r r j t h t M A.W.U.C.x X.&X-XoX%X=X=X=X&XXX-XXXXX-X&XXX9XtXwXsX$.8 ! ! ",
"1.-X&X=X=X=XXX=X=X=X=XXXXX-X=X=XXX>X6.D a.L.].).h.j d.M.M.N.N.m.M.g M (.Q.Q.Z.h ..&XXXXX=X=X=X=XXXXXXX=XXX=X-X X9XtXwXsX$.8 ! Q ",
"1.4X=X=XXX-X=X-X&XXX=XXXXX=XXXXX.X-X3.d t.'.E.L.S.g.V.].`.).`.`.).g.z.Q.P.).A.j ]  X=X-X=X&X%X&X-XXX=X=XXX=XXXXX9XtXwXsX$.8 ! Q ",
"1.-X=X=XXX=XXX-XXX-XXXXX=X=X-XXX.X=X9.P b.K.I.^.W.H.Q.U.!.!.!.!.P.!.(.P.U.).M.K o.$X=X=X=X X&X=XXXXXXX=XXX-X=XXX9XtXwXpX$.8 ! Q ",
"1.-XXXXX=X=XXX-X-XXXXX-X=X=XXX-X=X=X X<.R r.(.E.).(.(.U.E.).T.).P.U.).`.).B.S +.9.%X XXX=X=X=X=X&XXXXX-XXX=X=XXX0XtXwXsX$.8 ^ ^ ",
"1.-XXX=X=X-XXX-XXX=X=X=XXXXX=XXX=X=X5.o.L k.(.T.).).T.T.T.).T.E.).U.(.).(.F.b.Y <.=XOX-X-XoX&X=X=XXX=X=XXX-X=X X0XtXwXsX$.8 ! ! ",
"1.-XXXXX=X=XXX-X=X=XXX&X-XXX=X=X=X;X3.C f._.T.L.T.E.E.P.).T.!.).!.E.).R.P.`.Z.h ] &X-X-X=X=X=X=XXXXXXX=XXX=X-XXX9XtXwXsX$.8 ! ! ",
"2.-XXX-XXX=XXX-XXXXX-X=X=XXXXXXXOX;X2.s u.E.E.Q.P.^.P.(.!.Q.!.U.Q.W.!.!.^.!.V.h | -X-X=X%X=X=XoX-XXX=XXXXX&X=XXX9XtXwXpX$.8 ! Q ",
"1.-X-X=X=X-XXX-XXX=X=X=XXX=X=X-X=X%X3.C f.).T.!.).!.).T.T.!.).).!.).(.T.P.`.Z.h | XX=X&X=XXX=X=X=XXX=X=XXX=XXXXX9XtXwXsX$.8 ^ ! ",
"1.,XXX=XXX=X=X-XXXXX=XXX=X&XXX=XoX;X2.s f.).T.).T.).).!.).).).P.!.E.).).P.`.C.h | oX-XXX=XoX=X=X=X&XoXXXXX=X-XXX9XtXwXpX$.8 ! ! ",
"1.-XXX&X=X-X=XXX=X=X=XXX=X=X=XXXXX:X3.C f.(.T.P.).).T.!.).P.).).!.P.).).P.`.Z.h | XX-X{.=XoX=X%XXXXX&X=XXX-X=XXX9XtXwXsX$.8 ! ! ",
"1.-XXXXXXX-XXX-X&XXXXX-X=XoX=X&XXX;X3.s f.).T.!.T.P.).).).).P.!.!.T.).).P.`.Z.h | =XoX&X%XoX=X=X=XXX=XXXXX=X&X X9XtXwXsX$.8 ! Q ",
"1.-XXX=X.X=X=X-XoX=X=X=XXX-X-XXXXX=X5.s u.).T.).!.).P.).).T.).T.!.T.).).!.`.C.h | XX=X&X=X=X&X=X=XXX&XXXXX=X-XXX9XtXwXsX$.8 ^ ! ",
"1.,XXX=X=X=XXX-X=X=X=XXXXXXXXX=XXX:X3.s u.(.E.!.P.).).).).!.).P.!.T.).).P.`.Z.j | oX=X&X=X=X=X=X=XXX=X=XXX=X=XXX9XpXwXsX$.8 ^ Q ",
"1.4X&X=X=X=X=X=X=X=X&XXX=X-XXX=XXX=X5.s f.).).).).!.).).).).T.).!.T.).).!.`.Z.h | XX=X&X%XoX=X=X=XXX=XXXXX-X=XXX9XtXwXsX$.8 ! Q ",
"1.-XXX=X=X-X=X-XXX=XXX-X=XXX=XXXXX=X3.s f.).T.).).T.).P.P.).!.).!.T.).!.P.`.S.x | =X=XXX%XoX&X=XXXXXXX-XXXXX-XXX9XtXwXpX$.8 ! Q ",
"1.-XXX=X=X=XXX-X&XXXXX=X=X=X=X=X*X=XOX( b.x.m.L.).).).).P.).).T.(.!.P.P.S.D.n.K $.oX.X&X0.;X%X+X=X=X=X X=X-XXXXX9XtXwXsX$.8 ! Q ",
"1.-XXX=X=X=XoX=XXXXX=X=X X=X=X=X|.{.OX<.Y t c n.P.(.L.L.Q.Q.L.L.T.Q.L.Z.M q s O.q.0.oX=XXX.X=X&X=X=X=X=XXX=XXXXX9XtXwXsX$.8 ! Q ",
"1.,XXX=X=X=XXX-X=X=X-X=X XXX=X=X>X,.G F ; @ ; c b r.e.b b b e.l e.b k N a @ * D Y /  X:X>X-XoX&X=X=X=X X=X-XXXXX9XtXwXsX$.8 ! Q ",
"1.-XXXXX=X-XXX-XXX=X=X=XXX=X-X=X=.T r.s.h f , & & & & & f & & f w f & u = = p g z L ..o.,.$XOX-X=XXX=X=X=X&XXXXX9XtXwXsX$.8 ! ! ",
"1.-X-X-X=X=X=X-XXXXX=X=XXX-X.X5.G M L.P.(.v.@ % 3 3 3 : : : 3 : 4 4 2 , . i Z.T.U.z.m c T w.XXoXXX=XXXXX=X-XXXXX0XtXwXsX$.8 ^ ! ",
"1.-XXXXX=X=X=X-X-XXX=X=XXX&X.X2.V e.).P./.M.+ $ 2 6 5 6 5 5 6 6 5 , 5 1 . m ).!.U.Q.x.l.k.J 3.-XXX=X=XXXXX=XXXXX9XtXwXsX$.8 ! Q ",
"1.-XXX-X=X=X=X=X=X=X=X%XXXXX.X5.V r._.(.^.M.+ $ 5 6 6 2 6 5 5 2 < 6 7 1 . p T.!.E._.^.U.C.s.Y ,.=X=X=XXX=X=XXXXX9XtXwXsX$.8 ! Q ",
"1.-XXXXX=X=X=X=X=X=X=X=XXXoX.X8.D t.L.(.I.n.+ % : 2 4 2 2 4 2 : 7 2 - 2 . u A.!.T.(.).(.).K.y W =XXX=XXX&X-X=XXX0XtXwXpX$.8 ! ^ ",
"1.-XXX=X=X-XXX-X=X=X=X&X=X=X.XOXK y.(.~.g.0 + % 5 5 4 5 2 6 6 2 6 5 : : O * k C.P.'.T.(.!.L.x E =XXX=XXX=X-X&X X9XtXwXsX$.8 ^ ! ",
"1.-XXX=XXX-XXX=X=X=X=X=X&X=XXXOXD b (.I.L.c . $ 7 1 1 5 5 < 2 6 5 2 2 5 o 6 ) A B u.R.].W.L.n U -X=X=XXXXX=XXXXX9XtXwXsX$.8 ! ! ",
"1.-X-X&XXX-X=X-X=X=X=X=X=X=XOX5.V t._.E.T.D.i - - 4 4 4 4 3 3 4 4 : : > 1 Q +.m l u.K.T.C.M.I X.XXXX&XXX=X=XXXXX9XtXwXsX$.8 ! ! ",
"1.,XoX=XXX=XXX-X=X=X=X=X=XXXXX5.D s.S.).(.T.D.q @ : 5 > : 3 , 2 5 2 $ $ } | N x.Z.H.!.).z.m o.}.XX=X=XXXXX-XXXXX9XtXwXpX$.8 ! Q ",
"1.-XXXXX=X=X=X-X=X X=X=X=X&X=XOX>.U p.H.(.U._.q   # # X o o # # o # X o -...j C.'.`.E.].c.i ,.,X-XXX=XXX=X-XXXXX9XtXwXsX$.8 ^ ! ",
"1.-XXX=XXX-XXX-X=X=X=X=XXX=X-X=X:X=.T d.j.c.k.v i i f w p i * + w i i d W F h Z.T.).(.m.v.( 7.=XXX&X=XXXXX=XXXXX9XpXwXsX$.8 ^ Q ",
"1.-XXX=XXX=XXX-X=X X&X=XXX=X-X=XoX.X<.P c y r b.C.C.H.Q.Q.N.f.l H.Q.!.J.v t l S.E.!.(.b P q.&XoXXX-X=XXX=X-XXXXX9XtXwXsX$.8 ! Q ",
"2.-XXXXX-X&XXX-X=X=X=X-XXXXX=X=XoX%X$X,.@.| d j x e.S.'.J.t.p.D.(.).U.H.g 0 j J.(.U.(.z G {.%X-X=XXX=XXXXX-XXXXX9XtXwXpX$.8 ! Q ",
"1.-X-X=XXX=X=X-XXXXXXX=X&XXX=XXX&XXXoX>X,.T v.a.s.a.C.C.s.r k.`.T._.P.H.M a T b.f.p.b.T o.&X;XOXXX=XXX=XXX-X=XXX9XtXwXsX$.8 ! ! ",
"1.,XXX=X=X-X=X-XXX=X=XXXXX-X=X=XXX>X:XOXH N D.].`.!.!.h.e t u.`.L.T.).C.h U [.J s i D O..X$X&X-X=X-X.X=X=X=XXXXX9XtXwXsX$.8 ! Q ",
"1.-XXX=XXX=X=X=X-XXX=X-X-X=XXX-XXX X%Xq.Y l S.).T.!.L.k.0 t f.L.P.`.].L.b H 0.6.7.w.8.OX*X;X%X&X=X=X=X=XXX-XXXXX9XtXwXsX$.8 ! Q ",
"1.-XXXXXXX-X=X-XXX=X=XXXXXXX=XXX;X&X8.| L l.Q._.Q.).!.z.e 0 j.].^.P.^.C.c / =X;X-X-X=X}.XX&X=X=XXX=X=XXX=X=X&X X9XtXwXpX$.8 ^ Q ",
"1.-XXX=X=X-X=X=XXX=X=X=XXX-XXX&XXX=X3.C u.^.^.R.).!.!.i.t D v.S.z.m.V.j.L ..XXOXoX=X=X;X-XoX.X=X=X=XXXXX=X=X=XXX0XtXwXsX$.8 ^ ! ",
"2.-XXXXXXX=X=X.X-X=XXXXX=XXX=XXXoX=X3.C k.`.U.).).L.T.i.s @./ d y p r s O.0.oXoX X&X=X}.XX-X-X=X=X=X-XXXXX-X=XXX0XtXwXsX$.8 ! ! ",
"1.-X-X=X=X=XXX-X=X-X=X-X=X-X-X=XXX,X3.Z p.R.`.W.).!.).h.d w.>.=.o.=.=.O.6.-X,X&X=X=X=X=X%X=XXX-X=X=X-X=X=X=X=XXX9XtXwXsX$.8 ! ! ",
"1.,XXX=X=X-X=X-X=X=XXX-X=X=X=X-XOX;X0.( G.k.j.j.B.h.j.G.U 7.2X=X=X>X;X$X>XoXXX%X=XoX-X=X&X=X=X-X-X=X=XXX-X-X-XXX0XtXwXpX$.8 ! Q ",
"1.;X=XXX=X X}.XX XXXXX}.XX}.XX}.+X}.=Xq./ u t t e e w H 4.-X|.XXXXXX}.XX}.XXXX}. XXX}.XXXX}.&X}.}. XXX|.}.XX}. X0XsXpXfX$.9 Q Q ",
"-.OX8.5.,X4X2X7X2X2X2X2X2X2X2X2X3X-X,X5X<X[.[.q.q.@X@X1X6X5X,X7X2X2X2X2X2X2X2X2X2X2X2X2X2X2X2X2X2X2X4X2X2X2X2X3X8X3X6X7X} ! Q ! ",
"[ %.#.$.8XpXtXeXtXtXtXtXwXtXiXtXpXwXqXiXiXaXdXdXdXgXgXiXiXiXeXyXrXrXrXrXtXtXiXtXtXeXtXtXiXtXtXrXtXtXpXpXtXtXtXtX5.*.%.%._ ~ Q Q ",
"[ %.%.{ 6XpXeXeXwXeXwXeXeXtXeXeXeXiXiXyXyXyXyXwXwXyXeXtXqXqXpXwXeXtXeXeXwXeXtXwXtXwXwXeXeXeXeXeXtXwXwXeXwXwXeXtXOX&.%.%.' Q Q Q ",
"*.;.%.%.8XpXpXpXpXpXpXpXpXpXpXpXpXdXpXpXsXtXrXuXuXrXuXsXtXtXpXpXpXpXpXpXpXpXpXpXpXpXpXtXpXpXpXpXpXtXpXpXtXtXtXfX8.#.$.:._ Q Q Q ",
"' [ [ [ .X7X3X3X3X3X3X<X3X3X3X3X<X<X<X<X<X<X5X6X2X2X3X6X3X<X6X3X3X3X3X<X3X3X3X3X3X<X3X3X3X3X3X<X3X3X3X6X3X3X6X6X,.{ { } _ Q 9 Q ",
"  X                                           O X X                                                                             ",
"                                                                                                                          .     "
};
