/* XPM */
static char *enemy_down_11739715566[] = {
/* columns rows colors chars-per-pixel */
"64 64 243 2 ",
"   c #010102",
".  c #0B0404",
"X  c #020709",
"o  c #180507",
"O  c #191718",
"+  c #181818",
"@  c #0C130D",
"#  c #2A0704",
"$  c #3A0706",
"%  c #36140D",
"&  c #271D1A",
"*  c #3B1614",
"=  c #381816",
"-  c #2F0F0F",
";  c #18231B",
":  c #29221D",
">  c #281D25",
",  c #311E24",
"<  c #1D2623",
"1  c #242525",
"2  c #2B2324",
"3  c #212A24",
"4  c #2B2529",
"5  c #232A29",
"6  c #282629",
"7  c #35353F",
"8  c #37383D",
"9  c #312026",
"0  c #181B22",
"q  c #4C0502",
"w  c #480808",
"e  c #540302",
"r  c #5C0B0B",
"t  c #590606",
"y  c #591609",
"u  c #560C12",
"i  c #461714",
"p  c #541113",
"a  c #5B1519",
"s  c #5A1515",
"d  c #42130D",
"f  c #64050B",
"g  c #630B0B",
"h  c #6B0A0C",
"j  c #680805",
"k  c #730B0C",
"l  c #78070B",
"z  c #66130A",
"x  c #77100E",
"c  c #640C12",
"v  c #6C0B14",
"b  c #610710",
"n  c #750C12",
"m  c #7C0D12",
"M  c #750E1A",
"N  c #691819",
"B  c #74131B",
"V  c #781417",
"C  c #54231C",
"Z  c #702C13",
"A  c #6A1924",
"S  c #781823",
"D  c #7F1C36",
"F  c #59272A",
"G  c #5A332D",
"H  c #592C33",
"J  c #5C3234",
"K  c #59363A",
"L  c #4F2C2C",
"P  c #672729",
"I  c #772528",
"U  c #67332D",
"Y  c #622C32",
"T  c #7B2A34",
"R  c #663436",
"E  c #773437",
"W  c #5E1C26",
"Q  c #68413E",
"!  c #3D3D45",
"~  c #3E3E48",
"^  c #373A43",
"/  c #4F3D44",
"(  c #6A3A41",
")  c #42434A",
"_  c #5D4347",
"`  c #4A4B57",
"'  c #4E515C",
"]  c #55545D",
"[  c #5D4E55",
"{  c #684749",
"}  c #73494A",
"|  c #674B52",
" . c #695759",
".. c #735859",
"X. c #784C54",
"o. c #7C605F",
"O. c #565965",
"+. c #5C5D65",
"@. c #5B5D69",
"#. c #525561",
"$. c #4F5160",
"%. c #6B5D62",
"&. c #655E65",
"*. c #725E63",
"=. c #715D69",
"-. c #5D626D",
";. c #64636D",
":. c #6A6667",
">. c #736669",
",. c #636A74",
"<. c #6A6A73",
"1. c #726E74",
"2. c #736B78",
"3. c #6C747A",
"4. c #72747C",
"5. c #767679",
"6. c #860B0D",
"7. c #830C13",
"8. c #8C0D12",
"9. c #8C0D18",
"0. c #930D14",
"q. c #980E19",
"w. c #8B1215",
"e. c #8B121A",
"r. c #841518",
"t. c #94131B",
"y. c #9B141C",
"u. c #95171A",
"i. c #910A0E",
"p. c #A6151D",
"a. c #B11D1D",
"s. c #891924",
"d. c #9B1B22",
"f. c #9A1723",
"g. c #951C32",
"h. c #AC1523",
"j. c #A31A23",
"k. c #AB1B24",
"l. c #A71A28",
"z. c #B31B24",
"x. c #BC1A25",
"c. c #B41B2A",
"v. c #BC1C2B",
"b. c #B71528",
"n. c #B4172C",
"m. c #862229",
"M. c #882238",
"N. c #9A2633",
"B. c #B5212A",
"V. c #BC2536",
"C. c #A92630",
"Z. c #853B0C",
"A. c #C41D2C",
"S. c #CB1D2C",
"D. c #C91B25",
"F. c #D21D2D",
"G. c #C61F32",
"H. c #CC1E31",
"J. c #D21E33",
"K. c #D81F31",
"L. c #C4222C",
"P. c #CB222D",
"I. c #C72027",
"U. c #D1212E",
"Y. c #C52232",
"T. c #CC2233",
"R. c #CD263B",
"E. c #D32233",
"W. c #D42439",
"Q. c #8A5B0E",
"!. c #A8632D",
"~. c #983345",
"^. c #952B45",
"/. c #A52C43",
"(. c #A6344A",
"). c #B03354",
"_. c #AB2B56",
"`. c #D52B48",
"'. c #D93759",
"]. c #C82A4A",
"[. c #E23657",
"{. c #C63B64",
"}. c #D33D6F",
"|. c #E43F61",
" X c #BC4267",
".X c #B45D4C",
"XX c #C54466",
"oX c #D3476E",
"OX c #E64978",
"+X c #D1706D",
"@X c #E2706F",
"#X c #B0901C",
"$X c #BA8B2F",
"%X c #C99E32",
"&X c #CDAC2C",
"*X c #D59950",
"=X c #6E7E86",
"-X c #6E7580",
";X c #727681",
":X c #737D86",
">X c #7A7D85",
",X c #757F88",
"<X c #7A7E8A",
"1X c #797681",
"2X c #7B7E91",
"3X c #817D8D",
"4X c #DA4E87",
"5X c #DA5583",
"6X c #E54A84",
"7X c #E26285",
"8X c #6E8285",
"9X c #6E818B",
"0X c #758186",
"qX c #798286",
"wX c #768189",
"eX c #79828B",
"rX c #798492",
"tX c #7F9195",
"yX c #83848B",
"uX c #87888A",
"iX c #858C94",
"pX c #8A8E92",
"aX c #848793",
"sX c #8C9193",
"dX c #879098",
"fX c #92959A",
"gX c #8E908F",
"hX c #979CA2",
"jX c #989DA1",
"kX c #9EA5A8",
"lX c #9EB1AE",
"zX c #A2A6A7",
"xX c #A5A6AB",
"cX c #A6AAAD",
"vX c #A8ACAF",
"bX c #A9A5AB",
"nX c #A6B1AE",
"mX c #A5AEB3",
"MX c #AAADB1",
"NX c #ACABB6",
"BX c #ACB0B3",
"VX c #A5B1B3",
"CX c #B1B1B7",
/* pixels */
"                                          .   .       .         .                                                               ",
"          X         X                       X           X       X         X X                                 X       X         ",
"' @.O.-.3.<X,XwX,X,X,X0XwX0X,X:XqXqXqXeXaX0X8X>XqX0X0X8X0X0X:X<X0XqXqX0XqXeX:X,XeXqXqX:XqXqXqX0XwXwXwXqXwX0XqXwX;.@.;.@.` ! ! ! ",
"' @.O.O.-XeXeXeXwXwXwXwXwXwXeXeXeXwX0X:. .2.8XeX:XwXqX0X8XwX,XwXwXrX0X0X%.&.:X<XwXwXwXwXwXwXwX0XwXwXwXwXwXwXeXeX,.O.@.@.` ! ^ ! ",
"' -.@.@.-X,X,X:X,X,X,XqXwXwX:XwXeX8X5.} W ..;X2X,X<XeX<X<X,X:XwX,X<X4.>.Y Y >.1XwXwX9X9XeX,X,XwXwXwX,X,X,X,XwX,X<.#.] O.) ^ ~ ^ ",
"$.,.-.;.;X,XwXwXwXqXwXeXwXwXqX:XrX1._ I 9.I | 3.rXwXwXeXwXqXqX0XeX:X:.E s.s.U :.eXeX9X8XrX<X,XwXqXwXqXwXqXwXqXeX4.3.4.>X` 7 ) ! ",
",.rXeX:XrXwXwX,X,XwXwXwXwX:X:X,X5.} V q.v.m C ..:.:.3.wX9X=XwX,X=X:X_ t k.c.7.R =.5.wX=X,X,XwXwX,X,XwXwXwXwX,X,XkXvXcXCX;.8 ! 8 ",
",.rX<X,XeX9XwXwXeX,X:XwXwX,X,X,X_ B l.B.L.7.q a a H ..yX<X,XeX<XeXqX{ g p.P.b.s.H >.qXwXwXeXqX0X,X,XwXwXwX,X,X:XfXvXzXBX] 8 ) ) ",
",.eX:XeXwXwXqX<X:XeX,XwX:XeX<X;XG h c.v.0.V 8.8.i.r.E  .4.rXrX<X4.| T f.c.I.E.w.s *.0X<X,X<XeX9XwX,XeX,X,XwXeX:XjXMXzXBX+.7 ~ ~ ",
",.eX,X,XwXwX,XeXwXwX:XeXwX,XeX-XG l h.p.7.u.v.Y.L.l.B F >.5.3.qX..C V b.E.F.E.9.a %.wXwX<XeX<X9XeX,X:XwX,XeXwX,XjXvXzXBX+.7 ~ ~ ",
",.eX,XwX,XwXwXeXwXwX:X,X,X,X,X4.U f m w.p.B.K.T.d.7.e u G J F Y C t q.W.S.P.P.8.y %.wXeXwX,X,XeX:XwX,XwX,XwXwX:XhXvXzXBX+.7 ~ ! ",
"<.rX,XwXwXwX,XwX,XeXwXwX,XwXwX;XU q q 6.Y.W.S.H.u.l l V h j n l z t 7.h.v.T.T.w.s :.0XwX:X,X,XwXeX:XwXwXwXwXwX,XhXvXzXBX+.7 ~ ! ",
",.rXeXqXwXeX,XeXwXwX,XwX,X:X<X;XR w e w.H.Y.H.K.P.A.b.c.z.z.c.B.q.j t m k.T.K.7.N %.<X<X,XeXeX:XwX:XwXwX,XwXwX:XhXvXzXBX+.7 / ^ ",
",.eXwXwX,XwX,XeXwXwX,X,XwXeXeX;XY e t w.A.H.E.J.H.T.T.S.E.W.F.U.A.0.r.9.8.h.E.0.u %.<X<X:XwXwXwX,X,XwXwXwXwXwX,XhXvXzXBX+.7 ~ ! ",
",.eXqXwXwXeX,XeXwXeXqXwXwXwXeX;XK s q r.G.A.L.L.T.T.T.P.P.P.T.Y.G.G.T.x.6.7.k.s.F :.eX<XqX8X,XqXeX:XeX:X,XwXwX,XhXvXzXBX+.7 ~ ! ",
",.eX,X,XwXwX,XeX,XwXwXwXwXeXeX;X:.( y 8.G.t.w.G.T.T.S.S.S.P.H.H.F.P.A.P.j.w.e.U ..4.=X:XeXwX,XwX,X,XwXwX,XwXwX0XhXvXzXBX+.7 ~ ~ ",
",.eX,XwXwXeXwXeX,XeX:XwXwXeXeX,X1. .N 0.j.w.m p.v.G.F.P.I.S.T.S.U.S.E.S.R.h.V U ..:X9X,XqX9XeX:XwX,XeX,X,XwXeX:XjXMXzXBX+.7 ~ ~ ",
",.rXqXwX,XwX,XwXwXwX,XwXeX:XeX;X( B l.u.l y.k.h 0.G.H.T.E.S.T.H.T.Y.T.F.K.H.x.s.H ;.rXyXqXwXwXqXwX:XwXwX,XwXwX:XhXvXzXBX+.7 ~ ~ ",
",.rXqXwX,XwXwXeX,XeX,X,X:XeX<X;XH g c.z.8.v.v.j 8.H.j.p.A.G.T.S.H.S.T.H.S.T.T.0.s %.<X<X:X8XeX,XwX,X,XwX,XeX,X,XhXvXzXBX+.7 ~ ! ",
",.eXwXwXwXeX:XeXwXeX,XwX,X,XeX4.U h k.P.A.L.p.l 8.h.7.m c.G.T.F.E.J.T.T.L.I.P.i.a ..qX:X0XwXeX:XwX:XeX,X:XwXwX,XhXvXzXBX+.7 ~ ! ",
",.eX:XwXwXwXwXeXwXwX:XwX:XwXeX-XP l B.P.E.K.L.z.u.m y.u.x p.S.W.I.P.L.U.E.I.T.t.s %.0XqXqX,X,X<X,X:XwX:XeXwXeX,XhXvXzXBX+.7 ~ ! ",
",.eX,X,X,XeX:XeXwXeX,XwXwX:X<X-XJ n l.P.F.b.j.k.x e b.x.t 8.H.k.p.B.k.z.Y.T.Y.r.s &.rX0XwX,X,X,X,XeXwX,X:XeXwX,XhXvXzXBX+.7 / ! ",
",.eX,XwX,XwXwXeX,XwX:X,XwX:XwX;XJ h z.F.H.s.r v h r h.h.j w.n.e.f v c 7.h.H.E.0.a %.9X0XeXeXwX0XwX,XeXwX:XwXeX:XhXvXzXBX+.7 ^ ~ ",
",.aX,XwXwXeX:XeX:XeXwXeXwXeX<X-XJ h x.F.G.C.~./.(./.s.e.w.w.f.N._.~.~.N.V.E.F.i.s :.eXqX,X,XwX0XwX:X,XwXwXeXwX:XhXvXkXBX+.^ ~ ! ",
",.rXqXwXwXeXwXeX,XwX,XwXwX0X,X;XY k B.Y.R.oX4XOX5XoXM.m k.y.r.).OX4X6XOX].].Y.i.y %.rX2XeX9XwX<XeX,XwX,X,XwXwX,XhXvXkXBX+.7 ~ ~ ",
",.eXwXwX:XwX,XeX,X0X,XeXwXwX,X-XR k z.[.OX(.S D D M.).XX].'. X^.I T T M.XX|.R.0.s %.2X<XqX0XwXwX,X:XwXwX,XeXwX:XhXvXzXBX+.7 ~ ! ",
",.eXqX,XwXeX,X,X:XeX:XwXwXwXeX;XG k a.'.4XM.w e y Q. X6XW.[.5X!.Z e q z XX6X`.6.y %.wX,XqXwX,X0XwX:XwX,X,XwXwX,XhXvXzXBX+.7 ~ ! ",
",.eX,XwX,XeXwXeXeXeX,X,X9XwXeX;XG k x.|.4XM.e e Q.&X@X6X`.'.5X*X!.Z e h {.OXR.8.s >.rX=X0X,X<XwXwXwXwXwX,XeXeX:XhXvXzXBX+.7 ~ ! ",
",.eX,XwXwXwXwXeX,X<XeXwX9XwX:X4.J k x.`.'.).M.t Q.&X.X/.w.N.(.&X#Xy A ).{.'.U.0.w &.<X0XqX<XeX8X,X:XeXwX:XeXwX:XhXvXzXBX+.7 ~ ~ ",
",.rX,XwXwXwX:XeX,XwX<XeX9XwXeX>X/ N c.v.V.OX{.s.!.%XZ e e e z !.$XP _.OX].B.B.s.7 -X<XwX0XeX<X0XeX:X,XwXwXwXwX,XhXvXzXBX+.8 / ! ",
",.rXqXqX,XwX,XeXeXeX,X,X0X0XeX1X2.{ B x m V.'.{.+X+XS e q q r .X@XXX'.`.f.z x T *..X>X:X8X,X<XqXeX,XwX,XwXwXwX,XhXvXzXBX+.7 ^ ! ",
",.eXeXwXwXeXwXeX,X,X,X<XwX0X4.&.=.{ d $ w r.C. X{. Xg.j e j r._.oX X/.p.g % $ G  .&.<.,XrX,X<XqX,X:XwXwX:XwXwX,XhXvXkXBX+.^ ~ ! ",
",.rX,XwX,XwX,X,XeX:XqX:XrX>X| s r d o O : i t v c c f.j.f 7.c.V N c r r = ; . $ c u R 5.8X:X<X0XwXwX,XwXwXwXeX:XhXMXzXBX+.7 ~ ~ ",
",.eX,XwXwXeXwXeXwXqXqXqX4.| E e.t.v o X & = = = * % p u # $ a i = % % * , +   w 9.e.m.K :.eXeXeX,XwX,XwXeX,XwX,XhXvXzXBX+.7 ~ ~ ",
",.eX,X,XwXeXwXeXrX,X:X5. .N q.S.H.l.w O & 1 1 : 3 ; O .   . o O 3 < 3 1 > & # B Y.T.h.n { 3.;X:XwXeX,X,XwXwXeX:XhXvXzXMX+.7 ~ ! ",
",.eX,XwX,XwX,XeX,XwX:X| P d.z.E.Y.G.f.p @ 0 1 3 5 1 + O 0 + O 1 1 < 4 < + - S c.P.U.F.h.r.J 1.qX:XwX,XwXwXwXeX:XhXvXzXBX+.7 ~ ! ",
",.rXeXwX,XeX,XwX8X1. .P e.A.T.Y.Y.D.K.M   + > 1 2 2 1 4 4 5 6 4 1 4 > > X $ B.W.G.A.T.T.p.B { :.:XeX,XqX,X<XwX:XhXvXzXBX+.7 / ^ ",
",.eXqXwXwXwXwXeX0X .A f.v.S.T.Y.T.S.P.B . + 9 1 2 1 1 3 & < 5 1 3 4 > 1 X $ c.P.W.H.P.S.A.z.N J ;X,XeX,XwXwXwX,XhXvXzXBX+.7 ~ ~ ",
",.eXwXwX,XeX,X<X,X| f p.T.E.W.S.U.x.u.r # & 1 < 1 < < 4 4 5 5 1 3 1 < 3 # q 7.p.S.H.T.I.U.A.l P ;X<X,X,X0XwXwX,XhXvXzXBX+.7 ~ ! ",
",.eX:X,X,XeXwX<XaX| y u.L.J.F.S.T.v.n r t * 3 1 2 5 5 2 > 1 6 6 > 1 5 > w g g y.L.T.S.T.T.x.h G ;X<X,X,XwX,XwX,XhXvXzXBX+.7 ~ ! ",
",.eX,XwX,XwXwXwX0X .t y.R.T.H.P.P.A.z.w.e % 4 1 1 1 1 1 1 1 1 1 , 1 5 : $ k l.v.R.A.Y.H.E.v.h G ;X:X,XeXwXwXeX=XhXvXzXBX+.^ ~ ~ ",
",.rXqXwXwXwX,XeX<X>.R m.j.A.T.S.H.T.S.h.V i & 1 1 1 5 1 1 1 1 1 1 1 2 * c u.A.J.S.K.J.S.k.d.I | ;X<XwXwXwXwXwX,XhXvXzXBX+.8 ~ ! ",
",.yXqXwXwXwXwXeXrX;X>.R l x.F.Y.H.T.H.J.c.n % = 1 2 1 2 1 2 6 1 1 2 * r y.A.S.E.Y.P.T.Y.t.a ..5.:XeXwXwXwXwXeX0XhXvXkXBX+.7 ~ ! ",
",.rXwXwX,XeX,XwXeXwX:XJ l b.P.T.H.A.A.W.H.8.w : 1 1 1 1 1 1 1 1 < 9 $ h a.E.U.A.T.A.P.T.8.p >.eXqXeX,X,XwXwXwXwXhXvXzXBX+.7 ~ ! ",
",.eX:XeXwXwXwXeX:XwX=X_ P j.v.T.E.S.P.L.j.v * 2 6 1 1 5 5 5 1 1 5 2 = p w.B.T.T.J.T.P.z.s.F <.wXwXeX,XwXwX:XeX,XjXvXzXBX+.7 ~ ! ",
",.eX,X,X,XeX:XeXqXeX;X1.} N q.T.P.T.P.h.h d 2 2 5 5 1 1 1 1 1 1 1 1 < = r t.v.E.S.W.k.n E <.3.<XwXwX,XwXeX,XwX,XjXvXzXBX+.7 ~ ! ",
",.eXwXwX,XeXwXeXeX,XqXrX4.K I d.y.j.y.m e - + + + + O O O O O O O + + - $ h t.p.p.d.r.P :.eX<X<X9XwX,X,XwX,XwX,XhXvXzXBX+.7 ~ ! ",
"<.rX:XwX,XwX,XeX0XeXqX=XrX5.} r h r g t q # . X . . . . . . . X . . . o $ t t j g t R 1.=X2X,X0XwXwX,XwXwX,XeX:XhXvXzXBX+.7 ~ ! ",
",.rXeXqXwXwXwXeX,XwXwX9XwX,X<.] | | | Y e k n B B B V M w e B B S B M m j i { | [  .;.1XeX,X0XwX0XwXwXwXwXeX,X:XjXMXzXBX+.^ ! ! ",
",.eXqXwX,XeX,XeXwXeXwX0X,XqXqX5.0X=X<.Q V j.T.J.E.S.c.f.N s.c.I.S.G.T.V.r.I ..3.>X5.>X0XwX,X,XwXwXwXwXwX,XwX,X:XhXvXzXBX+.7 ~ ! ",
",.eX,XwXwXwXwXwX,X,XwX9X,X,XyXeX2X2.Y V k.I.P.U.G.L.r.P  .R n a.J.H.T.P.z.e.W  .qXwXwX8XwXwXwXwXwXwXwX:XwXeXwX:XhXvXzXBX+.7 ~ ! ",
",.eX,XwX,XeX,XeX,X,X0XwXeX,X,X,X,X>.s 8.R.T.L.L.H.D.l P 1.| c p.T.E.S.U.U.c.t Q =XwXwX9XwXeXwXwX,X,XwXwXwXwXwX,XhXvXzXBX+.^ ~ ! ",
",.eX,XwXwXwX,XwXeX,X,XwXwXwXwXeXeX:.s w.Y.G.Y.D.Y.S.l C 1.| c p.L.I.U.P.D.z.c _ eXeXwXeXwX9XwXwXwXwXwX:XeXwXwX:XhXMXzXBX+.7 ! ! ",
",.rXqXwXwXwXqX<XwXwX,X,X:X:X,XwXeX:.a w.A.J.W.W.J.S.k F 1.{ r k.R.T.R.E.L.j.r { <X:X:X,XeXeXwXwX:XeXwX,X,XeXwX:XhXMXzXBX+.7 / ! ",
",.rXqXwX,XwX,XeX,X,XeXwXwXwX,X,XeX>.H s.c.b.z.c.a.h.N K 5.| N u.v.v.h.v.v.u.P | wXwX<XeX0X0XwX=XeXwXwXwXwXeXwX,XhXvXzXMXO.7 ~ ~ ",
",.eXwXwXwXeXwXeXrXeX,X:XeXeXeX,XeX9X>.{ z j h j g B X.2.8X4.>.P j j h j j P ..;XwXwXwXqXwX0XeX<XwXeXeX,XeXwXeX,XhXvXzXMX+.^ ~ ^ ",
"3.eXwX:XeX=X;X,X=X,X:X:X=X:X,X=X=XeX>X&./ J J Y K ( :.wX=X,X3.[ J J Y J K | 1.qX0X=X,X=X,X=X,X,X=X8X,X=X,X8X,X,XhXBXMXCX;.8 ^ ) ",
"@.;X4.3.eXiXiXdXiXiXiXiXiXiXiXiXtXiXiXyXyXuXuXqXuXuXaXaXaXpXpXyXyXuXuXuX3XaXdXdXiXiXiXiXiXiXiXiXiXiXaXiXaXaXiXiXfXdXpXdX] ! ! ! ",
"` @.O.O.fXMXvXzXvXcXcXcXcXcXmXcXMXxXxXMXMXMXmXmXlXvXmXNXNXMXmXmXlXnXnXBXMXMXmXxXvXvXxXvXvXvXvXcXvXxXvXvXvXcXvXMX3.$.@.+.) ^ ^ ! ",
"' -.@.#.fXMXcXxXzXcXxXcXbXxXxXxXxXzXxXbXbXzXxXbXkXcXkXkXcXzXzXzXbXzXzXzXzXzXxXxXxXxXxXxXvXzXxXzXvXzXxXxXxXkXxXMX;X#.@.@.` ! ! ! ",
"$.-.-.O.fXMXNXMXBXvXMXvXMXMXMXMXMXmXmXvXMXnXBXBXCXNXvXcXcXnXvXBXNXCXNXCXmXmXmXmXvXMXvXvXBXvXMXvXvXvXMXBXvXvXvXBX3.+.+.-.) ! ! ! ",
"` ' ' ' ,XsXpXpXpXpXpXpXpXpXpXpXsXpXpXpXpXgXiXuXpXuXgXsXgXsXsXgXiXiXpXsXpXpXpXpXpXpXsXpXpXpXpXpXpXpXpXsXpXpXsXsX;.] ' ] ) ! ! ! ",
"  X X                                                                         .                                                 ",
"                                                                                                                          X     "
};
