/* XPM */
static char *_9a12d7c8f9246be9bd347b56e110b42MbVRtw2jdXEbQgbP[] = {
/* columns rows colors chars-per-pixel */
"64 63 239 2 ",
"   c #241F3D",
".  c #37373F",
"X  c #3A2534",
"o  c #18122E",
"O  c #511A23",
"+  c #781D34",
"@  c #681B2B",
"#  c #592D39",
"$  c #532B35",
"%  c #6A2A37",
"&  c #702A39",
"*  c #3D1E51",
"=  c #382849",
"-  c #3D3D45",
";  c #3B374E",
":  c #3D2456",
">  c #322C50",
",  c #3D3A6B",
"<  c #3C3772",
"1  c #392368",
"2  c #431E58",
"3  c #401F4E",
"4  c #44254B",
"5  c #46364D",
"6  c #573749",
"7  c #482758",
"8  c #522757",
"9  c #463856",
"0  c #56355A",
"q  c #562A47",
"w  c #6D2F4A",
"e  c #6C2D46",
"r  c #762B47",
"t  c #6C364B",
"y  c #76364B",
"u  c #693858",
"i  c #793956",
"p  c #65295D",
"a  c #421D60",
"s  c #492B68",
"d  c #542D69",
"f  c #45346A",
"g  c #493767",
"h  c #5B3B6C",
"j  c #593468",
"k  c #423B74",
"l  c #493878",
"z  c #583A78",
"x  c #653469",
"c  c #763767",
"v  c #683972",
"b  c #3C437E",
"n  c #42424A",
"m  c #4E4F54",
"M  c #4C4C59",
"N  c #464656",
"B  c #5A495B",
"V  c #53525C",
"C  c #544952",
"Z  c #684857",
"A  c #79495B",
"S  c #6C535E",
"D  c #73535E",
"F  c #6E434D",
"G  c #4A4668",
"H  c #584966",
"J  c #5A5C69",
"K  c #575568",
"L  c #42427D",
"P  c #494879",
"I  c #574476",
"U  c #565A77",
"Y  c #4C5372",
"T  c #694766",
"R  c #784867",
"E  c #675667",
"W  c #785869",
"Q  c #664D77",
"!  c #675A77",
"~  c #775978",
"^  c #74497B",
"/  c #5D646E",
"(  c #5D6378",
")  c #66616D",
"_  c #74616E",
"`  c #656874",
"'  c #646B7D",
"]  c #6C6D7A",
"[  c #676875",
"{  c #726D7C",
"}  c #7C6D7B",
"|  c #766676",
" . c #6C727D",
".. c #73727C",
"X. c #7A717C",
"o. c #76716E",
"O. c #86253A",
"+. c #99263A",
"@. c #A7353D",
"#. c #882B43",
"$. c #972A48",
"%. c #873549",
"&. c #953347",
"*. c #8A2B55",
"=. c #883A57",
"-. c #993B58",
";. c #932B50",
":. c #A23145",
">. c #883B69",
",. c #844958",
"<. c #964A5B",
"1. c #A1455A",
"2. c #874765",
"3. c #944D65",
"4. c #86586D",
"5. c #895475",
"6. c #855A77",
"7. c #965972",
"8. c #914E70",
"9. c #A75469",
"0. c #AC5970",
"q. c #85697A",
"w. c #96687A",
"e. c #867379",
"r. c #947A75",
"t. c #AB6878",
"y. c #B66F77",
"u. c #C65B64",
"i. c #C86A79",
"p. c #89847F",
"a. c #3C3F92",
"s. c #433E8C",
"d. c #453D86",
"f. c #513C83",
"g. c #413F92",
"h. c #3D428C",
"j. c #3C4384",
"k. c #3E4294",
"l. c #3F4498",
"z. c #44428B",
"x. c #474485",
"c. c #5C4385",
"v. c #424292",
"b. c #53578D",
"n. c #7A4681",
"m. c #6B5A84",
"M. c #71528C",
"N. c #596688",
"B. c #576697",
"V. c #676C86",
"C. c #7A6881",
"Z. c #6D7484",
"A. c #6E7984",
"S. c #657389",
"D. c #737582",
"F. c #737C86",
"G. c #7B7B86",
"H. c #757F88",
"J. c #787A8A",
"K. c #726696",
"L. c #787B98",
"P. c #6B7A92",
"I. c #7769A5",
"U. c #6575A3",
"Y. c #7878A4",
"T. c #6570B2",
"R. c #975985",
"E. c #875A8B",
"W. c #866887",
"Q. c #956986",
"!. c #897784",
"~. c #967785",
"^. c #867694",
"/. c #977699",
"(. c #986999",
"). c #A87889",
"_. c #A86F8D",
"`. c #8C77A7",
"'. c #B07DA2",
"]. c #C4788A",
"[. c #D17186",
"{. c #768187",
"}. c #768089",
"|. c #79818A",
" X c #7F898F",
".X c #7A8896",
"XX c #7C87B9",
"oX c #7685A9",
"OX c #7D87C3",
"+X c #868284",
"@X c #96878D",
"#X c #808990",
"$X c #868995",
"%X c #978998",
"&X c #8F929A",
"*X c #94999D",
"=X c #969497",
"-X c #AA8B9A",
";X c #BB889A",
":X c #B59293",
">X c #B0A69D",
",X c #988BA9",
"<X c #979CA0",
"1X c #9D9BA8",
"2X c #868CBC",
"3X c #919DB9",
"4X c #878EAB",
"5X c #A587A5",
"6X c #A59AA6",
"7X c #B39AAC",
"8X c #B28CA9",
"9X c #A1A5A8",
"0X c #A5A9AC",
"qX c #A5A3A7",
"wX c #B4A7AD",
"eX c #BCA7B8",
"rX c #AEABB3",
"tX c #91A1BA",
"yX c #CB8093",
"uX c #D79398",
"iX c #E58798",
"pX c #C696A7",
"aX c #D991A6",
"sX c #E79FB7",
"dX c #D5ACB2",
"fX c #E6B8B6",
"gX c #EBB4B0",
"hX c #ECC8B9",
"jX c #DAC0B1",
"kX c #8D91C3",
"lX c #94A3CD",
"zX c #BCA4C4",
"xX c #D5B4CA",
"cX c #E6BBC3",
"vX c #F5BAC0",
"bX c #EAC5C1",
"nX c #F5C9C6",
"mX c #F7D6C5",
"MX c #EACFD5",
/* pixels */
"M M M V / / / / / / / / / / / / / / / / / / / / / / / / / / / / / / / / / / / / / / / / / / / / / / / / / / / / V M M M - . . . ",
"J J J / H.H.H.H.H.H.H.H.H.H.H.H.H.H.H.H.H.H.H.H.H.H.H.H.H.H.H.{.H.H.H.H.H.}.H.H.H.H.H.H.H.H.H.H.H.H.H.H.H.H.H.H.` J J J n - - - ",
"J J J ) }.}.}.}.}.}.}.}.}.}.}.}.}.}.}.}.}.}.}.}.}.}.}.}.}.H.}.}.}.}.H.H.}.}.}.}.}.}.}.}.}.}.}.}.}.}.}.}.}.}.}.H.` J J J n - - - ",
"J J J / }.}.}.}.}.}.}.}.}.}.}.}.}.}.}.}.}.}.}.}.}.}.}.}.}.}.H.}.}.H.H.}.}.}.}.}.}.}.}.}.}.}.}.}.}.}.}.}.}.}.}.H.[ J J J n - - - ",
"Z.Z.Z.A.}.}.}.}.}.}.}.}.}.}.}.}.}.}.}.}.}.}.}.}.}.}.}.}.}.}.}.}.}.}.}.}.}.}.H.H.}.}.}.}.}.}.}.}.}.}.}.}.}.}.}.}.$X&X&X&Xm - - - ",
"}.}.}.}.}.}.}.}.}.}.}.}.}.}.}.}.}.}.}.}.}.}.}.}.}.}.}.H.H.F.F.F.F.}.}.}.}.}.}.}.}.}.}.}.}.}.}.}.}.}.}.}.}.}.}.}.<X9X0X0Xm - - - ",
"}.}.}.}.}.}.}.}.}.}.}.}.}.}.}.}.}.}.}.}.}.}.}.}.H.F.Z.' ( U K K ) [ ..D.H.}.}.}.}.}.}.}.}.}.}.}.}.}.}.}.}.}.}.}.<X0X0X0Xm - - - ",
"}.}.H.}.}.}.}.}.}.}.}.}.}.}.}.}.}.}.}.}.}.}.H.F.Z.( U G , , , g 0 $ t S ..F.H.}.}.}.}.}.}.}.}.}.}.}.}.}.}.}.}.}.<X0X0X0Xm - - - ",
"}.}.}.}.}.}.}.}.}.}.}.}.}.}.}.}.{.}.}.}.}.H.A.' U P L x.x.l l h u r #.#.y E H.}.H.}.}.}.}.}.}.}.}.}.}.}.}.}.}.}.<X0X0X0Xm - - - ",
"}.}.}.}.}.}.}.}.}.}.}.}.}.}.}.}.}.}.}.}.}.F.' P x.z.z.z.z.l h c *.$.:.$.;.A ] }.}.}.}.}.}.}.}.H.}.}.}.}.}.}.}.}.<X0X0X0Xm - - - ",
"}.}.}.}.}.}.}.}.}.}.}.}.}.}.}.}.}.}.}.}.H.F.U L d.v.v.k.s.f.v c *.;.;.*.*.u E H.H.}.}.}.}.}.}.}.}.}.}.}.}.}.}.}.<X0X0X0Xm - - - ",
"}.}.}.}.}.}.}.}.}.}.}.}.}.}.}.}.H.|.}.}.F.V.P x.z.v.a.k.v.x.z x c c c n.n.h H D.H.}.H.}.}.}.}.}.}.}.}.}.}.}.}.}.<X0X0X0Xm - - - ",
"}.}.}.}.}.}.}.}.}.}.}.}.}.}.}.}.}.}.}.}.A.U L z.k.a.k.k.k.s.f.z h v M.`.`.I G ( F.}.}.}.}.}.}.}.}.}.}.}.}.}.}.}.<X0X0X0Xm - - - ",
"}.}.}.}.}.}.}.}.}.}.}.}.}.}.}.}.}.}.}.H.Z.Y L j.h.l.l.k.k.h.s.l I ~ 8XxXzXm.g G F.}.}.H.}.}.{.}.}.}.}.}.}.}.}.}.<X0X0X0Xm - - - ",
"}.}.}.}.}.}.}.}.}.}.}.}.}.}.}.}.}.}.}.H.' P b h.v.g.k.k.h.v.s.P Q -XfXMXxX^.G G ] H.}.}.}.}.}.}.}.}.}.}.}.}.}.}.<X0X0X0Xm - - - ",
"}.}.}.}.}.}.}.}.}.}.}.}.}.}.}.}.}.}.}.A.Y b j.j.z.s.a.l.h.s.l j ~ :XnXnXcX/.I k U H.}.}.}.}.}.}.}.}.}.}.}.}.}.}.<X0X0X0Xm - - - ",
"}.}.}.}.}.}.}.}.}.}.}.}.}.}.}.}.}.}.}.Z.P x.j.k l f.s.k.s.l d 8 u w.dXbXpX~ k f G F.}.F.}.}.}.}.}.}.}.}.}.}.}.}.<X0X0X0Xm - - - ",
"}.}.}.}.}.}.}.}.}.}.}.}.}.}.}.}.}.}.H.' k d.l d v n.d.s.d.s v u u t :XcX:XT 9 ; 9  .H.}.H.}.}.}.}.}.}.}.}.}.}.}.<X0X0X0Xm - - - ",
"}.}.}.}.}.}.}.}.}.}.}.}.}.}.}.}.H.F.V.G k l d c R.E.f.x.l 7 0 6 q A dXbX-X6   > > J F.}.}.}.}.}.}.}.}.}.}.}.}.}.<X0X0X0Xm - - - ",
"}.}.}.}.}.}.}.}.}.}.}.}.}.}.}.H.Z.N.Y , k s 8 2.aX'.m.I Q q.7X_ X r.bXmXdX5 o > ; K F.}.}.}.}.}.}.}.}.}.}.}.}.}.<X0X0X0Xm - - - ",
"}.}.}.}.}.}.}.}.}.}.}.}.}.}.}.F.N.x.b L < : 8 5.sXsX5XT w.xXMX~.# >XmXmXdXB o > > M F.}.}.}.}.}.}.}.}.}.}.}.}.}.<X0X0X0Xm - - - ",
"}.}.}.}.}.}.}.}.}.}.}.}.}.{.}.F.V.x.b < 1 a 8 R yXdXpXw.).nXMX>Xr.jXmXmXfX~.= = = G H.}.}.}.}.}.}.}.}.}.}.}.}.}.<X0X0X0Xm - - - ",
"}.}.}.}.}.}.}.}.}.}.}.}.H.}.}.H.Z.N.L < 1 2 2 0 W w.).t.yXvXnXhXhXmXmXmXbXpXT 4 = H H.}.}.}.}.}.}.}.}.}.}.}.}.}.<X0X0X0Xm - - - ",
"}.}.}.}.}.}.}.}.}.}.}.{.}.}.}.}.H.V.P k 1 : * 4 4 0 R 8.t.uXfXmXmXhXhXnXcX;XR 4 5 K H.}.H.}.}.}.}.}.}.}.}.}.}.}.<X0X0X0Xm - - - ",
"}.}.}.}.}.}.}.}.}.}.}.}.}.}.}.}.H.Z.U P f : : = : 0 T W 3.t.uXfXnXgXgXgXpX4.8 4 5 ) H.H.}.}.}.H.}.}.}.}.}.}.}.}.<X0X0X0Xm - - - ",
"}.}.}.}.}.}.}.}.}.}.}.}.}.}.}.}.}.H.Z.U g , 7 : 9 H E W A <.0.yXaXgXdX;X5.q * = M F.}.}.}.}.{.}.}.}.}.}.}.}.}.}.<X0X0X0Xm - - - ",
"}.}.}.}.}.}.}.}.}.}.}.}.}.}.}.}.}.}.H.A.K ; 4 d Q ! ] o.D 2.9.0.t.).).Q.T 4 = N  .H.{.}.}.}.}.}.}.}.}.}.}.}.}.}.<X0X0X0Xm - - - ",
"}.}.}.}.}.}.}.}.}.}.}.}.}.}.}.}.}.}.H.H.] 9 0 M.^.^.+X+Xe.4.7.7.w.Q.W.W.H X 5 `  .H.}.}.}.}.}.}.}.}.}.}.}.}.}.}.<X0X0X0Xm - - - ",
"}.}.}.}.}.}.}.}.}.}.}.}.}.}.}.}.}.{.H.}. .B ~ /.,X6X*X+X=Xe.).w.!.W.~ W.! 5 K K ( F.}.}.}.H.}.}.}.}.}.}.}.}.}.}.<X0X0X0Xm - - - ",
"}.}.}.}.}.}.}.}.}.}.}.}.}.}.}.}.}.}.}.H...| /.,X1X9X&X..$XC.~.e.e.} } !.C.5 7 m.Y.L.H.}.}.}.}.}.}.}.}.}.}.}.}.}.<X0X0X0Xm - - - ",
"}.}.}.}.}.}.}.}.}.}.}.}.}.}.}.}.}.}.}.G.q.q.%X6X0X*XF.! V.~ q.!.@X=X@XX.C.Q g z I.`.L.H.}.}.}.}.}.}.}.}.}.}.}.}.<X0X0X0Xm - - - ",
"}.}.}.}.}.}.}.}.}.}.}.}.}.}.}.}.}.|.!.~.).w.~.%X*XA.K G ^ E.(.5XqXwXrX%XC.I s s c.I.Y.H.H.}.}.}.}.}.}.}.}.}.}.}.<X0X0X0Xm - - - ",
"}.}.}.}.}.}.}.}.}.}.}.}.}.}.}.H.H.G.~.].].w.q.} D./ M H n.(./.6X6X0XrXrX^.Q d s l M.Y.L.}.}.}.}.}.}.}.}.}.}.}.}.<X0X0X0Xm - - - ",
"}.}.}.}.}.}.}.}.H.}.}.}.}.}.}.}.H.!.y.iX].7.5.| J J M T R.(.-X=X=X9XqX%XW.^ j d f P Y.L.}.}.}.}.}.}.}.}.}.}.}.}.<X0X0X0Xm - - - ",
"}.}.}.}.}.}.}.}.}.}.}.}.}.}.}.H.X.~.].].0.2.T K ; N B ~ R.Q.@X+Xp.+X!.| 5.5.c x d P K.L.}.{.}.}.}.}.}.}.}.}.}.}.<X0X0X0Xm - - - ",
"}.}.}.}.}.}.}.}.}.}.}.}.}.}.H...W _._.8.c T [  .M N B T R 4.W D Z Z S W 7.8.>.p s I I.L.}.}.}.}.}.}.}.}.}.}.}.}.<X0X0X0Xm - - - ",
"}.}.}.}.}.}.}.}.}.}.}.}.H.H.D.{ ~ E.^ v x [  .J N J E T T W ~ 6.q.e.!.w.7.8.8.x s I Y.L.H.}.}.}.}.}.}.}.}.}.}.}.<X0X0X0Xm - - - ",
"}.}.}.}.}.}.}.}.}.}.}.H.D.Z.D.^.`.I.K.M.Q D.] K ] V.! H T 6.Q.'.8XeXdXeX-X~.6.h f b.Y.L.}.}.}.}.}.}.}.}.}.}.}.}.<X0X0X0Xm - - - ",
"}.}.}.}.}.}.}.}.}.}.}.H.' V.,X2X2XT.b.m.! { | C.J.V.! E x R 5.R./.5X7XwXwX7XQ.h z I.XXP.}.}.}.}.}.}.}.}.}.}.}.}.<X0X0X0Xm - - - ",
"}.}.}.}.}.}.}.}.}.}.H.F.V.Y.2XOXT.b.N.Z.D.} W./.,XL.! T w =.2.=.c 5.q.~.~.!.W.h z I.4XH.}.}.}.}.}.}.}.}.}.}.}.}.<X0X0X0Xm - - - ",
"}.}.}.}.}.}.}.}.}.}.|.H.oXkXOXT.B.N.F.H.F.q.~.5X5XW.R i %.<.0.-.#.r y R W Z 0 s z I.4X|.H.}.}.}.}.}.}.}.}.}.}.}.<X0X0X0Xm - - - ",
"}.}.}.}.}.}.}.}.}.|.$X4XkXXXT.B.S.A.H.H.J.!.~.~.Q.2.=.-.9.i.u.&.+.#.#.%.A u 8 s l K.L.}.H.}.}.}.}.}.}.}.}.}.}.}.<X0X0X0Xm - - - ",
"H.}.}.}.}.}.}.}.}..X3X3X2XU.B.S.H.H.}.}.J.} D A ,.%.-.i.i.u.@.+.+.+.+.#.y u d d c.K.J.}.H.H.}.}.}.}.}.}.}.}.}.}.<X0X0X0Xm - - - ",
"}.}.}.}.}.}.}.}..XtXlXXXU.N.S.H.}.}.}.}.H...F y &.1.[.iXi.:.+.+.+.+.&.%.y u j I K.L.H.}.}.}.}.}.}.}.}.}.}.}.}.}.<X0X0X0Xm - - - ",
"}.H.}.}.}.}.}..X3XlXXXU.N.S.F.}.H.}.}.}.}.H.} ,.9.i.iXiXi.O.+ O.;.-.3.,.Z Z H ! Z.H.}.}.}.}.}.}.}.}.}.}.}.}.}.}.<X0X0X0Xm - - - ",
"}.}.}.}.}.}.}.4XlXoXU.S.S.H.}.}.}.}.}.}.}.}...D <.9.i.i.t.@ O + =.8.4.W S ) [ H.H.}.}.}.}.}.}.}.}.}.}.}.}.}.}.}.<X0X0X0Xm - - - ",
"}.}.}.}.}.|..X3XU.B.S.H.H.}.}.}.}.}.}.}.}.{.{ t r %.%.y % O @ O.;.=.=.A S | D.}.}.}.}.{.}.}.}.}.}.}.}.}.}.}.}.}.<X0X0X0Xm - - - ",
"}.}.}.}.}..XoX.XS.S.F.H.}.}.}.{.}.}.}.}.}.H._ w r & % O O O O.$.$.$.#.y Z ..H.}.{.}.}.}.}.}.}.H.}.}.}.}.}.}.}.}.<X0X0X0Xm - - - ",
"}.}.{.}.H..XP.A.}.}.}.}.}.}.}.}.}.}.}.}.}.F.W y e e # $ # & #.#.#.#.y F ) D.H.}.}.}.}.}.}.}.}.}.}.}.}.}.}.}.}.}.<X0X0X0Xm - - - ",
"}.}.}.H.H.H.A.H.}.}.}.}.}.}.}.}.}.}.}.}.}.D.E y w t C E & #.=.,.,.A S [ }.}.}.}.}.}.}.}.}.}.}.}.}.}.}.}.}.}.}.}.<X0X0X0Xm - - - ",
"}.}.}.}.H.}.}.{.}.}.}.}.}.}.}.}.}.}.}.}.H.D.Z w t F C _ r ;.3.7.q...H.H.}.}.}.}.}.}.}.}.}.}.}.}.}.}.}.}.}.}.}.}.<X0X0X0Xm - - - ",
"}.}.}.}.}.}.}.}.}.}.}.}.}.}.}.}.}.}.}.}.H.{ t w w 6 V | y ;.2.4.| H.}.}.}.}.}.}.}.}.}.}.}.}.}.}.}.}.}.}.}.}.}.}.<X0X0X0Xm - - - ",
"}.}.}.}.}.}.}.}.}.}.}.}.}.}.}.}.}.}.}.}.F._ w r w Z [ ..W i A W ] H.}.}.}.}.}.H.}.}.}.}.}.}.}.}.}.}.}.}.}.}.}.}.<X0X0X0Xm - - - ",
"}.}.}.}.}.}.}.}.}.}.}.}.}.}.}.}.}.}.}.}.D.A r r w W G.H.D.| | { H.}.}.}.}.}.}.}.}.}.}.}.}.}.}.}.}.}.}.}.}.}.}.}.<X0X0X0Xm - - - ",
"}.}.}.}.}.}.}.}.}.}.}.}.}.}.}.}.}.}.}.}.X.i r r y 6.G.H.}.H.}.H.}.H.}.}.}.}.}.}.}.}.}.}.}.}.}.}.}.}.}.}.}.}.}.}.<X0X0X0Xm - - - ",
"}.}.{.H.}.}.}.}.}.}.}.}.}.}.}.}.}.}.}.H.X.A r e i 4.q...H.H.{.}.}.}.{.}.}.}.}.}.}.}.}.}.}.}.}.}.}.}.}.}.}.}.}.}.<X0X0X0Xm - - - ",
"D.D.D.F.#X#X X#X#X#X#X#X#X#X#X#X X#X#X X+X} W W W } !.|. X#X#X#X#X#X#X#X#X#X#X#X#X#X#X#X#X#X#X#X#X#X#X#X#X#X#X#X&X*X*X*Xm - - - ",
"J J J [ 0X0X0X0X0X0X0X0X0X0X0X0X9X0X0X0X9XqX9X9X9X9X9X9X0X0X0X0X0X0X0X0X0X0X0X0X0X0X0X0X0X0X0X0X0X0X0X0X0X0X0X9XD.J J J n - - - ",
"J J J [ 0X0X0X0X0X0X0X0X0X0X0X0X0X0X0X0X0X0X0X0X0X0X0X0X0X0X0X0X0X0X0X0X0X0X0X0X0X0X0X0X0X0X0X0X0X0X0X0X0X0X0X9X..J J J n - - - ",
"J J J [ 0X0X0X0X0X0X0X0X0X0X0X0X0X0X0X0X0X0X0X0X0X0X0X0X0X0X0X0X0X0X0X0X0X0X0X0X0X0X0X0X0X0X0X0X0X0X0X0X0X0X0X9X..J J J n - - - ",
"J J J ` 9X9X9X9X9X9X9X9X9X9X9X9X9X9X9X9X9X9X9X9X9X9X9X9X9X9X9X9X9X9X9X9X9X9X9X9X9X9X9X9X9X9X9X9X9X9X9X9X9X9X9X9X..J J J n - - - ",
"- - - - - - - - - - - - - - - - - - - - - - - - - - - - - - - - - - - - - - - - - - - - - - - - - - - - - - - - - - - - - - - - ",
"- - - - - - - - - - - - - - - - - - - - - - - - - - - - - - - - - - - - - - - - - - - - - - - - - - - - - - - - - - - - - - - - "
};
