/* XPM */
static char *_941ada20af44f68b62db2cfb9021d52f3De8tqFdmiwfuQP[] = {
/* columns rows colors chars-per-pixel */
"64 63 225 2 ",
"   c #1F131F",
".  c #1D1723",
"X  c #36142A",
"o  c #351A34",
"O  c #2E0F2B",
"+  c #36373E",
"@  c #322634",
"#  c #521417",
"$  c #54141A",
"%  c #561B18",
"&  c #48241C",
"*  c #532B16",
"=  c #562B1B",
"-  c #5C331B",
";  c #6A2A1B",
":  c #62351D",
">  c #663919",
",  c #753B1A",
"<  c #77261B",
"1  c #461B39",
"2  c #51172B",
"3  c #641C27",
"4  c #572B24",
"5  c #593729",
"6  c #573938",
"7  c #4D2A39",
"8  c #692D25",
"9  c #683926",
"0  c #763428",
"q  c #6A3A38",
"w  c #783A36",
"e  c #772C28",
"r  c #6C411A",
"t  c #74431B",
"y  c #7B491C",
"u  c #7F5813",
"i  c #5D413E",
"p  c #6D4222",
"a  c #664028",
"s  c #784A26",
"d  c #7F532E",
"f  c #66453A",
"g  c #794437",
"h  c #7B593B",
"j  c #3B1547",
"k  c #3A2646",
"l  c #3D3D45",
"z  c #3D3149",
"x  c #491548",
"c  c #4A1C57",
"v  c #541859",
"b  c #4E154F",
"n  c #4B2944",
"m  c #473849",
"M  c #5D3E47",
"N  c #522153",
"B  c #57255F",
"V  c #533152",
"C  c #772A5A",
"Z  c #68334E",
"A  c #561865",
"S  c #56156B",
"D  c #651C7B",
"F  c #5C2269",
"G  c #5C217B",
"H  c #5B3F65",
"J  c #642577",
"K  c #6A2C6B",
"L  c #42434A",
"P  c #48474D",
"I  c #5B4A48",
"U  c #4E4F54",
"Y  c #4C4C58",
"T  c #474A51",
"R  c #574356",
"E  c #51525E",
"W  c #4F515D",
"Q  c #634744",
"!  c #794944",
"~  c #704755",
"^  c #66595B",
"/  c #745B5B",
"(  c #72504F",
")  c #72615F",
"_  c #5A5C69",
"`  c #585963",
"'  c #60476B",
"]  c #675B65",
"[  c #6D4C6A",
"{  c #5D646E",
"}  c #6C6265",
"|  c #63626D",
" . c #6C666B",
".. c #6B676B",
"X. c #74656A",
"o. c #656975",
"O. c #6A6974",
"+. c #736D74",
"@. c #7F6A7B",
"#. c #6C737C",
"$. c #667078",
"%. c #72747C",
"&. c #727177",
"*. c #893824",
"=. c #842F2A",
"-. c #834B1C",
";. c #88551E",
":. c #864828",
">. c #9B4829",
",. c #845324",
"<. c #895524",
"1. c #8D5A23",
"2. c #8E5B2A",
"3. c #82532C",
"4. c #955B27",
"5. c #894836",
"6. c #944836",
"7. c #895B34",
"8. c #9A5837",
"9. c #A64C27",
"0. c #B24E24",
"q. c #B75529",
"w. c #A75A37",
"e. c #AE552D",
"r. c #94622B",
"t. c #9A652B",
"y. c #9D6B2D",
"u. c #966427",
"i. c #986632",
"p. c #8F6130",
"a. c #A16C2C",
"s. c #A2652C",
"d. c #A6712D",
"f. c #AB752E",
"g. c #A66B37",
"h. c #BA6838",
"j. c #AA7433",
"k. c #AA7633",
"l. c #B47C33",
"z. c #B17D3A",
"x. c #A45E19",
"c. c #C76B3B",
"v. c #CD713B",
"b. c #C55E33",
"n. c #823754",
"m. c #803764",
"M. c #875349",
"N. c #A45E44",
"B. c #A96243",
"V. c #BA6A43",
"C. c #AB764A",
"Z. c #96727C",
"A. c #C97747",
"S. c #CB794A",
"D. c #BC8335",
"F. c #B98639",
"G. c #C48A39",
"H. c #C38B37",
"J. c #CB9138",
"K. c #AC894B",
"L. c #D98954",
"P. c #D29153",
"I. c #E08C53",
"U. c #E5945A",
"Y. c #DA9766",
"T. c #E99C62",
"R. c #EAA469",
"E. c #F4A967",
"W. c #FDB46C",
"Q. c #EDB27D",
"!. c #FAB878",
"~. c #E1A475",
"^. c #6D1D92",
"/. c #6A2384",
"(. c #68228A",
"). c #6C229B",
"_. c #75249B",
"`. c #722798",
"'. c #772589",
"]. c #761DA3",
"[. c #7926A8",
"{. c #7E29B3",
"}. c #6E7480",
"|. c #727582",
" X c #747C85",
".X c #757F88",
"XX c #8428BC",
"oX c #8B798F",
"OX c #862AC4",
"+X c #8A2BC9",
"@X c #8E2CD3",
"#X c #8A22D1",
"$X c #922DDC",
"%X c #922AD5",
"&X c #9230DB",
"*X c #9037C5",
"=X c #962DE3",
"-X c #9A2FE9",
";X c #9B31ED",
":X c #9731E6",
">X c #9D32F3",
",X c #9E31FB",
"<X c #9F2FF3",
"1X c #A231FD",
"2X c #A133F9",
"3X c #768187",
"4X c #768089",
"5X c #7D858D",
"6X c #808990",
"7X c #898C93",
"8X c #93959A",
"9X c #888E95",
"0X c #AA8481",
"qX c #979CA0",
"wX c #979CA0",
"eX c #A1A5A8",
"rX c #A5A9AC",
"tX c #A5A9AC",
"yX c #A1A5A7",
"uX c #EDB989",
"iX c #F8BD83",
"pX c #DDB7A4",
"aX c #FEC488",
"sX c #FBCC94",
"dX c #ECD6C8",
/* pixels */
"Y Y Y W { { { { { { { { { { { { { { { { { { { ` | { { { { { { { { { { { { { { { { { { { { { { { { { { { { { { { W Y Y Y l + + + ",
"_ _ _ { .X.X.X.X.X.X.X.X.X.X.X.X.X4X.X.X.X.XO.n %..X.X.X.X.X.X.X.X.X.X.X.X.X.X4X.X.X.X.X.X.X.X.X.X.X.X.X.X.X.X.Xo._ _ _ L l l l ",
"_ _ _ | 4X4X4X4X4X4X4X4X4X4X4X4X3X4X4X4X4X.XR X %.4X4X4X4X4X4X3X4X4X4X4X4X4X4X4X4X4X4X4X4X4X4X4X4X4X4X4X4X4X4X.Xo._ _ _ L l l l ",
"_ _ _ { 4X4X4X4X4X4X4X4X4X4X4X4X4X4X4X3X.X| A c | .X4X4X4X4X4X4X.X4X4X.X4X4X4X4X.X4X4X4X4X4X4X4X4X4X4X4X4X4X4X.Xo._ _ _ L l l l ",
"}.}.}.|.4X4X4X4X4X4X4X4X4X4X4X4X4X4X4X4X.XH ]._.k L o..X.X4X4X4X4X4X4X4X4X4X4X.X4X4X.X4X4X4X4X4X4X4X4X4X4X4X4X4X7X8X8X8XT l l l ",
"4X4X4X4X4X4X4X4X4X4X4X4X4X4X4X4X4X4X4X4X.Xv #X$X^.j k m $. X4X3X4X4X4X4X4X.X|.}.$.#..X4X4X4X.X4X4X4X4X4X4X4X4X4XwXeXtXtXU l l l ",
"4X4X4X4X4X4X4X4X4X4X4X4X4X4X4X4X4X4X4X4X.Xx ].;X;X@X(.x X ` .X.X.X4X3X4X.X%.K c . + |.4X4X4X4X4X4X4X4X4X4X4X4X4XwXrXrXrXU l l l ",
"4X4X.X4X4X4X4X4X4X4X4X4X4X4X4X4X4X4X4X4X.Xm S $X1X2X;X@X^.v R R #.4X4X4XO.J [.(.z $.4X4X4X4X4X4X4X4X4X4X4X4X4X4XwXrXrXrXU l l l ",
"4X4X4X4X4X4X4X4X4X4X4X4X4X4X4X4X4X4X4X4X.X` O XX1X1X1X1X<X%X{.D n R  X|.J XXOXj W .X4X4X4X4X4X4X4X4X4X4X4X4X4X4XwXrXrXrXU l l l ",
"4X4X4X4X4X4X4X4X4X4X4X4X4X4X4X4X4X4X4X4X.X{ o ^.-X2X1X1X1X2X>X+X(.A H ] /.-X).@ #.4X4X4X4X4X4X4X4X4X4X4X4X4X4X4XwXrXrXrXU l l l ",
"4X4X4X4X4X4X4X4X4X4X4X4X4X4X4X4X4X4X4X4X.Xo.k S OX>X1X1X1X1X2X-XOX`.v S =X=XJ T  X4X4X4X4X4X4X4X4X4X4X4X4X4X4X4XwXrXrXrXU l l l ",
"4X4X4X4X4X4X4X4X4X4X4X4X4X4X4X4X4X4X.X.X XB ).&X>X2X,X1X1X1X1X2X:XOX[.-X>X[.N .X4X4X4X4X4X4X4X4X4X4X4X4X4X4X4X4XwXrXrXrXU l l l ",
"4X4X4X4X4X4X4X4X4X4X4X4X4X4X4X4X4X4X|.' F OX>X2X1X1X1X1X1X1X1X1X2X>X>X2X@XD 1 .X4X4X4X4X4X4X4X4X4X4X4X4X4X4X4X4XwXrXrXrXU l l l ",
"4X4X4X4X4X4X4X4X4X4X4X4X4X4X4X.X4X|.' [.&X2X2X1X1X1X2X1X1X2X1X1X1X1X>X@X`.b . .X4X4X4X4X4X4X4X4X4X4X4X4X4X4X4X4XwXrXrXrXU l l l ",
"4X4X4X4X4X4X4X4X4X4X4X4X4X4X4X.X|.' [.>X2X2X:X;X1X1X1X1X,X;X1X1X1X>X@X(.F N o .X4X4X4X4X4X4X.X4X4X4X4X4X4X4X4X4XwXrXrXrXU l l l ",
"4X4X4X4X4X4X4X4X4X4X4X4X4X4X.X.X' [.>X>X;X$X@X>X1X1X1X1X>X=X>X1X,X:X{.F F N 1 .X4X4X4X4X4X4X4X4X4X4X4X4X4X4X4X4XwXrXrXrXU l l l ",
"4X4X4X4X4X4X4X4X4X4X4X4X4X4X4X|.J $X:XOX{.[.XX<X2X,X1X,X$X{.&X>X2X+X_.F B N 1 .X4X4X4X4X4X4X4X.X4X4X4X4X4X4X4X4XwXrXrXrXU l l l ",
"4X4X4X4X4X4X4X4X4X4X4X.X4X4X4XO.A ).c k c G XX-X$X:X2X>X{.`.XX:X>XXX/.A N N 1 .X4X4X4X4X4X.X4X4X4X4X4X4X4X4X4X4XwXrXrXrXU l l l ",
"4X4X4X4X4X4X4X4X4X4X4X4X4X4X4XO.O @ o.#.l o OX+X_.OX>X;X[./.'.XX-XXXJ F N v x .X4X4X4X4X4X4X4X.X4X4X4X4X4X4X4X4XwXrXrXrXU l l l ",
"4X4X4X4X4X4X4X4X4X4X4X.X.X4X4X X|  X.X X' G {.'.C _.+X=X`.J m.m.*XXX/.B N x O T  X4X4X4X4X4X4X4X4X4X4X4X4X4X4X4XwXrXrXrXU l l l ",
"4X4X4X4X4X4X4X4X4X4X4X4X4X4X4X4X4X4X4X Xn J /.Z =.C _.{.[.J K n.n.D D v v x O @ #.4X4X4X4X.X4X4X4X4X4X4X4X4X4X4XwXrXrXrXU l l l ",
"4X4X4X4X4X4X4X4X4X4X4X4X4X4X4X4X4X4X4X|.7 b B e w M Z K K J K ~ 7 V 2 1 v A b X | .X4X4X4X4X4X4X4X4X4X4X4X4X4X4XwXrXrXrXU l l l ",
"4X4X4X4X4X4X4X4X4X4X4X4X4X4X4X4X4X4X4X X@ m 3 *.~ @.~ Z.6.K K [ n oXe 3 v v o `  X4X4X4X4X4X4X4X4X4X4X4X4X4X4X4XwXrXrXrXU l l l ",
"4X4X4X4X4X4X4X4X4X4X4X4X4X4X4X4X4X4X4X.X#.] $ >.~.0X! dXuXuXpXZ.q pXc.< O   ` .X4X4X4X4X4X4X4X4X4X4X4X4X4X4X4X4XwXrXrXrXU l l l ",
"4X4X4X4X4X4X4X4X4X4X4X4X4X4X4X4X4X4X4X4X.X.X] 6.E.Q.Q.aXaXaXsXuXQ.!.V.6 P $..X4X4X4X4X4X4X4X4X4X4X4X4X4X4X4X4X4XwXrXrXrXU l l l ",
"4X4X4X4X4X4X4X4X4X4X4X4X4X4X4X4X4X4X4X4X.X.X .q V.R.W.W.!.!.aXiXW.L.:.I I  . X4X3X4X4X4X4X4X4X4X4X4X4X4X4X4X4X4XwXrXrXrXU l l l ",
"4X4X4X4X4X4X4X4X4X4X4X4X4X4X4X4X4X4X4X4X.X .9 y , >.I.E.W.!.!.E.S.:.t ,.<.5 6  X.X4X4X4X4X4X4X4X4X4X4X4X4X4X4X4XwXrXrXrXU l l l ",
"4X4X4X4X4X4X4X4X4X4X4X4X4X4X4X4X4X3X4X.X .d 4.-.y 0 :.e.V.A.V.w.:.9 <.a.l.a.<.f &.4X.X4X4X4X4X4X4X4X4X4X4X4X4X4XwXrXrXrXU l l l ",
"4X4X4X4X4X4X4X4X4X4X4X4X4X4X4X4X4X4X4X XM y.d.y ,.3.2.:.V.S.5.s.3.p t y.D.D.:.9 } .X4X4X4X4X4X4X4X4X4X4X4X4X4X4XwXrXrXrXU l l l ",
"4X4X4X4X4X4X4X4X4X4X4X4X4X4X4X4X4X4X.X&.8 s t.- 2.r.p.y.C.C.j.,.4.s * 1.l.4.>.; ] .X4X4X.X4X4X4X4X4X4X4X4X4X4X4XwXrXrXrXU l l l ",
"4X4X4X4X4X4X4X4X4X4X4X4X4X4X4X4X.X.X%.! 0.-.,.: a.l.3.a.7.z.d.y f.<.* t ,.9.v.A.M.%..X4X4X3X4X3X4X4X4X4X4X4X4X4XwXrXrXrXU l l l ",
"4X4X4X4X4X4X4X4X4X4X4X4X4X4X4X4X4X4XX.*.b.0.:.9 l.D.r.s k.H.y.y.f.a.- > ; q.T.iXS.M..X4X4X4X4X4X4X4X4X4X4X4X4X4XwXrXrXrXU l l l ",
"4X4X4X4X4X4X4X4X4X4X4X4X4X4X4X4X4X.X/ B.L.q.g Q j.z.p.k.D.2.8 p.t.;.y 5 Q ! Y.aXU.5. X4X4X.X4X4X4X4X4X4X4X4X4X4XwXrXrXrXU l l l ",
"4X4X4X4X4X4X4X4X4X4X4X4X4X4X4X4X4X|.w U.T.8./ ^ 9 a y.D.y.4 3.K.g.<.= 4 X.M.R.!.A.( .X4X4X4X.X4X4X4X4X4X4X4X4X4XwXrXrXrXU l l l ",
"4X4X4X4X4X4X4X4X4X4X4X4X4X4X4X4X4X%.5.T.I.g  X%.5 = r p y.t.s P.P.<.r % 5.U.!.U.>.+..X4X4X.X4X4X4X4X4X4X4X4X4X4XwXrXrXrXU l l l ",
"4X4X4X4X4X4X4X4X4X4X4X4X4X4X4X4X4X%.5.R.I.g &.( s & & * : p 9 s l.u.u e.U.!.U.w.)  X4X4X4X4X4X4X4X4X4X4X4X4X4X4XwXrXrXrXU l l l ",
"4X4X4X4X4X4X4X4X4X4X4X4X4X4X4X4X4X) B.U.v.w } 7.= - = * > p 9 - y x.-.A.E.U.w./ .X4X4X3X4X4X4X4X4X4X4X4X4X4X4X4XwXrXrXrXU l l l ",
"4X4X4X4X4X4X4X4X4X4X4X4X4X4X4X4X4Xw A.R.U.8.7.s 4 2.p p > : > > * , q.L.S.9./ .X4X4X4X4X4X4X4X4X4X4X4X4X4X4X4X4XwXrXrXrXU l l l ",
"4X4X4X4X4X4X4X4X4X4X4X4X4X4X4X4X4Xq c.V.S.:.4.p s p d y.4.u.y.k.: >.9.0.9.: } .X4X4X4X4X4X4X4X4X4X4X4X4X4X4X4X4XwXrXrXrXU l l l ",
"4X4X4X4X4X4X4X4X4X4X4X4X4X4X4X4X4X/ >.c.=.q i s ,.p 9 9 r.d.D.F.j.= * ; , F.K.^ .X4X4X4X4X4X4X4X4X4X4X4X4X4X4X4XwXrXrXrXU l l l ",
"4X4X4X4X4X4X4X4X4X4X4X4X4X4X4X4X4X|.w q.9.0 f 2.a.t.,.s d d 3.3.d d y , 4 3.F.h | .X4X4X4X4X4X4X4X4X4X4X4X4X4X4XwXrXrXrXU l l l ",
"4X4X4X4X4X4X4X4X4X4X4X4X4X4X4X4X4X.X+.w 0 ^ d k.D.D.d.u.u.1.a.k.k.a.1.t i I 6 7 ] .X4X4X.X4X4X4X4X4X4X4X4X4X4X4XwXrXrXrXU l l l ",
"4X4X4X4X4X4X4X4X4X4X4X4X4X4X4X4X4X4X4X.X.X/ g.H.G.G.d.4.t > <.f.D.l.4.-.Q .X.X.X3X4X4X4X4X4X4X4X4X4X4X4X4X4X4X4XwXrXrXrXU l l l ",
"4X4X4X4X4X4X4X4X4X4X4X4X4X4X4X4X4X4X4X4X.Xh l.G.G.D.j.;.9 r t 1.l.D.y.r.d } 4X4X4X4X4X4X4X4X4X4X4X4X4X4X4X4X4X4XwXrXrXrXU l l l ",
"4X4X4X4X4X4X4X4X4X4X4X4X4X4X4X4X4X4X4X4X4Xf t.l.H.D.d.4., s 1.<.a.D.F.j.p ^ 4X4X4X4X.X4X4X4X.X4X4X4X4X4X4X4X4X4XwXrXrXrXU l l l ",
"4X4X4X4X4X4X4X4X4X4X4X4X4X4X4X4X4X4X4X4X.X5 <.l.H.f.t.u.p , 4.a.j.F.z.r.: ^ 4X4X4X4X4X4X4X4X4X4X4X4X4X4X4X4X4X4XwXrXrXrXU l l l ",
"4X4X4X4X4X4X4X4X4X4X4X4X4X4X4X4X4X4X4X4X.X5 1.D.J.d.-.4.s : t u.y.y.2.t : ^ 4X4X4X4X4X4X4X4X4X4X4X4X4X4X4X4X4X4XwXrXrXrXU l l l ",
"4X4X4X4X4X4X4X4X4X4X4X4X4X4X4X4X4X4X4X4X.X5 r.H.J.D.-.-.s * > ;.r.;.y y 9 ..4X4X4X4X4X4X4X4X4X4X4X4X4X4X4X4X4X4XwXrXrXrXU l l l ",
"4X4X4X4X4X4X4X4X4X4X4X4X4X4X4X4X4X4X4X4X.Xf p.7.p.2.,.y 9 & > y 1.;.t a ] .X4X4X4X4X4X4X4X4X4X4X4X4X4X4X4X4X4X4XwXrXrXrXU l l l ",
"4X4X4X4X4X4X4X4X4X4X4X4X4X4X4X4X4X4X4X4X.X .9 >.h.h.:.- 9 ^ 5 : 9 9 :.4 %.4X4X4X4X4X4X4X4X4X4X4X4X4X4X4X4X4X4X4XwXrXrXrXU l l l ",
"4X4X4X4X4X4X4X4X4X4X4X4X4X4X4X4X4X4X.X+.] X.q w.U.U.h.8 }  X/ >.A.S.A.0 } .X.X4X4X4X4X4X4X4X4X4X4X4X4X4X4X4X4X4XwXrXrXrXU l l l ",
"4X4X4X4X4X4X4X4X4X4X4X4X4X4X4X4X4X.X+.! 8.*.w.6.N.R.A.w .X.XX.9.L.L.w.< q .X4X4X4X4X4X4X4X4X4X4X4X4X4X4X4X4X4X4XwXrXrXrXU l l l ",
"4X4X4X4X4X4X4X4X4X4X4X4X4X4X4X4X4X Xf w.5.w.P.B.0 Y.c.w .X.X] 8 5.>.w.w.f .X4X4X4X4X4X4X4X4X4X4X4X4X4X4X4X4X4X4XwXrXrXrXU l l l ",
"4X4X4X4X4X4X4X4X4X4X4X4X4X4X4X4X4X%.4 # # # $ $ $ 5.h.w .X.X] 8.Y.5.L.g.Q .X4X4X4X4X4X4X4X4X4X4X4X4X4X4X4X4X4X4XwXrXrXrXU l l l ",
"4X4X4X4X4X4X4X4X4X4X4X4X4X4X4X4X.X.X^ 2 % $ # # # $ ; q .X4X%.! g 8 5.8 } .X4X3X4X4X4X4X4X4X4X4X4X4X4X4X4X4X4X4XwXrXrXrXU l l l ",
"4X4X4X4X4X4X4X4X4X4X4X4X4X4X4X4X4X4X XO...6 2 $ $ # 5 +..X4X4X&.....O.O..X4X4X4X4X4X4X4X4X4X4X4X4X4X4X4X4X4X4X4XwXtXtXtXU l l l ",
" X X X X6X6X5X6X6X6X6X6X6X6X6X6X6X6X6X6X6X5XX.Q M M +.5X6X6X6X6X6X6X6X6X6X6X6X6X6X6X6X6X6X6X6X6X6X6X6X6X6X6X6X6X8X8X8X8XT l l l ",
"_ _ _ o.tXtXtXtXtXtXtXtXtXtXtXtXtXtXeXtXrXtXtXtXtXtXtXtXtXtXtXtXtXtXtXtXtXtXtXtXtXtXtXtXtXtXtXtXtXtXtXtXtXtXtXeX|._ _ _ L l l l ",
"_ _ _ o.rXrXrXrXrXrXrXrXrXrXrXrXrXrXrXrXrXrXrXrXrXrXrXrXrXrXrXrXrXrXtXtXrXrXrXrXrXrXrXrXrXrXrXrXrXrXrXrXrXrXrXeX%._ _ _ L l l l ",
"_ _ _ o.rXrXrXtXrXrXrXrXrXrXrXrXrXrXrXrXrXrXrXrXrXrXrXrXrXrXtXrXrXrXtXtXrXrXrXrXrXrXrXrXrXrXrXrXrXrXrXrXrXrXrXeX%._ _ _ L l l l ",
"` _ _ o.eXeXeXeXeXeXeXeXeXeXeXeXyXeXeXeXeXeXeXeXyXeXeXeXyXeXeXeXeXeXeXeXeXeXeXeXeXeXeXeXeXeXeXeXeXeXeXeXeXeXeXyX&._ _ _ L l l l ",
"l l l l l l l l l l l l l l l l l l l l l l l l l l l l l l l l l l l l l l l l l l l l l l l l l l l l l l l l l l l l l l l l ",
"l l l l l l l l l l l l l l l l l l l l l l l l l l l l l l l l l l l l l l l l l l l l l l l l l l l l l l l l l l l l l l l l "
};
