/* XPM */
static char *_b30cbacb4884508806cc1d84196699crPBhl6av23lbsBoC[] = {
/* columns rows colors chars-per-pixel */
"64 64 14 1 ",
"  c #768089",
". c #3C3C44",
"X c #A7AAAC",
"o c #A6A9AB",
"O c #5C5D66",
"+ c #646B75",
"@ c black",
"# c #73757B",
"$ c #8D949A",
"% c #757F88",
"& c #A5A8AA",
"* c #999EA2",
"= c #4C4C57",
"- c #9A9FA3",
/* pixels */
"===O++++++++++++++++++++++++++++++++++++++++++++++++++++O===....",
"OOO+                                                   %+OOO=...",
"OOO+                                                   %+OOO=...",
"OOO+                                                   %+OOO=...",
"####%                                                    $$$=...",
"                                                        -XXoO...",
"                                                        -Xo&O...",
"                                                        *Xo&O...",
"                                                        *Xo&O...",
"                                                        *Xo&O...",
"                                                        *Xo&O...",
"                                                        *Xo&O...",
"                                                        *Xo&O...",
"                                                        *Xo&O...",
"                                                        *Xo&O...",
"                                                        *Xo&O...",
"                                                        *Xo&O...",
"                                                        *Xo&O...",
"                                                        *Xo&O...",
"                                                        *Xo&O...",
"                                                        *Xo&O...",
"                                                        *Xo&O...",
"                                                        *Xo&O...",
"                                                        *Xo&O...",
"                                                        *Xo&O...",
"                                                        *Xo&O...",
"                                                        *Xo&O...",
"                                                        *Xo&O...",
"                                                        *Xo&O...",
"                                                        *Xo&O...",
"                                                        *Xo&O...",
"                                                        *Xo&O...",
"                                                        *Xo&O...",
"                                                        *Xo&O...",
"                                                        *Xo&O...",
"                                                        *Xo&O...",
"                                                        *Xo&O...",
"                                                        *Xo&O...",
"                                                        *Xo&O...",
"                                                        *Xo&O...",
"                                                        *Xo&O...",
"                                                        *Xo&O...",
"                                                        *Xo&O...",
"                                                        *Xo&O...",
"                                                        *Xo&O...",
"                                                        *Xo&O...",
"                                                        *Xo&O...",
"                                                        *Xo&O...",
"                                                        *Xo&O...",
"                                                        *Xo&O...",
"                                                        *Xo&O...",
"                                                        *Xo&O...",
"                                                        *Xo&O...",
"                                                        *Xo&O...",
"                                                        *Xo&O...",
"    %%%%%%%%%%%%%%%%%%%%%%%%%%%%%%%%%%%%%%%%%%%%%%%%%%% -XXoO...",
"+++%$$$$$$$$$$$$$$$$$$$$$$$$$$$$$$$$$$$$$$$$$$$$$$$$$$$$    =...",
"OOO#oXXXXXXXXXXXXXXXXXXXXXXXXXXXXXXXXXXXXXXXXXXXXXXXXXX&#OOO=...",
"OOO#&oooooooooooooooooooooooooooooooooooooooooooooooooo&#OOO=...",
"OOO#XXXXXXXXXXXXXXXXXXXXXXXXXXXXXXXXXXXXXXXXXXXXXXXXXXX&#OOO=...",
"===O####################################################O===....",
"................................................................",
"................................................................",
"@@@@@@@@@@@@@@@@@@@@@@@@@@@@@@@@@@@@@@@@@@@@@@@@@@@@@@@@@@@@@@@@"
};
