/* XPM */
static char *c3384371b4004c91dd9c30bbac2275e6qwHXeXgFIudPvSmp[] = {
/* columns rows colors chars-per-pixel */
"64 64 230 2 ",
"   c #010102",
".  c #05060A",
"X  c #35353F",
"o  c #37383D",
"O  c #3D3D45",
"+  c #3E3E48",
"@  c #373A43",
"#  c #403F45",
"$  c #42434A",
"%  c #4A4B57",
"&  c #4E515C",
"*  c #52535D",
"=  c #55585F",
"-  c #71685B",
";  c #565965",
":  c #5C5D65",
">  c #5B5D69",
",  c #525561",
"<  c #4F5160",
"1  c #5F6571",
"2  c #5C6169",
"3  c #62646E",
"4  c #696765",
"5  c #756A68",
"6  c #636A74",
"7  c #656875",
"8  c #6B727A",
"9  c #71747C",
"0  c #727C7E",
"q  c #7B7A7C",
"w  c #76726B",
"e  c #735A53",
"r  c #995A2B",
"t  c #8C6637",
"y  c #B26D39",
"u  c #B17038",
"i  c #B16720",
"p  c #CD5D01",
"a  c #C75F09",
"s  c #D25D00",
"d  c #C56402",
"f  c #CC6302",
"g  c #CD6C01",
"h  c #C9670B",
"j  c #D46202",
"k  c #DB6403",
"l  c #D46D04",
"z  c #DA6B02",
"x  c #DA640C",
"c  c #D46D0B",
"v  c #D4650A",
"b  c #CD7100",
"n  c #D47203",
"m  c #D87508",
"M  c #C96C16",
"N  c #D66814",
"B  c #C67815",
"V  c #D97B17",
"C  c #E36904",
"Z  c #ED7B0E",
"A  c #E9750A",
"S  c #F97C0B",
"D  c #E47D14",
"F  c #EC7B13",
"G  c #E8791B",
"H  c #F47B17",
"J  c #C9742A",
"K  c #D17326",
"L  c #9E714B",
"P  c #97775A",
"I  c #876A55",
"U  c #A97E5A",
"Y  c #A97548",
"T  c #877768",
"R  c #887A75",
"E  c #907667",
"W  c #A67E66",
"Q  c #74817E",
"!  c #7B817E",
"~  c #AD9334",
"^  c #DE810C",
"/  c #DC8415",
"(  c #DA981C",
")  c #CE831B",
"_  c #E9860B",
"`  c #F5840C",
"'  c #FB850C",
"]  c #F78808",
"[  c #F89A0D",
"{  c #ED8B14",
"}  c #E5831B",
"|  c #ED8519",
" . c #ED8D1B",
".. c #E68514",
"X. c #F58414",
"o. c #F48B14",
"O. c #F38D1B",
"+. c #F98517",
"@. c #EB9219",
"#. c #F59D13",
"$. c #FB9C14",
"%. c #F4941D",
"&. c #F49C1C",
"*. c #FB9D1B",
"=. c #F69315",
"-. c #EC940C",
";. c #F8A30D",
":. c #ECA51C",
">. c #EBA91D",
",. c #F6A414",
"<. c #FCA315",
"1. c #F5A41C",
"2. c #FCA51C",
"3. c #F5AA19",
"4. c #FBAA1B",
"5. c #F8A917",
"6. c #D88A28",
"7. c #CA8735",
"8. c #D48933",
"9. c #D19532",
"0. c #E88826",
"q. c #E89926",
"w. c #F49422",
"e. c #F29D24",
"r. c #FC9C24",
"t. c #F99A29",
"y. c #E49A34",
"u. c #F48B2A",
"i. c #DFA42C",
"p. c #E9A728",
"a. c #F3A324",
"s. c #FCA423",
"d. c #F4AA23",
"f. c #FCAA23",
"g. c #FDA52A",
"h. c #F4AC2C",
"j. c #F8A52C",
"k. c #FCBA2C",
"l. c #FBB72C",
"z. c #EBA935",
"x. c #F7A935",
"c. c #E9B63C",
"v. c #F8B936",
"b. c #FCCC3C",
"n. c #FAC638",
"m. c #F5D037",
"M. c #9D8159",
"N. c #BB8349",
"B. c #A5825B",
"V. c #A88457",
"C. c #B58D50",
"Z. c #9E8264",
"A. c #84837D",
"S. c #8B8378",
"D. c #938373",
"F. c #A58664",
"G. c #B5A56A",
"H. c #C68645",
"J. c #CF974B",
"K. c #DBAB49",
"L. c #E7B848",
"P. c #F9B94A",
"I. c #E9BA58",
"U. c #F3B351",
"Y. c #CDB773",
"T. c #E4BF66",
"R. c #EAC649",
"E. c #FDC545",
"W. c #FDCB44",
"Q. c #FECB4B",
"!. c #F7C44C",
"~. c #F9D14A",
"^. c #ECC858",
"/. c #FAC956",
"(. c #FDD35A",
"). c #DBC466",
"_. c #E9C566",
"`. c #ECD466",
"'. c #FDD868",
"]. c #F4DA76",
"[. c #FCCD61",
"{. c #FFE36E",
"}. c #FDE373",
"|. c #FCE57C",
" X c #FBE97A",
".X c #EFE270",
"XX c #6C7D84",
"oX c #6D7C8C",
"OX c #6D7582",
"+X c #737E86",
"@X c #7A7E84",
"#X c #757F89",
"$X c #797E8B",
"%X c #6C7E93",
"&X c #747E92",
"*X c #797E92",
"=X c #797C9D",
"-X c #837D86",
";X c #6E828C",
":X c #6B8487",
">X c #768186",
",X c #7A8285",
"<X c #768089",
"1X c #79828B",
"2X c #6D8296",
"3X c #738192",
"4X c #7B8392",
"5X c #7D8595",
"6X c #878886",
"7X c #868D95",
"8X c #8A8E91",
"9X c #808791",
"0X c #8D9194",
"qX c #8C9198",
"wX c #92969C",
"eX c #979CA2",
"rX c #989DA1",
"tX c #9EA2A5",
"yX c #A2A6A7",
"uX c #A6A7AB",
"iX c #A6AAAD",
"pX c #A8ACAF",
"aX c #AAAEB1",
"sX c #ACB0B3",
"dX c #B1B4B9",
"fX c #CDB987",
"gX c #FDEC83",
"hX c #FCE988",
"jX c #FAF28B",
"kX c #FCF192",
/* pixels */
"                                                                                                                                ",
"          .                                                                                                                     ",
"* > ; > 8 $X#X<X>X>X>X>X>X>X>X>X>X>X<X<X>X>X>X>X>X>X>X>X>X>X<X<X>X>X>X>X>X>X>X>X>X>X<X<X>X>X>X>X>X>X+X+X+X>X>X>X7 > 3 ; % O O O ",
"& > ; ; OX1X<X<X<X<X<X<X<X<X<X<X<X<X<X<X<X<X<X<X<X<X<X<X<X<X<X<X<X<X<X<X<X<X<X<X<X<X<X<X<X<X<X<X<X<X<X<X<X<X<X<X7 ; > ; % @ O O ",
"& 3 ; > OX#X#X#X#X#X#X#X#X#X#X#X#X#X#X#X#X#X#X#X#X#X#X#X#X#X#X#X#X#X#X#X#X#X#X#X#X#X#X#X#X#X#X#X<X#X#X#X#X<X<X<X7 , * ; $ @ O O ",
"& 7 3 3 +X<X<X<X>X>X>X>X>X>X>X>X>X>X>X>X>X>X>X>X>X>X>X>X<X>X>X>X>X>X>X>X>X>X>X>X>X>X>X>X>X>X>X>X>X>X>X<X<X<X<X<X9 9 9 #X% o $ O ",
"8 9X<X+X1X<X<X+X<X<X<X<X<X<X<X<X<X<X<X<X<X<X<X<X<X<X<X<X<X<X<X<X<X<X<X<X<X<X<X<X<X<X<X<X<X<X<X<X#X#X<X<X<X<X#X#XtXaXaXdX3 o # O ",
"1 1X<X#X1X+X<X<X<X<X<X<X<X<X<X<X<X<X<X<X<X<X<X<X<X<X<X<X<X<X<X<X<X<X<X<X<X<X<X<X<X<X<X<X<X<X<X<X#X<X<X<X<X<X#X+XwXaXtXsX; o $ O ",
"6 1X#X<X<X<X<X<X<X<X<X<X<X<X<X<X,X<X3X3X@X0 <X3X3X#X,X@X@X<X&X&X1X0 >X<X+X,X0 1X<X<X<X<X<X<X<X<X<X#X<X<X#X<X<X+XeXpXyXsX: o + O ",
"6 1X#X<X<X<X<X<X<X<X<X<X<X<X<X<X<X>X+X@X>X;X>X0 @X<X3X3X<X@X,X1X<X3X1X@X>X5X&X+X<X<X<X<X<X<X<X<X<X#X<X<X#X<X<X+XeXpXyXsX: o + O ",
"6 1X#X<X<X<X<X<X<X<X<X<X<X<X<X<X;X,Xq ,X1X>X+X5X>X0 4 4 4 4 4 - 5 w @X,X>X#X4X#X<X<X<X<X<X<X<X<X<X#X<X<X#X<X<X+XeXpXyXsX: o + O ",
"6 1X#X<X<X<X<X<X<X<X<X<X<X<X<X<X;X,X@X3XoX@X+X2Xw U u J u r r r r t - +X5X>X,X#X<X<X<X<X<X<X<X<X<X#X<X<X#X<X<X+XeXpXyXsX: o + O ",
"6 1X#X<X<X<X<X<X<X<X<X<X<X<X<X<X<X+X<X3XOX5X,X8 t 7.O.' ..M N x N K r e +X>X>X,X<X<X<X<X<X<X<X<X<X#X<X<X#X<X<X+XeXpXyXsX: o + O ",
"6 1X#X<X<X<X<X<X<X<X<X<X<X<X<X<X+X3X#X-X1X3Xw Y 7.y.&.#.#.&.O.Z D G K Y T oX%X>X<X<X<X<X<X<X<X<X<X#X<X<X#X<X<X+XeXpXyXsX: o + O ",
"6 1X#X<X<X<X<X<X<X<X<X<X<X<X<X<X>X1X@X@X<Xq t 8.q.s.4.<.5.2.$.] @... .y.t w +X<X<X<X<X<X<X<X<X<X<X#X<X<X#X<X<X+XeXpXyXsX: o + O ",
"6 1X#X<X<X<X<X<X<X<X<X<X<X<X<X<X<Xq ,X2X8 B.7.y.t.s.2.2.a.h.d.#.h.l.v.!.I.Y.D.+X<X<X<X<X<X<X<X<X<X#X<X<X#X<X<X+XeXpXyXsX: o + O ",
"6 1X#X<X<X<X<X<X<X<X<X<X<X<X<X<X+X>X<X9 I 7.@.<.s.&.r.&.&.a.d.:.d.k.n.v.E.(.V.5 >X;X! +X;X#X&X<X<X#X<X<X#X<X<X+XeXpXyXsX: o + O ",
"6 1X#X<X<X<X<X<X<X<X<X<X<X<X<X<X,X2X$XW 7.q.&.4.r.n f l c g ^ g.s.f.:.( / @.) H.R +X,X<X<X! +X>X<X#X<X<X#X<X<X+XeXpXyXsX: o + O ",
"6 1X#X<X<X<X<X<X<X<X<X<X<X<X<X<X>X+XI 8.=.5.d.*.%.z j x x k A w.r.a.q.y.@.` o.0.L T q &X<X! >X>X<X#X<X<X#X<X<X+XeXpXyXsX: o + O ",
"6 1X#X<X<X<X<X<X<X<X<X<X<X<X<X<X$XZ.7.e.<.4.r.c z Z +.+.+.H Z j / h.!.'.P...' +.V N.R &X<X@X#X<X<X#X<X<X#X<X<X+XeXpXyXsX: o + O ",
"6 1X#X<X<X<X<X<X<X<X<X<X<X<X<X<X+XN.o.4.>.2.r.h z +.` ' ` ` F j V z.L.}.!...` ` ] 8.T %X>X,X$X3X<X#X<X<X#X<X<X+XeXpXyXsX: o + O ",
"6 1X#X<X<X<X<X<X<X<X<X<X<X<X<X<XOXN.` [ :.d.g.c j X.o.*.$.{ D p G x.^. Xc./ ` ] ] 6.T oX@X,X#X<X<X#X<X<X#X<X<X+XeXpXyXsX: o + O ",
"6 1X#X<X<X<X<X<X<X<X<X<X<X<X<X<X0 N.o.[ f.e.| n C O.=.,.#.=._ z A 0.I.gXL.@.' ] ' 0.T &X>X>X+X>X<X#X<X<X#X<X<X+XeXpXyXsX: o + O ",
"6 1X#X<X<X<X<X<X<X<X<X<X<X<X<X<X9 N._ ;.a.n k 0.o.*.2.5.5.2.=.' S d J.hXI./ +.H ` 0.T #X+X<X$X1X<X#X<X<X#X<X<X+XeXpXyXsX: o + O ",
"6 1X#X<X<X<X<X<X+X<X$X>X+X1X%XS.T 7.[ ,.a.l x | ` s.5.,.5.f.*.o.Z d 9.hX`.K.z.e.t.i.V.S.;X>X*X>X<X#X<X<X#X<X<X+XeXpXyXsX: o + O ",
"6 1X#X<X<X<X<X<X#X<X$X<X,X>XoXE H.e.2.s.t.C C S o.*.5.4.3.1.@.+.F d y.gXgX'.(.E.E.W._.fX6X>X4X>X<X#X<X<X#X<X<X+XeXpXyXsX: o + O ",
"6 1X#X<X<X<X<X<X#X<X#X<X@X,X+XB.o.$.s.O.| k k S { *.2.1.h.E.x. .F f 6.L.^.(.~.R.W.m.~._.S.+X1X@X<X#X<X<X#X<X<X+XeXpXyXsX: o + O ",
"6 1X#X<X<X<X<X<X<X>X$X<X,X>X@XV.] #.r.m j j v | -.2.g.p.c.{./.6.G p v d ) p.v.~.~.b.b._.S.<X1X4X<X#X<X<X#X<X<X+XeXpXyXsX: o + O ",
"6 1X#X<X<X<X<X<X$X>X$X<X<X>X+XV.o.1.j.l j D } &.#.1.h.P.`. X].I.q.c C p } g.v.E.E.W.E._.6X;X+X$X<X#X<X<X#X<X<X+XeXpXyXsX: o + O ",
"6 1X#X<X<X<X<X<X<X>X#X<X<X;X#XB.X.$.f.n l t.r.<.s.p.c.'.gXjXgX|.P.w.F p } s.l.Q.n.W.Q._.6X>XQ 1X<X#X<X<X#X<X<X+XeXpXyXsX: o + O ",
"6 1X#X<X<X<X<X<X$X>X$X<X<X<X#XV.X.$.2.c g t.s.<.z.!.^.|.jXgX|.^.z.{ A p } s.k.Q.W.W.W._.A.+X>X+X<X#X<X<X#X<X<X+XeXpXyXsX: o + O ",
"6 1X#X<X<X<X<X<X3X>X#X,X#X>X+XU  .$.r.c g e.h.z.c.}. XjXhX|.'.i.a._ A j } g.k.W.Q.b.~._.S.$X5X>X<X#X<X<X#X<X<X+XeXpXyXsX: o + O ",
"6 1X#X<X<X<X<X<X$X<X#X>X>X<X$XB.{ ;.2.n b p.z.^.`.|.hXkX}.R.v.h.$.` S s ..f.k.Q.b.W.Q._.A.XX>X$X<X#X<X<X#X<X<X+XeXpXyXsX: o + O ",
"6 1X#X<X<X<X<X<X$X>X#X<X#X<X#XB.| <.2.c l q.L.}.gXjXhXgX'.p.:.s.#.` H p ..f.l.Q.W.W.Q._.6XXX>X#X<X#X<X<X#X<X<X+XeXpXyXsX: o + O ",
"6 1X#X<X<X<X<X<X$X>X#X<X#X<X+XV. .#.r.N h P.'.|.hXjX|.^.v.d.5.f.$.X.H p ..s.l.W./.W.Q._.6X#X<X>X<X#X<X<X#X<X<X+XeXpXyXsX: o + O ",
"6 1X#X<X<X<X<X<X$X>X#X<X#X<X+XV.-.#.r.N M [.gXjXgX|.'.z.>.5.<.$.*.X.G f } s.l.W.Q.W.W._.A.#X<X<X<X#X<X<X#X<X<X+XeXpXyXsX: o + O ",
"6 1X#X<X<X<X<X<X<X>X#X#X#X<X+XV.] <.g.c h 9.9.|.}.R.c.>.3.5.5.s.o.z x f ..s.l.W.W.b.b.^.6X#X>X>X<X#X<X<X#X<X<X+XeXpXyXsX: o + O ",
"6 1X#X<X<X<X<X<X#X>X#X<X#X<X+XB.X.s.z.B h a B '.(.p.p.3.5.5.5.1.{ p v g _ 1.v.W.b.b.~.).6X>X>X>X<X#X<X<X#X<X<X+XeXpXyXsX: o + O ",
"6 1X#X<X<X<X<X<X$X>X<X>X<X>X#XF.6.P.'._.U.N M z.v.p.3.5.5.5.4.2.O.f G | #.2.v.W.E.Q.^.Y.9X>X,X<X<X#X<X<X#X<X<X+XeXpXyXsX: o + O ",
"6 1X#X<X<X<X<X<X$X>X<X,X>X<X%XZ.~ ].hXkX|.B d a.a.d.4.5.5.2.<.2.{ p 0.g.4.2.v.W.E./.T.G.1XXX,X$X<X#X<X<X#X<X<X+XeXpXyXsX: o + O ",
"6 1X#X<X<X<X<X<X<X<X<X<X<X<X<X<Xw C.K.]..XB k t.s.,.4.5.5.<.2.s.{ d ..s.-.-.@.&.w.9.D.&X1X$X<X<X<X#X<X<X#X<X<X+XeXpXyXsX: o + O ",
"6 1X#X<X<X<X<X<X<X<X<X<X<X<X<X<X;XP 0./.'.) c =.2.2.3.5.5.2.g.s.o.l ^ 2.[ ] ] ] X.7.R $X1X+X>XXX<X#X<X<X#X<X<X+XeXpXyXsX: o + O ",
"6 1X#X<X<X<X<X<X<X<X<X<X<X<X<X<X2XW o.s.c.1.u.n m s.4.5.5.2.%.b D %.&.4.[ ] ' ' S 7.R +X,X<X>X>X<X#X<X<X#X<X<X+XeXpXyXsX: o + O ",
"6 1X#X<X<X<X<X<X<X<X<X<X<X<X<X<X:XU o.&.p.4.r.h b g.1.5.4.s. .d V x.1.<.=.Z | G S H.A.>X,X<X3X$X<X#X<X<X#X<X<X+XeXpXyXsX: o + O ",
"6 1X#X<X<X<X<X<X<X<X<X<X<X<X<X<X>XW 6.5.3.2.&.v g g.s.s.s.g.w.d V x.a.g.O.z x x M P >X<X<X<X3X$X<X#X<X<X#X<X<X+XeXpXyXsX: o + O ",
"6 1X#X<X<X<X<X<X<X<X<X<X<X<X<X<X#X8XB.( ;.2.>.m m w.w.%.%.w. .n ^ g.a.e.D s s v L R <X<X<X>X<X,X<X#X<X<X#X<X<X+XeXpXyXsX: o + O ",
"6 1X#X<X<X<X<X<X<X<X<X<X<X<X<X<X#X%X+XF.6.*.p.a.w.g d g l g m r.*.f._ z j v J y A.*X<X<X$X>X>X<X<X#X<X<X#X<X<X+XeXpXyXsX: o + O ",
"6 1X#X<X<X<X<X<X<X<X<X<X<X<X<X<X>X<X>X*XU y.j.<.r.m V c c m _ s.s.<._ C C M L R :X&X! ,X&X>X#X&X<X#X<X<X#X<X<X+XeXpXyXsX: o + O ",
"6 1X#X<X<X<X<X<X<X<X<X<X<X<X<X<X>X#XQ 3X=XM.( s.5.*.*.<.2.j.j.f.[ ] ' +.u.N.R &X<X<X<X<X<X<X<X<X<X<X<X<X<X<X<X+XeXpXyXsX: o + O ",
"6 1X#X<X<X<X<X<X<X<X<X<X<X<X<X<X*X>X>X>X@X-XF.( w.g.d.3.3.g.r. . .| F G H.D.>X>X<X<X<X<X<X<X<X<X<X<X<X<X<X<X<X+XeXpXyXsX: o + O ",
"6 1X#X<X<X<X<X<X<X<X<X<X<X<X<X<X$X>X>X>XQ #X-XV.0.g.4.;.<.s.%.l g j a y T +X#X>X<X<X<X<X<X<X<X<X<X<X<X#X<X<X<X+XeXpXyXsX: o + O ",
"6 1X#X<X<X<X<X<X<X<X<X<X<X<X<X<X>X#X$X3X;XQ @X5XV.K.*.$.&.q.} f j h u T <X1X1X1X<X<X<X<X<X<X<X<X<X<X<X#X<X<X<X+XeXpXyXsX: o + O ",
"6 1X#X<X<X<X<X<X<X<X<X<X<X<X<X<X>X*X@X>X3X<XQ 3X@XV.6.O.D h h N M L R @X#X<X#X@X<X<X<X<X<X<X<X<X<X<X<X#X<X<X<X+XeXpXyXsX: o + O ",
"6 1X#X<X<X<X<X<X<X<X<X<X<X<X<X<X$X<X+X@X*X<X>X,X2X,XD.F.W P P E R q #X$X$X<X<X<X<X<X<X<X<X<X<X<X<X<X<X<X<X<X<X#XeXpXyXsX: o + O ",
"6 1X#X<X<X<X<X<X<X<X<X<X<X<X<X<X$X>X>X$X<X>X>X#X@X<X#XoX#X&X3XXX2X$X$X#X;X>X>X;X<X<X<X<X<X<X<X<X<X<X<X<X<X<X<X#XeXpXyXsX: o + O ",
"6 1X#X<X<X<X<X<X<X<X<X<X<X<X<X<X>X1X<X:X>X3X&X>X3X&X<X>X>X3X$X6X! >X<X>X>X<X$X1X<X<X<X<X<X<X<X<X<X<X<X<X<X<X<X#XeXpXyXsX: o + O ",
"6 1X<X>X<X+X+X#X+X+X+X+X+X+X+X+X+X+X+X+X+X+X+X+X+X+X+X+X+X+X+X+X+X+X+X+X+X+X+X+X+X+X+X+X+X+X+X+X+X+X+X+X+X#X+X+XrXsXaXdX: o O # ",
"2 +X0 8 1X9X7XqX7X7X7X7X7X7X7X7X7X7X7X7X7X7X7X7X7X7X7X7X7X7X7X7X7X7X7X7X7X7X7X7X7X7X7X7X7X7X7X7X7X7X7X7X7X7X7X7XwX8X8XqX= O O O ",
"& > ; ; wXaXiXuXiXiXiXiXiXiXiXiXiXiXiXiXiXiXiXiXiXiXiXiXiXiXiXiXiXiXiXiXiXiXiXiXiXiXiXiXiXiXiXiXiXiXiXpXiXiXiXaX8 & ; ; $ @ O O ",
"& > > * 8XaXuXuXuXuXuXuXuXuXuXuXuXuXuXuXuXuXuXuXuXuXuXuXuXuXuXuXuXuXuXuXuXuXuXuXuXuXuXuXuXuXuXuXiXuXuXiXuXyXuXaX+X, > > % + O O ",
"< 1 3 ; wXaXaXaXaXaXaXaXaXaXaXaXaXaXaXaXaXaXaXaXaXaXaXaXaXaXaXaXaXaXaXaXaXaXaXaXaXaXaXaXaXaXaXaXaXpXaXaXaXiXaXsX8 ; ; 2 % O O O ",
"% * & & @X0X8X8X8X8X8X8X8X8X8X8X8X8X8X8X8X8X8X8X8X8X8X8X8X8X8X8X8X8X8X8X8X8X8X8X8X8X8X8X8X8X8X8X0X8X8X0X0X8X8X0X3 ; * = $ O O O ",
"  .                                                                                                                             ",
"                                                                                                                                "
};
