/* XPM */
static char *_ffba63377d44206cd00ed4b06408050xnCNQk6neQtjKQJE[] = {
/* columns rows colors chars-per-pixel */
"64 64 225 2 ",
"   c #010102",
".  c #05060A",
"X  c #35353F",
"o  c #7E5F3A",
"O  c #7D603E",
"+  c #3D3D45",
"@  c #3E3E48",
"#  c #363942",
"$  c #403F45",
"%  c #42434A",
"&  c #4A4B57",
"*  c #4E515A",
"=  c #52535D",
"-  c #55585F",
";  c #7D6952",
":  c #565965",
">  c #5C5D65",
",  c #5B5D69",
"<  c #525561",
"1  c #4F5160",
"2  c #5C646A",
"3  c #5F6771",
"4  c #62636D",
"5  c #646C6D",
"6  c #636A74",
"7  c #646876",
"8  c #6C727C",
"9  c #687377",
"0  c #7C7E7C",
"q  c #78797A",
"w  c #78736B",
"e  c #B9740B",
"r  c #B66E0A",
"t  c #81603B",
"y  c #855932",
"u  c #CD5F02",
"i  c #CD6200",
"p  c #CD6A03",
"a  c #C76802",
"s  c #D56401",
"d  c #DB6401",
"f  c #D46B02",
"g  c #DD6B04",
"h  c #D26C09",
"j  c #DA690B",
"k  c #C9780A",
"l  c #D47404",
"z  c #DA7707",
"x  c #C27313",
"c  c #CB7812",
"v  c #D57B13",
"b  c #E27C0C",
"n  c #E97A0D",
"m  c #EB7C14",
"M  c #E47A14",
"N  c #F47C13",
"B  c #F97E15",
"V  c #E16C0D",
"C  c #C67D30",
"Z  c #84684A",
"A  c #8D755A",
"S  c #877768",
"D  c #927B68",
"F  c #837B72",
"G  c #8B7E7A",
"H  c #857B76",
"J  c #897670",
"K  c #B47D57",
"L  c #76827D",
"P  c #6A807E",
"I  c #BA8014",
"U  c #DA8813",
"Y  c #EC8809",
"T  c #F38407",
"R  c #F5850B",
"E  c #FA850C",
"W  c #F38B0B",
"Q  c #F78908",
"!  c #EE930F",
"~  c #F3940D",
"^  c #F8970B",
"/  c #E98A16",
"(  c #F58414",
")  c #FA8512",
"_  c #F48C13",
"`  c #FA831B",
"'  c #F38E1B",
"]  c #FA8A15",
"[  c #ED9113",
"{  c #ED931B",
"}  c #EC9918",
"|  c #F49313",
" . c #FB9413",
".. c #F49B14",
"X. c #FC9C15",
"o. c #F3921C",
"O. c #F49C1B",
"+. c #FC9C1B",
"@. c #FA931C",
"#. c #FBA40D",
"$. c #FCA90C",
"%. c #F6A50B",
"&. c #EDA61A",
"*. c #F5A515",
"=. c #FBA515",
"-. c #F5AA15",
";. c #FBA914",
":. c #F5A51B",
">. c #FCA51B",
",. c #F3AA1B",
"<. c #FCA91B",
"1. c #CA8527",
"2. c #DB892B",
"3. c #D68829",
"4. c #DC942A",
"5. c #CA883B",
"6. c #D38934",
"7. c #D98935",
"8. c #DA9438",
"9. c #C69337",
"0. c #E48726",
"q. c #E38629",
"w. c #E38929",
"e. c #E88C26",
"r. c #FA8421",
"t. c #EA942A",
"y. c #EC9A27",
"u. c #F39322",
"i. c #F59B23",
"p. c #FB9B23",
"a. c #FB9B2A",
"s. c #F69728",
"d. c #E59837",
"f. c #FB9C31",
"g. c #EC8833",
"h. c #EDA328",
"j. c #F5A323",
"k. c #FCA423",
"l. c #F4AB22",
"z. c #FCAA22",
"x. c #F3A32B",
"c. c #FDA42A",
"v. c #FEAA2C",
"b. c #F4AA29",
"n. c #FBB52C",
"m. c #F5B527",
"M. c #FABC35",
"N. c #F0AF32",
"B. c #FDC53E",
"V. c #FAC63A",
"C. c #9E8D5F",
"Z. c #B88649",
"A. c #A9845A",
"S. c #B58955",
"D. c #A9894C",
"F. c #8D826D",
"G. c #87806D",
"H. c #968468",
"J. c #8C827D",
"K. c #878277",
"L. c #958476",
"P. c #A58667",
"I. c #A18872",
"U. c #C78847",
"Y. c #CF8D43",
"T. c #EDB84E",
"R. c #FABE68",
"E. c #DFAF4B",
"W. c #FBC745",
"Q. c #F5CC44",
"!. c #FDCB45",
"~. c #FCCA4A",
"^. c #F7C748",
"/. c #EDCC55",
"(. c #F3CD53",
"). c #FBCC53",
"_. c #F6CA5A",
"`. c #EED158",
"'. c #F5D25A",
"]. c #E9C24C",
"[. c #F5CC63",
"{. c #F8D567",
"}. c #F9D773",
"|. c #FCE476",
" X c #FBE27C",
".X c #FDEA78",
"XX c #FFE36F",
"oX c #6E7D85",
"OX c #6D7D8C",
"+X c #6E7684",
"@X c #737D86",
"#X c #7A7E84",
"$X c #757E89",
"%X c #797E8A",
"&X c #727683",
"*X c #6E7F93",
"=X c #747E91",
"-X c #7B7E93",
";X c #817C88",
":X c #6E8285",
">X c #6E828B",
",X c #758186",
"<X c #7A8185",
"1X c #76818A",
"2X c #79828B",
"3X c #728292",
"4X c #7A8492",
"5X c #6A8796",
"6X c #858186",
"7X c #868D95",
"8X c #8A8E91",
"9X c #8D9195",
"0X c #92969C",
"qX c #979CA2",
"wX c #989DA0",
"eX c #9DA1A4",
"rX c #A2A6A7",
"tX c #A5A7AB",
"yX c #A6AAAD",
"uX c #A8ACAF",
"iX c #AAAEB1",
"pX c #ACB0B3",
"aX c #B1B4B9",
"sX c #FEEE82",
"dX c #FDF182",
/* pixels */
"                                                                                                                                ",
"          .                                                                                                                     ",
"= , : , 8 %X$X2X,X,X,X,X,X,X,X,X,X,X1X1X,X,X,X,X%X%X%X$X$X$X%X%X1X1X1X1X1X,X,X,X,X,X,X,X,X,X,X,X,X,X$X$X$X,X,X,X4 , 4 , & + + + ",
"* , : : 8 2X1X1X1X1X1X1X1X1X1X1X1X2X2X2X1X1X1X1X2X2X2X2X2X2X1X1X2X2X2X1X1X1X1X1X1X1X1X1X1X1X1X1X2X1X1X1X1X2X2X2X7 : , , & # + + ",
"* 4 : , +X$X$X$X$X$X$X$X$X$X$X$X1X1X1X1X1X1X1X1X,X,X,X,X,X,X:X:X0 0 0 @X#X%X$X$X$X$X$X$X$X$X$X$X1X$X$X$X$X1X1X1X6 < = : % # + + ",
"= 6 4 4 &X1X2X2X,X,X,X,X,X,X,X,X2X2X2X2X2X<X2X<X2X2X<X<X<X<X<X<X3X3X1X1X2X1X1X#X,X,X,X,X,X,X,X,X,X,X,X2X2X2X2X2Xq 8 q #X* X % + ",
"8 7X2X$X2X1X1X$X1X1X1X1X1X1X1X1X1X1X1X1X1X1X1X1X$XOXOX+X+X+X+X&X&X&X@X$X$X,X,X,X1X1X1X1X1X1X1X1X$X$X1X1X1X1X$X$XeXiXiXpX4 X % + ",
"3 2X1X$X1X@X1X1X1X1X1X1X1X1X1X1X1X1X1X1X1X1X1X1XZ Z Z ; O o o t t Z Z w w #X%X4X1X1X1X1X1X1X1X1X$X1X1X1X1X1X$X@X0XuXrXiX> X % + ",
"6 2X$X1X1X1X1X2X-X,X,X2X1X:X,X%X3X,XL 1X5X=X5 A.2.2.2.q.q.q.q.q.7.w.e.3.U.D 9 5X=X1X,X,X@X1X,X;X2X1X,X2X<X,X$X@XqXuXrXpX> X @ + ",
"6 2X$X1X1X1X1X2X$XoX$X%X%X1X2X%X$X@X#XH S ; y C u.{ ' o.o.o.' o.[ W | o.d.K Z w F ,X1X4X%X1X>X>X$X$X$X$X$X$X1X1XqXuXrXpX> X @ + ",
"6 2X$X1X1X1X1X2X2X2X2X%X#X1X1X#X6X3X&XP.Y.6.3.a.k.>.>.>.>.>.>.>.=.>.=.X.p.y.6.U.S.H.&X=X$X$X1X2X1X1X1X1X1X$X$X,XqXuXrXpX> X @ + ",
"6 2X$X1X1X1X1X2X,X@X$X#X@X,X1X,X$X0 S Z.{ ~ ! ..z.<.<.>.>.>.>.>.>.z.z.>.=.*.} U 8.Z.S %X1X2X#X#X$X1X1X1X1X1X$X$XqXuXrXpX> X @ + ",
"6 2X$X1X1X1X1X2X2X$X2X2X,X,X1X>XoXP.6.f.:.*.<.<.>.>.>.>.>.>.>.>.<.:.&.l.<.*.:.x.c.4.Z.J.$X1X,X=X,X$X1X1X1X2X1X$XqXuXrXpX> X @ + ",
"6 2X$X1X1X1X1X2X$X@X@XOX$XF J q A 5._ +.:.:.v.i.s.p.p.p.p.p.a.p.@.@.s.k.O...>.:.k...4.A.S w L OX<X<X1X@X1X1X1X$XqXuXrXpX> X @ + ",
"6 2X$X1X1X1X1X2X$X<X1X=XG S.U.U.6.i.=.<.<.>.a.v p h h h h h h h j j f f f Y >.=.k.=.>.d.U.Z.A.H.0 <X<X1X1X1X1X$XqXuXrXpX> X @ + ",
"6 2X$X1X1X1X1X2X$X<X,X&XA 1.~ Q _ =.-.,.-.k.s.z s d d d d d d d j s s d s M f.c.b.=.;.=./ r.g.5.5 q @X,X$X1X1X$XqXuXrXpX> X @ + ",
"7 2X:X,X1X2X%X1X$XL #XP.1.j.=.X.:.<.,.l.j.l g N ( ( ( ` N N B N B N B N ( m f M z.:.*.;.X.+.p.s.5.P.0 >X$X;X#X,XqXuXrXpX> X @ + ",
"6 2X1X1X1X%X$X,X#X1X6XU.o.>.<.:.>.:.:.k.i.f s N ( ( ) ) ( ) ) ) ) ( ] ( ( b p z a.c.z.:.*.<.:.k.4.S.0 =X1X%X$X>XqXuXrXpX> X @ + ",
"5 2X2X%X%X#X#X<X<X*XG 6.^ =.-.l.z.v.O.z z m N B W W W W E E ] ] R T Y | p.| b b j m c.l.,.m.-.*.U Z.q $X,X<X2X>XqXuXrXpX> X @ + ",
"3 2X%X%X2X<X1X2X>XOXS 3.^ +.=.z.:.k.p.l d ( ` B W W T T Q R R R W W Y ~ >.+._ Y i M a.k.,.&.-.#./ Z.S :X,X<X2X$XqXuXrXpX> X @ + ",
"3 2X$X,X,X1X1X*X,XL.Z.h.>.+.=.>.k.z z ( n N ) ) T Q T E E E R R T  ...*.>.+.@._ b b z b k.>.;.#.f.8.A.0 oX,X<X&XqXuXrXpX> X @ + ",
"7 2X$X,X1X1X@X$XS Z.e.=.=.>.<.k.s.p i ( ) ) E ) R E E E E T R W Y +.>.<.<.>.k.+.[ / a l p.k.>.=.>.c.8.A.0 :X>X#XqXuXrXpX> X @ + ",
"7 2X,X1X2X1X0 K.U.y.X.#.#.j.O.U b m m ) E E E R R ) E E E T T  . .>.>.-.-.*.>.+...j.h.y.U / p.z.%.>.p.d.D.H $X,XqXuXrXpX> X @ + ",
"6 2X,X2X3X%XF.P.t.<.*.>.z.N.t.s d ` ` ) E Q T E ( ) E E E W W X.k.>.*.-.-.-.<.>.c.b.).T.r a c.j.,.z.^ #.4.K ;XP qXuXrXpX> X @ + ",
"6 2X,X1X1X3XK.7.| z.,.,.O.b M m N ) ) ) E E E E E E T T W  .X.>.>.:.<.,.*.;.<.>.k.m.!.].E.T.c U :.*.#.O.[ 6.F @XwXyXrXiX> # + + ",
"6 2X,X1X$X3XK.7.~ >.,.z.{ s g r.R ) ) R ) ) ) ) E E R T W  .>.<.<.<.:.<.;.-.=.<.,.m.W.'.|.[.x a j.=.=.O.[ 6.F @XwXyXrXiX> # + + ",
"6 2X,X1X%X1XF.2. .>.*.z.o.i d r.W W W R ( ) ) ) E T W ~ X.>.>.<.;.<.>.>.<.*.*.z.n.V.V.'.sX}.x p O.>.<.>.| 6.F @XwXyXrXiX> X + + ",
"6 2X,X1X$X$XF.q. .>.*.k.o.s g ` W W W T ) ) ( ) ) T W +.<.>.>.>.=.<.>.>.<.,.,.m.B.!.W._.sX}.x j i.:.<.k.! 6.J oXwXyXrXiX> X + + ",
"6 2X,X1X#X$XF.0._ >.;.<.' s g ` W W T E E E R E _ _ ..>.<.>.>.<.;.;.<.>.:.l.n.M.~.W.^.{.dX}.x s O.k.<.k.W 6.J oXwXyXrXiX> X + + ",
"6 2X,X1X#X$XF.0.| >.;.z.o.s d ` ( ) E E E T T W Y +.z.>.=.>.<.>.<.=.<.,.&.m.B.B.).~.^.'..X}.x f +.:.<.k.W 2.S oXwXyXrXiX> X + + ",
"6 2X<X1X%X$XF.0.@.>.%.z.u.s d ( E E E E E T T  .~ >.z.<.=.>.>.>.<.:.,.m.m.V.W.!.~.~.~.'..X}.x p +.:.>.z.W 2.S oXwXyXrXiX> X + + ",
"6 2X2X1X1X1XF.w.| >.#.<.' s g ) T T E E E T W +.>.>.*.=.>.>.>.<.>.:.,.m.V.B.V.!.W.!.Q.(..X}.x p +.:.:.z.W 2.S oXwXyXrXiX> X + + ",
"6 4X$X@X1X,XH.2. .<.%.>.o.i g ) T E E ) W W ~ =.<.<.*.<.=.=.<.<.:.l.M.V.B.!.!.!.~.W.Q.`..X}.e p p.k.-.,._ 7.S @XqXuXrXpX> X + + ",
"5 4X$X$X1X@XD 2.| <.%.<.@.u j ) E R E R W >.>.>.*.<.<.<.<.<.<.:.,.n.B.!.W.W.~.~.!.~.~.`.sX}.e f p.>.=.>.W 2.w :XqXuXrXpX> X + + ",
"5 2X$X%X,XOXG 0.o.j.*.<.@.j V ] ( R R  .| >.:.:.,.,.;.;.;.;.:.l.m.V.!.~.~.W.W.~.V.B.!.'.dX}.e f O.>.>.k.~ 6.w @X0XuXrXpX> X + + ",
"6 ,X$X2X,XOXG /  .k.:.<._ u g ] ( ( W +.>.<.:.:.<.*.;.=.;.=.&.n.V.B.~.~.~.~.W.W.!.!.^.`.sX}.e f i.>.>.l.W 6.F #XqXuXrXpX> X + + ",
"6 ,X$X2XL >XJ.3.Q >.k.l.[ z n n n ] W X.<.<.<.:.=.=.;.=.<.<.l.M.!.!.~.~.!.W.!.Q.^.(.'.{.[.T.v l a.>.;.*.W 7.H %XqXuXrXpX> X + + ",
"6 2X$X2XL ,X6XZ.~ <.=.<.l.c.r.j g ( _ +.>.*.<.*.=.<.<.*.,.n.M.W.~.~.~.~.W.B.!.!.(.`..X[.e c a.k.x.l.$.;.{ U.G OXqXuXrXpX> X + + ",
"6 2X#X1X,X%X2XF.Y.x.^ =.z.v.o.h z b ( p.+.>.<.>.<.<.,.l.m.M.!.!.W.~.~.!.W.W.^.).[.[.{.T.e l k.=.j.b.=.d.S.H.<XoXqXuXrXpX> X + + ",
"3 2X#X>X$X%X*X$XD 5...;.:.:.k.c.s.i g ( _ >.>.=.;.*.&.M.W.V.!.Q.~.~.!.!.!.~.)._.|.[.e e x.z...;.k.x.e.Z.0 $X1X<XqXuXrXpX> X + + ",
"6 2X$X1X1X1X1X2X>XJ.Y.+.*.-.$.:.p.g z m ( p.j.:.l.,.m.V.!.Q.Q.Q.W.!.W.W.)._._.[.{.T.x k ,.k.>.=.j.4.S.J.1X,X,X$XqXuXrXpX> X @ + ",
"6 2X$X1X1X1X1X2X#X@XD 6...$.;.<.<.O.o.l f a.v.>.b.M.B.!.~.Q.Q.Q.~.Q.Q.(./.{.XX].e 3.t.j.&.,.=.#.[ U.D %X$X,X<X$XqXuXrXpX> X @ + ",
"6 2X$X1X1X1X1X2X%X>X0 S.| =.k.<.=.<.O.l v t.y.N.N.^.).).(.(.(.(.'.(./.`.`.{.{.T.r l +.=.*.v.c.X.[ A.$X>X%X$X<X#XqXuXrXpX> X @ + ",
"6 2X$X1X1X1X1X2X2X2X%XP.t.>.k.<.z.k.p.u.s.z k /.{.|.|.|.|.|..X.X|..X.X|. XT.I U y...;.-.<.v.a.x.4.L.>X,X2X$X,X%XqXuXrXpX> X @ + ",
"6 2X$X1X1X1X1X2X,X2X$XK.U.p.=.>.:.*.k.v.O.l h R. X X X}. X X X X|.|. X X}.E.r k c.>.<.,.*.+.+.y.D.K.:XL %X1X,X%XqXuXrXpX> X @ + ",
"6 2X$X1X1X2X1X2X:X2X@XoXD 5.{ o...#.;.l.&.} u.3.1.1.1.1.1.1.1.1.3.1.1.1.1.3.y.s.k.=.=.:.[ { 8.Z.H %X$X#X-X1X,X$XqXuXrXpX> X @ + ",
"6 2X$X1X1X1X1X2X>X2X#X2XoXF.Z.Z.6.s.>.l.b.n.k.a a a i i i i i i u i i a r z c.p.,.>.c.d.5.A.I.0 %X=X%X2X2X1X,X@XqXuXrXpX> X @ + ",
"6 2X$X1X1X1X1X2X<X:X$X4XOX2X<X:XS Y.{ k.c.X.>.} u.u.o.o.' ' o.o.{ o.o.{ O.O.X.=.>.i.7.A.0 @X@X2X,X,X@X,X,X$X2X@XqXuXrXpX> X @ + ",
"6 2X$X1X1X1X1X2X1X1X1X1X1X1X1X1X*XH.6.v.=.=.#.<.>.>.<.<.<.z.<.>.<.<.z.<.-.;.=.X.z.8.A.;X3X>X,X%X1X1X1X1X1X1X1X$XqXuXrXpX> X @ + ",
"6 2X$X1X1X1X1X2X1X1X1X1X1X1X1X1X$Xq A 9.}  .^ X.:.>.*.*.:.>.>.<.$.*.*.-.-.*.} { 8.S.G $X,X#X1X1X1X1X1X1X1X1X1X$XqXuXrXpX> X @ + ",
"6 2X$X1X1X1X1X2X1X1X1X1X1X1X1X1X<X=Xq C.9.7.7.y.v.z.<.>.>.>.<.<.b.j.>.>.c.t.6.U.A.G %XOX,X#X#X1X1X1X1X$X1X1X1X$XqXuXrXpX> X @ + ",
"6 2X$X1X1X1X1X2X1X1X1X1X1X1X1X1X@X*XoXK.G.J A S.t.u.o.| | | | | ^ ^ ^ o.d.Z.S 0 2X#X$X=X1X,X,X%X1X1X1X$X1X1X1X$XqXuXrXpX> X @ + ",
"6 2X$X1X1X1X1X2X1X1X1X1X1X1X1X1X1X4X,X<X3X*X&XL.7.7.w.e.e.w.w.w.w.7.5.S.P.K.@X3X3X1X,X2X2X1X,X%X1X1X1X$X1X1X1X$XqXuXrXpX> X @ + ",
"6 2X$X1X1X1X1X2X1X1X1X1X1X1X1X1X$X<X,X#X%X%X$X#XH F S S S J D D G J.J.#X%X%X%X%X,X1X1X,X<X#X%X>X1X1X1X1X1X1X1X$XqXuXrXpX> X @ + ",
"6 2X$X1X1X1X1X2X1X1X1X1X1X1X1X1X@X2X2X1X#X#X2X2X2X1X,X$X$X$X$X$XoX,X,X,X1X2X1X>X,X1X1X,X,X%X2X,X1X1X1X1X1X2X1X$XqXuXrXpX> X @ + ",
"6 2X$X1X1X1X1X2X1X1X1X1X1X1X1X1X,X$X%X1X>X=X3X>X1X,X2X2X2X2X$X1X2X1X1X2X3X%X<XL 3X<X<X%X3X3X,X0 1X1X1X1X1X2X1X$XqXuXrXpX> X @ + ",
"9 2X1X1X1X@X@X@X@X@X@X@X@X@X@X@X@X@X@X@X@X@X@X@X@X@X@X@X@X@X@X@X@X@X@X@X@X@X@X@X@X@X@X@X@X@X@X@X@X@X@X@X@X@X@X@XwXpXiXaX> X + $ ",
"2 &X8 8 2X7X7X9X7X7X7X7X7X7X7X7X7X7X7X7X7X7X7X7X7X7X7X7X7X7X7X7X7X7X7X7X7X7X7X7X7X7X7X7X7X7X7X7X7X7X7X7X7X7X7X7X0X8X8X9X- + + + ",
"* , : : 0XiXyXtXyXyXyXyXyXyXyXyXyXyXyXyXyXyXyXyXyXyXyXyXyXyXyXyXyXyXyXyXyXyXyXyXyXyXyXyXyXyXyXyXyXyXyXuXyXyXyXiX8 * : : % # + + ",
"* , , = 8XiXtXtXtXtXtXtXtXtXtXtXtXtXtXtXtXtXtXtXtXtXtXtXtXtXtXtXtXtXtXtXtXtXtXtXtXtXtXtXtXtXtXtXyXtXtXyXtXrXtXiX&X< , , & @ + + ",
"1 3 4 : 0XiXiXiXiXiXiXiXiXiXiXiXiXiXiXiXiXiXiXiXiXiXiXiXiXiXiXiXiXiXiXiXiXiXiXiXiXiXiXiXiXiXiXiXiXuXiXiXiXyXiXpX8 : : 2 & + + + ",
"& = * * #X9X8X8X8X8X8X8X8X8X8X8X8X8X8X8X8X8X8X8X8X8X8X8X8X8X8X8X8X8X8X8X8X8X8X8X8X8X8X8X8X8X8X8X9X8X8X9X9X8X8X9X4 : = - % + + + ",
"  .                                                                                                                             ",
"                                                                                                                                "
};
