/* XPM */
static char *_73855c4462746ebeee2fbccbdf53a8cLsOr1Wrh6Ow1vD1y[] = {
/* columns rows colors chars-per-pixel */
"64 64 237 2 ",
"   c #010102",
".  c #05060A",
"X  c #35353F",
"o  c #7A643F",
"O  c #3D3D45",
"+  c #3E3E48",
"@  c #363942",
"#  c #403F45",
"$  c #42434A",
"%  c #4A4B57",
"&  c #4E515A",
"*  c #52535D",
"=  c #55585F",
"-  c #7D684F",
";  c #565965",
":  c #5C5D65",
">  c #5B5D69",
",  c #525561",
"<  c #4F5160",
"1  c #5F6571",
"2  c #5C6169",
"3  c #62636D",
"4  c #6B6B61",
"5  c #636A74",
"6  c #666672",
"7  c #6C727C",
"8  c #637076",
"9  c #747D7F",
"0  c #7B7C7E",
"q  c #747779",
"w  c #777365",
"e  c #BB6A01",
"r  c #B7740A",
"t  c #BD7414",
"y  c #8E6738",
"u  c #AF722B",
"i  c #975E31",
"p  c #CE6300",
"a  c #C96A05",
"s  c #D46300",
"d  c #D96200",
"f  c #D26E02",
"g  c #D26D08",
"h  c #DC6F09",
"j  c #DA6C05",
"k  c #CC7205",
"l  c #D37203",
"z  c #DB710A",
"x  c #D87406",
"c  c #C96D15",
"v  c #C57114",
"b  c #DB7C14",
"n  c #E16E06",
"m  c #E3730A",
"M  c #E67509",
"N  c #EC7C11",
"B  c #E67914",
"V  c #F57D15",
"C  c #F27E0D",
"Z  c #8A684B",
"A  c #877D78",
"S  c #8A7568",
"D  c #AC7240",
"F  c #74827C",
"G  c #7B827E",
"H  c #BE883E",
"J  c #DB8C1F",
"K  c #CC871F",
"L  c #ED890B",
"P  c #F5850D",
"I  c #F9850C",
"U  c #F48B0C",
"Y  c #FA890C",
"T  c #F78606",
"R  c #F3940D",
"E  c #ED8C14",
"W  c #EA8919",
"Q  c #F58313",
"!  c #FA8512",
"~  c #F48C13",
"^  c #FB8B15",
"/  c #FB841A",
"(  c #F7881A",
")  c #EC9215",
"_  c #EB951A",
"`  c #E7971A",
"'  c #F59413",
"]  c #FD9C15",
"[  c #F49C1A",
"{  c #FC9D1A",
"}  c #F69617",
"|  c #EA940F",
" . c #FDA40D",
".. c #F6A40E",
"X. c #EBA71C",
"o. c #F6A414",
"O. c #FBA515",
"+. c #F4AA15",
"@. c #FCAA15",
"#. c #F5A41B",
"$. c #FCA41C",
"%. c #F3AA1C",
"&. c #FCAA1B",
"*. c #EDB11B",
"=. c #CB8927",
"-. c #D78A27",
";. c #C88937",
":. c #D68B35",
">. c #CC9B37",
",. c #D89532",
"<. c #E48B26",
"1. c #F38923",
"2. c #E69724",
"3. c #FC9D24",
"4. c #F89B25",
"5. c #EC9032",
"6. c #E9A624",
"7. c #F5A422",
"8. c #FAA323",
"9. c #F4AC24",
"0. c #FBAA22",
"q. c #F4A42C",
"w. c #FCA42B",
"e. c #FBAB2A",
"r. c #E7B427",
"t. c #F9B22A",
"y. c #F6B628",
"u. c #F7A934",
"i. c #EBB536",
"p. c #EDB53A",
"a. c #E3B136",
"s. c #F8B835",
"d. c #E5A136",
"f. c #CCA037",
"g. c #FDC436",
"h. c #FCC63B",
"j. c #B7854A",
"k. c #AA855A",
"l. c #B58652",
"z. c #B48D4D",
"x. c #88816C",
"c. c #99856C",
"v. c #86857D",
"b. c #938878",
"n. c #9B967A",
"m. c #A78E6C",
"M. c #B8AE76",
"N. c #C38746",
"B. c #D18841",
"V. c #CB9A58",
"C. c #C8934D",
"Z. c #FCB946",
"A. c #E1AB41",
"S. c #D2B56B",
"D. c #C8BA79",
"F. c #DAB977",
"G. c #C0AB74",
"H. c #FFC444",
"J. c #FCCB43",
"K. c #FCC64B",
"L. c #FACA49",
"P. c #F3C847",
"I. c #F3D247",
"U. c #EBCD58",
"Y. c #FDCA52",
"T. c #F5CB59",
"R. c #EDD25A",
"E. c #F4D256",
"W. c #EDC649",
"Q. c #D3CC77",
"!. c #D5D06A",
"~. c #F8CE6C",
"^. c #F7D669",
"/. c #F5D271",
"(. c #F7D778",
"). c #EDD16A",
"_. c #FCE475",
"`. c #FDE47C",
"'. c #FDEA7D",
"]. c #F6E577",
"[. c #EDE578",
"{. c #6D7C85",
"}. c #6E7D8B",
"|. c #6C7686",
" X c #737D86",
".X c #7A7D84",
"XX c #757E89",
"oX c #797E8C",
"OX c #727687",
"+X c #747C91",
"@X c #797C93",
"#X c #767A97",
"$X c #6B7D92",
"%X c #827E85",
"&X c #837F90",
"*X c #6F828B",
"=X c #768186",
"-X c #7A8285",
";X c #76808A",
":X c #79828B",
">X c #7A8B81",
",X c #6D8192",
"<X c #748392",
"1X c #7A8393",
"2X c #898A84",
"3X c #858C94",
"4X c #8A8E92",
"5X c #8D9194",
"6X c #8C9198",
"7X c #94979A",
"8X c #9B9482",
"9X c #BBB99A",
"0X c #B6B598",
"qX c #AEAA92",
"wX c #979CA2",
"eX c #989DA1",
"rX c #9DA1A4",
"tX c #A2A6A7",
"yX c #A6A7AB",
"uX c #A6AAAD",
"iX c #A8ACAF",
"pX c #A8A7A5",
"aX c #AAAEB1",
"sX c #ACB0B3",
"dX c #B1B4B9",
"fX c #9AA69A",
"gX c #BCC39A",
"hX c #EBD990",
"jX c #FFE584",
"kX c #FEEB83",
"lX c #F9EC88",
"zX c #FAF289",
"xX c #F8EA96",
"cX c #FCF596",
"vX c #F8F296",
"bX c #EFEBAE",
"nX c #D6D197",
/* pixels */
"                                                                                                                                ",
"          .                                                                                                                     ",
"* > ; > 7 oXXX;X=X=X=X=X=X=X=X=X=X=X;X=X=X=X=X=X=X=X=X=X=X=X;X;X=X=X=X=X=X=X=X=X=X=X;X;X=X=X=X=X=X=XXXXXXX=X=X=X6 > 3 > % O O O ",
"& > ; ; 7 :X;X;X;X;X;X;X;X;X;X;X;X;X;X;X;X;X;X;X;X;X;X;X;X;X;X;X;X;X;X;X;X;X;X;X;X;X;X;X;X;X;X;X;X;X;X;X;X;X;X;X6 ; > > % @ O O ",
"& 3 ; > |.XXXXXXXXXXXXXXXXXXXXXXXXXXXXXXXXXXXXXXXXXXXXXXXXXXXXXXXXXXXXXXXXXXXXXXXXXXXXXXXXXXXXXX;XXXXXXXXX;X;X;X5 , * ; $ @ O O ",
"* 5 3 3 OX;X;X;X=X=X=X=X=X=X=X=X=X=X=X=X=X=X=X=X=X=X=X=X;X=X=X=X=X=X=X=X=X=X=X=X=X=X=X=X=X=X=X=X=X=X=X;X;X;X;X;Xq 7 q .X& X $ O ",
"7 3X;XXX:X;X;XXX;X;X;X;X;X;X;X;X;X;X;X;X;X;X;X;X;X;X;X;X;X;X;X;X;X;X;X;X;X;X;X;X;X;X;X;X;X;X;X;XXXXX;X;X;X;XXXXXrXaXaXsX3 X $ O ",
"1 :X;XXX;X X;X;X;X;X;X;X;X;X;X;X;X;X;X;X;X;X;X;X;X;X;X;X;X;X;X;X;X;X;X;X;X;X;X;X;X;X;X;X;X;X;X;XXX;X;X;X;X;XXXXX7XiXtXaX: X $ O ",
"5 :XXX;X;X;X;X;X;X;X;X;X;X;X;X;X=XXX;X=X.XXX;X=XF :X;XXX;X:X X=XXX=X=X:XXX;X1X.X;XXXXX;X;X;X;X;X;XXX;X;XXX;X;XXXwXiXtXsX: X + O ",
"5 :XXX;X;X;X;X;X;X;X;X;X;X;X;X;XXX=X=XXX@X1X:X=X;XXXXXOX XOXXX#XoXXX|.XX;X.X.X=X;X;X;X;X;XXXXX;X;XXX;X;XXX;X;XXXwXiXtXsX: X + O ",
"5 :XXX;X;X;X;X;X;X;X;X;X;X;X;X;X1X=X=X;X;X=X;X+X:X2Xv.x.- o Z Z - Z w 0 9 :XXX;X;X;X;X;X;XXXXX;X;XXX;X;XXX;X;XXXwXiXtXsX: X + O ",
"5 :XXX;X;X;X;X;X;X;X;X;X;X;X;X;XXXXX;X;X=XF =X@XgXbXbXjX>.=.-.-.-.:.B.k.4 {.1X XXXXXXX;X;X;X;X;X;XXX;X;XXX;X;XXXwXiXtXsX: X + O ",
"5 :XXX;X;X;X;X;X;X;X;X;X;X;X;X;X;XXXXX X{.=XG x.!.kX^.Y.2._ ~ ' ' ' _ =.y w .X:X;X;XXXXXXX;X;XXX;XXX;X;XXX;X;XXXwXiXtXsX: X + O ",
"5 :XXX;X;X;X;X;X;X;X;X;X;X;X;X;X=X X=X1X+XXX8XQ.E.P.r.X.7.8.8.8.#.%.%.8.,.j.w +X;X;X;XXX;X;X;XXX;XXX;X;XXX;X;XXXwXiXtXsX: X + O ",
"5 :XXX;X;X;X;X;X;X;X;X;X;X;X;X;X;XXXXXXXXX2XD.].P.s.*.@.&.#.%.9.&.#.o.O.[ =.y S  XXX;X;XXX;X;XXX;XXX;X;XXX;X;XXXwXiXtXsX: X + O ",
"5 :XXX;X;X;X;X;X;X;X;X;X;X;X;X;XXX1XoXOXfXbXbXxXp.6.+.@.O.0.e.q.w.{ $...o.w.:.j.7 OX;X;XXXXX;X;X;XXX;X;XXX;X;XXXwXiXtXsX: X + O ",
"5 :XXX;X;X;X;X;X=X=X X;X:X XXXXX-X;X;XS F.(.(.).u.X.@.&.E 1.1.1.( ) 7.+...#.2.-.i q <X0 :X$X1X-X;XXX;X;XXX;X;XXXwXiXtXsX: X + O ",
"5 :XXX;X;X;X;X;X;X:X;X;X X=X=X;X;X|.c.;.<.<.2.u.%.+.&.[ l p s s p f 8.#.&.o.e.q.,.k.q }..X=X;XXX;XXX;X;XXX;X;XXXwXiXtXsX: X + O ",
"5 :XXX;X;X;X;X;XXX1X+XXX X:X X;X;Xb.V.e.Y ^ { ] ..&.) W B m M n z h W ) 0.+.o.[ | =.Z v.OX:X=XXX;XXX;X;XXX;X;XXXwXiXtXsX: X + O ",
"5 :XXX;X;X;X;X;XF =XXX;X=X1XOXXX8XS.P.g.+.@.0.4.&.[ l s N ! P ! 1.V s f _ &.O.&.@.3.<.l.7 {.F XX;XXX;X;XXX;X;XXXwXiXtXsX: X + O ",
"5 :XXX;X;X;X;X;X=X;XXX;X=XXX-Xb.S.T.g.i.r.*.X.q._ W m m Q Y P / C / n m W ) #.$.o.3.} J Z 0 =X:X;XXX;X;XXX;X;XXXwXiXtXsX: X + O ",
"5 :XXX;X;X;X;X;X;X1XoX;X=X Xn.D.Y.Z.9.%.t.%.o.8.g p V / I T I Q ! ^ ( N f f 3.8.8.$.0.[ 5.m.;XXX;XXX;X;XXX;X;XXXwXiXtXsX: X + O ",
"5 :XXX;X;X;X;X;XXX1XoX=X;X9 M.R.J.Z.t.%.8.3.U L m h Q / P P ^ ^ I P ~ Q M m 1.2.7.O.6.[ ^ j.OX+X;XXX;X;XXX;X;XXXwXiXtXsX: X + O ",
"5 :XXX;X;X;X;X;X X;X.X=X<XOXM.I.Y.g.*.6.e.3.n p Q ! ! Q ^ P ^ T ! P L ! V V a r #.&.8.[ E u w 1X;XXX;X;XXX;X;XXXwXiXtXsX: X + O ",
"5 :XXX;X;X;X;X;X+X=XF <X&Xn.Q./.P.y.+.0.W N N m Q Q P Y I I I ! I Q Q U } 2.A.d.J W w.o.X.-.D 0 XX;X;X;X;X;X;XXXwXiXtXsX: X + O ",
"5 :XXX;X;X;X;X;X;X;XF {.pXbXvX`.i.9.o.[ l s N ( ! Q P I I I I ! ! Q ! R { u.^.~.e l 8.O.&.q.B.b.XX;X;X;X;X;X;XXXwXiXtXsX: X + O ",
"5 :XXX;X;X;X;X;X=X:X:X{.0XvXlXjXi.%.O.4.l s Q ( ! P P Q ! ! I P I ~ ^ ' #.p._./.a l 8. .@.$.<.k. X;X;X;X;X;X;XXXwXiXtXsX: X + O ",
"5 :XXX;X;X;X;X;X=XXX;X X9XzX[.jXi.%.O.8.z j V Q I P P ! ! ! P P P ~ { O.+.p.].).c z w. . .] ) j. X;X;X;X;X;X;XXXwXiXtXsX: X + O ",
"5 :XXX;X;X;X;X;X;XoX;X X9XcXzX`.i.%.$.3.g d V Q Y P P Q ! P T U ' [ $.@.%.p.'./.c g 8.@.$.] ) j. X;X;X;X;X;X;XXXwXiXtXsX: X + O ",
"5 :XXX;X;X;X;X;X;XoX;XXX0XvXzX(.i.%.&.3.g d V ^ Y I P P P P U U $.$.$.@.o.i.`.~.c g 8.&.w.{ ) l. X;X;X;X;X;X;XXXwXiXtXsX: X + O ",
"5 :XXX;X;X;X;X;X;XXX X X9XvXzX`.i.%.o.3.j d V Q ! I P T T U R } $.$.&.+.%.i.`.~.v k #.$.w.{ ) l. X;X;X;X;X;X;XXXwXiXtXsX: X + O ",
"5 :XXX;X;X;X;X;XF :X:X{.0XvXlXjXi.9.&.3.x d V / ! ! P T T U ] $.@.&.o.+.%.i._.^.r k #.@.w.{ L j. X;X;X;X;X;X;XXXwXiXtXsX: X + O ",
"5 :XXX;X;X;X;X;X;X;X=XOX0XvXkXjXp.#.O.8.h d V ! I Y P U R R O.@.@.#.%.%.t.W.`.).t g $.$.&.] E j. X;XXX;X;X;X;X XwXiXtXsX: X + O ",
"5 :XXX;X;X;X;X;XXXXX=XOX9XcXkX`.p.#.O.$.z d Q ! I T L U ] $.&.@.&.$.%.%.g.E.'./.t g $.$.&.] E j. X;XXX;X;X;X;X XwXiXtXsX: X + O ",
"5 :XXX;X;X;X;X;X;XXX:XOX9XcX'.`.p.#.O.8.z d Q ! I U ' } $.$.O.o.+.0.t.y.h.E.kX/.v g $.&.&.{ E j. X;XXX;X;X;X;X XwXiXtXsX: X + O ",
"5 :XXX;X;X;X;X;XoX;X:XOX0XcX'.'.p.#.O.8.h d Q ! L U { $.$.$.#.&.#.t.h.h.J.U.'./.v g $.&.&.{ E j. X;XXX;X;X;X;X XwXiXtXsX: X + O ",
"5 :XXX;X;X;X;X;XXXXX=XOXqXvX'._.i.#.O.8.h d Q Q ' ' $.$.$.&.#.%.y.s.J.J.L.R.kX/.v g o.&.&.{ E l.XX;XXX;X;X;X;X XwXiXtXsX: X + O ",
"5 :XXX;X;X;X;X;XoXXX=XXXqXvXzX_.i.#.O.8.h d Q Q $.$.&.&.&.%.%.X.h.H.L.J.L.R.kX/.v l o.&.&.{ W k.XX;XXX;X;X;X;X XwXiXtXsX: X + O ",
"5 :XXX;X;X;X;X;XXX:X=XXX7XhXlX`.p.#.@.8.z s Q ~ { $.&.+.+.%.y.g.h.L.L.P.L.R.kX/.v f o.&.$.4.<.k.XX;XXXXX;X;X;X XwXiXtXsX: X + O ",
"5 :XXX;X;X;X;X;XOX:X=XXX2XnXlX`.p.#.@.8.z s W ~ $.0.#.+.%.9.g.J.I.L.L.L.Y.^.kX/.v k #.$.8.4.-.c.XX;XXXXX;XXX;X XwXiXtXsX: X + O ",
"5 :XXX;X;X;X;X;XoX*X:XXXXX>XM.^.W.s.0.$.) W m x ^ ~ $.t.i.s.J.h.I.I.L.T.^.).>.,.` ` 8.0.| ;.S @X;XXX;X;XXX;X;XXXwXiXtXsX: X + O ",
"5 :XXX;X;X;X;X;X:X}.;X.XoX=XM.T.K.H.%.o.&.{ l k Q ~ { %.g.h.h.J.L.L.W.R._.T.r e q.#.7.$.U j..X=X;XXX;X;XXX;X;XXXwXiXtXsX: X + O ",
"5 :XXX;X;X;X;X;X=X;X=X.XoXXXn.U.H.L.r.+.@.$.2.<.b x { 0.g.J.P.K.Y.P.^.^.>.-.` 2.$.O.8.8.W k.}.=X;XXX;X;XXX;X;XXXwXiXtXsX: X + O ",
"5 :XXX;X;X;X;X;XXX=X=X=XXXXXn.D.K.P.r.*.+.&.e.w.k f 4.s.P.U.R.T.T.R._.^.r a 3.$...o.$.5.l.v.}.=X;XXX;X;XXX;X;XXXwXiXtXsX: X + O ",
"5 :XXX;X;X;X;X;XoX;XXX;X:X=XF 2XS.T.g.y.9.o.o.8.1.1.b K ^.].[.].`.(.>.=.2.[ { O.8.+.` N.%X,XXX=X;XXX;X;XXX;X;XXXwXiXtXsX: X + O ",
"5 :XXX;X;X;X;X;XXX;XXX;X;X=X{.+X8XF.Y.H.9.o.$.w.e.w.a t ~.jX`.jXkX~.t e 4.0.o.$.w.6.z.A  X=X:X;X;XXX;X;XXX;X;XXXwXiXtXsX: X + O ",
"5 :XXX;X;X;X;X;XXX;XXX:X X=X;X<X:Xx.z.d.| R $.[ #.8.` 2.-.=.=.=.=.=.<.4.&.o.#.7.2.z.A +XF G :XXX;XXX;X;XXX;X;XXXwXiXtXsX: X + O ",
"5 :XXX;X;X;X;X;X=X;XXX:XXX1XXXF ,XOXc.:.L L [ @.&.#.&.7.k a a a e k 3.$.@.o.#.q.;.b.+X%X=X,XoXF ;XXX;X;XXX;X;XXXwXiXtXsX: X + O ",
"5 :XXX;X;X;X;X;X;X;X;X;X;X;X;X;X;XXX1Xw u h n b 7.7.#.#.' [ _ _ ' } ] o.o.&.2.N.XXXXXXXXXXXXXXXX;X;X;X;X;X;X;XXXwXiXtXsX: X + O ",
"5 :XXX;X;X;X;X;X;X;X;X;X;X;X;X;X=X.X;XXXS u a k X.%.%.%.&.$.$.0.q.$.$.&. .] ;.c.;X;X;X;X;X;X;X;X;X;X;X;X;X;X;XXXwXiXtXsX: X + O ",
"5 :XXX;X;X;X;X;X;X;X;X;X;X;X;X;XF :XXX<XXXS V.Z.s.s.9.0.$.o.&.@.&.+.9.8.` N.A |.;X;X;X;X;X;X;X;X;X;X;XXX;X;X;XXXwXiXtXsX: X + O ",
"5 :XXX;X;X;X;X;X;X;X;X;X;X;X;X;X X<X=X=XXXXXqXF.T.T.a.q.7.$.$.} ]  .#.d.z.b.XX;X;X;X;X;X;X;X;X;X;X;X;XXX;X;X;XXXwXiXtXsX: X + O ",
"5 :XXX;X;X;X;X;X;X;X;X;X;X;X;X;X#X;X=X.XoX{.:Xv.Q.lX^.Y.6.E ^ / ~ T P z.0 XX9 :X;X;X;X;X;X;X;X;X;X;X;XXX;X;X;XXXwXiXtXsX: X + O ",
"5 :XXX;X;X;X;X;X;X;X;X;X;X;X;X;X&XXX*X X.XXX}.OX0XnXhXhXC.H N.C.N.B.N.b.$X<X=X,X;X;X;X;X;X;X;X;X;X;X;X;X;X;X;XXXwXiXtXsX: X + O ",
"5 :XXX;X;X;X;X;X;X;X;X;X;X;X;X;X0 XX<X;X:X;X1X;XXX1X:X-X9 -X=X9  XXXXXXX X:X.X0 ;X;X;X;X;X;X;X;X;X;X;X;X;X;X;XXXwXiXtXsX: X + O ",
"5 :XXX;X;X;X;X;X;X;X;X;X;X;X;X;X;X=X=X@X1XF =X+X=X=X:XXXoXoX;X;X:XG oX1X9 -X;X<X;X;X;X;X;X;X;X;X;X;X;X;X;X;X;XXXwXiXtXsX: X + O ",
"8 :X;X=X;X X XXX X XXXXX X X X X X X X X X X X X X X X X X X X X X X X X X X X X X X X X X X X X X X X X XXX X XeXsXaXdX: X O # ",
"2 OXq 7 :X3X3X6X3X3X3X3X3X3X3X3X3X3X3X3X3X3X3X3X3X3X3X3X3X3X3X3X3X3X3X3X3X3X3X3X3X3X3X3X3X3X3X3X3X3X3X3X3X3X3X3X7X4X4X6X= O O O ",
"& > ; ; 6XaXuXyXuXuXuXuXuXuXuXuXuXuXuXuXuXuXuXuXuXuXuXuXuXuXuXuXuXuXuXuXuXuXuXuXuXuXuXuXuXuXuXuXuXuXuXiXuXuXuXaX7 & ; ; $ @ O O ",
"& > > * 4XaXyXyXyXyXyXyXyXyXyXyXyXyXyXyXyXyXyXyXyXyXyXyXyXyXyXyXyXyXyXyXyXyXyXyXyXyXyXyXyXyXyXyXuXyXyXuXyXtXyXaX X, > > % + O O ",
"< 1 3 ; 7XaXaXaXaXaXaXaXaXaXaXaXaXaXaXaXaXaXaXaXaXaXaXaXaXaXaXaXaXaXaXaXaXaXaXaXaXaXaXaXaXaXaXaXaXiXaXaXaXuXaXsX7 ; ; 2 % O O O ",
"% * & & .X5X4X4X4X4X4X4X4X4X4X4X4X4X4X4X4X4X4X4X4X4X4X4X4X4X4X4X4X4X4X4X4X4X4X4X4X4X4X4X4X4X4X4X5X4X4X5X5X4X4X5X3 ; * = $ O O O ",
"  .                                                                                                                             ",
"                                                                                                                                "
};
