/* XPM */
static char *adec6543c91b4ddfeab4c8796742c6celBhqlZzaswXpZwkb[] = {
/* columns rows colors chars-per-pixel */
"64 64 234 2 ",
"   c #010102",
".  c #05060A",
"X  c #35353F",
"o  c #37383D",
"O  c #3D3D45",
"+  c #3E3E48",
"@  c #373A43",
"#  c #403F45",
"$  c #42434A",
"%  c #4A4B57",
"&  c #4E515C",
"*  c #53545D",
"=  c #565965",
"-  c #5C5D65",
";  c #5B5D69",
":  c #525561",
">  c #4F5160",
",  c #5F6571",
"<  c #5C6169",
"1  c #61636F",
"2  c #616267",
"3  c #636A74",
"4  c #666977",
"5  c #6B747C",
"6  c #72757C",
"7  c #747B7E",
"8  c #797879",
"9  c #79756B",
"0  c #BD5F00",
"q  c #BC6604",
"w  c #B87B18",
"e  c #AE733B",
"r  c #CC5E00",
"t  c #D25C00",
"y  c #C36401",
"u  c #CC6302",
"i  c #CD6A02",
"p  c #C86909",
"a  c #D46302",
"s  c #D46B02",
"d  c #DA6A07",
"f  c #CB7408",
"g  c #D87608",
"h  c #C97517",
"j  c #DA7711",
"k  c #CE6E12",
"l  c #EB740B",
"z  c #E5770D",
"x  c #FB7F08",
"c  c #E37512",
"v  c #EC7513",
"b  c #E77B16",
"n  c #F27C15",
"m  c #E26A0D",
"M  c #F27F24",
"N  c #CA7824",
"B  c #9F7F55",
"V  c #8D7652",
"C  c #A97A49",
"Z  c #AC7953",
"A  c #AF764D",
"S  c #877B76",
"D  c #977866",
"F  c #78827A",
"G  c #B7812D",
"H  c #DB810C",
"J  c #DF891A",
"K  c #E78809",
"L  c #F5840B",
"P  c #FA840D",
"I  c #F58A0C",
"U  c #F88608",
"Y  c #ED910A",
"T  c #F99D0B",
"R  c #E48314",
"E  c #EB8C13",
"W  c #E58D1A",
"Q  c #EC8C1B",
"!  c #E58716",
"~  c #F68412",
"^  c #FB8413",
"/  c #F58A14",
"(  c #FC8912",
")  c #FC851A",
"_  c #F3891A",
"`  c #EC931B",
"'  c #EB9716",
"]  c #FB9C14",
"[  c #FA9D1B",
"{  c #F49416",
"}  c #EEA80F",
"|  c #F6A40C",
" . c #ECA718",
".. c #F5A315",
"X. c #FBA315",
"o. c #F5A41C",
"O. c #FBA41B",
"+. c #F5AB1A",
"@. c #FCAA1C",
"#. c #F8AC15",
"$. c #EFB31D",
"%. c #D88827",
"&. c #C88839",
"*. c #D68737",
"=. c #D89537",
"-. c #D09A20",
";. c #E78B25",
":. c #F68921",
">. c #E2942C",
",. c #FC9D22",
"<. c #F79B27",
"1. c #E58B37",
"2. c #DBA92B",
"3. c #D6A33A",
"4. c #E9A828",
"5. c #FDA323",
"6. c #F3AB23",
"7. c #FCAA24",
"8. c #F6A32A",
"9. c #FCA42B",
"0. c #FEAB2A",
"q. c #F4A826",
"w. c #ECB52B",
"e. c #F8B42A",
"r. c #ECAD34",
"t. c #E9A734",
"y. c #F8A433",
"u. c #E7B337",
"i. c #F4B836",
"p. c #FAC33B",
"a. c #FAC22D",
"s. c #B8884A",
"d. c #A9845A",
"f. c #B78753",
"g. c #A78749",
"h. c #97866A",
"j. c #888375",
"k. c #9A9072",
"l. c #AD9165",
"z. c #B8AD72",
"x. c #C78945",
"c. c #C78853",
"v. c #D3B44C",
"b. c #F6BC42",
"n. c #E9B354",
"m. c #CCB368",
"M. c #F5BC66",
"N. c #DDC45D",
"B. c #F6CB45",
"V. c #FCCB43",
"C. c #FEC54C",
"Z. c #FDCA4A",
"A. c #F4CA4A",
"S. c #F8D046",
"D. c #F4CD54",
"F. c #FCCB54",
"G. c #F5CC5C",
"H. c #F9CD5C",
"J. c #F8C557",
"K. c #F8D356",
"L. c #EBC850",
"P. c #D9C466",
"I. c #F5CE63",
"U. c #FBCC63",
"Y. c #FDDA68",
"T. c #F5C772",
"R. c #F6DD73",
"E. c #FBD777",
"W. c #E4D174",
"Q. c #FDE66F",
"!. c #FBE578",
"~. c #F5ED77",
"^. c #6D7C8B",
"/. c #6D7985",
"(. c #737E86",
"). c #7A7E85",
"_. c #757F88",
"`. c #7A7E8B",
"'. c #727683",
"]. c #737E92",
"[. c #7C7D91",
"{. c #6C7892",
"}. c #827D88",
"|. c #6E8185",
" X c #6D828D",
".X c #65828B",
"XX c #768186",
"oX c #7A8285",
"OX c #768089",
"+X c #79828B",
"@X c #7B898C",
"#X c #6D8194",
"$X c #738292",
"%X c #7A8292",
"&X c #7A8990",
"*X c #828387",
"=X c #818688",
"-X c #979884",
";X c #868D95",
":X c #8A8E91",
">X c #818595",
",X c #8D9195",
"<X c #94979A",
"1X c #908E8A",
"2X c #AAA590",
"3X c #979CA2",
"4X c #989DA1",
"5X c #9EA2A5",
"6X c #A2A6A7",
"7X c #A6A7AB",
"8X c #A6AAAD",
"9X c #A8ACAF",
"0X c #AAAEB1",
"qX c #ACB0B3",
"wX c #B1B4B9",
"eX c #C1B891",
"rX c #DDD697",
"tX c #DACF8C",
"yX c #F9DE85",
"uX c #E2D698",
"iX c #FCEC85",
"pX c #FDEC8C",
"aX c #F8E886",
"sX c #FBF08D",
"dX c #FEF186",
"fX c #FCEC93",
"gX c #F7E997",
"hX c #FEF493",
"jX c #FFF79C",
"kX c #EBE698",
"lX c #D5D2A7",
"zX c #E4DAA6",
"xX c #FDEDB3",
"cX c #F8EECA",
/* pixels */
"                                                                                                                                ",
"          .                                                                                                                     ",
"& ; = ; 5 `._.OXXXXXXXXXXXXXXXXXXXXXOXOXXXXXXXXXXXXXXXXXXXXXOXOXXXXXXXXXXXXXXXXXXXXXOXOXXXXXXXXXXXXX(.(.(.XXXXXX1 ; 1 = % O O O ",
"& ; = = '.+XOXOXOXOXOXOXOXOXOXOXOXOXOXOXOXOXOXOXOXOXOXOXOXOXOXOXOXOXOXOXOXOXOXOXOXOXOXOXOXOXOXOXOXOXOXOXOXOXOXOX3 = ; = % @ O O ",
"& 1 = ; '._._._._._._._._._._._._._._._._._._._._._._._._._._._._._._._._._._._._._._._._._._._.OX_._._._.OXOXOX4 : : = $ @ O O ",
"& 4 1 1 '.OXOXOXXXXXXXXXXXXXXXXXXXXXXXXXXXXXXXXXXXXXXXXXOXXXXXXXXXXXXXXXXXXXXXOXXXXXXXXXXXXXXXXXXXXXXXOXOXOXOXOX6 6 6 ).% o $ O ",
"4 >XOX(.+XOXOX(.OXOXOXOXOXOXOXOXOXOXOXOXOXOXOXOXOXOXOXOXOXOXOXOXOXOXOXOXOXOXOXOXOXOXOXOXOXOXOXOX_._.OXOXOXOX_._.5X0X0XwX2 o # O ",
", +XOX_.+X(.OXOXOXOXOXOXOXOXOXOXOXOXOXOXOXOXOXOXOXOXOXOXOXOXOXOXOXOXOXOXOXOXOXOXOXOXOXOXOXOXOXOX_.OXOXOXOXOX_.(.<X0X5XqX= o $ O ",
"3 +X_.OXOXOXOXOXOXOXOXOXOXOXOXOXOX(.+XOX/.OXOX_.XXOX_.OXOXOXOXOX'.OX).}.'. X X).OXOXOXOXOXOXOXOXOX_.OXOX_.OXOX(.3X9X6XqX- o + O ",
"3 +X_.OXOXOXOXOXOXOXOXOXOXOXOXOXOXOX_.(.XXXXXX@X|.XX).'.(./.'.'.+X_.^.).).OX|.oXOXOXOXOXOXOXOXOXOX_.OXOX_.OXOX(.3X9X6XqX- o + O ",
"3 +X_.OXOXOXOXOXOXOXOXOXOXOXOXOX_.OX`.(.XXXXXXoX$X=X-X-X-X-Xk.V V V S 7 OX_._._.OXOXOXOXOXOXOXOXOX_.OXOX_.OXOX(.3X9X6XqX- o + O ",
"3 +X_.OXOXOXOXOXOXOXOXOXOXOXOXOXOX_.OX).(.OXOXXX5 2XxXjXgXjXpXv.%.1.c.9 ^.`.*X(.OXOXOXOXOXOXOXOXOX_.OXOX_.OXOX(.3X9X6XqX- o + O ",
"3 +X_.OXOXOXOXOXOXOXOXOXOXOXOXOXOX(.+X(.OX%X(.@Xk.z.R.Y.K.D.B.4.( :.1.C F (.+XXXOXOXOXOXOXOXOXOXOX_.OXOX_.OXOX(.3X9X6XqX- o + O ",
"3 +X_.OXOXOXOXOXOXOXOXOXOXOXOXOXOXOXOX(.%X(.8 1XW.P.L.D.F.i. .#.@.5.9.>.f.9 {.`.OXOXOXOXOXOXOXOXOX_.OXOX_.OXOX(.3X9X6XqX- o + O ",
"3 +X_.OXOXOXOXOXOXOXOXOXOXOXOXOXOXOX_.OXOX=X2XeXgXaX!.L.r.0...X.+. .+.] ;.C S %XOXOXOXOXOXOXOXOXOX_.OXOX_.OXOX(.3X9X6XqX- o + O ",
"3 +X_.OXOXOXOXOXOXOXOXOXOXOXOXOX+X_.(.+X5 <XcXxXxXgXdXA. .o.9.9.y.7.@.O.,.>.g.9 OXOXOXOXOXOXOXOXOX_.OXOX_.OXOX(.3X9X6XqX- o + O ",
"3 +X_.OXOXOXOXOXOXOXOXOXOXOXOXOX_.XXOX`.h.l.T.M.M.T.G.w.+.E z b b R g O.O.<.=.e S (.$XXXXX`.`.|.OX_.OXOX_.OXOX(.3X9X6XqX- o + O ",
"3 +X_.OXOXOXOXOXOXOXOXOXOXOXOXOX_.%X'.S v.2.2.4.r.2.t.q.5.g r a u u i <.5.0.t.=.g.S _.).XX_.`.XXOX_.OXOX_.OXOX(.3X9X6XqX- o + O ",
"3 +X_.OXOXOXOXOXOXOXOXOXOXOXOXOX_.oXk.m.A.p.e.$.} #.e.W j b b b l n b c g O... .-.C S OX+X_._.oXOX_.OXOX_.OXOX(.3X9X6XqX- o + O ",
"3 +X_.OXOXOXOXOXOXOXOXOXOXOXOXOX].j.P.I.C.C.C.e.} | @.g r v ^ L ^ ) M m s [ X.#.o.*.d.(.].OXOXoXOX_.OXOX_.OXOX(.3X9X6XqX- o + O ",
"3 +X_.OXOXOXOXOXOXOXOXOXOXOXOXOX].j.P.H.V.Z.C.i.6.+.7.R a b ^ L ( ( ) s i 9.5...] :.d./._.OXOX`.OX_.OXOX_.OXOX(.3X9X6XqX- o + O ",
"3 +X_.OXOXOXOXOXOXOXOXOXOXOXOXOXOXS P.F.V.V.Z.b.4.8.<.b a l ( ( U U ( s i <.9.5.T _ Z 7 XXoX X`.OX_.OXOX_.OXOX(.3X9X6XqX- o + O ",
"3 +X_.OXOXOXOXOXOXOXOXOXOXOXOXOXOXS N.H.A.B.Z.i.q.W d v n ~ ( P U U P ~ b g H 5.[ Q f.7 XXoX_.OXOX_.OXOX_.OXOX(.3X9X6XqX- o + O ",
"3 +X_.OXOXOXOXOXOXOXOXOXOXOXOXOX^.*XP.I.D.B.V.e.O.R t l ^ ) ^ ( U U x n :.i f O.8.Y G 6 ].`._.XXOX_.OXOX_.OXOX(.3X9X6XqX- o + O ",
"3 +X_.OXOXOXOXOX_.OXXXOXOX_.XXoX2XtXyX!.aXH.$.+.7.R r v ^ P U P I ( L ( ~ a s 5.5.8.>.*.D $XXXoXOX_.OXOX_.OXOX(.3X9X6XqX- o + O ",
"3 +X_.OXOXOXOXOX_.OXXXOXOX_.XXoXlXgXsXiXaXG. .o.,.R a n ) P L L K / P x ^ d d ` ,.0.8.>.B /._._.OX_.OXOX_.OXOX(.3X9X6XqX- o + O ",
"3 +X_.OXOXOXOXOX_.OXXXOXOX_.XXoXzXfXiXiXiXU.q.` d a t l ( I / / E / ( x ~ u y g g O.| ' C 5 +X%XOX_.OXOX_.OXOX(.3X9X6XqX- o + O ",
"3 +X_.OXOXOXOXOX_.OXXXOXOX_.XXoXrXpXiXiXiXU.q.Q r a d l ~ I ~ / ~ ~ L I Q h h y s O.| Y C 5 +XOXOX_.OXOX_.OXOX(.3X9X6XqX- o + O ",
"3 +X_.OXOXOXOXOX_.OXXXOXOX_.XXoXzXhXiXsXiXU.q.Q p c n ~ P P ( ^ ^ ~ I [ r.U.M.h k 5.T ` Z '.+XXXOX_.OXOX_.OXOX(.3X9X6XqX- o + O ",
"3 +X_.OXOXOXOXOX_.OXXXOXOX_.XXoXuXpXpXaXaXH.6.E u c ) P P L ( ^ P I Y o.u.!.E.h p ,.] Q Z '.+XXXOX_.OXOX_.OXOX(.3X9X6XqX- o + O ",
"3 +X_.OXOXOXOXOX_.OXXXOXOX_.OXoXuXfXpXsXiXH.6.! u c ) P P L P L P ] X.@.u.R.T.h g 9.[ Q Z '.OXOXOX_.OXOX_.OXOX(.3X9X6XqX- o + O ",
"3 +X_.OXOXOXOXOX_.OXXXOXOX_.OXoXuXpXpXpXiXH.6.W u z ^ x P P I I K @.X.] r.E.E.h i ,.] Q C 6 _.%XOX_.OXOX_.OXOX(.3X9X6XqX- o + O ",
"3 +X_.OXOXOXOXOXOXOXOXOXOXXXXXoXuXhXiXaXiXH.4.Q u z ^ P U U I ] O.5.@.} w.iXE.k k ,.X.' C '.`.OXOX_.OXOX_.OXOX(.3X9X6XqX- o + O ",
"3 +X_.OXOXOXOXOXOXOXOXOXOXXXXXoXrXsXpXfXpXI.6.E r c ) P U I { [ @.5.7.$.u.!.E.p g 5.[ Q C 7 ).XXOX_.OXOX_.OXOX(.3X9X6XqX- o + O ",
"3 +X_.OXOXOXOXOXOXOXOXOXOXXXXXoXrXfXpXfXpXG.e.E a v ) ^ U { O.O.X.o.6.i.F.pXE.f s <.[ / e '.+XOXOX_.OXOX_.OXOX(.3X9X6XqX- o + O ",
"3 +X_.OXOXOXOXOXOXOXOXOXOXOXXXoXzXhXiXsXiXG.q.! u m v n L ] @.o...o.4.Z.H.n.n.p d 9.o.` C ^.$XXXOX_.OXOX_.OXOX(.3X9X6XqX- o + O ",
"3 +X_.OXOXOXOXOXXXOXOXOXOXOXXXOXtXsX~.iXpXI.4.E r a t l L ] @.o.@.6.4.Y.U.G q y g q...` Z {. XF OX_.OXOX_.OXOX(.3X9X6XqX- o + O ",
"3 +X_.OXOXOXOXOXXXXXOXOXOXOXXXOXrXhXsXpXfXI.$.T j g r b { X.O.o.O.e.u.Y.E.h u j J O.T / A '.XXXXOX_.OXOX_.OXOX(.3X9X6XqX- o + O ",
"3 +X_.OXOXOXOXOXXXXXOXOXOXOXXXOXlXkXhXpXaXG.$...9.! u _ ,.@...6.o.p.D.!.R.h d <.y.7.o.%.d.XXXX].OX_.OXOX_.OXOX(.3X9X6XqX- o + O ",
"3 +X_.OXOXOXOXOXXXXXOXOXOXOXOXOX:Xz.W.Q.R.D.w.7.0.! y ! 5.@. .6.e.p.D.~.R.h d <.X.' =.Z *X.XF [.OX_.OXOX_.OXOX(.3X9X6XqX- o + O ",
"3 +X_.OXOXOXOXOXOXOXOXOXOXOXOXOXXX8 m.D.J.Z.F.i.7.H u ;.9.#.} a.B.Z.D.!.Y.w f | | W A 6 $XXXXXoXOX_.OXOX_.OXOX(.3X9X6XqX- o + O ",
"3 +X_.OXOXOXOXOXOXOXOXOXOXOXOXOX].@XP.Z.F.Z.C.a.+.' ! R R ' 6.i.V.K.Y.v.2.J R @.o.Q d./.XX).$X_.OX_.OXOX_.OXOX(.3X9X6XqX- o + O ",
"3 +X_.OXOXOXOXOXOXOXOXOXOXOXOXOXOX&Xm.V.B.B.Z.p. .+.5.R i W r.i.L.!.pXw q 5.0. .T _ d..XXX).$XXXOX_.OXOX_.OXOX(.3X9X6XqX- o + O ",
"3 +X_.OXOXOXOXOXOXOXOXOXOXOXOXOXXX`.m.V.B.A.Z.i.q.7.O.R q >.b.K.~.aXyX&.i [ 6.+.T _ d.^.XX).$XXXOX_.OXOX_.OXOX(.3X9X6XqX- o + O ",
"3 +X_.OXOXOXOXOXOXOXOXOXOXOXOXOX+X*Xm.G.C.C.C.7.[ @.] R y t.J.Y.~.iXyXN y ,.7.7.<.x.h.(.%X(.XXXXOX_.OXOX_.OXOX(.3X9X6XqX- o + O ",
"3 +X_.OXOXOXOXOXOXOXOXOXOXOXOXOX_.XX=Xk.3.8.<.] { | @.[ ;.%.%.=.=.=.=.;.W O...` l.j.XX).$X_.).+XOX_.OXOX_.OXOX(.3X9X6XqX- o + O ",
"3 +X_.OXOXOXOXOXOXOXOXOXOXOXOXOXOXOX{.'.g.%.n _ E Y O.0.y.g y y q y y ` 7...4.s.oX^.^.XXXX_.+X`.OX_.OXOX_.OXOX(.3X9X6XqX- o + O ",
"3 +X_.OXOXOXOXOXOXOXOXOXOXOXOXOX(.OX}.`.).A d c m z z ` 8.' K ` Y Q { O.O.` s.).XX).}.XXoX`.$XXXOX_.OXOX_.OXOX(.3X9X6XqX- o + O ",
"3 +X_.OXOXOXOXOXOXOXOXOXOXOXOXOXOX`.(.XXOXS C p u u y J 9.o.+.+.+.| X.5.y.x.j.OXOXOXOXOXOXOXOXOXOXOXOXOXOXOXOX(.3X9X6XqX- o + O ",
"3 +X_.OXOXOXOXOXOXOXOXOXOXOXOXOX_.`.XXOX$X`.S B n.b.4.i.b.e. .} } 6.O.{ &.j._.).OXOXOXOXOXOXOXOXOXOXOXOXOXOXOX(.3X9X6XqX- o + O ",
"3 +X_.OXOXOXOXOXOXOXOXOXOXOXOXOX_._.XXXX$X#X$X@XtXP.D.S.B.u.4.....0.8.&.h.OX$X%XOXOXOXOXOXOXOXOXOXOXOX_.OXOXOX(.3X9X6XqX- o + O ",
"3 +X_.OXOXOXOXOXOXOXOXOXOXOXOXOXOXOXOX(.).`.OX&X8 z.pXQ.Q.!.Y.t.;._ x.S |.7 ). XOXOXOXOXOXOXOXOXOXOXOX_.OXOXOX(.3X9X6XqX- o + O ",
"3 +X_.OXOXOXOXOXOXOXOXOXOXOXOXOXOXOXOXOX).8 8 ).5 -XzXrXrXkXuXm.x.f.h._.OXoXOX|.OXOXOXOXOXOXOXOXOXOXOX_.OXOXOX(.3X9X6XqX- o + O ",
"3 +X_.OXOXOXOXOXOXOXOXOXOXOXOXOX).XXOX X$XXX(._.$X`.>X%X+X+X).).S ).OX7 %X_.OXOXOXOXOXOXOXOXOXOXOXOXOXOXOXOXOX_.3X9X6XqX- o + O ",
"3 +X_.OXOXOXOXOXOXOXOXOXOXOXOXOX_.XXXX$X$XOXOX$XF XX(.^.OX+X|.XX#X#XOXXX%X_.OX$XOXOXOXOXOXOXOXOXOXOXOXOXOXOXOX_.3X9X6XqX- o + O ",
"3 +X_.OXOXOXOXOXOXOXOXOXOXOXOXOX].oXF ).OXXXXX%X`.'.OXoXoX).+XOX}.oXOX_.oXOXOXoXOXOXOXOXOXOXOXOXOXOXOXOXOXOXOX_.3X9X6XqX- o + O ",
"3 +XOXOXOX(.(._.(.(.(.(.(.(.(.(.(.(.(.(.(.(.(.(.(.(.(.(.(.(.(.(.(.(._._.(.(.(.(.(.(.(.(.(.(.(.(.(.(.(.(.(._.(.(.4XqX0XwX- o O # ",
"< '.6 5 @X;X;X,X;X;X;X;X;X;X;X;X;X;X;X;X;X;X;X;X;X;X;X;X;X;X;X;X;X;X;X;X;X;X;X;X;X;X;X;X;X;X;X;X;X;X;X;X;X;X;X;X<X:X:X,X* O O O ",
"& ; = = <X0X8X7X8X8X8X8X8X8X8X8X8X8X8X8X8X8X8X8X8X8X8X8X8X8X8X8X8X8X8X8X8X8X8X8X8X8X8X8X8X8X8X8X8X8X8X9X8X8X8X0X5 & = = $ @ O O ",
"& ; ; & :X0X7X7X7X7X7X7X7X7X7X7X7X7X7X7X7X7X7X7X7X7X7X7X7X7X7X7X7X7X7X7X7X7X7X7X7X7X7X7X7X7X7X7X8X7X7X8X7X6X7X0X'.: ; ; % + O O ",
"> , 1 = <X0X0X0X0X0X0X0X0X0X0X0X0X0X0X0X0X0X0X0X0X0X0X0X0X0X0X0X0X0X0X0X0X0X0X0X0X0X0X0X0X0X0X0X0X9X0X0X0X8X0XqX5 = = < % O O O ",
"% & & & ).,X:X:X:X:X:X:X:X:X:X:X:X:X:X:X:X:X:X:X:X:X:X:X:X:X:X:X:X:X:X:X:X:X:X:X:X:X:X:X:X:X:X:X,X:X:X,X,X:X:X,X1 = * * $ O O O ",
"  .                                                                                                                             ",
"                                                                                                                                "
};
