/* XPM */
static char *f431873765aa42b6a2fc3a1be7dded13O3jtPOsen3Lubed2[] = {
/* columns rows colors chars-per-pixel */
"64 64 198 2 ",
"   c #010102",
".  c #05060A",
"X  c #35353F",
"o  c #37383D",
"O  c #3D3D45",
"+  c #3E3E48",
"@  c #373A43",
"#  c #403F45",
"$  c #42444C",
"%  c #404146",
"&  c #5B554E",
"*  c #464954",
"=  c #4D4E5C",
"-  c #494A53",
";  c #4E515C",
":  c #5B5753",
">  c #555B54",
",  c #5A5C56",
"<  c #52535D",
"1  c #565A5C",
"2  c #595D5B",
"3  c #64594F",
"4  c #5F6459",
"5  c #616459",
"6  c #4F5160",
"7  c #525561",
"8  c #565965",
"9  c #5C5D65",
"0  c #5B5D69",
"q  c #5E6262",
"w  c #5C6169",
"e  c #5F6571",
"r  c #616564",
"t  c #61636F",
"y  c #656B67",
"u  c #706F6D",
"i  c #6C716D",
"p  c #636A74",
"a  c #656875",
"s  c #6D727C",
"d  c #687173",
"f  c #70757C",
"g  c #767A7A",
"h  c #904F1E",
"j  c #9E6C3B",
"k  c #A96B28",
"l  c #C85C02",
"z  c #C96201",
"x  c #C06512",
"c  c #E77406",
"v  c #DE7A22",
"b  c #9D714A",
"n  c #AC7E43",
"m  c #73857D",
"M  c #7B867E",
"N  c #AB853E",
"B  c #ED890A",
"V  c #ED8B0F",
"C  c #EB962B",
"Z  c #F29C26",
"A  c #EB9737",
"S  c #DDA92F",
"D  c #E6A428",
"F  c #F3A224",
"G  c #E4AA34",
"H  c #F5BC3B",
"J  c #F7B932",
"K  c #D38C32",
"L  c #F3C73C",
"P  c #9B8D54",
"I  c #9F874B",
"U  c #AA8944",
"Y  c #A08F5B",
"T  c #A99658",
"R  c #B09B5C",
"E  c #868A7F",
"W  c #B09260",
"Q  c #A89F79",
"!  c #A5A173",
"~  c #A8A475",
"^  c #AAA47A",
"/  c #B9A875",
"(  c #DD9E41",
")  c #D9BA5C",
"_  c #D4A651",
"`  c #F2AB41",
"'  c #E6BA5A",
"]  c #F0B249",
"[  c #D7BB64",
"{  c #EECB47",
"}  c #FCC646",
"|  c #FCCB44",
" . c #FDC54A",
".. c #FECA4B",
"X. c #F4CD47",
"o. c #F9D14E",
"O. c #EBC856",
"+. c #FAC552",
"@. c #FCCB53",
"#. c #FCCC5D",
"$. c #F6C254",
"%. c #EFD25A",
"&. c #F6D154",
"*. c #F8D75D",
"=. c #D8C77B",
"-. c #DBC065",
";. c #E9CB66",
":. c #F4D264",
">. c #FBD363",
",. c #FAD962",
"<. c #F9DE6C",
"1. c #F5D766",
"2. c #F4D873",
"3. c #EAC76E",
"4. c #F9E367",
"5. c #FBE47D",
"6. c #FCED7B",
"7. c #FDF07D",
"8. c #6D7C8B",
"9. c #6E7982",
"0. c #727482",
"q. c #737E86",
"w. c #797D85",
"e. c #757F88",
"r. c #7A7E8A",
"t. c #787785",
"y. c #6F7A90",
"u. c #757D92",
"i. c #797D93",
"p. c #807B81",
"a. c #6D808B",
"s. c #6D8586",
"d. c #768186",
"f. c #7A8384",
"g. c #768089",
"h. c #79828B",
"j. c #7E898C",
"k. c #7F8885",
"l. c #758292",
"z. c #7B8491",
"x. c #778993",
"c. c #7A8995",
"v. c #788599",
"b. c #838386",
"n. c #838D86",
"m. c #828A8A",
"M. c #858589",
"N. c #8D9484",
"B. c #97998C",
"V. c #808592",
"C. c #858C94",
"Z. c #8B8E92",
"A. c #8D9194",
"S. c #8C9198",
"D. c #90949B",
"F. c #9A9D97",
"G. c #A19A87",
"H. c #AAA588",
"J. c #B7B58A",
"K. c #AAAB96",
"L. c #BAAC9F",
"P. c #B9B99B",
"I. c #979CA2",
"U. c #989DA1",
"Y. c #9EA2A5",
"T. c #A2A6A7",
"R. c #A6A7AB",
"E. c #A6AAAE",
"W. c #A8ACAF",
"Q. c #AAADB1",
"!. c #ACB0B3",
"~. c #B1B4B9",
"^. c #C9C48B",
"/. c #D3CA8D",
"(. c #D6CA82",
"). c #DBD28B",
"_. c #CEC991",
"`. c #D3CC92",
"'. c #DAD494",
"]. c #DDD99A",
"[. c #E0D991",
"{. c #EAD988",
"}. c #FAE484",
"|. c #FCEC84",
" X c #F7EC8B",
".X c #FDEC8B",
"XX c #FCF184",
"oX c #FEF08A",
"OX c #F8E997",
"+X c #FAF497",
"@X c #FEF49C",
"#X c #FFF99D",
"$X c #F7F298",
"%X c #E4E096",
"&X c #DADBA1",
"*X c #FEEEA7",
"=X c #FFF5A0",
"-X c #FFF4AD",
/* pixels */
"                                                                                                                                ",
"          .                                                                                                                     ",
"< 0 8 0 s r.e.g.d.d.d.d.d.d.d.d.d.d.g.g.d.d.d.d.q.q.q.q.q.q.q.q.q.q.q.q.q.q.q.q.d.d.d.d.d.d.d.d.d.d.q.q.q.d.d.d.a 0 t 8 - O O O ",
"= 0 8 8 9.h.g.g.g.g.g.g.g.g.g.g.g.g.g.g.g.g.g.g.g.g.g.g.g.g.g.g.g.g.g.g.g.g.g.g.g.g.g.g.g.g.g.g.h.g.g.g.g.g.h.h.a 8 0 8 * @ O O ",
"= t 8 0 9.e.e.e.e.e.e.e.e.e.e.e.e.e.e.e.e.e.e.e.e.e.e.e.e.e.e.e.e.e.e.e.e.e.e.e.e.e.e.e.e.e.e.e.g.e.e.e.e.g.g.g.a 7 7 8 $ @ O O ",
"; a t t 0.g.g.g.d.d.d.d.d.d.d.d.d.d.d.d.d.d.d.d.g.g.g.g.g.g.g.g.g.g.g.g.g.g.g.g.d.d.d.d.d.d.d.d.d.d.d.g.g.g.g.g.f f f w.- o % O ",
"d V.g.q.h.g.g.q.g.g.g.g.g.g.g.g.g.g.g.g.g.g.g.g.g.g.g.g.g.g.g.g.g.g.g.g.g.g.g.g.g.g.g.g.g.g.g.g.e.e.g.g.g.g.e.e.Y.Q.Q.~.r o # O ",
"e h.g.e.h.q.g.g.g.g.g.g.g.g.g.g.g.g.g.g.g.g.g.g.g.g.g.g.g.g.g.g.g.g.g.g.g.g.g.g.g.g.g.g.g.g.g.g.e.g.g.g.g.g.e.q.F.Q.Y.!.8 o % O ",
"p h.e.g.g.g.g.g.g.g.g.g.g.g.g.g.g.g.g.g.g.g.g.g.9.l.h.q.e.g.g e.e.h.d.m q.u.l.s.g.g.g.g.g.g.g.g.g.e.g.g.e.g.g.q.I.W.T.!.9 o + O ",
"p h.e.g.g.g.g.g.g.g.g.g.g.g.g.g.g.g.g.g.g.g.g.g.j.q.q.d.e.h.m.C.N.j.8.h.r.r.r.q.g.g.g.g.g.g.g.g.g.e.g.g.e.g.g.q.I.W.T.!.9 o + O ",
"p h.e.g.g.g.g.g.g.g.g.g.g.g.g.g.g.g.g.g.g.g.g.g.t.g H././.).{.{.].K.e.u.q.w.w.r.g.g.g.g.g.g.g.g.g.e.g.g.e.g.g.q.I.W.T.!.9 o + O ",
"p h.e.g.g.g.g.g.g.g.g.g.g.g.g.g.g.g.g.g.g.g.g.g.s.N.(.<.,.*.,.:.5./ u h.d.d.q.a.g.g.g.g.g.g.g.g.g.e.g.g.e.g.g.q.I.W.T.!.9 o + O ",
"p h.e.g.g.g.g.g.g.g.g.g.g.g.g.g.g.g.g.g.g.g.g.g.8.F.=.O.O.O.;.;.3.Y 5 h.d.g.a.g.g.g.g.g.g.g.g.g.g.e.g.g.e.g.g.q.I.W.T.!.9 o + O ",
"p h.e.g.g.g.g.g.g.g.g.g.g.g.g.g.g.g.g.g.g.g.g.g.t.L.OX5.}.}.}.}.*XQ 2 g.9.e.e.g.g.g.g.g.g.g.g.g.g.e.g.g.e.g.g.q.I.W.T.!.9 o + O ",
"p h.e.g.g.g.g.g.g.g.g.g.g.g.g.g.g.g.g.g.g.e.g.g.f.P.*X.X=X=X@X@X-X^ 1 z.e.z.r.w.g.g.g.g.g.g.g.g.g.e.g.g.e.g.g.q.I.W.T.!.9 o + O ",
"p h.e.g.g.g.g.g.g.g.g.g.g.g.g.g.g.g.g.g.g.g.g.g.8.G.=.O.:.;.O.O.2.P & C.e.g.g.g.g.g.g.g.g.g.g.g.g.e.g.g.e.g.g.q.I.W.T.!.9 o + O ",
"p h.e.g.g.g.g.g.g.g.g.g.g.g.g.g.g.g.g.g.g.g.g.g.q.E _ D D G S D G I y l.e.f.g.g.g.g.g.g.g.g.g.g.g.e.g.g.e.g.g.q.I.W.T.!.9 o + O ",
"p h.e.g.g.g.g.g.g.g.g.g.g.g.g.g.g.g.g.g.g.g.g.g.d.E ) J H H L H ] T i v.g.f.d.g.g.g.g.g.g.g.g.g.g.e.g.g.e.g.g.q.I.W.T.!.9 o + O ",
"p h.e.g.g.g.g.g.g.g.g.g.g.g.g.g.g.g.g.g.g.g.g.g.d.n.[ |  .| | | @.R i v.e.d.g.g.g.g.g.g.g.g.g.g.g.e.g.g.e.g.g.q.I.W.T.!.9 o + O ",
"p h.e.g.g.g.g.g.g.g.g.g.g.g.g.g.g.g.g.g.g.g.g.g.e.m.[ ......| | #.T y z.q.d.g.h.g.g.g.g.g.g.g.g.g.e.g.g.e.g.g.q.I.W.T.!.9 o + O ",
"p h.e.g.g.g.g.g.g.g.g.g.g.g.g.g.g.g.g.g.g.g.g.g.u.k.[ ..@...| | >.Y 5 z.e.g.g.e.g.g.g.g.g.g.g.g.g.e.g.g.e.g.g.q.I.W.T.!.9 o + O ",
"p h.e.g.g.g.g.g.g.g.g.g.g.g.g.g.g.g.g.g.g.g.g.g.w.M ) | ..| | L :.P , j.e.g.g.e.g.g.g.g.g.g.g.g.g.e.g.g.e.g.g.q.I.W.T.!.9 o + O ",
"p h.e.g.g.g.g.g.g.g.g.g.g.g.g.g.g.g.g.g.g.g.g.g.w.M [ o.@.@.X.{ :.P , z.e.g.g.w.g.g.g.g.g.g.g.g.g.e.g.g.e.g.g.q.I.W.T.!.9 o + O ",
"p h.e.g.g.g.g.g.g.g.g.g.g.g.g.g.g.g.g.g.g.g.g.g.i.j.=.,.>.>.1.*.2.P , V.e.g.q.w.g.g.g.g.g.g.g.g.g.e.g.g.e.g.g.q.I.W.T.!.9 o + O ",
"p h.e.g.g.g.g.g.g.g.g.g.g.g.g.g.g.g.g.g.g.g.g.g.m h.`.XX|.|.|.6.+XQ 2 z.g.g.g.g.g.g.g.g.g.g.g.g.g.e.g.g.e.g.g.q.I.W.T.!.9 o + O ",
"p h.e.g.g.g.g.g.g.g.g.g.g.g.g.g.g.g.g.g.g.g.g.g.d.r._.XX.X.X|.|.+X~ 9 z.e.d.g.g.g.g.g.g.g.g.g.g.g.e.g.g.e.g.g.q.I.W.T.!.9 o + O ",
"p h.e.g.g.g.g.g.g.g.g.g.g.g.g.g.g.g.g.g.g.g.g.g.g.r.^..X.X.X.X|.@X~ q z.q.d.g.g.g.g.g.g.g.g.g.g.g.e.g.g.e.g.g.q.I.W.T.!.9 o + O ",
"p h.e.g.g.g.g.g.g.g.g.g.g.g.g.g.g.g.g.g.g.g.g.g.e.b./..X.X.X.X|.#X^ q z.q.d.g.g.g.g.g.g.g.g.g.g.g.e.g.g.e.g.g.q.I.W.T.!.9 o + O ",
"p h.e.g.g.g.g.g.g.g.g.g.g.g.g.g.g.g.g.g.g.g.g.g.e.B.'.oX.X.X.X|.#X^ q z.q.d.g.g.g.g.g.g.g.g.g.g.g.e.g.g.e.g.g.q.I.W.T.!.9 o + O ",
"p h.e.g.g.g.g.g.g.g.g.g.g.g.g.g.g.g.g.g.g.g.g.g.e.K.OXoX|..X.X6.#X~ q h.e.d.g.g.g.g.g.g.g.g.g.g.g.e.g.g.e.g.g.q.I.W.T.!.9 o + O ",
"p h.e.g.g.g.g.g.g.g.g.g.g.g.g.g.g.g.g.g.g.g.g.g.q.P.$X.X.X.X.X|.#X! 2 h.g.d.g.g.g.g.g.g.g.g.g.g.g.e.g.g.e.g.g.q.I.W.T.!.9 o + O ",
"p h.e.g.g.g.g.g.g.g.g.g.g.g.g.g.g.g.g.g.g.g.g.g.0.P.$X|..X.X.XXX#X! , h.g.q.e.g.g.g.g.g.g.g.g.g.g.e.g.g.e.g.g.q.I.W.T.!.9 o + O ",
"p h.e.g.g.g.g.g.g.g.g.g.g.g.g.g.g.g.e.e.g.g.g.g.0.J.+X|..X.X.X.X=X! > h.q.g.q.g.g.g.g.g.g.g.g.g.g.e.g.g.e.g.g.q.I.W.T.!.9 o + O ",
"p h.e.g.g.g.g.g.g.g.g.g.g.g.g.g.g.g.e.e.g.g.g.g.0.J.+X|..X.X.X.X=X! > h.q.g.e.g.g.g.g.g.g.g.g.g.g.e.g.g.e.g.g.q.I.W.T.!.9 o + O ",
"p h.e.g.g.g.g.g.g.g.g.g.g.g.g.g.g.g.g.e.g.g.g.g.0.J.+X|..X.X.X X=X! > h.e.g.e.g.g.g.g.g.g.g.g.g.g.e.g.g.e.g.g.q.I.W.T.!.9 o + O ",
"p h.e.g.g.g.g.g.g.g.g.g.g.g.g.g.g.g.g.g.g.g.g.g.t.H.OXXX.X.X.X X=X! > h.q.e.e.g.g.g.g.g.g.g.g.g.g.e.g.g.e.g.g.q.I.W.T.!.9 o + O ",
"p h.e.g.g.g.g.g.g.g.g.g.g.g.g.g.g.g.g.g.g.g.g.g.e.B.%XXX.X.X.X X#X! 2 h.e.e.g.g.g.g.g.g.g.g.g.g.g.e.g.g.e.g.g.q.I.W.T.!.9 o + O ",
"p h.e.g.g.g.g.g.g.g.g.g.g.g.g.g.g.g.g.g.g.g.g.g.e.n.'.XX.X.X|..X#X~ 4 h.g.e.g.g.g.g.g.g.g.g.g.g.g.e.g.g.e.g.g.q.I.W.T.!.9 o + O ",
"p h.e.g.g.g.g.g.g.g.g.g.g.g.g.g.g.g.g.g.g.g.g.g.e.b.'.7.|..X|.|.#X~ r h.g.e.g.g.g.g.g.g.g.g.g.g.g.e.g.g.e.g.g.q.I.W.T.!.9 o + O ",
"p h.e.g.g.g.g.g.g.g.g.g.g.g.g.g.g.g.g.g.g.g.g.g.g.b.'.6.5.}.6.5.+X! r h.g.q.h.g.g.g.g.g.g.g.g.g.g.e.g.g.e.g.g.q.I.W.T.!.9 o + O ",
"p h.e.g.g.g.g.g.g.g.g.g.g.g.g.g.g.g.g.g.g.g.g.g.q.j.-.,.#.#.#.%.<.U , x.w.g.g.w.g.g.g.g.g.g.g.g.g.e.g.g.e.g.g.q.I.W.T.!.9 o + O ",
"p h.e.g.g.g.g.g.g.g.g.g.g.g.g.g.g.g.g.g.g.g.g.g.e.j.[ &.+.+.+.{ 1.U > z.w.g.g.e.g.g.g.g.g.g.g.g.g.e.g.g.e.g.g.q.I.W.T.!.9 o + O ",
"p h.e.g.g.g.g.g.g.g.g.g.g.g.g.g.g.g.g.g.g.g.g.g.e.m.) &.......| :.N : z.w.g.g.g.g.g.g.g.g.g.g.g.g.e.g.g.e.g.g.q.I.W.T.!.9 o + O ",
"p h.e.g.g.g.g.g.g.g.g.g.g.g.g.g.g.g.g.g.g.g.g.g.q.m.) o.| | } L >.U > z.w.e.g.g.g.g.g.g.g.g.g.g.g.e.g.g.e.g.g.q.I.W.T.!.9 o + O ",
"p h.e.g.g.g.g.g.g.g.g.g.g.g.g.g.g.g.g.g.g.g.g.g.q.m.' o.......X.,.U > x.w.e.g.g.g.g.g.g.g.g.g.g.g.e.g.g.e.g.g.q.I.W.T.!.9 o + O ",
"p h.e.g.g.g.g.g.g.g.g.g.g.g.g.g.g.g.g.g.g.g.g.g.q.M.' } }  . .} #.N > x.w.e.r.g.g.g.g.g.g.g.g.g.g.e.g.g.e.g.g.q.I.W.T.!.9 o + O ",
"p h.e.g.g.g.g.g.g.g.g.g.g.g.g.g.g.g.g.g.g.g.g.g.g.b.( F Z F Z F ` k : c.q.e.r.g.g.g.g.g.g.g.g.g.g.e.g.g.e.g.g.q.I.W.T.!.9 o + O ",
"p h.e.g.g.g.g.g.g.g.g.g.g.g.g.g.g.g.g.g.g.g.g.g.g.p.K V B V V B C k & c.w.e.g.g.g.g.g.g.g.g.g.g.g.e.g.g.e.g.g.q.I.W.T.!.9 o + O ",
"p h.e.g.g.g.g.g.g.g.g.g.g.g.g.g.g.g.g.g.g.g.g.g.e.f.n c c c c c v h 3 g.e.r.e.l.g.g.g.g.g.g.g.g.g.g.g.g.g.g.g.q.I.W.T.!.9 o + O ",
"p h.e.g.g.g.g.g.g.g.g.g.g.g.g.g.g.g.g.g.g.g.g.g.z.e.b z l l z z x h 3 x.e.w.f.g.g.g.g.g.g.g.g.g.g.g.g.g.g.g.g.q.I.W.T.!.9 o + O ",
"p h.e.g.g.g.g.g.g.g.g.g.g.g.g.g.g.g.g.g.g.g.g.g.M 8.W C C A C C ` j : v.r.f.f.q.g.g.g.g.g.g.g.g.g.g.g.e.g.g.g.q.I.W.T.!.9 o + O ",
"p h.e.g.g.g.g.g.g.g.g.g.g.g.g.g.g.g.g.g.g.g.g.g.q.y./ |  .+. .$.>.U & c.h.w.d.u.g.g.g.g.g.g.g.g.g.g.g.e.g.g.g.q.I.W.T.!.9 o + O ",
"p h.e.g.g.g.g.g.g.g.g.g.g.g.g.g.g.g.g.g.g.g.g.g.d.u.J.4.4.<.*.4.|.R 4 h.r.w.g.i.g.g.g.g.g.g.g.g.g.g.g.e.g.g.g.q.I.W.T.!.9 o + O ",
"p h.e.g.g.g.g.g.g.g.g.g.g.g.g.g.g.g.g.g.g.g.g.g.M q.B.^./.`./.).&XH.g g.d.f.d.q.g.g.g.g.g.g.g.g.g.g.g.g.g.g.g.e.I.W.T.!.9 o + O ",
"p h.e.g.g.g.g.g.g.g.g.g.g.g.g.g.g.g.g.g.g.g.g.g.h.q.e.r.r.r.h.V.n.b.g.h.e.d.d.f.g.g.g.g.g.g.g.g.g.g.g.g.g.g.g.e.I.W.T.!.9 o + O ",
"p h.e.g.g.g.g.g.g.g.g.g.g.g.g.g.g.g.g.g.g.g.g.g.g.f.g.g.d.d.g.g.8.e.g.e.z.l.a.h.g.g.g.g.g.g.g.g.g.g.g.g.g.g.g.e.I.W.T.!.9 o + O ",
"d h.g.g.g.q.q.e.q.q.q.q.q.q.q.q.q.q.q.q.q.q.q.q.q.q.q.q.q.q.q.q.q.q.q.q.q.q.q.q.q.q.q.q.q.q.q.q.q.q.q.q.q.e.q.q.U.!.Q.~.9 o O # ",
"w 0.f s j.C.C.S.C.C.C.C.C.C.C.C.C.C.C.C.C.C.C.C.C.C.C.C.C.C.C.C.C.C.C.C.C.C.C.C.C.C.C.C.C.C.C.C.C.C.C.C.C.C.C.C.D.Z.Z.S.1 O O O ",
"= 0 8 8 D.Q.E.R.E.E.E.E.E.E.E.E.E.E.E.E.E.E.E.E.E.E.E.E.E.E.E.E.E.E.E.E.E.E.E.E.E.E.E.E.E.E.E.E.E.E.E.W.E.E.E.Q.s ; 8 8 $ @ O O ",
"= 0 0 < Z.Q.R.R.R.R.R.R.R.R.R.R.R.R.R.R.R.R.R.R.R.R.R.R.R.R.R.R.R.R.R.R.R.R.R.R.R.R.R.R.R.R.R.R.E.R.R.E.R.T.R.Q.t.7 0 0 * + O O ",
"6 e t 8 D.Q.Q.Q.Q.Q.Q.Q.Q.Q.Q.Q.Q.Q.Q.Q.Q.Q.Q.Q.Q.Q.Q.Q.Q.Q.Q.Q.Q.Q.Q.Q.Q.Q.Q.Q.Q.Q.Q.Q.Q.Q.Q.Q.Q.W.Q.Q.Q.E.Q.!.s 8 8 w * O O O ",
"* < ; ; w.A.C.C.C.C.C.C.C.C.C.C.C.C.C.C.C.C.C.C.C.C.C.C.C.Z.C.Z.C.C.C.C.C.Z.C.Z.C.C.C.C.C.C.C.C.A.C.C.A.A.C.Z.A.t 8 < 1 $ O O O ",
"  .                                                                                                                             ",
"                                                                                                                                "
};
