/* XPM */
static char *rcp12354615788900[] = {
/* columns rows colors chars-per-pixel */
"64 64 29 1 ",
"  c #768089",
". c #A6AAAD",
"X c black",
"o c #3C3C44",
"O c #77818A",
"+ c #646C72",
"@ c #5D6166",
"# c #A7B9B5",
"$ c #858E93",
"% c #949C9F",
"& c #A3A8AB",
"* c #8C8F93",
"= c #595C67",
"- c #4A5153",
"; c #6E767D",
": c #5E6767",
"> c #B1C0BD",
", c #52585B",
"< c #879693",
"1 c #42484A",
"2 c #A0B1AE",
"3 c #697275",
"4 c #727B83",
"5 c #7D8888",
"6 c #272E2D",
"7 c #737E7C",
"8 c #97A5A2",
"9 c #BFCBC9",
"0 c #D2DBDA",
/* pixels */
"XXXXXXXXXXXXXXXXXXXXXXXXXXXXXXXXXXXXXXXXXXXXXXXXXXXXXXXXXXXXXXXX",
"XXXXXXXXXXXXXXXXXXXXXXXXXXXXXXXXXXXXXXXXXXXXXXXXXXXXXXXXXXXXXXXX",
"-===;O                                                  +===1ooo",
"-===;O                                                  +===1ooo",
"-===;O                                                  :===1ooo",
"=+++;                                                   4;;;-ooo",
"+O                                                      %..&@ooo",
"+O                                                      %..&@ooo",
"+O                                                      %..&@ooo",
"+O                                                      %..&@ooo",
"+O                                                      %..&@ooo",
"+O                                                      %..&@ooo",
"+O                                                      %..&@ooo",
"+O                                                      %..&@ooo",
"+O                                                      %..&@ooo",
"+O                                                      %..&@ooo",
"+O                                                      %..&@ooo",
"+O                                                      %..&@ooo",
"+O                                                      %..&@ooo",
"+O                                                      %..&@ooo",
"+O                                                      %..&@ooo",
"+O                                                      %..&@ooo",
"+O                                                      %..&@ooo",
"+O                                                      %..&@ooo",
"+O                                                      %..&@ooo",
"+O                                                      %..&@ooo",
"+O                  OO                                  %..&@ooo",
"+O                 4334             O  OO               %..&@ooo",
"+O              O;==++-;          O 3@@:; O             %..&@ooo",
"+O              :-7#02@         O43@:7<+1-+             %..&@ooo",
"+O             @1;2>934         +@5.#>>25@1@O           %..&@ooo",
"+O           O+-7<2973O        4-<0>###2<$+,            %..&@ooo",
"+O           O@+$<>26o3O        3:>>82>#<$:=O           %..&@ooo",
"+O           O:+$<99;1@;        O,-&#>>2<5,+O           %..&@ooo",
"+O           O3:$<>909&,+O    OO416-%#>2<O-;O           %..&@ooo",
"+O            4:5<22#9#=4     ;,:7$%2#>&<3-             %..&@ooo",
"+O             :7<2&##-1;    O31809###>8<=@O            %..&@ooo",
"+O            O+;<2#>,66=O    O5:.0####%5-;O            %..&@ooo",
"+O             ;+$2>><O:@+4   4:1o5>##2<3,              %..&@ooo",
"+O             4@5&##>90073O  4o66-8##8<=+O             %..&@ooo",
"+O              :;8####>>35   31-<####%7-4              %..&@ooo",
"+O             O;+<#####+o5OO;o50>#>#2<:,O              %..&@ooo",
"+O               :52##%@6185O51@>09>#85-3O              %..&@ooo",
"+O              O+38#2<73:,, ,6o1%09#<3-                %..&@ooo",
"+O               4@<##>900$@O3oo6+092$=:O               %..&@ooo",
"+O                :;2###>>3OO4167>>#87-4                %..&@ooo",
"+O               O;,<####3o@-667###2<:@O                %..&@ooo",
"+O                 ,32##$666,:,172#85,4                 %..&@ooo",
"+O                O;-<#25o1&8<.8-72<::                  %..&@ooo",
"+O                  @:8#51&7:;:$8157-4                  %..&@ooo",
"+O                  4-72@:5+2#8:%@,,+O                  %..&@ooo",
"+O                  O+-<-@:%###$7,6=                    %..&@ooo",
"+O                    @=11@%>#>$31o4O                   %..&@ooo",
"+O                    4,o6@:&>%::o3O                    %..&@ooo",
"+O                    O;16o@,@@:1,                      %..&@ooo",
"+O                     O4,6o---o,4                      %..&@ooo",
"+OOO                      4:-1-+                        %...@ooo",
"@;;;5$$$$$$$$$$$$$$$$$$$$$$$$$$$$$$$$$$$$$$$$$$$$$$$$$$$****,ooo",
"-===*..................................................&;===1ooo",
"-===*...................................................;===1ooo",
"-===*...................................................;===1ooo",
"-,,,4***************************************************+,,,1ooo",
"XXXXXXXXXXXXXXXXXXXXXXXXXXXXXXXXXXXXXXXXXXXXXXXXXXXXXXXXXXXXXXXX",
"XXXXXXXXXXXXXXXXXXXXXXXXXXXXXXXXXXXXXXXXXXXXXXXXXXXXXXXXXXXXXXXX"
};
