/* XPM */
static char *_d2088f80f8743aa8c485b2cca7ff7c4r3MmL4P4anS7Prxt[] = {
/* columns rows colors chars-per-pixel */
"64 64 171 2 ",
"   c #010102",
".  c #000807",
"X  c #06070B",
"o  c #08110C",
"O  c #0A1010",
"+  c #0F1918",
"@  c #121A18",
"#  c #19221F",
"$  c #1C2222",
"%  c #1E2925",
"&  c #212627",
"*  c #232C2B",
"=  c #282C2D",
"-  c #2C3334",
";  c #2D3737",
":  c #35353F",
">  c #363A3C",
",  c #3A3E3F",
"<  c #38433F",
"1  c #353C42",
"2  c #3D3D45",
"3  c #3E3E48",
"4  c #403F45",
"5  c #364441",
"6  c #3C4445",
"7  c #3F4B47",
"8  c #3F4749",
"9  c #3B494C",
"0  c #404146",
"q  c #42454B",
"w  c #434A4B",
"e  c #494F4F",
"r  c #47534F",
"t  c #474751",
"y  c #464C53",
"u  c #4A4C53",
"i  c #4D4E5C",
"p  c #465351",
"a  c #4B5354",
"s  c #4F5956",
"d  c #4E535B",
"f  c #4E5B5C",
"g  c #525556",
"h  c #515A57",
"j  c #52545C",
"k  c #535A5B",
"l  c #595F5E",
"z  c #53615E",
"x  c #4F5062",
"c  c #525561",
"v  c #565B64",
"b  c #5C5D65",
"n  c #555F68",
"m  c #5B5D6A",
"M  c #566362",
"N  c #5C6564",
"B  c #5D6966",
"V  c #5C636B",
"C  c #5E6A68",
"Z  c #5F6170",
"A  c #5E6872",
"S  c #636467",
"D  c #636B67",
"F  c #62646E",
"G  c #636C6C",
"H  c #6A6E6F",
"J  c #66706F",
"K  c #636472",
"L  c #636B74",
"P  c #676E78",
"I  c #696E72",
"U  c #667372",
"Y  c #6A7473",
"T  c #657179",
"R  c #6C747C",
"E  c #6E7A7D",
"W  c #717777",
"Q  c #727876",
"!  c #71757A",
"~  c #747C7D",
"^  c #72817D",
"/  c #78817C",
"(  c #6D7680",
")  c #6F7B85",
"_  c #707781",
"`  c #737D86",
"'  c #7A7E83",
"]  c #757F88",
"[  c #7A7F88",
"{  c #778087",
"}  c #7C8485",
"|  c #778A86",
" . c #7A8986",
".. c #768089",
"X. c #7A838C",
"o. c #7E8C8B",
"O. c #7D908C",
"+. c #778391",
"@. c #7C8790",
"#. c #7E8891",
"$. c #828886",
"%. c #82878E",
"&. c #81868A",
"*. c #838A8C",
"=. c #8A8B8E",
"-. c #82928E",
";. c #808791",
":. c #858C92",
">. c #8B8E92",
",. c #859593",
"<. c #8C9295",
"1. c #8B9996",
"2. c #8D9398",
"3. c #8C9C99",
"4. c #869D95",
"5. c #90949B",
"6. c #949D9D",
"7. c #8CA09C",
"8. c #95A69E",
"9. c #979CA2",
"0. c #979CA2",
"q. c #9A9EA1",
"w. c #94A6A2",
"e. c #9BA3A4",
"r. c #96ABA5",
"t. c #9AABA7",
"y. c #9BACAA",
"u. c #9CB2AD",
"i. c #A2A6A7",
"p. c #A1A5A7",
"a. c #A4A6AA",
"s. c #A5AAAD",
"d. c #A8ACAF",
"f. c #A8ACAF",
"g. c #A2B3AE",
"h. c #A7ACB0",
"j. c #AAADB1",
"k. c #A3B6B2",
"l. c #ACB0B3",
"z. c #ACB1B4",
"x. c #A5BAB5",
"c. c #AABAB7",
"v. c #AEB1B8",
"b. c #A6BBB9",
"n. c #AABCB9",
"m. c #B0B1B3",
"M. c #B1B4B9",
"N. c #B2BDBA",
"B. c #B8BCBD",
"V. c #AEC2BE",
"C. c #B2C2BE",
"Z. c #B5BFC0",
"A. c #AEC3C1",
"S. c #B5C5C3",
"D. c #BAC4C4",
"F. c #B5C9C5",
"G. c #BACAC7",
"H. c #BDCCCA",
"J. c #C4CCCB",
"K. c #C5D4D1",
"L. c #CCD6D4",
"P. c #CFDFDC",
"I. c #CAD9D6",
"U. c #D1D7D7",
"Y. c #D7E3DF",
"T. c #D6E2E0",
"R. c #DBE5E4",
"E. c #E3EFED",
"W. c #EBF1F1",
"Q. c #F2FFFF",
"!. c #F8FFFC",
/* pixels */
"                                                                                                                                ",
"          .                                                                                                                     ",
"j m v m R [ ] ..{ { { { { { { { { { { { { { { { { { { { { { { { { { { { { { { { { { { { { { { { { { ] ] ] { { { K m F m u 2 2 2 ",
"i m v v ( X.....................................................................................X...........X.X.K v m m y 2 2 2 ",
"i F v m ( ] ] ] ] ] ] ] ] ] ] ] ] ] ] ] ] ] ] ] ] ] ] ] ] ] ] ] ] ] ] ] ] ] ] ] ] ] ] ] ] ] ] ] ..] ] ] ] ......L c c m q 1 3 2 ",
"d L F F _ ......{ { { { { { { { { { { { { { { { { { { { ..{ ....{ { { { { { { { { { { { { { { { { { { ..........W ! ! ' u > 0 2 ",
"P ;...] X.....] ................................................................................] ] ........] ] e.j.h.M.S > 4 2 ",
"A X...] X.` ....................................................................................] ..........] ] 6.j.e.z.v > 0 2 ",
"L X.] ............................................................................................] ....] ....] 9.d.p.l.b > 3 2 ",
"L X.] ............................................................................................] ....] ....] 9.d.p.l.b > 3 2 ",
"L X.] ............................................................................................] ....] ....] 9.d.p.l.b > 3 2 ",
"L X.] ............................................................................................] ....] ....] 9.d.p.l.b > 3 2 ",
"L X.] ............................................................................................] ....] ....] 9.d.p.l.b > 3 2 ",
"L X.] ............................................................................................] ....] ....] 9.d.p.l.b > 3 2 ",
"L X.] ............................................................................................] ....] ....] 9.d.p.l.b > 3 2 ",
"L X.] ............................................................................................] ....] ....] 9.d.p.l.b > 3 2 ",
"L X.] ............................................................................................] ....] ....] 9.f.a.j.b > 3 2 ",
"L X.] ............................................................................................] ....] ....] 9.h.a.j.b > 3 2 ",
"L X.] ............................................................................................] ....] ....] 9.f.p.l.b > 3 2 ",
"L X.] ............................................................................................] ....] ....] 9.d.p.l.b > 3 2 ",
"L X.] ............................................................................................] ....] ....] 9.d.p.l.b > 3 2 ",
"L X.] ............................................................................................] ....] ....] 9.d.p.l.b > 3 2 ",
"L X.] ............................................................................................] ....] ....] 9.d.p.l.b > 3 2 ",
"L X.] ............................................................................................] ....] ....] 9.d.p.l.b > 3 2 ",
"L X.] ............................................................................................] ....] ....] 9.d.p.l.b > 3 2 ",
"L X.] ............................................................................................] ....] ....] 9.d.p.l.b > 3 2 ",
"L X.] ............................................................................................] ....] ....] 9.d.p.l.b > 3 2 ",
"L X.] ............................................................................................] ....] ....] 9.d.p.l.b > 3 2 ",
"L X.] ............................................................................................] ....] ....] 9.d.p.l.b > 3 2 ",
"L X.] ............................................................................................] ....] ....] 0.h.p.l.b > 3 2 ",
"L X.] ............................................................................................] ....] ....] 0.h.p.l.b > 3 2 ",
"L X.] ............................................................................................] ....] ....] 0.f.p.l.b > 3 2 ",
"L X.] ............................................................................................] ....] ....] 9.d.p.l.b > 3 2 ",
"L X.] ............................................................................................] ....] ....] 9.d.p.l.b > 3 2 ",
"L X.] ............................................................................................] ....] ....] 9.d.p.l.b > 3 2 ",
"L X.] ............................................................................................] ....] ....] 9.d.p.l.b > 3 2 ",
"L X.] ............................................................................................] ....] ....] 9.d.p.l.b > 3 2 ",
"L X.] ............................................................................................] ....] ....] 9.d.p.l.b > 3 2 ",
"L X.] ............................................................................................] ....] ....] 9.d.p.l.b > 3 2 ",
"L X.] ............................................................................................] ....] ....] 9.d.p.l.b > 3 2 ",
"A X...{ ` X._ ....` ..] X.] ....] ........] ....] ......] ............................] ] ....` ] ......] ] ....9.f.a.j.b > 3 2 ",
"P X._ ` X.` X.X.` ..X.] ] ] ....] ..............` X.{ ` { ..` ....................` ] X.......X.` ........X...` 9.h.a.j.b > 3 2 ",
"V X.X...` ] ` ` ..] ] ....] ] ..] ..............X.] ` X...{ ` ..................` @.` ` ..X.` ] ..X...] ..X...` 9.f.p.l.b > 3 2 ",
"P ] ..` ] #.X.X...] ..] ..] ....] ..............` ....` { ....` ................X.] ..X.] ............] ] ......9.d.p.l.b > 3 2 ",
"L ..] ..@.( ..` ` ..X.` ..] X.` ................] X...( X.` ] X...................] ] ` ] ...._ ] ] ] ......] ] 9.d.p.l.b > 3 2 ",
"L :.` ..` X.{ } X.` ] ] X.....] ................+.` X.X.%.X.X.` ....................X.X.{ _ ..:.X...] ] ......] 9.d.p.l.b > 3 2 ",
"A X.] X.....k s X...` ......] X...............] ..X.X.I k N ' %...................{ E ] ] %.F 6 ` ....] ] ....] 9.d.p.l.b > 3 2 ",
"P X.] ] X.v G $.T :.#...A ....X.............] ] X.G 1 l $.Q 6 s X.X.X.X.X.X.X.X.X.] 1 v :.Y u f.n R X...] ....` 9.d.p.l.b > 3 2 ",
"L X.....X.w Z.K.N G l N k W Y ~ a F %.[ [ ( ] X.Y = 1.t.Y <.B.G w &.{ a D - k 7 g S q.<.6 = o.E.k.M Y &.....] ..9.d.p.l.b > 3 2 ",
"P @.X.] E v N.L.~ . e D.J.; $ 2 D.z.- W k ; R :., p.6.f ,.U U J.6 d N $ & ' Y % , , U.R.; 6 I.t.S.y.w V X.` ] ] 9.d.p.l.b > 3 2 ",
"L ` ) @._ s 6.C.D.Y R.L.J.k & D.Y.J.s # ~ J.G a ; e.p k.S.D.M Y H O $ k - B.W.} + a L.c.w.E S.3.k.C.1.k X.] X._ 9.d.p.l.b > 3 2 ",
"L :.....~ 5 ^ 8.G.Q.G.t.D.E Y R.t.C.Y % L.!./ o * G Y S.y.C.1.N s D B % & J.H.S.M ^ H.k.k.7.V.n.u.F.s.w E X.] ..9.d.p.l.b > 3 2 ",
"L X.] ..o.w G -.3.k.b.y.g.S.V.x.k.F.U o.L.z.N.< @ Y s k.H.H.U G ; o.K.3.{ T.S.A.x.n.k.k.b.F.n.V.A.k.*.y E X.` ] 9.d.p.l.b > 3 2 ",
"P ......] a s -.O.O.w.t.g.V.b.k.b.k.y.n.k.c.c.| p - C M } D G k 5 k.k.G.P.K.x.x.n.x.x.b.n.x.n.y.7.| *.6 R X.X.] 0.h.p.l.b > 3 2 ",
"P ......#.] k s Y }  .-.3.w.y.n.x.k.b.b.k.b.u.b.g.w * a k l 6 * -.k.u.k.g.c.u.y.y.y.r.y.t.3.3.,.O.1.~ 6 _ ....] 0.f.p.l.b > 3 2 ",
"L X.....` ....~ N N N N Y Y  .,.4.r.r.u.k.k.x.u.g.g.~ > & @ $ D o.,.,.1.,.,.o.,.-.| -. .^ ~ Y B z r w a ..] X.] 9.d.p.l.b > 3 2 ",
"T X.......` ` ..X.X.` R L V v k z B J Y Y Y J C k h a 8 y l v y w e a g k k d a q w w q q 6 6 2 9 f R ..` ` ] ) q.z.j.M.b > 2 4 ",
"V _ _ R X.:.:.<.:.:.:.:.:.:.:.*.} } ~ Y J J J G Y W ' } :.2.2.%.} } } ~ ~ ~ ~ ~ ~ ' } &.*.:.>.>.1.<.:.:.:.:.>.:.5.>.>.2.k 2 2 2 ",
"i m v v 5.j.f.a.f.f.f.h.d.d.d.d.j.l.z.l.l.z.z.j.z.z.j.h.f.f.f.f.j.j.j.j.j.l.l.l.l.l.l.j.j.h.f.f.d.d.f.f.f.f.f.d.R d v v q 2 2 2 ",
"i m m j >.j.a.a.a.a.a.a.a.a.a.a.s.f.s.a.a.a.a.p.a.a.a.s.a.a.f.f.p.a.a.a.f.a.a.p.p.a.a.a.a.a.a.s.p.s.s.a.a.a.a.m.` c m m t 3 2 2 ",
"x Z K m 5.j.j.j.d.j.j.j.j.j.j.j.h.j.h.f.h.j.z.z.h.j.j.j.j.j.d.f.z.l.j.j.j.j.j.j.z.l.j.j.j.j.j.j.z.v.j.j.j.j.d.z.R v m m t 2 2 2 ",
"y j j d ' <.>.>.>.>.>.>.>.>.>.>.>.>.<.<.<.>.=.*.>.>.>.=.=.>.>.=.=.=.=.=.=.=.=.>.=.=.=.>.>.>.>.>.:.:.:.>.<.<.>.>.F v j j q 2 2 2 ",
"  X                                                                                                                             ",
"                                                                                                                                "
};
