/* XPM */
static char *cc284f97b73f449880e7ccc492113010bOyGQwktpVFAinmj[] = {
/* columns rows colors chars-per-pixel */
"64 64 30 1 ",
"  c #768089",
". c black",
"X c #A5A9AC",
"o c #3C3D44",
"O c #A6AAAD",
"+ c #898F94",
"@ c #646D72",
"# c #A6B8B5",
"$ c #5D6165",
"% c #939C9E",
"& c #393B41",
"* c #43494A",
"= c #AFBEBB",
"- c #51585A",
"; c #595C67",
": c #6D757A",
"> c #5F6769",
", c #4B5254",
"< c #707A7D",
"1 c #7D8A88",
"2 c #869592",
"3 c #98A9A5",
"4 c #A0B1AD",
"5 c #747D85",
"6 c #29302E",
"7 c #B9C6C4",
"8 c #C4D1CE",
"9 c #76817F",
"0 c #D6E0DE",
"q c #1D2321",
/* pixels */
"................................................................",
"................................................................",
",;;;:                                                   @;;;*ooo",
",;;;:                                                   >;;;*ooo",
",;;;:                                                   >;;;*ooo",
";@@@<                                                   5:::,ooo",
"@  5                                                    %XXX$&oo",
"@                                                       %OXX$&oo",
"@                                                       %OXX$&oo",
"@                                                       %OXX$&oo",
"@                                                       %OXX$&oo",
"@                                                       %OXX$&oo",
"@                                                       %OXX$&oo",
"@                                                       %OXX$&oo",
"@                                                       %OXX$&oo",
"@                                                       %OXX$&oo",
"@                                                       %OXX$&oo",
"@                                                       %OXX$&oo",
"@                                                       %OXX$&oo",
"@                                                       %OXX$&oo",
"@                                                       %OXX$&oo",
"@                                                       %OXX$&oo",
"@                                                       %OXX$&oo",
"@                                                       %OXX$&oo",
"@                                                       %OXX$&oo",
"@                                                       %OXX$&oo",
"@                                                       %OXX$&oo",
"@                                                       %OXX$&oo",
"@          :$,@                                         %OXX$&oo",
"@        5;->->                                         %OXX$&oo",
"@       <,<=3><                            55<<5        %OXX$&oo",
"@      5,@=74@                          @-$>>$*->5      %OXX$&oo",
"@      ;*2#7%>                          ;$==#4%%>,:     %OXX$&oo",
"@     :*:2#8@6o:                        @>07====4$*:    %OXX$&oo",
"@     ;-1248>&6->>5                     <*4734#=41-*<   %OXX$&oo",
"@     ->1+4087=#1,5                  ::5>q@=34#=3+1,-   %OXX$&oo",
"@     @-11%788801$                  <**-,q&%====%11>,   %OXX$&oo",
"@     5-<12443#=*6,5                5->X=312#==4219*@   %OXX$&oo",
"@      @-12343=26q6$@5               :$88==#==#%21--    %OXX$&oo",
"@       $@1%##7@*$@9>@             :**&%8###==32+$*<    %OXX$&oo",
"@       <$924#7=7800%:             :6&6*==##=#22@*:     %OXX$&oo",
"@        @>1%###=#=89*:          @**&o**%=###%2<*@      %OXX$&oo",
"@         >@24######,6: 5        @&2=##44###329*>       %OXX$&oo",
"@         <$9%#####966,*-5      >o6+07==###321,;        %OXX$&oo",
"@          :$13###2,-:%<-       -6oo=0==##321--5        %OXX$&oo",
"@           @>24##3#800%@   55  @6*6$08=#321--5         %OXX$&oo",
"@           5$@%###===8:$:>***o**6&,988=421-,5          %OXX$&oo",
"@            <;:3######*66*9O42*q>3=77=421$,<           %OXX$&oo",
"@             :-<3####26q*4%::%7@,4##=#%1$-<            %OXX$&oo",
"@              :,<3###9*631-91$<=,<##4%1$-<             %OXX$&oo",
"@               @,<3##3>-%-%##3>%9-43%1$,<              %OXX$&oo",
"@                @,:3##,,::####1::*%21$-<               %OXX$&oo",
"@                 :,>%4-o><=##=2@-o1<,>5                %OXX$&oo",
"@                  :,$2@6>-377#>@o*>,>                  %OXX$&oo",
"@                   <-,>6*>-:<$>-q&-:                   %OXX$&oo",
"@                    5>*&q*>$$>-6o>5                    %OXX$&oo",
"@                      :,6q6oo&&$5                      %OOO$&oo",
"$:::1++++++++++++++++++++ <@>@<1++++++++++++++++++++++++++++-ooo",
",;;;+OXXXXXXXXXXXXXXXXXXXXOOOOOXXXXXXXXXXXXXXXXXXXXXXXXX:;;;*ooo",
",;;;+OXXXXXXXXXXXXXXXXXXXXXXXXXXXXXXXXXXXXXXXXXXXXXXXXXO:;;;*ooo",
",;;;+OOOOOOOOOOOOOOOOOOOOOOOOOOOOOOOOOOOOOOOOOOOOOOOOOOO:;;;*ooo",
"*---5+++++++++++++++++++++++++++++++++++++++++++++++++++>---*ooo",
"................................................................",
"................................................................"
};
