/* XPM */
static char *rcp12361426591733[] = {
/* columns rows colors chars-per-pixel */
"64 64 29 1 ",
"  c #768089",
". c #A5A9AC",
"X c black",
"o c #3B3C43",
"O c #898F94",
"+ c #5E6366",
"@ c #636B71",
"# c #A6B9B5",
"$ c #959BA0",
"% c #4F5759",
"& c #6D767A",
"* c #5A5C69",
"= c #ACBEBB",
"- c #A2B2AF",
"; c #555E5E",
": c #889693",
"> c #667171",
", c #484D52",
"< c #B8C6C3",
"1 c #99ABA7",
"2 c #808F8C",
"3 c #92A29E",
"4 c #717E7B",
"5 c #232A28",
"6 c #3D4544",
"7 c #7D8888",
"8 c #727A82",
"9 c #D3DFDD",
"0 c #C4D0CE",
/* pixels */
"XXXXXXXXXXXXXXXXXXXXXXXXXXXXXXXXXXXXXXXXXXXXXXXXXXXXXXXXXXXXXXXX",
"XXXXXXXXXXXXXXXXXXXXXXXXXXXXXXXXXXXXXXXXXXXXXXXXXXXXXXXXXXXXXXXX",
",***&                                                   @***,ooo",
",***&                                                   @***,ooo",
",***&                                                   @***6ooo",
"*@@@8                                                   8&&&,ooo",
"@                                                       $...+ooo",
"@                                                       $...+ooo",
"@                                                       $...+ooo",
"@                                                       $...+ooo",
"@                                                       $...+ooo",
"@                                                       $...+ooo",
"@                                                       $...+ooo",
"@                                                       $...+ooo",
"@                                                       $...+ooo",
"@                                                       $...+ooo",
"@                                                       $...+ooo",
"@                                                       $...+ooo",
"@                                                       $...+ooo",
"@                                                       $...+ooo",
"@                          8&&8                         $...+ooo",
"@                       &+,,;+;%+>>&8                   $...+ooo",
"@                     8;6,+2#<0-%5o66@                  $...+ooo",
"@                     +,47:-#<9-;%44;68                 $...+ooo",
"@                     %>223#<< @:32246&                 $...+ooo",
"@                    8%422-0-+&1=-2276>                 $...+ooo",
"@                    8%72300%+-#==327,@                 $...+ooo",
"@                    &;221<9.%>-==122%;                 $...+ooo",
"@                    &@2:-#<9#+ #=-:2%;                 $...+ooo",
"@                    >>23-11=9<%&=#::;%                 $...+ooo",
"@                    @&21#1-<0$,@#=3:+%                 $...+ooo",
"@                    +&:-#=<1&+2-==3:@%                 $...+ooo",
"@                    +&:-=<467-####1:@%                 $...+ooo",
"@                    +&3##<#&%4-###1:>%                 $...+ooo",
"@                    +43###<9.;+1##1:>%                 $...+ooo",
"@                    +41####=90&+-#1:>%                 $...+ooo",
"@                    +41#####<92@-#12>%                 $...+ooo",
"@                    +41#####-74-##12>%                 $...+ooo",
"@                    +41##37>4$#==#1:>%                 $...+ooo",
"@                    ;41##3+o <<<==-:>%                 $...+ooo",
"@                    ;&1##=0.@;:09=-:>%                 $...+ooo",
"@                    ;@1###=993o&9<-:@%                 $...+ooo",
"@                    ++3####<9:570=-:@%                 $...+ooo",
"@                    >;3###==>5%===-:@;                 $...+ooo",
"@                    &%:##-:>o5:=##1:+;                 $...+ooo",
"@                    &,2##:%o55+43#1:;+                 $...+ooo",
"@                     ,4-#3;5o;;664$2%>                 $...+ooo",
"@                     %@--;oO=--=7o; ,&                 $...+ooo",
"@                     @%34o3.+%%@#$o;,8                 $...+ooo",
"@                     &,76>-%433&+=@5,                  $...+ooo",
"@                      ,;52@>-##-@725+                  $...+ooo",
"@                      ;65>;:####2>&58                  $...+ooo",
"@                      >o5;%:<##<7@;6                   $...+ooo",
"@                       ,56+;-<<1;>6;                   $...+ooo",
"@                       865;+%>>%@%o&                   $...+ooo",
"@                        8%5%@++@,o+                    $...+ooo",
"@                          ;o5oooo+                     $...+ooo",
"+&&&7OOOOOOOOOOOOOOOOOOOOOOO7>++&7OOOOOOOOOOOOOOOOOOOOOOOOOO%ooo",
",***O...................................................&***,ooo",
",***O...................................................&***,ooo",
"%***O...................................................8***,ooo",
",%%%8OOOOOOOOOOOOOOOOOOOOOOOOOOOOOOOOOOOOOOOOOOOOOOOOOOO@%%%6ooo",
"XXXXXXXXXXXXXXXXXXXXXXXXXXXXXXXXXXXXXXXXXXXXXXXXXXXXXXXXXXXXXXXX",
"XXXXXXXXXXXXXXXXXXXXXXXXXXXXXXXXXXXXXXXXXXXXXXXXXXXXXXXXXXXXXXXX"
};
