/* XPM */
static char *rcp12350481223360[] = {
/* columns rows colors chars-per-pixel */
"64 64 30 1 ",
"  c #768089",
". c black",
"X c #A5A9AC",
"o c #3E3E47",
"O c #A6AAAD",
"+ c #8A8F94",
"@ c #77818A",
"# c #636B71",
"$ c #5E6268",
"% c #585D64",
"& c #3A3C43",
"* c #A7BAB6",
"= c #949B9F",
"- c #A4A8AB",
"; c #4F5558",
": c #6E767B",
"> c #677072",
", c #A1B2AE",
"< c #B4C3C0",
"1 c #727B82",
"2 c #818E8D",
"3 c #96A6A3",
"4 c #879693",
"5 c #474C51",
"6 c #7B8786",
"7 c #CBD5D3",
"8 c #242B29",
"9 c #404746",
"0 c #768280",
"q c #A4A8AC",
/* pixels */
"................................................................",
"................................................................",
";%%%:@                                                  #%%%5ooo",
";%%%:@                                                  #%%%5ooo",
";%%%:@                                                  #%%%5ooo",
"%###1                                                   1:::;ooo",
"#@                                                      =XX-$&oo",
"#@                                                      =OXq$&oo",
"#@                                                      =OX-$&oo",
"#@                                                      =OX-$&oo",
"#@                                                      =OX-$&oo",
"#@                                                      =OX-$&oo",
"#@                                                      =OX-$&oo",
"#@                                                      =OX-$&oo",
"#@                                                      =OX-$&oo",
"#@                                                      =OXq$&oo",
"#@                                                      =OX-$&oo",
"#@                                                      =OX-$&oo",
"#@                                                      =OX-$&oo",
"#@                                                      =OX-$&oo",
"#@                                                      =OX-$&oo",
"#@                                                      =OX-$&oo",
"#@                                                      =OX-$&oo",
"#@                                                      =OXq$&oo",
"#@                                                      =OX-$&oo",
"#@                                                      =OX-$&oo",
"#@                                                      =OX-$&oo",
"#@                                                      =OX-$&oo",
"#@                                                      =OX-$&oo",
"#@                                                      =OX-$&oo",
"#@                                                      =OXq$&oo",
"#@                                                      =OX-$&oo",
"#@                                                      =OX-$&oo",
"#@                                                      =OX-$&oo",
"#@                                                      =OX-$&oo",
"#@                                                      =OX-$&oo",
"#@                                                      =OX-$&oo",
"#@       @                                              =OX-$&oo",
"#@      @>%:                                  @         =OX-$&oo",
"#@      #$>#@                                 >: @@     =OX-$&oo",
"#@    @:%<,>@                               @:5%#>1@    =OX-$&oo",
"#@     %47O>   1                           @@:>,-6%%1@  =OX-$&oo",
"#@    :;3<,9&%$;1@                      @>5#1;:7<<30%1  =OX-$&oo",
"#@   @#;4**5;+,#:1@@                    @#;>;8#<3*<*#%  =OX-$&oo",
"#@   @$$237<777$&5#$1@               @@:$$17X;$,,***69:@=OX-$&oo",
"#@   @%#24*7*,<%8o64>  @           @@$%;8&>7<,4,<<*32;$@=OX-$&oo",
"#@    >%024,,,*$>*7<;; :1   @   @ @:#9%;&8;<****<*322#;@=OX-$&oo",
"#@     $%02=,,<*<<**;&%9#@ :$;;;#1@%8&,730>****<*3220;%@=OX-$&oo",
"#@      >$:24,*****39&24#@>9#=3+%9$5&&=7<<,****,=46#5%1@=OX-$&oo",
"#@      @:$>64,****2$,7<$;o03:>6,%8&&8:7<***,,342:;;>   =OX-$&oo",
"#@         >$:43***3*<**58;=$2=1:-96=2-7<**,342:;;> @   =OX-$&oo",
"#@          1#>6=,*****,;8#>2**,:+;6*<<<*,346:%;#1@     =OX-$&oo",
"#@           1:#>23,***,09;$3***2:90***,=46#;%>1@       =OX-$&oo",
"#@             1#%>23,**,#&%6<<*>#&4,3=20#;;> @         =OX-$&oo",
"#@               1#%$0=,*4&;%>0##55446:%;$: @           =OX-$&oo",
"#@                 1#%%#04$8;%%%98%>$%$>1 @             =OX-$&oo",
"#@@@                  :$;;%&88&&&9;$>1                  =OOO$&oo",
"$:::6+++++++++++++++++2+261>$$:6222+++++++++++++++++++++++++%ooo",
";%%%+OXXXXXXXXXXXXXXXXXXXXO--XOXqqqXXXXXXXXXXXXXXXXXXXX-:%%%5ooo",
";%%%+OXXXXXXXXXXXXXXXXXXXXXXXXXXXXXXXXXXXXXXXXXXXXXXXXXX:%%%5ooo",
";%%%+OOOOOOOOOOOOOOOOOOOOOOOOOOOOOOOOOOOOOOOOOOOOOOOOOOO:%%%5ooo",
"5;;;1+++++++++++++++++++++++++++++++++++++++++++++++++++#;;;9ooo",
"................................................................",
"................................................................"
};
